<?xml version="1.0" encoding="utf-8"?>
<!-- Generator: Adobe Illustrator 16.0.0, SVG Export Plug-In . SVG Version: 6.00 Build 0)  -->
<!DOCTYPE svg PUBLIC "-//W3C//DTD SVG 1.1//EN" "http://www.w3.org/Graphics/SVG/1.1/DTD/svg11.dtd">
<svg version="1.1" id="Layer_1" xmlns="http://www.w3.org/2000/svg" xmlns:xlink="http://www.w3.org/1999/xlink" x="0px" y="0px"
	 width="350px" height="342.27px" viewBox="0 0 350 342.27" enable-background="new 0 0 350 342.27" xml:space="preserve">
<g enable-background="new    ">
	<path fill="#804D10" d="M279.009,189.041c0.053-0.273,0.104-0.547,0.155-0.823c0.094-0.505,0.181-1.012,0.267-1.521
		c0.04-0.237,0.081-0.473,0.12-0.711c0.115-0.709,0.223-1.421,0.323-2.136c0.005-0.034,0.01-0.066,0.017-0.1
		c0.104-0.755,0.2-1.514,0.289-2.275c0.024-0.211,0.046-0.424,0.069-0.636c0.061-0.547,0.119-1.096,0.171-1.646
		c0.025-0.263,0.05-0.525,0.072-0.787c0.045-0.514,0.086-1.027,0.124-1.542c0.019-0.266,0.039-0.531,0.055-0.796
		c0.013-0.186,0.027-0.37,0.039-0.556c0.019-0.311,0.031-0.622,0.047-0.933c0.016-0.311,0.032-0.622,0.045-0.934
		c0.021-0.497,0.036-0.996,0.05-1.495c0.01-0.298,0.021-0.598,0.026-0.897c0.011-0.549,0.014-1.101,0.018-1.651
		c0-0.249,0.005-0.498,0.005-0.747c-0.004-0.802-0.013-1.605-0.035-2.411c-0.024-1.083-0.076-2.158-0.136-3.23
		c-0.015-0.263-0.031-0.526-0.046-0.788c-0.067-1.065-0.146-2.126-0.245-3.18c-0.001-0.011-0.001-0.021-0.003-0.032
		c-0.036-0.386-0.081-0.771-0.12-1.155c-0.04-0.378-0.076-0.758-0.12-1.135c-0.05-0.423-0.106-0.842-0.162-1.263
		c-0.043-0.349-0.084-0.699-0.134-1.046c-0.068-0.502-0.148-1-0.226-1.499c-0.041-0.264-0.076-0.529-0.12-0.792
		c-0.123-0.761-0.255-1.518-0.395-2.272c-0.012-0.063-0.024-0.124-0.037-0.187c-0.13-0.692-0.264-1.382-0.407-2.068
		c-0.036-0.174-0.076-0.346-0.114-0.519c-0.123-0.573-0.247-1.145-0.379-1.712c-0.054-0.233-0.113-0.464-0.171-0.697
		c-0.12-0.504-0.24-1.009-0.368-1.51c-0.071-0.273-0.146-0.544-0.219-0.816c-0.116-0.438-0.229-0.878-0.353-1.313
		c-0.005-0.02-0.01-0.04-0.017-0.059c-0.028-0.101-0.059-0.199-0.086-0.299c-0.163-0.574-0.331-1.145-0.503-1.713
		c-0.067-0.221-0.136-0.439-0.205-0.659c-0.14-0.452-0.281-0.901-0.429-1.349c-0.078-0.24-0.158-0.48-0.239-0.719
		c-0.146-0.436-0.294-0.87-0.445-1.302c-0.081-0.229-0.161-0.458-0.242-0.686c-0.175-0.49-0.355-0.975-0.539-1.46
		c-0.06-0.162-0.118-0.323-0.179-0.484c-0.247-0.643-0.5-1.282-0.759-1.917c-0.056-0.139-0.115-0.275-0.172-0.413
		c-0.205-0.498-0.413-0.992-0.625-1.485c-0.094-0.215-0.188-0.43-0.284-0.645c-0.183-0.417-0.368-0.833-0.559-1.245
		c-0.103-0.227-0.208-0.454-0.313-0.681c-0.191-0.41-0.387-0.817-0.582-1.224c-0.104-0.212-0.204-0.424-0.309-0.635
		c-0.234-0.477-0.475-0.949-0.715-1.421c-0.067-0.131-0.134-0.263-0.2-0.394c-0.313-0.6-0.631-1.195-0.954-1.786
		c-0.082-0.152-0.168-0.302-0.25-0.453c-0.244-0.44-0.489-0.878-0.739-1.313c-0.119-0.206-0.24-0.412-0.359-0.617
		c-0.223-0.381-0.448-0.76-0.675-1.138c-0.128-0.212-0.259-0.425-0.388-0.637c-0.233-0.382-0.472-0.76-0.711-1.138
		c-0.12-0.192-0.241-0.385-0.364-0.576c-0.299-0.465-0.602-0.927-0.909-1.385c-0.064-0.096-0.126-0.193-0.191-0.289
		c-0.371-0.551-0.749-1.097-1.131-1.639c-0.108-0.156-0.222-0.311-0.333-0.466c-0.277-0.387-0.554-0.772-0.838-1.155
		c-0.141-0.193-0.285-0.385-0.429-0.577c-0.261-0.347-0.522-0.692-0.786-1.034c-0.148-0.193-0.297-0.385-0.448-0.577
		c-0.276-0.353-0.557-0.702-0.837-1.051c-0.138-0.169-0.272-0.339-0.41-0.508c-0.382-0.466-0.769-0.928-1.157-1.385
		c-0.038-0.043-0.073-0.087-0.11-0.13c-0.427-0.5-0.86-0.995-1.299-1.484c-0.135-0.15-0.271-0.299-0.405-0.449
		c-0.309-0.339-0.618-0.677-0.929-1.011c-0.164-0.176-0.329-0.349-0.495-0.524c-0.294-0.311-0.59-0.619-0.889-0.924
		c-0.166-0.172-0.334-0.343-0.502-0.513c-0.319-0.322-0.642-0.641-0.965-0.958c-0.147-0.143-0.292-0.288-0.438-0.43
		c-0.469-0.453-0.942-0.903-1.42-1.345c-0.026-0.024-0.052-0.047-0.078-0.071c-0.454-0.419-0.911-0.832-1.373-1.241
		c-0.159-0.141-0.318-0.278-0.478-0.416c-0.336-0.292-0.671-0.583-1.01-0.871c-0.184-0.155-0.368-0.309-0.552-0.462
		c-0.326-0.272-0.653-0.542-0.984-0.809c-0.183-0.148-0.366-0.296-0.552-0.444c-0.361-0.288-0.727-0.572-1.093-0.854
		c-0.149-0.116-0.299-0.233-0.449-0.349c-0.518-0.393-1.036-0.781-1.562-1.161c-0.077-0.056-0.153-0.109-0.23-0.164
		c-0.45-0.325-0.902-0.645-1.358-0.961c-0.179-0.124-0.359-0.246-0.539-0.368c-0.359-0.246-0.722-0.489-1.085-0.729
		c-0.2-0.132-0.401-0.263-0.604-0.394c-0.354-0.23-0.714-0.458-1.072-0.684c-0.197-0.124-0.394-0.248-0.591-0.37
		c-0.404-0.25-0.813-0.495-1.22-0.737c-0.151-0.089-0.299-0.181-0.45-0.268c-0.558-0.327-1.12-0.648-1.686-0.962
		c-0.116-0.065-0.234-0.127-0.352-0.191c-0.451-0.249-0.904-0.493-1.359-0.733c-0.199-0.104-0.398-0.207-0.599-0.31
		c-0.382-0.197-0.764-0.392-1.149-0.583c-0.216-0.107-0.432-0.214-0.649-0.319c-0.383-0.187-0.768-0.369-1.153-0.55
		c-0.207-0.097-0.415-0.196-0.623-0.292c-0.451-0.206-0.903-0.407-1.354-0.604c-0.143-0.063-0.284-0.127-0.428-0.188
		c-0.595-0.255-1.191-0.505-1.792-0.748c-0.151-0.062-0.305-0.119-0.458-0.18c-0.454-0.18-0.907-0.357-1.363-0.529
		c-0.216-0.082-0.435-0.161-0.651-0.24c-0.399-0.147-0.802-0.292-1.205-0.433c-0.23-0.08-0.461-0.16-0.69-0.238
		c-0.409-0.14-0.819-0.274-1.229-0.407c-0.215-0.07-0.431-0.141-0.645-0.208c-0.505-0.158-1.011-0.31-1.518-0.459
		c-0.12-0.035-0.24-0.073-0.361-0.108c-0.628-0.181-1.256-0.354-1.889-0.52c-0.179-0.047-0.358-0.09-0.536-0.136
		c-0.46-0.117-0.919-0.232-1.381-0.342c-0.23-0.055-0.462-0.107-0.693-0.16c-0.418-0.096-0.838-0.188-1.26-0.278
		c-0.238-0.05-0.478-0.101-0.718-0.15c-0.435-0.088-0.872-0.172-1.309-0.253c-0.217-0.041-0.435-0.083-0.651-0.122
		c-0.572-0.102-1.146-0.198-1.721-0.288c-0.08-0.013-0.16-0.027-0.24-0.04c-0.654-0.101-1.313-0.192-1.971-0.277
		c-0.199-0.026-0.401-0.049-0.603-0.073c-0.462-0.057-0.929-0.111-1.394-0.159c-0.244-0.025-0.489-0.049-0.732-0.072
		c-0.434-0.042-0.867-0.08-1.302-0.116c-0.247-0.02-0.495-0.039-0.743-0.057c-0.46-0.033-0.92-0.061-1.38-0.086
		c-0.216-0.012-0.433-0.026-0.65-0.036c-0.67-0.032-1.342-0.058-2.017-0.073c-0.004,0-0.007-0.001-0.01-0.001
		c-0.523-0.012-1.046-0.023-1.57-0.035l-27.263-0.633c0.009,0,0.017,0,0.025,0c-0.008,0-0.016,0-0.025,0
		c0.683,0.016,1.364,0.042,2.042,0.074c0.199,0.009,0.397,0.021,0.596,0.033c0.479,0.026,0.958,0.055,1.438,0.09
		c0.233,0.017,0.467,0.035,0.701,0.054c0.451,0.036,0.901,0.076,1.351,0.119c0.229,0.022,0.46,0.044,0.691,0.068
		c0.485,0.051,0.968,0.107,1.451,0.166c0.183,0.022,0.367,0.043,0.55,0.067c0.666,0.086,1.331,0.179,1.992,0.281
		c0.049,0.007,0.098,0.016,0.147,0.023c0.609,0.095,1.212,0.197,1.816,0.304c0.203,0.037,0.406,0.076,0.611,0.114
		c0.451,0.084,0.902,0.17,1.352,0.262c0.229,0.046,0.459,0.095,0.688,0.144c0.433,0.092,0.862,0.188,1.294,0.286
		c0.221,0.051,0.441,0.101,0.662,0.153c0.477,0.113,0.951,0.231,1.424,0.353c0.166,0.043,0.332,0.083,0.496,0.126
		c0.638,0.167,1.273,0.341,1.904,0.523c0.104,0.03,0.205,0.062,0.308,0.092c0.525,0.154,1.049,0.312,1.57,0.476
		c0.208,0.064,0.414,0.133,0.621,0.2c0.421,0.136,0.84,0.274,1.257,0.416c0.224,0.076,0.447,0.153,0.67,0.231
		c0.41,0.144,0.82,0.292,1.229,0.441c0.211,0.077,0.422,0.154,0.631,0.233c0.468,0.175,0.933,0.357,1.396,0.541
		c0.143,0.057,0.285,0.11,0.428,0.168c0.604,0.244,1.204,0.494,1.802,0.751c0.135,0.058,0.267,0.118,0.399,0.177
		c0.463,0.201,0.924,0.406,1.381,0.616c0.205,0.094,0.408,0.191,0.612,0.286c0.391,0.183,0.78,0.367,1.165,0.556
		c0.215,0.104,0.43,0.209,0.641,0.314c0.39,0.194,0.775,0.391,1.162,0.59c0.195,0.101,0.393,0.201,0.588,0.304
		c0.461,0.243,0.92,0.491,1.377,0.742c0.111,0.062,0.225,0.121,0.334,0.183c0.566,0.314,1.131,0.636,1.689,0.963
		c0.149,0.087,0.297,0.177,0.443,0.265c0.412,0.245,0.821,0.491,1.229,0.742c0.194,0.12,0.389,0.244,0.584,0.365
		c0.36,0.226,0.72,0.456,1.078,0.687c0.2,0.131,0.401,0.261,0.601,0.394c0.366,0.24,0.728,0.485,1.089,0.731
		c0.18,0.121,0.357,0.242,0.535,0.365c0.456,0.316,0.908,0.636,1.358,0.961c0.076,0.056,0.155,0.109,0.232,0.166
		c0.524,0.38,1.044,0.768,1.559,1.16c0.152,0.116,0.304,0.235,0.456,0.353c0.364,0.281,0.728,0.564,1.088,0.851
		c0.186,0.147,0.369,0.296,0.551,0.445c0.33,0.266,0.658,0.535,0.982,0.806c0.188,0.154,0.371,0.31,0.555,0.465
		c0.339,0.287,0.674,0.577,1.01,0.869c0.159,0.139,0.318,0.277,0.477,0.417c0.461,0.407,0.918,0.819,1.369,1.238
		c0.027,0.025,0.057,0.049,0.083,0.075c0.478,0.441,0.949,0.891,1.419,1.344c0.148,0.144,0.295,0.29,0.443,0.435
		c0.322,0.315,0.642,0.632,0.96,0.952c0.168,0.172,0.338,0.344,0.505,0.517c0.297,0.305,0.591,0.611,0.886,0.92
		c0.167,0.176,0.332,0.352,0.497,0.528c0.31,0.333,0.618,0.668,0.923,1.005c0.137,0.152,0.275,0.302,0.412,0.455
		c0.437,0.489,0.87,0.982,1.296,1.481c0.04,0.046,0.078,0.093,0.117,0.139c0.387,0.455,0.77,0.913,1.149,1.375
		c0.14,0.171,0.277,0.345,0.417,0.517c0.278,0.345,0.556,0.692,0.83,1.042c0.151,0.194,0.302,0.389,0.452,0.584
		c0.264,0.341,0.523,0.684,0.782,1.029c0.145,0.193,0.29,0.385,0.433,0.579c0.28,0.381,0.558,0.765,0.833,1.15
		c0.112,0.157,0.226,0.313,0.338,0.471c0.381,0.541,0.757,1.086,1.128,1.637c0.066,0.098,0.131,0.198,0.196,0.295
		c0.305,0.457,0.606,0.916,0.904,1.378c0.124,0.192,0.244,0.386,0.367,0.58c0.239,0.376,0.476,0.754,0.708,1.134
		c0.132,0.212,0.261,0.425,0.389,0.639c0.228,0.377,0.452,0.755,0.673,1.135c0.121,0.207,0.242,0.413,0.361,0.62
		c0.248,0.432,0.491,0.867,0.733,1.304c0.085,0.154,0.172,0.308,0.258,0.463c0.321,0.59,0.639,1.184,0.95,1.782
		c0.068,0.133,0.136,0.269,0.203,0.402c0.242,0.469,0.479,0.94,0.714,1.415c0.104,0.21,0.206,0.423,0.308,0.634
		c0.196,0.406,0.392,0.814,0.582,1.224c0.106,0.227,0.212,0.455,0.316,0.682c0.188,0.412,0.374,0.826,0.556,1.242
		c0.096,0.216,0.191,0.431,0.285,0.648c0.212,0.491,0.42,0.984,0.623,1.48c0.058,0.14,0.116,0.278,0.175,0.417
		c0.258,0.635,0.51,1.274,0.756,1.917c0.061,0.161,0.12,0.323,0.182,0.484c0.183,0.485,0.363,0.972,0.54,1.462
		c0.079,0.226,0.159,0.454,0.238,0.681c0.151,0.434,0.302,0.869,0.449,1.306c0.08,0.238,0.159,0.478,0.237,0.718
		c0.146,0.448,0.289,0.898,0.429,1.35c0.069,0.219,0.138,0.438,0.204,0.657c0.173,0.57,0.342,1.143,0.504,1.717
		c0.028,0.099,0.058,0.197,0.086,0.295c0.128,0.457,0.248,0.917,0.37,1.377c0.072,0.271,0.147,0.541,0.218,0.813
		c0.128,0.496,0.246,0.995,0.366,1.494c0.057,0.238,0.118,0.474,0.173,0.714c0.132,0.561,0.253,1.126,0.374,1.691
		c0.038,0.18,0.081,0.359,0.12,0.54c0.141,0.676,0.273,1.357,0.4,2.039c0.014,0.072,0.029,0.144,0.043,0.216
		c0.14,0.754,0.271,1.511,0.396,2.272c0.043,0.265,0.08,0.532,0.121,0.797c0.075,0.498,0.155,0.993,0.224,1.494
		c0.049,0.346,0.089,0.695,0.135,1.042c0.054,0.422,0.112,0.842,0.16,1.266c0.045,0.38,0.08,0.762,0.12,1.143
		c0.043,0.393,0.088,0.785,0.124,1.179c0.1,1.054,0.178,2.115,0.245,3.18c0.016,0.262,0.031,0.525,0.046,0.788
		c0.06,1.072,0.11,2.148,0.137,3.23c0.021,0.805,0.03,1.608,0.033,2.41c0,0.255-0.004,0.511-0.006,0.767
		c-0.002,0.542-0.005,1.085-0.016,1.626c-0.007,0.314-0.017,0.626-0.027,0.939c-0.014,0.479-0.027,0.96-0.048,1.438
		c-0.015,0.342-0.033,0.683-0.05,1.024c-0.024,0.458-0.05,0.916-0.078,1.372c-0.02,0.299-0.042,0.598-0.063,0.896
		c-0.036,0.483-0.074,0.965-0.117,1.445c-0.025,0.285-0.05,0.57-0.076,0.855c-0.051,0.528-0.105,1.054-0.164,1.58
		c-0.025,0.23-0.049,0.46-0.077,0.69c-0.088,0.755-0.184,1.509-0.287,2.26c-0.008,0.049-0.016,0.097-0.022,0.146
		c-0.1,0.7-0.204,1.398-0.316,2.093c-0.038,0.239-0.081,0.477-0.121,0.716c-0.086,0.508-0.175,1.014-0.267,1.518
		c-0.051,0.274-0.103,0.548-0.154,0.821c-0.093,0.474-0.186,0.945-0.282,1.417c-0.059,0.276-0.115,0.551-0.173,0.827
		c-0.086,0.398-0.177,0.796-0.267,1.193c-0.095,0.419-0.191,0.837-0.291,1.255c-0.091,0.374-0.185,0.745-0.277,1.116
		c-0.104,0.417-0.21,0.833-0.32,1.248c-0.097,0.369-0.197,0.735-0.3,1.102c-0.115,0.416-0.23,0.83-0.35,1.242
		c-0.105,0.364-0.215,0.727-0.323,1.089c-0.124,0.41-0.25,0.819-0.379,1.228c-0.113,0.361-0.229,0.722-0.348,1.081
		c-0.133,0.405-0.268,0.81-0.404,1.213c-0.122,0.357-0.246,0.715-0.372,1.072c-0.143,0.4-0.285,0.799-0.431,1.197
		c-0.13,0.354-0.264,0.709-0.396,1.062c-0.15,0.396-0.302,0.788-0.457,1.181c-0.139,0.352-0.278,0.704-0.421,1.055
		c-0.158,0.388-0.317,0.774-0.479,1.159c-0.15,0.356-0.3,0.711-0.453,1.064c-0.153,0.355-0.31,0.708-0.467,1.062
		c-0.162,0.36-0.324,0.719-0.489,1.077c-0.161,0.349-0.323,0.697-0.488,1.045c-0.169,0.356-0.339,0.711-0.512,1.064
		c-0.169,0.345-0.339,0.688-0.511,1.031c-0.178,0.352-0.355,0.702-0.534,1.051c-0.177,0.34-0.354,0.679-0.533,1.018
		c-0.185,0.346-0.369,0.691-0.558,1.035c-0.183,0.335-0.368,0.67-0.553,1.003c-0.193,0.341-0.385,0.683-0.581,1.022
		c-0.19,0.329-0.38,0.657-0.573,0.984c-0.199,0.338-0.399,0.674-0.604,1.009c-0.195,0.324-0.394,0.648-0.594,0.968
		c-0.206,0.333-0.416,0.665-0.625,0.995c-0.203,0.317-0.406,0.634-0.612,0.949c-0.214,0.329-0.432,0.656-0.649,0.981
		c-0.208,0.313-0.419,0.624-0.631,0.934c-0.222,0.323-0.445,0.645-0.669,0.964c-0.217,0.306-0.433,0.61-0.649,0.914
		c-0.23,0.318-0.462,0.636-0.694,0.952c-0.221,0.299-0.442,0.598-0.666,0.895c-0.237,0.313-0.476,0.625-0.716,0.934
		c-0.227,0.293-0.453,0.586-0.683,0.876c-0.244,0.308-0.491,0.614-0.737,0.918c-0.233,0.288-0.466,0.574-0.7,0.858
		c-0.251,0.303-0.505,0.603-0.76,0.901c-0.237,0.282-0.476,0.561-0.716,0.838c-0.259,0.297-0.519,0.591-0.779,0.885
		c-0.243,0.274-0.487,0.548-0.734,0.818c-0.263,0.291-0.531,0.579-0.798,0.865c-0.25,0.269-0.499,0.536-0.752,0.801
		c-0.27,0.284-0.544,0.565-0.816,0.846c-0.255,0.261-0.509,0.521-0.766,0.779c-0.277,0.278-0.558,0.554-0.838,0.828
		c-0.261,0.255-0.521,0.509-0.784,0.761c-0.282,0.271-0.569,0.538-0.854,0.805c-0.266,0.249-0.532,0.497-0.8,0.742
		c-0.29,0.265-0.583,0.525-0.875,0.786c-0.27,0.241-0.539,0.481-0.811,0.718c-0.297,0.259-0.598,0.513-0.896,0.769
		c-0.274,0.233-0.55,0.467-0.827,0.697c-0.302,0.251-0.606,0.498-0.911,0.745c-0.28,0.226-0.56,0.453-0.842,0.677
		c-0.308,0.243-0.618,0.482-0.93,0.722c-0.283,0.22-0.568,0.439-0.856,0.656c-0.313,0.236-0.627,0.466-0.943,0.699
		c-0.291,0.213-0.581,0.426-0.873,0.637c-0.317,0.227-0.637,0.448-0.958,0.672c-0.295,0.206-0.593,0.414-0.892,0.617
		c-0.321,0.219-0.646,0.433-0.969,0.648c-0.303,0.199-0.603,0.4-0.905,0.595c-0.328,0.211-0.658,0.417-0.988,0.624
		c-0.305,0.192-0.61,0.385-0.918,0.573c-0.331,0.202-0.665,0.4-0.998,0.597c-0.312,0.186-0.623,0.371-0.938,0.552
		c-0.335,0.193-0.673,0.382-1.01,0.572c-0.317,0.177-0.633,0.355-0.95,0.529c-0.34,0.185-0.682,0.364-1.023,0.545
		c-0.321,0.17-0.644,0.342-0.966,0.508c-0.342,0.175-0.688,0.344-1.03,0.515c-0.327,0.164-0.655,0.328-0.986,0.488
		c-0.345,0.166-0.69,0.326-1.037,0.487c-0.334,0.155-0.668,0.313-1.004,0.464c-0.281,0.126-0.565,0.249-0.849,0.373
		c-0.457,0.201-0.916,0.401-1.379,0.595c-0.299,0.125-0.602,0.247-0.904,0.369c-0.444,0.18-0.889,0.359-1.336,0.532
		c-0.313,0.121-0.627,0.24-0.941,0.356c-0.443,0.167-0.889,0.328-1.336,0.488c-0.316,0.112-0.635,0.223-0.953,0.333
		c-0.453,0.154-0.908,0.304-1.364,0.451c-0.313,0.102-0.626,0.205-0.942,0.304c-0.476,0.147-0.955,0.289-1.436,0.429
		c-0.296,0.087-0.591,0.176-0.89,0.26c-0.544,0.153-1.091,0.296-1.64,0.439c-0.235,0.062-0.47,0.127-0.705,0.187
		c-0.787,0.198-1.576,0.385-2.371,0.561c-0.102,0.022-0.203,0.041-0.305,0.063c-0.693,0.15-1.39,0.294-2.089,0.428
		c-0.224,0.043-0.451,0.081-0.675,0.122c-0.627,0.114-1.253,0.224-1.885,0.326c-0.301,0.048-0.603,0.092-0.905,0.138
		c-0.566,0.084-1.134,0.164-1.702,0.237c-0.313,0.042-0.627,0.081-0.939,0.118c-0.596,0.069-1.193,0.132-1.791,0.189
		c-0.275,0.027-0.549,0.056-0.825,0.081c-0.87,0.076-1.742,0.141-2.619,0.19l28.833,0.669c0.877-0.05,1.748-0.116,2.618-0.191
		c0.276-0.023,0.55-0.054,0.823-0.08c0.6-0.059,1.199-0.121,1.793-0.191c0.314-0.037,0.625-0.075,0.936-0.116
		c0.572-0.073,1.143-0.153,1.712-0.239c0.299-0.044,0.597-0.087,0.896-0.135c0.638-0.102,1.271-0.214,1.906-0.33
		c0.17-0.032,0.343-0.057,0.514-0.089c0.047-0.009,0.093-0.02,0.139-0.029c0.719-0.137,1.434-0.285,2.148-0.44
		c0.08-0.017,0.164-0.033,0.244-0.051c0.799-0.176,1.592-0.364,2.382-0.563c0.223-0.056,0.445-0.118,0.667-0.175
		c0.561-0.146,1.121-0.294,1.68-0.45c0.29-0.082,0.579-0.169,0.868-0.254c0.487-0.142,0.972-0.285,1.454-0.435
		c0.313-0.098,0.625-0.2,0.937-0.301c0.455-0.148,0.912-0.298,1.365-0.453c0.32-0.109,0.64-0.222,0.958-0.335
		c0.443-0.157,0.886-0.319,1.326-0.483c0.318-0.119,0.636-0.239,0.953-0.362c0.439-0.17,0.878-0.346,1.315-0.522
		c0.31-0.126,0.621-0.251,0.929-0.38c0.448-0.188,0.896-0.383,1.342-0.578c0.22-0.097,0.443-0.187,0.662-0.285l-0.013,0
		c0,0,0,0,0.001,0h0.012c0.067-0.031,0.133-0.063,0.201-0.094c0.356-0.16,0.708-0.326,1.061-0.491
		c0.328-0.152,0.656-0.303,0.98-0.459c0.348-0.169,0.696-0.342,1.042-0.515c0.325-0.161,0.651-0.322,0.975-0.488
		c0.341-0.175,0.68-0.355,1.019-0.534c0.323-0.173,0.649-0.343,0.971-0.518c0.334-0.183,0.665-0.37,0.998-0.556
		c0.321-0.181,0.645-0.36,0.963-0.545c0.329-0.19,0.655-0.385,0.982-0.579c0.318-0.189,0.637-0.376,0.952-0.57
		c0.322-0.197,0.644-0.399,0.964-0.601c0.314-0.197,0.63-0.394,0.942-0.596c0.317-0.205,0.631-0.414,0.945-0.622
		c0.311-0.206,0.623-0.412,0.932-0.622c0.313-0.211,0.618-0.427,0.928-0.643c0.309-0.214,0.616-0.429,0.921-0.646
		c0.304-0.218,0.605-0.44,0.906-0.661c0.304-0.224,0.608-0.446,0.912-0.674c0.299-0.226,0.593-0.455,0.89-0.683
		c0.299-0.23,0.598-0.46,0.896-0.695c0.292-0.231,0.582-0.467,0.872-0.702c0.295-0.239,0.59-0.477,0.882-0.72
		c0.286-0.238,0.571-0.479,0.854-0.72c0.289-0.248,0.581-0.494,0.868-0.744c0.28-0.245,0.558-0.493,0.836-0.741
		c0.285-0.253,0.569-0.508,0.851-0.765c0.276-0.251,0.55-0.506,0.823-0.761c0.278-0.262,0.556-0.522,0.831-0.785
		c0.27-0.258,0.538-0.519,0.805-0.781c0.274-0.268,0.547-0.537,0.818-0.809c0.263-0.264,0.524-0.53,0.782-0.796
		c0.27-0.275,0.536-0.55,0.802-0.829c0.258-0.271,0.513-0.545,0.769-0.818c0.262-0.281,0.522-0.563,0.781-0.848
		c0.252-0.277,0.499-0.556,0.748-0.834c0.257-0.288,0.513-0.577,0.766-0.869c0.245-0.283,0.488-0.568,0.73-0.854
		c0.25-0.293,0.498-0.588,0.745-0.884c0.238-0.291,0.477-0.581,0.714-0.874c0.242-0.3,0.484-0.601,0.725-0.904
		c0.232-0.295,0.464-0.592,0.695-0.891c0.236-0.306,0.47-0.612,0.703-0.919c0.227-0.302,0.452-0.605,0.677-0.911
		c0.23-0.312,0.457-0.623,0.684-0.938c0.22-0.308,0.439-0.617,0.658-0.927c0.221-0.315,0.443-0.633,0.66-0.951
		c0.217-0.314,0.429-0.629,0.642-0.945c0.214-0.322,0.428-0.645,0.64-0.969c0.208-0.319,0.415-0.64,0.619-0.962
		c0.208-0.326,0.414-0.653,0.619-0.982c0.201-0.326,0.401-0.652,0.6-0.98c0.2-0.331,0.399-0.663,0.597-0.996
		c0.195-0.332,0.389-0.665,0.581-1c0.193-0.333,0.384-0.67,0.572-1.006c0.188-0.338,0.377-0.678,0.563-1.018
		c0.185-0.339,0.367-0.679,0.548-1.02c0.182-0.343,0.363-0.687,0.543-1.033c0.176-0.344,0.352-0.688,0.525-1.034
		c0.175-0.349,0.348-0.698,0.52-1.049c0.169-0.348,0.336-0.697,0.502-1.046c0.168-0.354,0.333-0.709,0.498-1.064
		c0.161-0.351,0.321-0.703,0.479-1.057c0.16-0.359,0.318-0.72,0.474-1.081c0.071-0.16,0.144-0.318,0.212-0.479
		c0.081-0.188,0.157-0.379,0.236-0.568c0.163-0.39,0.324-0.78,0.483-1.172c0.143-0.349,0.283-0.698,0.42-1.048
		c0.153-0.394,0.307-0.787,0.457-1.182c0.135-0.354,0.267-0.71,0.398-1.067c0.145-0.394,0.286-0.789,0.426-1.185
		c0.128-0.363,0.254-0.726,0.38-1.092c0.133-0.393,0.264-0.788,0.394-1.183c0.12-0.371,0.242-0.743,0.359-1.115
		c0.125-0.396,0.245-0.792,0.365-1.188c0.113-0.376,0.227-0.752,0.335-1.13c0.117-0.397,0.229-0.798,0.339-1.198
		c0.105-0.38,0.21-0.761,0.311-1.144c0.107-0.402,0.208-0.807,0.312-1.211c0.096-0.381,0.192-0.763,0.283-1.146
		c0.1-0.414,0.195-0.83,0.288-1.245c0.057-0.249,0.117-0.497,0.174-0.746c0.032-0.149,0.061-0.299,0.093-0.447
		c0.061-0.277,0.116-0.554,0.175-0.832C278.825,189.985,278.918,189.514,279.009,189.041z"/>
	<g>
		<path fill="#8F5611" d="M192.744,268.912l-28.833-0.669c-0.938,0.053-1.872,0.086-2.804,0.109
			c-0.123,0.002-0.247,0.007-0.368,0.009c-0.88,0.017-1.756,0.018-2.63,0.008c-0.33-0.003-0.66-0.004-0.989-0.013c0,0,0,0,0.001,0
			c0,0,0,0-0.002,0l28.833,0.668c0.24,0.006,0.479,0.011,0.721,0.014c0.086,0.002,0.173-0.001,0.259,0
			c0.88,0.01,1.761,0.009,2.646-0.008c0.116-0.002,0.233-0.007,0.349-0.009C190.863,268.998,191.8,268.964,192.744,268.912z"/>
		<path fill="#8F5611" d="M178.835,330.728c-0.757-0.042-1.513-0.088-2.268-0.142c-0.401-0.027-0.802-0.06-1.202-0.094
			c-0.717-0.056-1.431-0.119-2.144-0.188c-0.396-0.039-0.79-0.075-1.185-0.118c-0.769-0.08-1.533-0.169-2.297-0.262
			c-0.322-0.04-0.645-0.075-0.967-0.117c-1.079-0.141-2.156-0.289-3.229-0.454c-0.121-0.02-0.241-0.042-0.363-0.061
			c-0.951-0.147-1.898-0.308-2.843-0.477c-0.351-0.063-0.701-0.13-1.051-0.195c-0.72-0.134-1.438-0.273-2.155-0.419
			c-0.387-0.078-0.774-0.159-1.161-0.241c-0.694-0.146-1.386-0.3-2.077-0.458c-0.373-0.086-0.746-0.171-1.117-0.259
			c-0.764-0.181-1.525-0.371-2.284-0.565c-0.283-0.072-0.567-0.141-0.849-0.216c-1.038-0.272-2.071-0.557-3.1-0.854
			c-0.183-0.051-0.365-0.108-0.547-0.161c-0.845-0.248-1.687-0.504-2.525-0.765c-0.343-0.108-0.684-0.221-1.026-0.331
			c-0.683-0.221-1.365-0.443-2.043-0.676c-0.37-0.125-0.738-0.252-1.106-0.382c-0.667-0.234-1.333-0.474-1.997-0.716
			c-0.347-0.127-0.694-0.254-1.039-0.385c-0.762-0.287-1.52-0.583-2.276-0.883c-0.234-0.093-0.47-0.181-0.704-0.275
			c-0.987-0.398-1.969-0.807-2.946-1.229c-0.218-0.093-0.434-0.191-0.651-0.286c-0.758-0.331-1.513-0.667-2.264-1.011
			c-0.33-0.152-0.659-0.307-0.988-0.461c-0.642-0.3-1.283-0.605-1.92-0.917c-0.347-0.168-0.692-0.338-1.038-0.508
			c-0.638-0.318-1.274-0.643-1.907-0.97c-0.318-0.164-0.636-0.325-0.952-0.492c-0.762-0.4-1.519-0.811-2.272-1.224
			c-0.175-0.096-0.353-0.189-0.527-0.286c-0.929-0.518-1.851-1.044-2.768-1.579c-0.236-0.14-0.469-0.283-0.706-0.424
			c-0.678-0.402-1.354-0.808-2.026-1.223c-0.315-0.194-0.627-0.393-0.941-0.588c-0.597-0.375-1.192-0.753-1.785-1.138
			c-0.321-0.208-0.642-0.417-0.961-0.628c-0.604-0.398-1.204-0.803-1.802-1.21c-0.285-0.197-0.572-0.389-0.856-0.585
			c-0.763-0.529-1.521-1.065-2.272-1.609c-0.108-0.078-0.219-0.153-0.327-0.231c-0.861-0.625-1.714-1.262-2.563-1.906
			c-0.239-0.184-0.476-0.37-0.713-0.553c-0.608-0.469-1.213-0.939-1.813-1.417c-0.294-0.234-0.585-0.471-0.877-0.708
			c-0.548-0.444-1.094-0.892-1.637-1.345c-0.293-0.244-0.586-0.489-0.878-0.735c-0.565-0.479-1.124-0.962-1.682-1.448
			c-0.251-0.22-0.503-0.437-0.753-0.658c-0.784-0.694-1.562-1.394-2.332-2.106c-0.014-0.012-0.027-0.025-0.041-0.036
			c-0.786-0.729-1.564-1.468-2.336-2.214c-0.232-0.224-0.46-0.452-0.691-0.677c-0.537-0.526-1.072-1.055-1.602-1.59
			c-0.271-0.272-0.539-0.549-0.808-0.824c-0.494-0.507-0.985-1.018-1.473-1.533c-0.264-0.278-0.528-0.556-0.789-0.837
			c-0.519-0.556-1.031-1.116-1.541-1.679c-0.215-0.236-0.432-0.472-0.645-0.71c-0.718-0.804-1.429-1.614-2.131-2.435
			c-0.048-0.056-0.094-0.114-0.143-0.17c-0.65-0.763-1.294-1.534-1.931-2.311c-0.219-0.268-0.435-0.54-0.652-0.808
			c-0.464-0.576-0.927-1.154-1.385-1.738c-0.243-0.31-0.483-0.621-0.725-0.934c-0.436-0.565-0.868-1.133-1.296-1.706
			c-0.231-0.309-0.462-0.617-0.691-0.927c-0.465-0.63-0.923-1.267-1.38-1.905c-0.177-0.249-0.358-0.496-0.536-0.747
			c-0.626-0.889-1.245-1.784-1.854-2.688c-0.097-0.144-0.191-0.292-0.288-0.435c-0.509-0.762-1.013-1.528-1.51-2.301
			c-0.199-0.308-0.394-0.619-0.589-0.929c-0.394-0.62-0.784-1.244-1.169-1.872c-0.211-0.344-0.419-0.688-0.629-1.036
			c-0.372-0.618-0.74-1.239-1.105-1.864c-0.196-0.336-0.393-0.671-0.586-1.008c-0.407-0.709-0.807-1.423-1.204-2.14
			c-0.138-0.25-0.28-0.498-0.417-0.749c-0.527-0.965-1.045-1.936-1.553-2.915c-0.115-0.221-0.226-0.445-0.339-0.668
			c-0.393-0.763-0.78-1.529-1.16-2.3c-0.171-0.348-0.34-0.699-0.509-1.049c-0.319-0.659-0.634-1.32-0.945-1.985
			c-0.175-0.375-0.349-0.751-0.521-1.128c-0.305-0.667-0.605-1.337-0.9-2.009c-0.16-0.36-0.319-0.72-0.476-1.083
			c-0.343-0.792-0.676-1.589-1.006-2.388c-0.098-0.237-0.199-0.472-0.296-0.709c-0.42-1.033-0.831-2.072-1.23-3.118
			c-0.109-0.285-0.212-0.572-0.32-0.857c-0.29-0.77-0.576-1.542-0.855-2.318c-0.139-0.387-0.274-0.776-0.41-1.163
			c-0.242-0.69-0.48-1.383-0.713-2.078c-0.136-0.407-0.272-0.814-0.405-1.222c-0.231-0.71-0.457-1.423-0.679-2.137
			c-0.118-0.38-0.239-0.76-0.355-1.142c-0.268-0.885-0.528-1.775-0.783-2.668c-0.058-0.207-0.121-0.412-0.179-0.619
			c-0.17-0.606-0.328-1.217-0.491-1.826c-0.156-0.583-0.319-1.165-0.469-1.751c-0.16-0.624-0.307-1.252-0.459-1.879
			c-0.141-0.577-0.288-1.151-0.423-1.73c-0.153-0.661-0.294-1.327-0.439-1.992c-0.121-0.551-0.249-1.099-0.364-1.652
			c-0.169-0.808-0.323-1.623-0.481-2.437c-0.08-0.415-0.167-0.827-0.245-1.243c-0.228-1.229-0.442-2.465-0.644-3.706
			c-0.077-0.475-0.143-0.955-0.216-1.431c-0.118-0.772-0.241-1.543-0.349-2.319c-0.073-0.525-0.134-1.055-0.203-1.582
			c-0.094-0.732-0.194-1.462-0.279-2.198c-0.066-0.563-0.12-1.132-0.179-1.698c-0.076-0.707-0.156-1.413-0.223-2.124
			c-0.013-0.141-0.023-0.283-0.036-0.424c-0.093-1.019-0.176-2.041-0.25-3.067c-0.027-0.365-0.051-0.731-0.076-1.096
			c-0.056-0.848-0.106-1.698-0.15-2.55c-0.018-0.355-0.038-0.709-0.054-1.065c-0.054-1.176-0.1-2.353-0.129-3.535
			c-0.033-1.313-0.05-2.622-0.053-3.928c-0.001-0.442,0.007-0.882,0.009-1.322c0.004-0.865,0.009-1.73,0.026-2.594
			c0.01-0.519,0.028-1.035,0.043-1.552c0.022-0.783,0.045-1.565,0.079-2.345c0.023-0.548,0.053-1.093,0.081-1.639
			c0.04-0.766,0.082-1.53,0.131-2.294c0.031-0.476,0.065-0.951,0.1-1.426c0.059-0.798,0.123-1.594,0.192-2.391
			c0.041-0.462,0.081-0.924,0.125-1.386c0.082-0.859,0.173-1.715,0.267-2.571c0.042-0.382,0.081-0.765,0.126-1.146
			c0.145-1.231,0.3-2.459,0.47-3.682c0.014-0.102,0.031-0.204,0.046-0.305c0.158-1.122,0.328-2.24,0.507-3.355
			c0.065-0.401,0.136-0.801,0.204-1.202c0.138-0.819,0.28-1.636,0.429-2.451c0.083-0.453,0.169-0.903,0.256-1.354
			c0.148-0.774,0.302-1.545,0.461-2.315c0.093-0.448,0.186-0.896,0.281-1.344c0.141-0.657,0.29-1.31,0.438-1.964
			c0.154-0.679,0.309-1.357,0.472-2.032c0.148-0.619,0.303-1.236,0.458-1.854c0.168-0.67,0.339-1.34,0.516-2.008
			c0.162-0.616,0.331-1.229,0.5-1.842c0.184-0.662,0.369-1.323,0.559-1.982c0.177-0.612,0.36-1.221,0.543-1.83
			c0.197-0.654,0.397-1.308,0.603-1.959c0.191-0.607,0.387-1.211,0.584-1.815c0.212-0.646,0.426-1.29,0.645-1.933
			c0.206-0.602,0.414-1.202,0.626-1.801c0.225-0.638,0.454-1.274,0.687-1.908c0.219-0.597,0.441-1.192,0.666-1.786
			c0.239-0.629,0.481-1.256,0.728-1.881c0.231-0.591,0.467-1.18,0.705-1.767c0.253-0.623,0.509-1.243,0.77-1.86
			c0.249-0.592,0.498-1.182,0.753-1.769c0.249-0.572,0.5-1.142,0.754-1.711c0.266-0.595,0.534-1.189,0.807-1.781
			c0.26-0.566,0.524-1.129,0.791-1.691c0.279-0.588,0.561-1.174,0.845-1.758c0.273-0.559,0.549-1.114,0.827-1.669
			c0.292-0.581,0.585-1.158,0.883-1.733c0.285-0.552,0.573-1.102,0.863-1.649c0.303-0.57,0.608-1.139,0.917-1.705
			c0.298-0.544,0.597-1.087,0.901-1.628c0.314-0.562,0.631-1.121,0.952-1.678c0.309-0.538,0.621-1.072,0.935-1.605
			c0.328-0.554,0.657-1.105,0.989-1.654c0.32-0.528,0.643-1.055,0.968-1.58c0.338-0.544,0.68-1.086,1.023-1.627
			c0.331-0.52,0.665-1.038,1.001-1.554c0.35-0.537,0.704-1.069,1.06-1.601c0.342-0.511,0.686-1.022,1.034-1.529
			c0.361-0.526,0.726-1.049,1.092-1.571c0.354-0.503,0.709-1.005,1.068-1.504c0.372-0.517,0.747-1.03,1.125-1.542
			c0.364-0.494,0.729-0.987,1.099-1.476c0.383-0.508,0.769-1.012,1.158-1.514c0.375-0.485,0.751-0.97,1.131-1.45
			c0.393-0.497,0.79-0.991,1.189-1.482c0.385-0.476,0.772-0.951,1.162-1.422c0.404-0.487,0.812-0.971,1.221-1.453
			c0.395-0.466,0.792-0.931,1.192-1.392c0.414-0.477,0.833-0.95,1.251-1.421c0.405-0.457,0.812-0.912,1.222-1.363
			c0.425-0.467,0.854-0.93,1.284-1.391c0.415-0.445,0.83-0.891,1.25-1.331c0.435-0.457,0.874-0.909,1.313-1.36
			c0.424-0.435,0.849-0.87,1.278-1.299c0.445-0.446,0.894-0.887,1.344-1.328c0.433-0.424,0.867-0.849,1.305-1.268
			c0.454-0.436,0.914-0.866,1.374-1.295c0.441-0.413,0.883-0.825,1.33-1.233c0.465-0.424,0.935-0.844,1.404-1.263
			c0.451-0.401,0.901-0.803,1.356-1.2c0.474-0.413,0.953-0.82,1.432-1.228c0.458-0.39,0.918-0.781,1.382-1.167
			c0.483-0.401,0.97-0.795,1.458-1.191c0.469-0.38,0.938-0.759,1.41-1.133c0.492-0.389,0.988-0.771,1.484-1.153
			c0.477-0.368,0.953-0.737,1.435-1.099c0.502-0.378,1.007-0.748,1.514-1.119c0.483-0.355,0.967-0.712,1.455-1.061
			c0.511-0.366,1.026-0.724,1.54-1.083c0.492-0.343,0.983-0.687,1.479-1.024c0.519-0.353,1.042-0.698,1.564-1.043
			c0.501-0.332,1-0.665,1.505-0.989c0.525-0.339,1.056-0.67,1.585-1.002c0.509-0.32,1.017-0.641,1.53-0.954
			c0.533-0.326,1.071-0.644,1.608-0.962c0.517-0.308,1.033-0.616,1.553-0.917c0.541-0.312,1.086-0.616,1.631-0.922
			c0.524-0.293,1.047-0.589,1.574-0.877c0.548-0.299,1.102-0.589,1.654-0.882c0.531-0.281,1.062-0.564,1.597-0.838
			c0.555-0.285,1.115-0.561,1.674-0.839c0.539-0.268,1.076-0.539,1.619-0.8c0.563-0.271,1.129-0.532,1.695-0.796
			c0.546-0.254,1.091-0.511,1.641-0.76c0.463-0.209,0.931-0.409,1.396-0.613c0.744-0.326,1.489-0.65,2.239-0.964
			c0.498-0.208,0.999-0.41,1.499-0.613c0.719-0.291,1.439-0.58,2.163-0.859c0.518-0.201,1.039-0.397,1.558-0.591
			c0.718-0.269,1.438-0.531,2.16-0.788c0.525-0.187,1.051-0.372,1.58-0.552c0.732-0.25,1.469-0.493,2.207-0.732
			c0.519-0.168,1.038-0.338,1.56-0.5c0.772-0.24,1.549-0.469,2.326-0.697c0.491-0.144,0.98-0.292,1.474-0.431
			c0.88-0.247,1.766-0.479,2.652-0.71c0.394-0.102,0.785-0.212,1.181-0.312c1.282-0.321,2.57-0.627,3.864-0.913
			c0.203-0.045,0.408-0.083,0.611-0.126c1.096-0.238,2.195-0.466,3.298-0.677c1.039-0.199,2.083-0.387,3.129-0.563
			c0.224-0.038,0.447-0.074,0.671-0.111c1.103-0.18,2.208-0.351,3.318-0.504c0.07-0.01,0.141-0.018,0.21-0.028
			c1.07-0.147,2.144-0.279,3.221-0.401c0.205-0.023,0.409-0.048,0.615-0.07c1.094-0.12,2.189-0.226,3.29-0.32
			c0.222-0.019,0.443-0.036,0.665-0.054c1.141-0.092,2.282-0.175,3.43-0.24c0.889-0.05,1.773-0.09,2.657-0.123
			c0.282-0.01,0.563-0.017,0.847-0.025c0.601-0.019,1.201-0.037,1.801-0.048c0.338-0.006,0.677-0.008,1.016-0.012
			c0.541-0.006,1.08-0.011,1.619-0.011c0.364,0,0.729,0.004,1.092,0.007c0.691,0.006,1.384,0.011,2.073,0.027
			c-9.611-0.223-19.222-0.446-28.833-0.668c-0.392-0.009-0.786-0.016-1.18-0.022c-0.301-0.004-0.603-0.002-0.905-0.005
			c-0.36-0.003-0.72-0.006-1.081-0.006c-0.531,0-1.064,0.004-1.597,0.011c-0.349,0.003-0.698,0.005-1.048,0.012
			c-0.58,0.011-1.161,0.028-1.742,0.046c-0.301,0.009-0.601,0.015-0.903,0.026c-0.881,0.033-1.764,0.073-2.649,0.124
			c-1.146,0.064-2.288,0.147-3.427,0.24c-0.223,0.018-0.446,0.035-0.669,0.054c-1.098,0.094-2.193,0.2-3.285,0.32
			c-0.208,0.022-0.418,0.047-0.627,0.072c-1.069,0.121-2.136,0.252-3.197,0.398c-0.077,0.01-0.154,0.02-0.231,0.03
			c-1.105,0.153-2.206,0.324-3.304,0.502c-0.229,0.038-0.458,0.075-0.688,0.113c-0.961,0.162-1.92,0.33-2.875,0.511
			c-0.082,0.015-0.163,0.034-0.244,0.049c-1.12,0.215-2.235,0.446-3.347,0.688c-0.186,0.04-0.374,0.075-0.559,0.116
			c-1.299,0.288-2.59,0.594-3.876,0.917c-0.376,0.095-0.75,0.199-1.125,0.296c-0.906,0.236-1.811,0.474-2.71,0.727
			c-0.479,0.134-0.955,0.279-1.432,0.417c-0.792,0.232-1.583,0.466-2.371,0.71c-0.51,0.16-1.018,0.325-1.526,0.49
			c-0.75,0.243-1.497,0.489-2.242,0.743c-0.519,0.178-1.036,0.36-1.552,0.543c-0.731,0.26-1.459,0.525-2.185,0.796
			c-0.515,0.192-1.029,0.386-1.541,0.584c-0.729,0.282-1.453,0.571-2.176,0.865c-0.498,0.202-0.996,0.402-1.491,0.61
			c-0.749,0.313-1.492,0.637-2.234,0.963c-0.349,0.153-0.702,0.296-1.048,0.452c-0.12,0.054-0.237,0.111-0.357,0.166
			c-0.546,0.246-1.087,0.501-1.63,0.755c-0.568,0.265-1.138,0.527-1.703,0.8c-0.541,0.26-1.076,0.53-1.614,0.797
			c-0.56,0.278-1.122,0.555-1.678,0.841c-0.535,0.274-1.065,0.557-1.596,0.838c-0.552,0.292-1.106,0.583-1.654,0.882
			c-0.527,0.287-1.05,0.583-1.574,0.876c-0.545,0.306-1.091,0.609-1.632,0.922c-0.521,0.302-1.037,0.61-1.555,0.918
			c-0.536,0.319-1.073,0.636-1.605,0.961c-0.514,0.313-1.024,0.636-1.535,0.956c-0.527,0.332-1.056,0.662-1.579,1
			c-0.507,0.327-1.01,0.662-1.514,0.995c-0.519,0.344-1.039,0.688-1.554,1.038c-0.499,0.338-0.993,0.685-1.488,1.03
			c-0.512,0.357-1.024,0.714-1.533,1.078c-0.49,0.351-0.977,0.709-1.463,1.066c-0.503,0.369-1.006,0.738-1.505,1.113
			c-0.482,0.364-0.961,0.733-1.439,1.103c-0.495,0.382-0.991,0.764-1.48,1.152c-0.474,0.374-0.943,0.754-1.412,1.135
			c-0.487,0.395-0.973,0.789-1.455,1.189c-0.465,0.386-0.925,0.777-1.386,1.169c-0.478,0.406-0.955,0.813-1.429,1.225
			c-0.456,0.397-0.908,0.8-1.358,1.203c-0.47,0.417-0.938,0.836-1.402,1.26c-0.446,0.408-0.888,0.821-1.331,1.234
			c-0.46,0.43-0.918,0.859-1.374,1.295c-0.438,0.419-0.871,0.842-1.304,1.266c-0.45,0.441-0.899,0.882-1.345,1.33
			c-0.428,0.429-0.852,0.863-1.276,1.297c-0.44,0.452-0.88,0.905-1.315,1.362c-0.418,0.439-0.833,0.883-1.247,1.327
			c-0.431,0.463-0.861,0.927-1.287,1.396c-0.408,0.45-0.813,0.903-1.218,1.358c-0.42,0.473-0.839,0.948-1.255,1.426
			c-0.398,0.459-0.792,0.923-1.187,1.387c-0.411,0.485-0.821,0.97-1.227,1.46c-0.388,0.469-0.773,0.941-1.156,1.415
			c-0.4,0.495-0.799,0.99-1.195,1.49c-0.377,0.478-0.751,0.959-1.125,1.441c-0.391,0.506-0.78,1.014-1.166,1.524
			c-0.367,0.486-0.729,0.976-1.091,1.466c-0.379,0.515-0.757,1.032-1.13,1.551c-0.357,0.497-0.711,0.997-1.063,1.497
			c-0.368,0.524-0.735,1.051-1.098,1.58c-0.346,0.504-0.688,1.011-1.028,1.52c-0.357,0.534-0.713,1.07-1.064,1.609
			c-0.335,0.513-0.666,1.028-0.995,1.545c-0.347,0.543-0.691,1.09-1.031,1.638c-0.323,0.521-0.643,1.043-0.96,1.567
			c-0.336,0.554-0.668,1.11-0.998,1.668c-0.311,0.527-0.62,1.058-0.926,1.59c-0.324,0.563-0.645,1.128-0.962,1.694
			c-0.3,0.536-0.597,1.073-0.89,1.612c-0.312,0.571-0.62,1.145-0.926,1.72c-0.289,0.544-0.575,1.091-0.859,1.639
			c-0.297,0.578-0.593,1.157-0.885,1.739c-0.277,0.554-0.553,1.109-0.825,1.666c-0.285,0.585-0.568,1.172-0.847,1.762
			c-0.266,0.56-0.529,1.122-0.79,1.687c-0.273,0.593-0.542,1.188-0.808,1.786c-0.254,0.567-0.506,1.136-0.753,1.708
			c-0.117,0.271-0.24,0.538-0.356,0.81c-0.136,0.318-0.263,0.64-0.397,0.959c-0.26,0.619-0.517,1.24-0.771,1.863
			c-0.238,0.586-0.472,1.173-0.704,1.763c-0.247,0.627-0.489,1.256-0.729,1.888c-0.225,0.591-0.446,1.184-0.664,1.778
			c-0.234,0.636-0.463,1.275-0.69,1.916c-0.21,0.596-0.419,1.193-0.623,1.793c-0.22,0.645-0.436,1.292-0.647,1.939
			c-0.197,0.602-0.392,1.204-0.583,1.809c-0.205,0.653-0.406,1.308-0.604,1.964c-0.184,0.607-0.366,1.215-0.542,1.826
			c-0.19,0.66-0.376,1.322-0.56,1.985c-0.169,0.612-0.337,1.224-0.501,1.838c-0.177,0.669-0.347,1.34-0.517,2.012
			c-0.154,0.616-0.31,1.23-0.458,1.849c-0.162,0.677-0.317,1.358-0.472,2.038c-0.093,0.409-0.193,0.813-0.284,1.223
			c-0.054,0.245-0.102,0.492-0.154,0.738c-0.097,0.447-0.188,0.896-0.281,1.345c-0.16,0.77-0.313,1.541-0.461,2.314
			c-0.086,0.452-0.172,0.903-0.256,1.355c-0.149,0.814-0.292,1.631-0.429,2.448c-0.068,0.401-0.139,0.802-0.204,1.205
			c-0.179,1.112-0.348,2.228-0.506,3.346c-0.015,0.105-0.032,0.209-0.046,0.314c-0.171,1.223-0.326,2.45-0.471,3.681
			c-0.045,0.383-0.083,0.768-0.126,1.151c-0.095,0.854-0.186,1.708-0.267,2.565c-0.044,0.463-0.084,0.927-0.125,1.391
			c-0.07,0.794-0.134,1.589-0.192,2.386c-0.035,0.476-0.068,0.952-0.1,1.429c-0.018,0.283-0.042,0.565-0.059,0.849
			c-0.029,0.479-0.047,0.961-0.071,1.441c-0.028,0.546-0.058,1.093-0.081,1.641c-0.034,0.779-0.057,1.561-0.079,2.342
			c-0.015,0.519-0.034,1.035-0.044,1.555c-0.017,0.862-0.021,1.727-0.026,2.592c-0.002,0.441-0.01,0.882-0.009,1.323
			c0.003,1.306,0.02,2.615,0.053,3.927c0.03,1.186,0.076,2.366,0.13,3.544c0.016,0.348,0.036,0.694,0.053,1.041
			c0.045,0.861,0.096,1.72,0.153,2.577c0.023,0.36,0.048,0.72,0.073,1.079c0.075,1.031,0.16,2.058,0.252,3.082
			c0.012,0.138,0.022,0.276,0.036,0.414c0.002,0.027,0.004,0.056,0.007,0.083c0.066,0.704,0.146,1.403,0.221,2.105
			c0.058,0.543,0.109,1.089,0.172,1.631c0.091,0.777,0.196,1.549,0.296,2.322c0.063,0.485,0.119,0.974,0.187,1.457
			c0.126,0.909,0.268,1.812,0.408,2.715c0.054,0.343,0.101,0.69,0.156,1.032c0.202,1.245,0.418,2.484,0.646,3.718
			c0.021,0.118,0.047,0.234,0.069,0.352c0.209,1.115,0.426,2.226,0.657,3.331c0.071,0.345,0.152,0.685,0.227,1.028
			c0.188,0.876,0.376,1.752,0.578,2.621c0.095,0.409,0.2,0.812,0.298,1.219c0.192,0.798,0.381,1.598,0.585,2.391
			c0.115,0.448,0.24,0.892,0.358,1.337c0.19,0.717,0.376,1.436,0.575,2.148c0.009,0.033,0.019,0.065,0.028,0.098
			c0.044,0.156,0.09,0.31,0.135,0.466c0.269,0.946,0.544,1.888,0.829,2.826c0.108,0.354,0.221,0.708,0.33,1.062
			c0.23,0.742,0.466,1.483,0.706,2.219c0.126,0.389,0.256,0.777,0.386,1.166c0.24,0.718,0.487,1.434,0.736,2.146
			c0.129,0.369,0.257,0.737,0.389,1.104c0.29,0.808,0.587,1.609,0.889,2.41c0.096,0.256,0.189,0.515,0.288,0.772
			c0.404,1.054,0.817,2.103,1.242,3.144c0.087,0.214,0.178,0.424,0.266,0.637c0.34,0.825,0.685,1.647,1.038,2.465
			c0.151,0.348,0.305,0.693,0.457,1.039c0.302,0.686,0.608,1.371,0.919,2.05c0.168,0.368,0.338,0.735,0.508,1.101
			c0.316,0.677,0.638,1.351,0.963,2.022c0.163,0.339,0.326,0.678,0.492,1.014c0.39,0.791,0.787,1.576,1.189,2.358
			c0.104,0.204,0.206,0.41,0.312,0.613c0.511,0.983,1.032,1.961,1.562,2.93c0.131,0.238,0.266,0.475,0.397,0.712
			c0.403,0.728,0.809,1.453,1.223,2.173c0.191,0.334,0.386,0.665,0.58,0.997c0.367,0.628,0.737,1.254,1.112,1.875
			c0.208,0.344,0.416,0.686,0.625,1.028c0.386,0.63,0.777,1.256,1.173,1.879c0.195,0.308,0.388,0.617,0.585,0.923
			c0.498,0.775,1.004,1.543,1.515,2.308c0.095,0.143,0.188,0.287,0.284,0.429c0.609,0.905,1.228,1.8,1.855,2.689
			c0.176,0.25,0.356,0.497,0.535,0.746c0.456,0.638,0.914,1.274,1.378,1.905c0.23,0.311,0.463,0.622,0.696,0.932
			c0.426,0.569,0.856,1.136,1.29,1.699c0.243,0.314,0.485,0.627,0.73,0.94c0.454,0.579,0.913,1.153,1.375,1.725
			c0.221,0.273,0.44,0.549,0.664,0.821c0.627,0.766,1.262,1.526,1.903,2.278c0.057,0.067,0.112,0.135,0.169,0.201
			c0.699,0.818,1.408,1.626,2.124,2.427c0.219,0.246,0.443,0.487,0.664,0.732c0.503,0.554,1.008,1.108,1.519,1.656
			c0.268,0.286,0.538,0.571,0.808,0.855c0.479,0.506,0.963,1.008,1.45,1.509c0.275,0.282,0.55,0.564,0.827,0.843
			c0.52,0.524,1.042,1.042,1.568,1.558c0.242,0.237,0.482,0.476,0.725,0.711c0.766,0.741,1.54,1.475,2.321,2.199
			c0.038,0.035,0.077,0.07,0.115,0.104c0.745,0.688,1.497,1.366,2.254,2.037c0.261,0.23,0.527,0.46,0.791,0.689
			c0.543,0.475,1.089,0.945,1.639,1.411c0.303,0.257,0.607,0.511,0.912,0.765c0.529,0.442,1.062,0.878,1.597,1.313
			c0.304,0.244,0.607,0.49,0.913,0.733c0.584,0.466,1.173,0.925,1.765,1.381c0.252,0.195,0.503,0.393,0.756,0.585
			c0.842,0.641,1.69,1.273,2.545,1.896c0.13,0.095,0.264,0.186,0.395,0.28c0.729,0.525,1.461,1.045,2.199,1.557
			c0.299,0.207,0.6,0.411,0.901,0.613c0.582,0.397,1.164,0.791,1.751,1.179c0.333,0.219,0.667,0.437,1.002,0.654
			c0.576,0.374,1.155,0.741,1.736,1.107c0.326,0.204,0.652,0.411,0.98,0.612c0.653,0.402,1.31,0.797,1.969,1.189
			c0.254,0.149,0.505,0.305,0.761,0.453c0.909,0.533,1.822,1.057,2.743,1.568c0.204,0.113,0.411,0.22,0.616,0.333
			c0.724,0.398,1.45,0.791,2.181,1.175c0.333,0.175,0.667,0.346,1.001,0.518c0.616,0.318,1.233,0.633,1.854,0.941
			c0.359,0.18,0.719,0.355,1.08,0.53c0.62,0.303,1.242,0.598,1.866,0.891c0.345,0.16,0.691,0.325,1.038,0.484
			c0.724,0.331,1.452,0.653,2.182,0.974c0.243,0.105,0.484,0.217,0.729,0.322c0.968,0.416,1.943,0.822,2.921,1.217
			c0.258,0.104,0.517,0.202,0.775,0.304c0.731,0.29,1.464,0.577,2.2,0.854c0.36,0.135,0.722,0.267,1.084,0.399
			c0.648,0.237,1.298,0.472,1.95,0.7c0.38,0.133,0.761,0.265,1.143,0.395c0.662,0.226,1.327,0.443,1.994,0.659
			c0.356,0.115,0.712,0.232,1.07,0.345c0.813,0.256,1.629,0.5,2.448,0.742c0.208,0.061,0.414,0.124,0.622,0.184
			c1.021,0.297,2.048,0.577,3.079,0.849c0.298,0.079,0.599,0.151,0.898,0.228c0.742,0.19,1.486,0.376,2.232,0.553
			c0.383,0.093,0.767,0.179,1.151,0.267c0.678,0.154,1.357,0.306,2.039,0.451c0.396,0.082,0.792,0.167,1.19,0.247
			c0.705,0.144,1.413,0.279,2.122,0.411c0.36,0.067,0.719,0.139,1.08,0.202c0.925,0.164,1.855,0.318,2.786,0.466
			c0.141,0.022,0.279,0.047,0.419,0.069c1.068,0.163,2.141,0.313,3.216,0.453c0.331,0.043,0.663,0.08,0.994,0.12
			c0.755,0.092,1.511,0.181,2.27,0.26c0.399,0.041,0.799,0.08,1.199,0.118c0.709,0.068,1.419,0.131,2.13,0.188
			c0.404,0.032,0.807,0.064,1.212,0.093c0.752,0.054,1.506,0.1,2.263,0.141c0.351,0.021,0.702,0.042,1.053,0.059
			c1.103,0.053,2.208,0.095,3.317,0.121c9.61,0.223,19.22,0.446,28.832,0.669c-1.109-0.026-2.213-0.068-3.317-0.122
			C179.536,330.771,179.187,330.748,178.835,330.728z"/>
	</g>
	<g>
		<path fill="#E5891C" d="M186.248,12.38c81.794-4.609,149.904,62.918,152.129,150.824c2.229,87.908-62.274,162.907-144.067,167.518
			c-81.79,4.608-149.9-62.916-152.126-150.824C39.957,91.993,104.458,16.99,186.248,12.38z M192.744,268.912
			c50.031-2.819,89.484-48.695,88.122-102.466c-1.36-53.768-43.021-95.076-93.054-92.256c-50.026,2.819-89.48,48.699-88.119,102.466
			C101.055,230.427,142.717,271.731,192.744,268.912"/>
	</g>
</g>
<g>
	<g enable-background="new    ">
		<g>
			<path fill="#8F5611" d="M213.608,196.049c0.003-0.496,0.002-0.998-0.011-1.507c-0.012-0.517-0.033-1.025-0.063-1.524
				c-0.011-0.163-0.024-0.321-0.037-0.482c-0.024-0.339-0.05-0.675-0.081-1.005c-0.006-0.052-0.009-0.107-0.014-0.159
				c-0.016-0.149-0.036-0.292-0.054-0.439c-0.028-0.248-0.057-0.495-0.091-0.738c-0.027-0.205-0.06-0.407-0.091-0.609
				c-0.036-0.232-0.072-0.464-0.113-0.691c-0.037-0.203-0.077-0.401-0.117-0.6c-0.043-0.22-0.087-0.441-0.136-0.657
				c-0.045-0.196-0.091-0.387-0.139-0.579c-0.054-0.215-0.106-0.428-0.163-0.638c-0.021-0.071-0.037-0.147-0.057-0.218
				c-0.026-0.092-0.059-0.178-0.084-0.271c-0.083-0.28-0.171-0.557-0.262-0.829c-0.05-0.152-0.101-0.304-0.154-0.453
				c-0.1-0.279-0.205-0.552-0.313-0.823c-0.052-0.127-0.102-0.257-0.153-0.383c-0.156-0.368-0.319-0.729-0.493-1.081
				c-0.009-0.02-0.019-0.042-0.027-0.062c-0.182-0.369-0.378-0.728-0.579-1.078c-0.066-0.113-0.135-0.22-0.2-0.331
				c-0.145-0.237-0.29-0.472-0.441-0.699c-0.083-0.124-0.167-0.246-0.253-0.367c-0.147-0.21-0.299-0.417-0.455-0.62
				c-0.089-0.118-0.179-0.235-0.272-0.349c-0.169-0.21-0.345-0.413-0.522-0.613c-0.085-0.095-0.165-0.192-0.253-0.286
				c-0.267-0.289-0.541-0.569-0.827-0.839c-3.48-3.281-8.184-5.009-14.108-5.185l-24.223-0.719
				c5.925,0.176,10.627,1.903,14.11,5.184c0.285,0.27,0.559,0.551,0.826,0.839c0.086,0.093,0.168,0.19,0.252,0.285
				c0.179,0.2,0.354,0.405,0.522,0.613c0.093,0.115,0.183,0.232,0.272,0.349c0.156,0.203,0.309,0.41,0.455,0.62
				c0.086,0.121,0.17,0.243,0.253,0.367c0.151,0.228,0.298,0.462,0.44,0.7c0.066,0.11,0.136,0.218,0.201,0.331
				c0.201,0.351,0.396,0.709,0.579,1.078c0.011,0.02,0.019,0.042,0.028,0.062c0.174,0.352,0.336,0.713,0.492,1.081
				c0.053,0.126,0.102,0.255,0.152,0.383c0.108,0.271,0.213,0.544,0.313,0.822c0.055,0.15,0.105,0.302,0.156,0.454
				c0.09,0.272,0.177,0.549,0.26,0.829c0.047,0.162,0.096,0.322,0.141,0.487c0.059,0.213,0.113,0.431,0.168,0.649
				c0.045,0.185,0.09,0.371,0.133,0.559c0.051,0.224,0.097,0.453,0.143,0.682c0.037,0.191,0.076,0.382,0.111,0.576
				c0.042,0.233,0.079,0.472,0.117,0.709c0.029,0.198,0.061,0.396,0.088,0.596c0.034,0.245,0.063,0.495,0.092,0.744
				c0.022,0.197,0.047,0.394,0.065,0.593c0.034,0.348,0.063,0.702,0.087,1.06c0.01,0.138,0.021,0.274,0.03,0.414
				c0.03,0.505,0.052,1.018,0.065,1.539c0.012,0.516,0.014,1.022,0.01,1.523c-0.002,0.14-0.006,0.275-0.01,0.413
				c-0.006,0.354-0.014,0.705-0.029,1.052c-0.007,0.197-0.02,0.392-0.029,0.586c-0.014,0.25-0.027,0.5-0.047,0.746
				c-0.015,0.198-0.033,0.394-0.051,0.59c-0.021,0.24-0.044,0.479-0.069,0.715c-0.021,0.195-0.046,0.389-0.069,0.58
				c-0.029,0.231-0.061,0.459-0.094,0.687c-0.027,0.193-0.058,0.383-0.09,0.573c-0.035,0.219-0.072,0.437-0.113,0.651
				c-0.037,0.196-0.074,0.39-0.115,0.583c-0.04,0.194-0.081,0.385-0.124,0.576c-0.043,0.189-0.089,0.376-0.136,0.563
				c-0.047,0.189-0.094,0.379-0.146,0.565c-0.05,0.184-0.103,0.365-0.155,0.545c-0.054,0.183-0.108,0.365-0.166,0.545
				c-0.057,0.177-0.115,0.351-0.174,0.525c-0.063,0.179-0.125,0.356-0.189,0.532c-0.049,0.135-0.102,0.267-0.153,0.399
				c-0.136,0.346-0.276,0.687-0.426,1.02c-0.039,0.089-0.077,0.18-0.118,0.269c-0.188,0.403-0.384,0.797-0.592,1.182
				c-0.049,0.089-0.1,0.175-0.149,0.265c-0.17,0.303-0.346,0.6-0.528,0.89c-0.065,0.106-0.131,0.211-0.199,0.314
				c-0.237,0.361-0.479,0.717-0.737,1.059c-0.265,0.35-0.538,0.684-0.815,1.008c-0.076,0.088-0.153,0.175-0.229,0.262
				c-0.24,0.27-0.486,0.532-0.735,0.784c-0.054,0.054-0.106,0.112-0.161,0.165c-0.068,0.068-0.138,0.13-0.206,0.196
				c-0.153,0.145-0.307,0.29-0.462,0.428c-0.089,0.078-0.178,0.153-0.266,0.228c-0.143,0.121-0.284,0.24-0.43,0.355
				c-0.096,0.078-0.193,0.152-0.291,0.227c-0.142,0.108-0.283,0.214-0.428,0.316c-0.101,0.073-0.203,0.144-0.305,0.214
				c-0.145,0.1-0.293,0.195-0.441,0.29c-0.102,0.065-0.205,0.131-0.309,0.194c-0.156,0.093-0.313,0.183-0.471,0.272
				c-0.1,0.055-0.199,0.112-0.301,0.166c-0.174,0.094-0.352,0.181-0.531,0.267c-0.087,0.043-0.173,0.087-0.262,0.129
				c-0.256,0.119-0.516,0.231-0.779,0.337c-0.012,0.006-0.021,0.011-0.034,0.016c-0.253,0.101-0.51,0.193-0.771,0.282
				c-0.176,0.061-0.357,0.115-0.537,0.171c-0.158,0.047-0.313,0.1-0.473,0.144c-0.15,0.042-0.305,0.074-0.457,0.112
				c-0.158,0.039-0.313,0.081-0.474,0.115c-0.142,0.033-0.29,0.056-0.434,0.083c-0.173,0.033-0.344,0.07-0.521,0.099
				c-0.21,0.035-0.424,0.06-0.639,0.088c-0.118,0.015-0.231,0.035-0.351,0.047c-0.333,0.037-0.671,0.066-1.012,0.087
				c-0.303,0.019-0.604,0.03-0.898,0.036c-0.296,0.005-0.585,0.004-0.872-0.006l0,0h0l24.224,0.721
				c0.571,0.017,1.162,0.007,1.769-0.031c0.342-0.021,0.679-0.05,1.014-0.086c0.128-0.015,0.254-0.036,0.381-0.053
				c0.202-0.026,0.408-0.05,0.608-0.083c0.005-0.001,0.01-0.001,0.014-0.001c0.183-0.03,0.361-0.068,0.539-0.104
				c0.135-0.025,0.269-0.047,0.402-0.076c0.163-0.036,0.322-0.08,0.485-0.12c0.148-0.037,0.297-0.069,0.444-0.11
				c0.115-0.031,0.225-0.069,0.338-0.103c0.521-0.154,1.031-0.33,1.527-0.531c0.244-0.099,0.486-0.203,0.725-0.313
				c0.097-0.044,0.189-0.093,0.285-0.14c0.17-0.083,0.34-0.167,0.507-0.255c0.106-0.056,0.21-0.116,0.314-0.175
				c0.153-0.086,0.307-0.173,0.458-0.264c0.105-0.064,0.211-0.132,0.317-0.199c0.146-0.093,0.29-0.186,0.433-0.283
				c0.104-0.071,0.209-0.145,0.313-0.218c0.141-0.101,0.279-0.205,0.419-0.311c0.1-0.076,0.2-0.152,0.299-0.232
				c0.141-0.112,0.278-0.229,0.417-0.346c0.093-0.079,0.187-0.158,0.278-0.238c0.146-0.13,0.291-0.267,0.434-0.403
				c0.079-0.076,0.159-0.147,0.237-0.224c0.014-0.014,0.028-0.026,0.042-0.04c0.033-0.033,0.063-0.071,0.098-0.104
				c0.259-0.26,0.51-0.53,0.758-0.81c0.039-0.043,0.08-0.083,0.118-0.127c0.034-0.037,0.063-0.079,0.097-0.117
				c0.28-0.328,0.556-0.662,0.822-1.016c0.258-0.343,0.501-0.699,0.738-1.062c0.066-0.101,0.131-0.204,0.194-0.307
				c0.186-0.294,0.365-0.596,0.537-0.903c0.045-0.085,0.096-0.168,0.142-0.254c0.209-0.385,0.406-0.78,0.593-1.185
				c0.042-0.089,0.08-0.181,0.122-0.272c0.146-0.328,0.285-0.663,0.418-1.003c0.027-0.07,0.06-0.135,0.085-0.205
				c0.028-0.073,0.052-0.147,0.079-0.22c0.061-0.167,0.119-0.335,0.177-0.504c0.063-0.181,0.125-0.363,0.185-0.548
				c0.055-0.174,0.107-0.349,0.159-0.525c0.055-0.187,0.108-0.375,0.161-0.565c0.049-0.18,0.095-0.362,0.141-0.545
				c0.047-0.192,0.095-0.386,0.14-0.582c0.043-0.187,0.082-0.377,0.122-0.568c0.023-0.11,0.05-0.216,0.07-0.327
				c0.016-0.083,0.029-0.17,0.045-0.253c0.039-0.217,0.078-0.436,0.113-0.655c0.032-0.189,0.063-0.379,0.091-0.571
				c0.033-0.227,0.063-0.457,0.093-0.688c0.023-0.191,0.048-0.384,0.068-0.577c0.026-0.238,0.05-0.479,0.071-0.719
				c0.017-0.195,0.035-0.39,0.051-0.588c0.017-0.247,0.032-0.496,0.046-0.747c0.008-0.139,0.02-0.274,0.025-0.415
				c0.003-0.057,0.003-0.116,0.005-0.173c0.014-0.328,0.021-0.66,0.027-0.994C213.6,196.372,213.607,196.212,213.608,196.049z"/>
			<polygon fill="#8F5611" points="187.977,227.184 163.754,226.465 163.795,228.278 143.881,227.687 144.236,243.039 
				168.459,243.758 168.417,241.944 188.332,242.536 			"/>
			<path fill="#8F5611" d="M207.222,137.454c-0.031-0.2-0.063-0.397-0.097-0.594c-0.028-0.156-0.057-0.312-0.086-0.466
				c-0.039-0.193-0.078-0.384-0.12-0.574c-0.033-0.151-0.065-0.301-0.1-0.449c-0.047-0.188-0.096-0.371-0.145-0.555
				c-0.027-0.103-0.051-0.209-0.08-0.31c-0.011-0.039-0.024-0.076-0.035-0.115c-0.066-0.229-0.139-0.455-0.211-0.678
				c-0.032-0.101-0.063-0.205-0.098-0.304c-0.108-0.317-0.225-0.628-0.347-0.933c-0.028-0.068-0.059-0.133-0.086-0.201
				c-0.099-0.236-0.199-0.471-0.307-0.699c-0.05-0.107-0.104-0.212-0.156-0.317c-0.093-0.185-0.183-0.368-0.278-0.545
				c-0.062-0.113-0.125-0.222-0.188-0.332c-0.096-0.167-0.193-0.333-0.293-0.496c-0.066-0.108-0.135-0.215-0.203-0.32
				c-0.105-0.162-0.215-0.32-0.325-0.477c-0.069-0.098-0.138-0.196-0.21-0.292c-0.123-0.167-0.252-0.329-0.383-0.49
				c-0.064-0.079-0.124-0.159-0.189-0.236c-0.198-0.234-0.402-0.462-0.613-0.684c-2.652-2.769-6.375-4.224-11.17-4.366
				c-8.076-0.24-16.149-0.48-24.225-0.72c4.795,0.143,8.517,1.597,11.171,4.366c0.212,0.221,0.415,0.45,0.614,0.685
				c0.063,0.075,0.122,0.153,0.186,0.229c0.131,0.163,0.262,0.328,0.389,0.497c0.069,0.093,0.136,0.19,0.203,0.285
				c0.113,0.159,0.225,0.321,0.332,0.487c0.066,0.102,0.131,0.204,0.195,0.308c0.104,0.168,0.206,0.339,0.304,0.512
				c0.06,0.105,0.12,0.208,0.177,0.315c0.1,0.188,0.197,0.378,0.292,0.571c0.048,0.097,0.097,0.193,0.144,0.291
				c0.115,0.247,0.226,0.499,0.33,0.755c0.021,0.049,0.043,0.096,0.063,0.146c0.125,0.309,0.242,0.625,0.354,0.948
				c0.028,0.082,0.053,0.167,0.08,0.251c0.08,0.242,0.156,0.486,0.229,0.734c0.036,0.128,0.07,0.259,0.105,0.388
				c0.052,0.193,0.104,0.388,0.15,0.586c0.035,0.144,0.066,0.291,0.1,0.438c0.041,0.192,0.082,0.385,0.121,0.581
				c0.029,0.152,0.057,0.306,0.084,0.459c0.035,0.201,0.068,0.403,0.1,0.607c0.024,0.153,0.045,0.307,0.067,0.462
				c0.029,0.215,0.054,0.435,0.079,0.655c0.017,0.145,0.032,0.29,0.046,0.437c0.028,0.286,0.052,0.577,0.071,0.87
				c0.008,0.119,0.02,0.237,0.026,0.357c0.024,0.415,0.043,0.835,0.054,1.263c0.018,0.841,0.01,1.661-0.027,2.462
				c-0.031,0.717-0.09,1.417-0.168,2.101c-0.006,0.047-0.01,0.095-0.014,0.142c-0.078,0.654-0.18,1.292-0.297,1.917
				c-0.014,0.071-0.026,0.143-0.04,0.214c-0.12,0.604-0.261,1.19-0.419,1.765c-0.023,0.087-0.047,0.175-0.072,0.262
				c-0.161,0.561-0.343,1.108-0.542,1.643c-0.034,0.093-0.07,0.186-0.104,0.278c-0.179,0.459-0.369,0.91-0.575,1.35
				c-0.026,0.057-0.056,0.111-0.083,0.168c-0.195,0.405-0.404,0.8-0.623,1.188c-0.043,0.076-0.084,0.154-0.129,0.229
				c-0.239,0.409-0.492,0.807-0.758,1.196c-0.059,0.084-0.117,0.168-0.177,0.251c-0.28,0.396-0.571,0.787-0.881,1.163
				c-0.153,0.186-0.315,0.363-0.478,0.542c-0.147,0.164-0.301,0.324-0.455,0.481c-0.113,0.115-0.226,0.231-0.342,0.343
				c-0.084,0.08-0.17,0.158-0.254,0.236c-0.15,0.138-0.303,0.273-0.459,0.405c-0.089,0.076-0.179,0.152-0.269,0.225
				c-0.166,0.135-0.335,0.266-0.505,0.395c-0.086,0.063-0.169,0.129-0.255,0.191c-0.218,0.157-0.441,0.309-0.667,0.458
				c-0.045,0.028-0.086,0.059-0.131,0.088c-0.271,0.174-0.552,0.342-0.838,0.504c-0.082,0.046-0.167,0.089-0.251,0.135
				c-0.206,0.112-0.416,0.224-0.63,0.331c-0.11,0.055-0.223,0.108-0.336,0.162c-0.194,0.092-0.391,0.183-0.59,0.271
				c-0.121,0.053-0.243,0.104-0.366,0.155c-0.166,0.068-0.333,0.134-0.502,0.199c-0.25,0.096-0.502,0.188-0.759,0.276
				c-0.147,0.051-0.294,0.102-0.444,0.15c-0.283,0.092-0.574,0.177-0.866,0.26c-0.128,0.036-0.252,0.075-0.382,0.109
				c-0.426,0.113-0.86,0.22-1.305,0.316c-0.025,0.005-0.05,0.009-0.074,0.014c-0.421,0.089-0.852,0.169-1.29,0.243
				c-0.121,0.021-0.245,0.038-0.368,0.057c-0.421,0.065-0.85,0.124-1.286,0.175c-0.152,0.018-0.305,0.036-0.458,0.052
				c-0.553,0.058-1.112,0.109-1.689,0.145l-3.566,0.219l24.224,0.72l3.564-0.22c0.578-0.035,1.139-0.086,1.689-0.144
				c0.155-0.016,0.307-0.035,0.459-0.052c0.436-0.052,0.865-0.11,1.285-0.176c0.084-0.012,0.174-0.021,0.256-0.035
				c0.038-0.006,0.074-0.015,0.111-0.021c0.438-0.073,0.869-0.153,1.291-0.243c0.023-0.005,0.049-0.009,0.074-0.014
				c0.444-0.095,0.878-0.202,1.304-0.315c0.132-0.035,0.259-0.075,0.388-0.111c0.291-0.082,0.578-0.167,0.859-0.257
				c0.152-0.05,0.302-0.102,0.451-0.153c0.254-0.087,0.502-0.177,0.746-0.272c0.084-0.031,0.171-0.059,0.254-0.091
				c0.09-0.036,0.176-0.076,0.265-0.113c0.118-0.049,0.235-0.099,0.353-0.149c0.203-0.089,0.404-0.181,0.602-0.276
				c0.11-0.052,0.221-0.104,0.33-0.158c0.216-0.107,0.426-0.22,0.633-0.333c0.082-0.045,0.168-0.088,0.249-0.134
				c0.286-0.162,0.565-0.33,0.838-0.504c0.048-0.031,0.093-0.065,0.143-0.096c0.222-0.146,0.44-0.294,0.653-0.448
				c0.09-0.065,0.177-0.132,0.264-0.199c0.168-0.126,0.332-0.253,0.495-0.384c0.095-0.077,0.187-0.156,0.28-0.235
				c0.15-0.128,0.299-0.259,0.444-0.392c0.089-0.083,0.179-0.165,0.269-0.25c0.047-0.046,0.098-0.09,0.145-0.136
				c0.065-0.063,0.122-0.131,0.185-0.194c0.156-0.16,0.313-0.323,0.463-0.489c0.048-0.055,0.104-0.106,0.153-0.161
				c0.107-0.125,0.217-0.252,0.322-0.38c0.311-0.377,0.603-0.769,0.885-1.167c0.057-0.081,0.114-0.161,0.171-0.243
				c0.267-0.391,0.521-0.791,0.762-1.202c0.043-0.074,0.083-0.149,0.126-0.224c0.221-0.388,0.429-0.785,0.623-1.19
				c0.027-0.058,0.059-0.112,0.084-0.17c0.207-0.437,0.396-0.887,0.573-1.344c0.019-0.051,0.043-0.097,0.063-0.148
				c0.017-0.045,0.028-0.093,0.045-0.138c0.198-0.534,0.379-1.081,0.541-1.642c0.024-0.085,0.047-0.171,0.07-0.257
				c0.158-0.573,0.299-1.159,0.419-1.759c0.004-0.029,0.015-0.055,0.02-0.084c0.01-0.05,0.015-0.104,0.024-0.154
				c0.116-0.618,0.216-1.249,0.293-1.896c0.006-0.052,0.01-0.105,0.015-0.158c0.164-1.446,0.23-2.961,0.194-4.552
				c-0.01-0.425-0.029-0.841-0.052-1.252c-0.009-0.137-0.02-0.271-0.029-0.406c-0.02-0.271-0.041-0.542-0.066-0.808
				c-0.007-0.063-0.009-0.128-0.016-0.191c-0.011-0.103-0.026-0.201-0.037-0.303c-0.023-0.204-0.047-0.407-0.073-0.607
				C207.269,137.776,207.247,137.614,207.222,137.454z"/>
			<path fill="#8F5611" d="M170.667,117.059l14.514-0.894l-0.012-0.467l5.141,0.152l5.671-0.349c3.33-0.205,6.433-0.265,9.305-0.18
				c-6.713-0.198-13.425-0.398-20.138-0.598l-0.378-16.325l5.128-0.315l-24.223-0.72l-5.128,0.315l0.411,17.768l-14.514,0.893
				L170.667,117.059z"/>
		</g>
		<path fill="#E5891C" d="M237.75,181.77c1.907,3.359,2.915,7.383,3.023,12.079c0.131,5.632-0.802,10.456-2.792,14.472
			c-1.988,4.013-4.899,7.26-8.733,9.744c-4.06,2.655-8.761,4.641-14.109,5.963c-5.348,1.322-11.657,2.203-18.924,2.65l-3.109,0.19
			l0.355,15.352l-5.129,0.316l-0.354-15.352l-14.744,0.908l0.354,15.351l-5.128,0.315l-0.355-15.351l-22.421,1.379l-0.141-6.099
			c1.414-0.244,3.188-0.59,5.33-1.036c2.141-0.446,3.644-0.904,4.501-1.374c1.673-0.885,2.801-1.987,3.391-3.302
			c0.59-1.314,0.858-2.993,0.812-5.027l-1.808-78.253c-0.043-1.876-0.331-3.427-0.864-4.648c-0.533-1.221-1.766-2.242-3.709-3.062
			c-1.433-0.591-3.09-1.049-4.975-1.376c-1.885-0.332-3.537-0.579-4.96-0.757l-0.141-6.099l22.421-1.38l-0.411-17.767l5.128-0.315
			l0.411,17.767l14.514-0.894l-0.411-17.767l5.128-0.315l0.412,17.767l5.671-0.349c13.3-0.818,22.948,0.679,28.94,4.484
			c5.993,3.811,9.086,9.789,9.274,17.925c0.087,3.757-0.503,7.097-1.761,10.022c-1.264,2.925-3.102,5.508-5.522,7.742
			c-2.191,2.068-4.832,3.902-7.907,5.502c-3.076,1.6-6.384,2.979-9.927,4.137l0.033,1.487c3.576,0.199,7.299,0.869,11.169,2.018
			c3.876,1.144,7.251,2.725,10.137,4.741C233.396,175.679,235.836,178.416,237.75,181.77z M208.899,212.491
			c3.307-4.393,4.873-10.376,4.698-17.949c-0.179-7.734-2.326-13.543-6.444-17.42c-4.118-3.882-9.946-5.59-17.487-5.125
			c-0.871,0.053-2.023,0.164-3.46,0.326c-1.438,0.167-2.5,0.301-3.186,0.392l0.939,40.681c0.455,1.91,1.772,3.461,3.952,4.665
			c2.179,1.198,4.803,1.701,7.864,1.512C201.216,219.239,205.587,216.88,208.899,212.491 M181.89,123.809l0.951,41.163l3.564-0.22
			c7.404-0.455,12.82-2.76,16.252-6.916c3.428-4.155,5.063-9.596,4.908-16.329c-0.143-6.153-1.773-10.863-4.893-14.118
			c-3.121-3.255-7.716-4.694-13.797-4.319c-0.866,0.053-1.996,0.162-3.391,0.322C184.091,123.556,182.893,123.698,181.89,123.809"/>
		<path fill="#8F5611" d="M165.129,99.607l5.128-0.315l-24.224-0.72l-5.128,0.315l0.411,17.768l-22.422,1.379l0.141,6.1
			c1.423,0.178,3.076,0.425,4.96,0.756c1.885,0.327,3.542,0.785,4.975,1.376c1.943,0.82,3.177,1.84,3.71,3.062
			c0.123,0.282,0.23,0.586,0.327,0.904c0.012,0.039,0.025,0.076,0.037,0.115c0.083,0.287,0.153,0.592,0.216,0.908
			c0.011,0.056,0.027,0.106,0.038,0.164c0.069,0.375,0.125,0.771,0.165,1.186c0.003,0.03,0.005,0.061,0.007,0.091
			c0.038,0.409,0.065,0.834,0.075,1.28l1.808,78.253c0.009,0.386,0.003,0.753-0.011,1.114c-0.002,0.067-0.004,0.135-0.008,0.201
			c-0.015,0.3-0.037,0.593-0.069,0.875c-0.005,0.044-0.012,0.085-0.017,0.129c-0.03,0.244-0.067,0.48-0.11,0.711
			c-0.012,0.068-0.025,0.137-0.039,0.205c-0.041,0.199-0.087,0.393-0.138,0.582c-0.01,0.04-0.019,0.082-0.03,0.12
			c-0.063,0.222-0.133,0.435-0.21,0.642c-0.057,0.153-0.116,0.305-0.181,0.448c-0.1,0.224-0.222,0.439-0.354,0.65
			c-0.032,0.051-0.063,0.101-0.097,0.152c-0.138,0.206-0.286,0.408-0.455,0.602c-0.117,0.134-0.242,0.267-0.374,0.396
			c-0.084,0.082-0.176,0.161-0.266,0.241c-0.063,0.055-0.12,0.111-0.185,0.165c-0.095,0.079-0.199,0.155-0.301,0.232
			c-0.068,0.051-0.131,0.104-0.202,0.154c-0.109,0.078-0.228,0.151-0.343,0.226c-0.071,0.046-0.138,0.093-0.211,0.139
			c-0.193,0.118-0.395,0.233-0.605,0.344c-0.103,0.058-0.218,0.114-0.34,0.171c-0.052,0.024-0.113,0.048-0.169,0.072
			c-0.075,0.033-0.149,0.065-0.229,0.098c-0.198,0.078-0.418,0.155-0.652,0.233c-0.053,0.017-0.108,0.034-0.163,0.052
			c-0.238,0.075-0.488,0.151-0.76,0.227c-0.009,0.002-0.016,0.004-0.025,0.007c-0.283,0.078-0.591,0.155-0.912,0.233
			c-0.071,0.017-0.142,0.034-0.215,0.051c-0.329,0.076-0.669,0.153-1.035,0.229c-2.141,0.447-3.916,0.792-5.33,1.037l0.14,6.099
			l24.224,0.719l-0.141-6.099c1.414-0.244,3.188-0.59,5.33-1.036c0.365-0.077,0.705-0.153,1.033-0.229
			c0.074-0.017,0.147-0.035,0.219-0.052c0.319-0.077,0.626-0.153,0.908-0.232c0.012-0.002,0.022-0.007,0.034-0.01
			c0.269-0.074,0.516-0.148,0.75-0.224c0.058-0.017,0.113-0.036,0.168-0.053c0.232-0.078,0.452-0.155,0.648-0.233
			c0.005-0.002,0.012-0.004,0.018-0.006c0.09-0.036,0.17-0.072,0.253-0.108c0.041-0.019,0.087-0.036,0.126-0.054
			c0.124-0.057,0.24-0.115,0.345-0.172c0.21-0.112,0.412-0.227,0.605-0.345c0.06-0.037,0.114-0.076,0.172-0.113
			c0.129-0.083,0.261-0.166,0.382-0.252c0.068-0.047,0.129-0.098,0.195-0.148c0.104-0.079,0.21-0.156,0.308-0.237
			c0.07-0.057,0.132-0.118,0.198-0.177c0.085-0.076,0.173-0.149,0.251-0.227c0.004-0.004,0.009-0.008,0.013-0.012
			c0.125-0.121,0.242-0.247,0.354-0.374c0.003-0.004,0.006-0.007,0.009-0.012c0.167-0.194,0.316-0.396,0.454-0.601
			c0.034-0.052,0.066-0.103,0.098-0.155c0.132-0.21,0.253-0.425,0.353-0.649c0.059-0.129,0.113-0.263,0.166-0.399
			c0.006-0.016,0.01-0.033,0.016-0.047c0.077-0.206,0.147-0.419,0.21-0.641c0.012-0.042,0.021-0.087,0.033-0.13
			c0.049-0.184,0.094-0.373,0.134-0.567c0.007-0.032,0.017-0.063,0.023-0.097c0.007-0.039,0.01-0.083,0.018-0.121
			c0.042-0.224,0.077-0.454,0.106-0.69c0.005-0.049,0.014-0.097,0.019-0.146c0.031-0.28,0.053-0.569,0.068-0.867
			c0.001-0.029,0.006-0.055,0.006-0.085c0.002-0.04,0-0.084,0.002-0.125c0.013-0.357,0.02-0.725,0.011-1.108l-1.808-78.253
			c-0.011-0.443-0.036-0.865-0.074-1.272c-0.002-0.034-0.005-0.07-0.008-0.104c-0.002-0.02-0.003-0.041-0.005-0.061l0,0
			c-0.041-0.391-0.093-0.764-0.159-1.121c-0.011-0.059-0.027-0.11-0.039-0.168c-0.057-0.285-0.117-0.566-0.191-0.828
			c-0.007-0.026-0.017-0.05-0.024-0.077c-0.011-0.039-0.024-0.076-0.036-0.114c-0.098-0.318-0.205-0.622-0.328-0.905
			c-0.533-1.221-1.766-2.242-3.709-3.062c-1.433-0.591-3.09-1.049-4.975-1.376c-1.885-0.332-3.537-0.579-4.96-0.757l-0.141-6.099
			l22.421-1.38L165.129,99.607z"/>
	</g>
</g>
</svg>
