<?xml version="1.0" encoding="UTF-8"?>
<!DOCTYPE svg PUBLIC "-//W3C//DTD SVG 1.1//EN" "http://www.w3.org/Graphics/SVG/1.1/DTD/svg11.dtd">
<!-- Creator: CorelDRAW X8 -->
<svg xmlns="http://www.w3.org/2000/svg" xml:space="preserve" width="5in" height="4in" version="1.1" shape-rendering="geometricPrecision" text-rendering="geometricPrecision" image-rendering="optimizeQuality" fill-rule="evenodd" clip-rule="evenodd"
viewBox="0 0 5000 4000"
 xmlns:xlink="http://www.w3.org/1999/xlink">
 <g id="Layer_x0020_1">
  <metadata id="CorelCorpID_0Corel-Layer"/>
  <g id="_1790811822480">
   <g>
    <ellipse fill="#2D2E40" cx="3597" cy="2197" rx="1251" ry="1252"/>
    <circle fill="#A4A5C9" cx="3597" cy="2197" r="900"/>
    <g>
     <polygon fill="#494A80" fill-rule="nonzero" points="3594,1488 3987,2141 3625,1887 3244,2141 "/>
     <polygon fill="#2D2E40" fill-rule="nonzero" points="3244,2141 3632,2309 3987,2141 3625,1887 "/>
     <polygon fill="#494A80" fill-rule="nonzero" points="3611,2838 4004,2185 3640,2357 3261,2185 "/>
    </g>
   </g>
   <g>
    <ellipse fill="#F58634" cx="1530" cy="2162" rx="1251" ry="1252"/>
    <circle fill="#FAA954" cx="1530" cy="2162" r="900"/>
    <g>
     <rect fill="#C26C3A" x="1428" y="1682" width="49.0822" height="129.522"/>
     <rect fill="#C26C3A" x="1538" y="1682" width="49.0822" height="129.522"/>
     <rect fill="#C26C3A" x="1465" y="2513" width="49.0822" height="125.96"/>
     <rect fill="#C26C3A" x="1575" y="2513" width="49.0822" height="125.96"/>
     <path fill="#C26C3A" fill-rule="nonzero" d="M1205 2519l0 -11c21,-1 37,-4 49,-9 13,-5 24,-12 33,-22 11,-11 19,-25 23,-42 3,-18 5,-44 5,-80l0 -387c0,-36 -2,-62 -5,-80 -4,-17 -12,-31 -23,-42 -9,-10 -20,-18 -33,-22 -12,-5 -29,-7 -49,-8l0 -12 344 0c35,0 58,0 69,1 39,3 72,12 98,28 23,14 41,33 53,55 12,23 19,49 19,77 0,46 -15,84 -43,113 -10,11 -21,20 -34,27 -13,7 -32,15 -56,24 33,6 59,12 78,18 18,7 35,16 50,28 23,18 40,41 52,68 13,27 19,56 19,87 0,32 -6,61 -19,88 -13,26 -30,47 -53,63 -21,14 -45,24 -74,30 -28,6 -68,8 -120,8l-383 0zm224 -699l0 312 43 0c20,0 40,-1 62,-4 18,-3 33,-6 44,-10 12,-4 22,-9 32,-16 17,-13 31,-30 41,-51 9,-21 14,-44 14,-69 0,-27 -5,-52 -15,-76 -10,-24 -23,-43 -39,-56 -15,-12 -31,-20 -49,-24 -19,-4 -47,-6 -84,-6l-49 0zm0 328l0 216c0,26 2,47 6,63 3,16 9,30 18,41 18,24 48,35 92,35 56,0 101,-15 133,-46 33,-31 49,-72 49,-126 0,-30 -5,-58 -15,-84 -10,-26 -24,-46 -41,-60 -31,-26 -81,-39 -148,-39l-94 0z"/>
    </g>
   </g>
  </g>
 </g>
</svg>
