<?xml version="1.0" encoding="UTF-8"?>
<!DOCTYPE svg PUBLIC "-//W3C//DTD SVG 1.1//EN" "http://www.w3.org/Graphics/SVG/1.1/DTD/svg11.dtd">
<!-- Creator: CorelDRAW X8 -->
<svg xmlns="http://www.w3.org/2000/svg" xml:space="preserve" width="5in" height="4in" version="1.1" shape-rendering="geometricPrecision" text-rendering="geometricPrecision" image-rendering="optimizeQuality" fill-rule="evenodd" clip-rule="evenodd"
viewBox="0 0 5000 4000"
 xmlns:xlink="http://www.w3.org/1999/xlink">
 <g id="Layer_x0020_1">
  <metadata id="CorelCorpID_0Corel-Layer"/>
  <g id="_1929726658864">
   <g>
    <path fill="#F58634" d="M3702 2673l-361 -148c-76,-211 -229,-385 -427,-486 -18,18 -38,35 -59,50 62,-232 216,-426 421,-541 108,96 249,155 405,155 163,0 311,-65 420,-169 283,145 478,440 478,780l-877 359z"/>
    <path fill="#F58634" d="M3684 617c247,0 447,200 447,447 0,246 -200,446 -447,446 -246,0 -446,-200 -446,-446 0,-247 200,-447 446,-447z"/>
   </g>
   <g>
    <path fill="#F58634" d="M1272 2686l-876 -358c0,-329 182,-616 450,-766 108,96 249,154 405,154 163,0 311,-64 420,-168 227,116 397,329 455,584 -34,-21 -67,-44 -97,-71 -187,104 -332,275 -402,480l-355 145z"/>
    <path fill="#F58634" d="M1255 631c246,0 446,200 446,446 0,247 -200,447 -446,447 -247,0 -447,-200 -447,-447 0,-246 200,-446 447,-446z"/>
   </g>
   <g>
    <path fill="#F58634" d="M2491 3275l-876 -359c0,-329 182,-616 450,-766 108,96 249,155 404,155 164,0 312,-65 421,-169 283,145 477,440 477,780l-876 359z"/>
    <circle fill="#F58634" cx="2473" cy="1666" r="447"/>
   </g>
  </g>
 </g>
</svg>
