<?xml version="1.0" encoding="utf-8"?>
<!-- Generator: Adobe Illustrator 16.0.0, SVG Export Plug-In . SVG Version: 6.00 Build 0)  -->
<!DOCTYPE svg PUBLIC "-//W3C//DTD SVG 1.1//EN" "http://www.w3.org/Graphics/SVG/1.1/DTD/svg11.dtd">
<svg version="1.1" xmlns="http://www.w3.org/2000/svg" xmlns:xlink="http://www.w3.org/1999/xlink" x="0px" y="0px"
	 width="535.474px" height="175.491px" viewBox="0 0 535.474 175.491" enable-background="new 0 0 535.474 175.491"
	 xml:space="preserve">
<g id="Layer_3">
</g>
<g id="Layer_5">
	<g>
		<g>
			<g opacity="0.3">
				<ellipse opacity="0" fill="#A6A8AB" cx="96.855" cy="155.277" rx="73.955" ry="9.179"/>
				<ellipse opacity="0.0099" fill="#A5A7AA" cx="96.855" cy="155.277" rx="73.321" ry="9.101"/>
				<ellipse opacity="0.0198" fill="#A3A5A8" cx="96.854" cy="155.277" rx="72.687" ry="9.022"/>
				<ellipse opacity="0.0297" fill="#A2A4A7" cx="96.854" cy="155.277" rx="72.053" ry="8.943"/>
				<ellipse opacity="0.0396" fill="#A1A3A5" cx="96.855" cy="155.277" rx="71.419" ry="8.864"/>
				<ellipse opacity="0.0495" fill="#A0A1A4" cx="96.854" cy="155.277" rx="70.785" ry="8.786"/>
				<ellipse opacity="0.0594" fill="#9EA0A3" cx="96.855" cy="155.277" rx="70.151" ry="8.707"/>
				<ellipse opacity="0.0693" fill="#9D9FA1" cx="96.855" cy="155.277" rx="69.516" ry="8.628"/>
				<ellipse opacity="0.0792" fill="#9C9DA0" cx="96.854" cy="155.277" rx="68.882" ry="8.55"/>
				<ellipse opacity="0.0891" fill="#9A9C9F" cx="96.855" cy="155.277" rx="68.248" ry="8.471"/>
				<ellipse opacity="0.099" fill="#999A9D" cx="96.855" cy="155.277" rx="67.614" ry="8.392"/>
				<ellipse opacity="0.1089" fill="#98999C" cx="96.855" cy="155.277" rx="66.98" ry="8.313"/>
				<ellipse opacity="0.1188" fill="#96989A" cx="96.855" cy="155.277" rx="66.345" ry="8.234"/>
				<ellipse opacity="0.1287" fill="#959699" cx="96.855" cy="155.277" rx="65.711" ry="8.156"/>
				<ellipse opacity="0.1386" fill="#949598" cx="96.854" cy="155.277" rx="65.077" ry="8.077"/>
				<ellipse opacity="0.1485" fill="#939496" cx="96.855" cy="155.277" rx="64.443" ry="7.998"/>
				<ellipse opacity="0.1584" fill="#919295" cx="96.855" cy="155.277" rx="63.809" ry="7.919"/>
				<ellipse opacity="0.1683" fill="#909194" cx="96.855" cy="155.277" rx="63.175" ry="7.841"/>
				<ellipse opacity="0.1782" fill="#8F9092" cx="96.855" cy="155.277" rx="62.54" ry="7.762"/>
				<ellipse opacity="0.1881" fill="#8D8E91" cx="96.854" cy="155.277" rx="61.906" ry="7.684"/>
				<ellipse opacity="0.198" fill="#8C8D8F" cx="96.855" cy="155.277" rx="61.272" ry="7.605"/>
				<ellipse opacity="0.2079" fill="#8B8C8E" cx="96.855" cy="155.277" rx="60.638" ry="7.526"/>
				<ellipse opacity="0.2178" fill="#898A8D" cx="96.854" cy="155.277" rx="60.004" ry="7.447"/>
				<ellipse opacity="0.2277" fill="#88898B" cx="96.855" cy="155.277" rx="59.369" ry="7.369"/>
				<ellipse opacity="0.2376" fill="#87878A" cx="96.855" cy="155.277" rx="58.735" ry="7.29"/>
				<ellipse opacity="0.2475" fill="#868689" cx="96.855" cy="155.277" rx="58.101" ry="7.211"/>
				<ellipse opacity="0.2574" fill="#848587" cx="96.855" cy="155.277" rx="57.467" ry="7.133"/>
				<ellipse opacity="0.2673" fill="#838386" cx="96.855" cy="155.277" rx="56.833" ry="7.054"/>
				<ellipse opacity="0.2772" fill="#828284" cx="96.855" cy="155.277" rx="56.199" ry="6.975"/>
				<ellipse opacity="0.2871" fill="#808183" cx="96.854" cy="155.277" rx="55.564" ry="6.896"/>
				<ellipse opacity="0.297" fill="#7F7F82" cx="96.854" cy="155.277" rx="54.931" ry="6.818"/>
				<ellipse opacity="0.3069" fill="#7E7E80" cx="96.855" cy="155.277" rx="54.296" ry="6.739"/>
				<ellipse opacity="0.3168" fill="#7C7D7F" cx="96.854" cy="155.277" rx="53.662" ry="6.66"/>
				<ellipse opacity="0.3267" fill="#7B7B7E" cx="96.855" cy="155.277" rx="53.028" ry="6.581"/>
				<ellipse opacity="0.3366" fill="#7A7A7C" cx="96.855" cy="155.277" rx="52.394" ry="6.503"/>
				<ellipse opacity="0.3465" fill="#79797B" cx="96.855" cy="155.277" rx="51.76" ry="6.424"/>
				<ellipse opacity="0.3564" fill="#777779" cx="96.854" cy="155.277" rx="51.125" ry="6.346"/>
				<ellipse opacity="0.3663" fill="#767678" cx="96.854" cy="155.277" rx="50.491" ry="6.267"/>
				<ellipse opacity="0.3762" fill="#757477" cx="96.855" cy="155.277" rx="49.857" ry="6.188"/>
				<ellipse opacity="0.3861" fill="#737375" cx="96.855" cy="155.277" rx="49.223" ry="6.109"/>
				<ellipse opacity="0.396" fill="#727274" cx="96.854" cy="155.277" rx="48.589" ry="6.03"/>
				<ellipse opacity="0.4059" fill="#717073" cx="96.855" cy="155.277" rx="47.955" ry="5.952"/>
				<ellipse opacity="0.4158" fill="#706F71" cx="96.854" cy="155.277" rx="47.32" ry="5.873"/>
				<ellipse opacity="0.4257" fill="#6E6E70" cx="96.855" cy="155.277" rx="46.686" ry="5.795"/>
				<ellipse opacity="0.4356" fill="#6D6C6E" cx="96.854" cy="155.277" rx="46.052" ry="5.716"/>
				<ellipse opacity="0.4455" fill="#6C6B6D" cx="96.854" cy="155.277" rx="45.418" ry="5.637"/>
				<ellipse opacity="0.4554" fill="#6A6A6C" cx="96.855" cy="155.277" rx="44.784" ry="5.558"/>
				<ellipse opacity="0.4653" fill="#69686A" cx="96.854" cy="155.277" rx="44.149" ry="5.479"/>
				<ellipse opacity="0.4752" fill="#686769" cx="96.854" cy="155.277" rx="43.516" ry="5.401"/>
				<ellipse opacity="0.4851" fill="#666668" cx="96.855" cy="155.277" rx="42.881" ry="5.322"/>
				<ellipse opacity="0.495" fill="#656466" cx="96.854" cy="155.277" rx="42.247" ry="5.244"/>
				<ellipse opacity="0.505" fill="#646365" cx="96.855" cy="155.277" rx="41.613" ry="5.165"/>
				<ellipse opacity="0.5149" fill="#636163" cx="96.855" cy="155.277" rx="40.979" ry="5.086"/>
				<ellipse opacity="0.5248" fill="#616062" cx="96.854" cy="155.277" rx="40.345" ry="5.007"/>
				<ellipse opacity="0.5347" fill="#605F61" cx="96.854" cy="155.277" rx="39.71" ry="4.929"/>
				<ellipse opacity="0.5446" fill="#5F5D5F" cx="96.854" cy="155.277" rx="39.076" ry="4.85"/>
				<ellipse opacity="0.5545" fill="#5D5C5E" cx="96.855" cy="155.277" rx="38.442" ry="4.771"/>
				<ellipse opacity="0.5644" fill="#5C5B5D" cx="96.855" cy="155.277" rx="37.808" ry="4.692"/>
				<ellipse opacity="0.5743" fill="#5B595B" cx="96.854" cy="155.277" rx="37.174" ry="4.614"/>
				<ellipse opacity="0.5842" fill="#59585A" cx="96.854" cy="155.277" rx="36.54" ry="4.535"/>
				<ellipse opacity="0.5941" fill="#585758" cx="96.854" cy="155.277" rx="35.905" ry="4.457"/>
				<ellipse opacity="0.604" fill="#575557" cx="96.854" cy="155.277" rx="35.271" ry="4.378"/>
				<ellipse opacity="0.6139" fill="#565456" cx="96.855" cy="155.277" rx="34.637" ry="4.299"/>
				<ellipse opacity="0.6238" fill="#545354" cx="96.854" cy="155.277" rx="34.003" ry="4.22"/>
				<ellipse opacity="0.6337" fill="#535153" cx="96.855" cy="155.277" rx="33.369" ry="4.141"/>
				<ellipse opacity="0.6436" fill="#525052" cx="96.854" cy="155.277" rx="32.734" ry="4.063"/>
				<ellipse opacity="0.6535" fill="#504E50" cx="96.854" cy="155.277" rx="32.101" ry="3.984"/>
				<ellipse opacity="0.6634" fill="#4F4D4F" cx="96.855" cy="155.277" rx="31.467" ry="3.905"/>
				<ellipse opacity="0.6733" fill="#4E4C4D" cx="96.854" cy="155.277" rx="30.832" ry="3.826"/>
				<ellipse opacity="0.6832" fill="#4D4A4C" cx="96.854" cy="155.277" rx="30.198" ry="3.748"/>
				<ellipse opacity="0.6931" fill="#4B494B" cx="96.854" cy="155.277" rx="29.564" ry="3.669"/>
				<ellipse opacity="0.703" fill="#4A4849" cx="96.854" cy="155.277" rx="28.93" ry="3.59"/>
				<ellipse opacity="0.7129" fill="#494648" cx="96.855" cy="155.277" rx="28.295" ry="3.512"/>
				<ellipse opacity="0.7228" fill="#474547" cx="96.855" cy="155.277" rx="27.661" ry="3.433"/>
				<ellipse opacity="0.7327" fill="#464445" cx="96.854" cy="155.277" rx="27.027" ry="3.354"/>
				<ellipse opacity="0.7426" fill="#454244" cx="96.854" cy="155.277" rx="26.393" ry="3.275"/>
				<ellipse opacity="0.7525" fill="#434142" cx="96.854" cy="155.277" rx="25.759" ry="3.197"/>
				<ellipse opacity="0.7624" fill="#424041" cx="96.854" cy="155.277" rx="25.125" ry="3.118"/>
				<ellipse opacity="0.7723" fill="#413E40" cx="96.854" cy="155.277" rx="24.491" ry="3.04"/>
				<ellipse opacity="0.7822" fill="#403D3E" cx="96.854" cy="155.277" rx="23.856" ry="2.961"/>
				<ellipse opacity="0.7921" fill="#3E3B3D" cx="96.854" cy="155.277" rx="23.222" ry="2.882"/>
				<ellipse opacity="0.802" fill="#3D3A3C" cx="96.854" cy="155.277" rx="22.588" ry="2.803"/>
				<ellipse opacity="0.8119" fill="#3C393A" cx="96.855" cy="155.277" rx="21.954" ry="2.725"/>
				<ellipse opacity="0.8218" fill="#3A3739" cx="96.855" cy="155.277" rx="21.32" ry="2.646"/>
				<ellipse opacity="0.8317" fill="#393637" cx="96.854" cy="155.277" rx="20.686" ry="2.567"/>
				<ellipse opacity="0.8416" fill="#383536" cx="96.854" cy="155.277" rx="20.051" ry="2.489"/>
				<ellipse opacity="0.8515" fill="#363335" cx="96.854" cy="155.277" rx="19.417" ry="2.41"/>
				<ellipse opacity="0.8614" fill="#353233" cx="96.854" cy="155.277" rx="18.783" ry="2.331"/>
				<ellipse opacity="0.8713" fill="#343132" cx="96.855" cy="155.277" rx="18.149" ry="2.252"/>
				<ellipse opacity="0.8812" fill="#332F31" cx="96.854" cy="155.277" rx="17.515" ry="2.173"/>
				<ellipse opacity="0.8911" fill="#312E2F" cx="96.854" cy="155.277" rx="16.88" ry="2.095"/>
				<ellipse opacity="0.901" fill="#302D2E" cx="96.855" cy="155.277" rx="16.246" ry="2.016"/>
				<ellipse opacity="0.9109" fill="#2F2B2C" cx="96.854" cy="155.277" rx="15.612" ry="1.938"/>
				<ellipse opacity="0.9208" fill="#2D2A2B" cx="96.855" cy="155.277" rx="14.978" ry="1.858"/>
				<ellipse opacity="0.9307" fill="#2C282A" cx="96.854" cy="155.277" rx="14.344" ry="1.78"/>
				<ellipse opacity="0.9406" fill="#2B2728" cx="96.854" cy="155.277" rx="13.71" ry="1.701"/>
				<ellipse opacity="0.9505" fill="#292627" cx="96.854" cy="155.277" rx="13.076" ry="1.623"/>
				<ellipse opacity="0.9604" fill="#282426" cx="96.854" cy="155.277" rx="12.441" ry="1.544"/>
				<ellipse opacity="0.9703" fill="#272324" cx="96.855" cy="155.277" rx="11.807" ry="1.465"/>
				<ellipse opacity="0.9802" fill="#262223" cx="96.854" cy="155.277" rx="11.173" ry="1.386"/>
				<ellipse opacity="0.9901" fill="#242021" cx="96.854" cy="155.277" rx="10.539" ry="1.308"/>
				<ellipse fill="#231F20" cx="96.854" cy="155.277" rx="9.905" ry="1.229"/>
			</g>
			<g>
				<g>
					<linearGradient id="SVGID_1_" gradientUnits="userSpaceOnUse" x1="269.5508" y1="-62.2026" x2="77.9679" y2="87.0829">
						<stop  offset="0" style="stop-color:#FAAF40"/>
						<stop  offset="0.5222" style="stop-color:#F16522"/>
						<stop  offset="1" style="stop-color:#E23D21"/>
					</linearGradient>
					<path fill="url(#SVGID_1_)" d="M65.459,29.437h0.002c3.214,0,6.296,1.278,8.566,3.554l34.134,35.516
						c0.96,1.059,2.626,1.059,3.586-0.001l32.198-33.511c-12.023-15.152-30.585-24.881-51.43-24.881
						c-36.25,0-65.636,29.386-65.636,65.635c0,36.25,29.386,65.635,65.636,65.635c17.036,0,32.553-6.492,44.219-17.134V78.758
						c0-1.079-1.306-1.619-2.068-0.855l-21.073,24.215c-1.93,2.217-5.373,2.217-7.302,0L85.218,77.903
						c-0.761-0.764-2.066-0.224-2.066,0.855v46.946c-13.146,0-23.803-8.756-23.803-21.902V35.547
						C59.348,32.172,62.085,29.437,65.459,29.437z"/>
					<linearGradient id="SVGID_2_" gradientUnits="userSpaceOnUse" x1="309.168" y1="-11.3623" x2="117.5835" y2="137.9246">
						<stop  offset="0" style="stop-color:#FAAF40"/>
						<stop  offset="0.5222" style="stop-color:#F16522"/>
						<stop  offset="1" style="stop-color:#E23D21"/>
					</linearGradient>
					<path fill="url(#SVGID_2_)" d="M170.02,91.65h-15.523c-2.044,0-3.702,1.657-3.702,3.701v15.523
						c0,2.045,1.658,3.702,3.702,3.702h15.523c2.045,0,3.702-1.657,3.702-3.702V95.351C173.722,93.307,172.065,91.65,170.02,91.65z"
						/>
					<linearGradient id="SVGID_3_" gradientUnits="userSpaceOnUse" x1="290.917" y1="-35.1484" x2="99.3397" y2="114.1328">
						<stop  offset="0" style="stop-color:#FAAF40"/>
						<stop  offset="0.5222" style="stop-color:#F16522"/>
						<stop  offset="1" style="stop-color:#E23D21"/>
					</linearGradient>
					<path fill="url(#SVGID_3_)" d="M158.239,72.773h10.685c1.853,0,3.355-1.503,3.355-3.356V58.731
						c0-1.853-1.502-3.356-3.355-3.356h-10.685c-1.854,0-3.357,1.503-3.357,3.356v10.686
						C154.882,71.27,156.386,72.773,158.239,72.773z"/>
					<linearGradient id="SVGID_4_" gradientUnits="userSpaceOnUse" x1="304.9424" y1="-15.459" x2="113.3615" y2="133.8251">
						<stop  offset="0" style="stop-color:#FAAF40"/>
						<stop  offset="0.5222" style="stop-color:#F16522"/>
						<stop  offset="1" style="stop-color:#E23D21"/>
					</linearGradient>
					<path fill="url(#SVGID_4_)" d="M184.885,74.758h-8.799c-1.306,0-2.364,1.058-2.364,2.363v8.8c0,1.305,1.059,2.363,2.364,2.363
						h8.799c1.306,0,2.364-1.058,2.364-2.363v-8.8C187.249,75.815,186.191,74.758,184.885,74.758z"/>
					<linearGradient id="SVGID_5_" gradientUnits="userSpaceOnUse" x1="287.5459" y1="-39.1113" x2="95.9596" y2="110.1769">
						<stop  offset="0" style="stop-color:#FAAF40"/>
						<stop  offset="0.5222" style="stop-color:#F16522"/>
						<stop  offset="1" style="stop-color:#E23D21"/>
					</linearGradient>
					<path fill="url(#SVGID_5_)" d="M173.988,51.899h6.287c1.01,0,1.829-0.819,1.829-1.83v-6.286c0-1.01-0.819-1.829-1.829-1.829
						h-6.287c-1.01,0-1.829,0.819-1.829,1.829v6.286C172.159,51.08,172.978,51.899,173.988,51.899z"/>
				</g>
				<g>
					<linearGradient id="SVGID_6_" gradientUnits="userSpaceOnUse" x1="189.0889" y1="2.5762" x2="99.5177" y2="151.3087">
						<stop  offset="0" style="stop-color:#FAAF40"/>
						<stop  offset="0.5222" style="stop-color:#F16522"/>
						<stop  offset="1" style="stop-color:#E23D21"/>
					</linearGradient>
					<path fill="url(#SVGID_6_)" d="M109.943,106.818c-0.222,0-0.436-0.052-0.655-0.07c3.445,8.532,5.702,17.627,6.555,27.083
						c6.469-2.598,12.511-6.269,17.854-10.941V83.644l-17.812,20.468C114.389,105.833,112.221,106.818,109.943,106.818z"/>
					<linearGradient id="SVGID_7_" gradientUnits="userSpaceOnUse" x1="132.0977" y1="-31.7451" x2="42.5268" y2="116.9868">
						<stop  offset="0" style="stop-color:#FAAF40"/>
						<stop  offset="0.5222" style="stop-color:#F16522"/>
						<stop  offset="1" style="stop-color:#E23D21"/>
					</linearGradient>
					<path fill="url(#SVGID_7_)" d="M92.515,13.152c-24.131,0-45.103,13.734-55.547,33.787c6.7,1.286,13.178,3.26,19.344,5.877
						V35.548c0-5.045,4.104-9.151,9.15-9.151c3.989,0,7.896,1.621,10.754,4.49l33.737,35.101l29.924-31.145
						C127.952,21.023,110.838,13.152,92.515,13.152z"/>
					<linearGradient id="SVGID_8_" gradientUnits="userSpaceOnUse" x1="213.832" y1="17.4775" x2="124.2608" y2="166.2101">
						<stop  offset="0" style="stop-color:#FAAF40"/>
						<stop  offset="0.5222" style="stop-color:#F16522"/>
						<stop  offset="1" style="stop-color:#E23D21"/>
					</linearGradient>
					<path fill="url(#SVGID_8_)" d="M170.02,93.639h-15.523c-0.942,0-1.71,0.771-1.71,1.714v15.521c0,0.943,0.768,1.714,1.71,1.714
						h15.523c0.943,0,1.711-0.771,1.711-1.714V95.353C171.731,94.41,170.963,93.639,170.02,93.639z"/>
					<linearGradient id="SVGID_9_" gradientUnits="userSpaceOnUse" x1="197.3174" y1="8.0581" x2="107.7462" y2="156.7906">
						<stop  offset="0" style="stop-color:#FAAF40"/>
						<stop  offset="0.5222" style="stop-color:#F16522"/>
						<stop  offset="1" style="stop-color:#E23D21"/>
					</linearGradient>
					<path fill="url(#SVGID_9_)" d="M158.239,70.785h10.686c0.754,0,1.365-0.616,1.365-1.367V58.732
						c0-0.751-0.611-1.367-1.365-1.367h-10.686c-0.753,0-1.366,0.616-1.366,1.367v10.685
						C156.873,70.169,157.486,70.785,158.239,70.785z"/>
					<linearGradient id="SVGID_10_" gradientUnits="userSpaceOnUse" x1="217.0801" y1="20.7559" x2="127.5076" y2="169.4906">
						<stop  offset="0" style="stop-color:#FAAF40"/>
						<stop  offset="0.5222" style="stop-color:#F16522"/>
						<stop  offset="1" style="stop-color:#E23D21"/>
					</linearGradient>
					<path fill="url(#SVGID_10_)" d="M184.885,76.745h-8.799c-0.206,0-0.375,0.168-0.375,0.376v8.799
						c0,0.208,0.169,0.376,0.375,0.376h8.799c0.206,0,0.373-0.168,0.373-0.376v-8.799C185.258,76.914,185.091,76.745,184.885,76.745
						z"/>
					<linearGradient id="SVGID_11_" gradientUnits="userSpaceOnUse" x1="199.9922" y1="8.7583" x2="109.8089" y2="158.5072">
						<stop  offset="0" style="stop-color:#FAAF40"/>
						<stop  offset="0.5222" style="stop-color:#F16522"/>
						<stop  offset="1" style="stop-color:#E23D21"/>
					</linearGradient>
					<rect x="173.988" y="43.783" fill="url(#SVGID_11_)" width="6.13" height="6.127"/>
				</g>
			</g>
		</g>
	</g>
	<g>
		<linearGradient id="SVGID_12_" gradientUnits="userSpaceOnUse" x1="197.6226" y1="78.5649" x2="247.3545" y2="78.5649">
			<stop  offset="0" style="stop-color:#FAAF40"/>
			<stop  offset="0.5222" style="stop-color:#F16522"/>
			<stop  offset="1" style="stop-color:#E23D21"/>
		</linearGradient>
		<path fill="url(#SVGID_12_)" d="M197.623,53.162c0-1.156,0.413-2.147,1.239-2.974s1.817-1.239,2.974-1.239
			s2.148,0.413,2.974,1.239c0.826,0.826,1.239,1.817,1.239,2.974V66.71h32.879V53.162c0-1.156,0.413-2.147,1.239-2.974
			s1.817-1.239,2.974-1.239c1.157,0,2.148,0.413,2.974,1.239s1.239,1.817,1.239,2.974v50.806c0,1.156-0.413,2.147-1.239,2.974
			s-1.817,1.239-2.974,1.239c-1.156,0-2.147-0.413-2.974-1.239s-1.239-1.817-1.239-2.974V75.137h-32.879v28.831
			c0,1.156-0.413,2.147-1.239,2.974c-0.826,0.826-1.817,1.239-2.974,1.239s-2.148-0.413-2.974-1.239s-1.239-1.817-1.239-2.974
			V53.162z"/>
		<linearGradient id="SVGID_13_" gradientUnits="userSpaceOnUse" x1="255.4087" y1="87.5693" x2="296.6318" y2="87.5693">
			<stop  offset="0" style="stop-color:#FAAF40"/>
			<stop  offset="0.5222" style="stop-color:#F16522"/>
			<stop  offset="1" style="stop-color:#E23D21"/>
		</linearGradient>
		<path fill="url(#SVGID_13_)" d="M290.602,72.988c4.02,4.021,6.03,8.881,6.03,14.581s-2.011,10.561-6.03,14.581
			c-4.021,4.021-8.881,6.03-14.581,6.03s-10.561-2.01-14.581-6.03c-4.021-4.021-6.031-8.881-6.031-14.581s2.01-10.561,6.031-14.581
			c4.02-4.02,8.881-6.03,14.581-6.03S286.58,68.969,290.602,72.988z M276.021,75.302c-3.388,0-6.278,1.191-8.674,3.572
			c-2.396,2.383-3.594,5.267-3.594,8.654c0,3.387,1.198,6.278,3.594,8.674s5.287,3.594,8.674,3.594c3.387,0,6.271-1.198,8.653-3.594
			c2.381-2.396,3.572-5.287,3.572-8.674c0-3.388-1.191-6.271-3.572-8.654C282.291,76.493,279.407,75.302,276.021,75.302z"/>
		<linearGradient id="SVGID_14_" gradientUnits="userSpaceOnUse" x1="298.8203" y1="81.4561" x2="325.0088" y2="81.4561">
			<stop  offset="0" style="stop-color:#FAAF40"/>
			<stop  offset="0.5222" style="stop-color:#F16522"/>
			<stop  offset="1" style="stop-color:#E23D21"/>
		</linearGradient>
		<path fill="url(#SVGID_14_)" d="M307.784,66.793v-7.849c0-1.156,0.413-2.147,1.239-2.974s1.817-1.239,2.975-1.239
			c1.156,0,2.146,0.413,2.973,1.239s1.24,1.817,1.24,2.974v7.849h4.584c1.157,0,2.148,0.413,2.975,1.239
			c0.826,0.825,1.239,1.817,1.239,2.974s-0.413,2.147-1.239,2.974s-1.817,1.239-2.975,1.239h-4.584v28.749
			c0,1.156-0.414,2.147-1.24,2.974s-1.816,1.239-2.973,1.239c-1.157,0-2.148-0.413-2.975-1.239s-1.239-1.817-1.239-2.974V75.219
			h-4.75c-1.157,0-2.147-0.413-2.974-1.239s-1.24-1.817-1.24-2.974s0.414-2.148,1.24-2.974c0.826-0.826,1.816-1.239,2.974-1.239
			H307.784z"/>
	</g>
	<g>
		<path fill="#ADA8A8" d="M344.283,60.201c0-1.088,0.389-2.021,1.166-2.798c0.777-0.777,1.71-1.166,2.798-1.166
			s2.021,0.389,2.798,1.166c0.776,0.777,1.165,1.709,1.165,2.798v11.424c3.315-2.487,7.137-3.73,11.463-3.73
			c5.362,0,9.935,1.891,13.717,5.673c3.782,3.783,5.674,8.354,5.674,13.717s-1.892,9.935-5.674,13.717
			c-3.782,3.783-8.354,5.673-13.717,5.673s-9.935-1.891-13.717-5.673c-3.729-3.73-5.621-8.238-5.673-13.522V60.201z M355.513,95.445
			c2.254,2.254,4.975,3.381,8.16,3.381c3.187,0,5.9-1.12,8.141-3.361c2.241-2.24,3.361-4.955,3.361-8.141
			c0-3.187-1.12-5.906-3.361-8.16c-2.24-2.254-4.954-3.381-8.141-3.381c-3.186,0-5.906,1.127-8.16,3.381
			c-1.917,1.917-3.018,4.171-3.303,6.761v1.477c0,0.233-0.013,0.466-0.039,0.699C352.327,90.951,353.44,93.399,355.513,95.445z"/>
		<path fill="#ADA8A8" d="M397.752,57.559c0.776,0.777,1.165,1.71,1.165,2.798v42.355c0,1.088-0.389,2.021-1.165,2.798
			c-0.777,0.777-1.71,1.166-2.798,1.166s-2.021-0.389-2.798-1.166c-0.777-0.777-1.166-1.71-1.166-2.798V60.356
			c0-1.088,0.389-2.021,1.166-2.798c0.777-0.777,1.71-1.166,2.798-1.166S396.975,56.782,397.752,57.559z"/>
		<path fill="#ADA8A8" d="M439.679,73.568c3.782,3.783,5.674,8.354,5.674,13.717s-1.892,9.935-5.674,13.717
			c-3.782,3.783-8.354,5.673-13.717,5.673s-9.935-1.891-13.717-5.673c-3.782-3.782-5.673-8.354-5.673-13.717
			s1.891-9.934,5.673-13.717c3.782-3.782,8.354-5.673,13.717-5.673S435.896,69.786,439.679,73.568z M425.962,75.744
			c-3.186,0-5.906,1.121-8.16,3.361c-2.253,2.241-3.38,4.954-3.38,8.141c0,3.186,1.127,5.906,3.38,8.16
			c2.254,2.253,4.975,3.38,8.16,3.38c3.187,0,5.9-1.127,8.141-3.38c2.241-2.254,3.361-4.974,3.361-8.16
			c0-3.187-1.12-5.9-3.361-8.141C431.862,76.865,429.148,75.744,425.962,75.744z"/>
		<path fill="#ADA8A8" d="M486.309,73.568c0,0.026,0.013,0.039,0.039,0.039c0.751,0.751,1.126,1.671,1.126,2.759
			c0,1.063-0.382,1.976-1.146,2.74c-0.765,0.764-1.678,1.146-2.74,1.146c-1.088,0-2.008-0.389-2.759-1.166h-0.038
			c-2.229-2.228-4.936-3.342-8.122-3.342c-3.186,0-5.906,1.121-8.16,3.361c-2.253,2.241-3.38,4.954-3.38,8.141
			c0,3.186,1.127,5.906,3.38,8.16c2.254,2.253,4.975,3.38,8.16,3.38c3.16,0,5.868-1.113,8.122-3.342
			c0.025-0.025,0.051-0.051,0.077-0.078c0.751-0.751,1.671-1.127,2.759-1.127s2.021,0.383,2.798,1.146
			c0.777,0.764,1.166,1.69,1.166,2.778s-0.389,2.021-1.166,2.798c-0.026,0.026-0.052,0.052-0.077,0.078
			c-3.757,3.756-8.316,5.634-13.679,5.634s-9.935-1.891-13.717-5.673c-3.782-3.782-5.673-8.354-5.673-13.717
			s1.891-9.934,5.673-13.717c3.782-3.782,8.354-5.673,13.717-5.673s9.922,1.878,13.679,5.634L486.309,73.568z"/>
		<path fill="#ADA8A8" d="M503.833,92.414v10.297c0,1.088-0.389,2.021-1.165,2.798c-0.777,0.777-1.71,1.166-2.798,1.166
			s-2.021-0.389-2.798-1.166c-0.777-0.777-1.166-1.71-1.166-2.798V60.356c0-1.088,0.389-2.021,1.166-2.798
			c0.777-0.777,1.71-1.166,2.798-1.166s2.021,0.389,2.798,1.166c0.776,0.777,1.165,1.71,1.165,2.798v21.76l16.825-13.445
			c0.7-0.569,1.516-0.855,2.448-0.855c1.088,0,2.008,0.383,2.759,1.146c0.751,0.765,1.127,1.678,1.127,2.739
			c0,1.088-0.376,2.008-1.127,2.759c-0.232,0.233-0.479,0.427-0.738,0.583l-15.154,12.124l15.698,12.551l-0.077,0.078
			c0.104,0.078,0.194,0.156,0.271,0.233c0.751,0.777,1.127,1.697,1.127,2.759c0,1.088-0.376,2.008-1.127,2.759
			c-0.751,0.752-1.671,1.127-2.759,1.127c-0.907,0-1.696-0.272-2.37-0.816l-0.039,0.039L503.833,92.414z"/>
	</g>
</g>
</svg>
