<?xml version="1.0" encoding="utf-8"?>
<!-- Generator: Adobe Illustrator 16.0.0, SVG Export Plug-In . SVG Version: 6.00 Build 0)  -->
<!DOCTYPE svg PUBLIC "-//W3C//DTD SVG 1.1//EN" "http://www.w3.org/Graphics/SVG/1.1/DTD/svg11.dtd">
<svg version="1.1" id="Layer_1" xmlns="http://www.w3.org/2000/svg" xmlns:xlink="http://www.w3.org/1999/xlink" x="0px" y="0px"
	 width="386.486px" height="174.325px" viewBox="0 0 386.486 174.325" enable-background="new 0 0 386.486 174.325"
	 xml:space="preserve">
<g>
	<radialGradient id="SVGID_1_" cx="104.7803" cy="-1.2837" r="183.5933" gradientUnits="userSpaceOnUse">
		<stop  offset="0" style="stop-color:#FFF33B"/>
		<stop  offset="0.0401" style="stop-color:#FEE72E"/>
		<stop  offset="0.1171" style="stop-color:#FED51B"/>
		<stop  offset="0.1964" style="stop-color:#FDCA10"/>
		<stop  offset="0.2809" style="stop-color:#FDC70C"/>
		<stop  offset="0.6685" style="stop-color:#F3903F"/>
		<stop  offset="0.8876" style="stop-color:#ED683C"/>
		<stop  offset="1" style="stop-color:#E93E3A"/>
	</radialGradient>
	<path fill="url(#SVGID_1_)" d="M46.41,162.882c0,0,14.118-15.755,2.762-24.962c-11.356-9.208-67.827-49.105-10.435-78.569
		c0,0-16.619,15.959-5.24,28.85c11.378,12.89,31.019,25.066,38.08,33.453C75.964,126.867,65.745,158.381,46.41,162.882z"/>
	<radialGradient id="SVGID_2_" cx="105.3813" cy="-1.2837" r="183.6373" gradientUnits="userSpaceOnUse">
		<stop  offset="0" style="stop-color:#FFF33B"/>
		<stop  offset="0.0401" style="stop-color:#FEE72E"/>
		<stop  offset="0.1171" style="stop-color:#FED51B"/>
		<stop  offset="0.1964" style="stop-color:#FDCA10"/>
		<stop  offset="0.2809" style="stop-color:#FDC70C"/>
		<stop  offset="0.6685" style="stop-color:#F3903F"/>
		<stop  offset="0.8876" style="stop-color:#ED683C"/>
		<stop  offset="1" style="stop-color:#E93E3A"/>
	</radialGradient>
	<path fill="url(#SVGID_2_)" d="M59.606,100.17c0,0-33.146-20.563-10.435-48.185C71.883,24.363,74.645,4.107,74.645,4.107
		s8.287,29.156-12.583,55.244S59.606,100.17,59.606,100.17z"/>
	<radialGradient id="SVGID_3_" cx="105.3813" cy="-1.1865" r="183.5262" gradientUnits="userSpaceOnUse">
		<stop  offset="0" style="stop-color:#FFF33B"/>
		<stop  offset="0.0401" style="stop-color:#FEE72E"/>
		<stop  offset="0.1171" style="stop-color:#FED51B"/>
		<stop  offset="0.1964" style="stop-color:#FDCA10"/>
		<stop  offset="0.2809" style="stop-color:#FDC70C"/>
		<stop  offset="0.6685" style="stop-color:#F3903F"/>
		<stop  offset="0.8876" style="stop-color:#ED683C"/>
		<stop  offset="1" style="stop-color:#E93E3A"/>
	</radialGradient>
	<path fill="url(#SVGID_3_)" d="M60.834,158.79c0,0,26.121-21.791,12.139-48.798C58.993,82.983,66.358,53.52,105.95,52.139
		c0,0-23.939,10.385-12.583,32.584C104.722,106.922,114.543,141.296,60.834,158.79z"/>
</g>
<g>
	<radialGradient id="SVGID_4_" cx="153.9658" cy="87.1245" r="31.0019" gradientUnits="userSpaceOnUse">
		<stop  offset="0" style="stop-color:#FFF33B"/>
		<stop  offset="0.0401" style="stop-color:#FEE72E"/>
		<stop  offset="0.1171" style="stop-color:#FED51B"/>
		<stop  offset="0.1964" style="stop-color:#FDCA10"/>
		<stop  offset="0.2809" style="stop-color:#FDC70C"/>
		<stop  offset="0.6685" style="stop-color:#F3903F"/>
		<stop  offset="0.8876" style="stop-color:#ED683C"/>
		<stop  offset="1" style="stop-color:#E93E3A"/>
	</radialGradient>
	<path fill="url(#SVGID_4_)" d="M145.319,100.793l-7.854,9.213c-0.906,1.283-2.567,4.304-4.38,4.304c-1.661,0-3.7-1.51-3.7-3.247
		c0-2.114,5.361-7.325,6.419-9.364c-5.286,0.453-7.703-0.528-7.703-3.096c0-1.737,2.19-5.739,4.229-5.739
		c0.528,0,1.133,0.528,1.736,0.528c0.831,0,0.906-0.528,12.385-2.718c2.87-2.795,8.307-8.685,14.952-16.236
		c0.982-1.058,3.172-3.7,3.172-5.211c0-1.359-1.736-1.661-2.643-1.661c-4.003,0-13.518,2.794-25.902,7.93
		c0.528,0.227,1.057,0.453,1.057,1.133c0,1.057-0.981,1.51-1.888,1.812c-5.663,1.964-5.135,2.039-10.346,4.683
		c-0.906,0.453-1.963,1.057-3.021,1.057c-1.736,0-2.266-2.114-2.266-3.474c0-2.189,1.209-6.494,2.567-8.307
		c2.719-3.096,15.33-7.249,19.635-8.608c6.268-2.039,15.782-3.852,22.277-3.852c6.268,0,8.155,3.7,8.155,7.4
		c0,4.683-4.53,9.213-7.552,12.46l-8.533,9.063l11.63-1.359l13.668-17.143c0.906-1.208,4.078-5.437,5.664-5.437
		c0.981,0,1.283,0.906,1.283,1.736c0,2.417-0.528,3.852-6.191,10.799l-8.156,10.044c3.474,0.075,7.174,0,10.271,1.888
		c-3.55,2.794-6.646,6.192-9.063,10.119c-2.266-0.528-4.606-0.755-7.702-0.528c-1.133,1.963-3.927,5.513-3.927,7.777
		c0,1.359,0.528,3.097,0.83,4.531c-2.416-0.528-6.268,3.172-8.231,2.492c-1.283-0.453-1.736-1.511-1.359-3.775
		c0.378-2.266,1.586-5.739,4.381-11.025L145.319,100.793z"/>
	<radialGradient id="SVGID_5_" cx="197.7236" cy="98.0342" r="15.2148" gradientUnits="userSpaceOnUse">
		<stop  offset="0" style="stop-color:#FFF33B"/>
		<stop  offset="0.0401" style="stop-color:#FEE72E"/>
		<stop  offset="0.1171" style="stop-color:#FED51B"/>
		<stop  offset="0.1964" style="stop-color:#FDCA10"/>
		<stop  offset="0.2809" style="stop-color:#FDC70C"/>
		<stop  offset="0.6685" style="stop-color:#F3903F"/>
		<stop  offset="0.8876" style="stop-color:#ED683C"/>
		<stop  offset="1" style="stop-color:#E93E3A"/>
	</radialGradient>
	<path fill="url(#SVGID_5_)" d="M213.585,100.793c-3.398,4.304-6.721,6.116-12.233,6.116c-3.172,3.247-6.872,5.664-11.63,5.664
		c-3.927,0-7.552-3.927-7.854-10.799c-0.151-5.664,2.644-9.439,6.872-12.687c4.078-3.323,9.515-5.362,14.121-5.589
		c1.662-0.075,4.153,0.68,4.153,2.719c0,1.133-0.906,1.586-1.736,2.039c2.266,0.604,2.719,2.19,2.719,4.455
		c0,3.323-1.511,5.966-2.945,8.911c3.322,0.604,5.437-2.266,7.778-4.002L213.585,100.793z M190.553,97.244
		c-1.661,1.661-3.097,4.606-3.097,6.947c0,2.19,1.436,2.87,3.323,2.87c2.492,0,4.078-1.435,5.814-3.021
		c-0.528-1.209-0.906-2.19-0.906-3.474c0-3.928,3.55-8.685,3.247-8.836C196.367,93.242,192.818,95.054,190.553,97.244z"/>
	<radialGradient id="SVGID_6_" cx="223.7041" cy="94.1479" r="17.8883" gradientUnits="userSpaceOnUse">
		<stop  offset="0" style="stop-color:#FFF33B"/>
		<stop  offset="0.0401" style="stop-color:#FEE72E"/>
		<stop  offset="0.1171" style="stop-color:#FED51B"/>
		<stop  offset="0.1964" style="stop-color:#FDCA10"/>
		<stop  offset="0.2809" style="stop-color:#FDC70C"/>
		<stop  offset="0.6685" style="stop-color:#F3903F"/>
		<stop  offset="0.8876" style="stop-color:#ED683C"/>
		<stop  offset="1" style="stop-color:#E93E3A"/>
	</radialGradient>
	<path fill="url(#SVGID_6_)" d="M238.883,80.63c-3.55,7.174-4.153,9.968-12.46,9.439c-2.567,3.322-6.872,9.515-6.872,14.046
		c0,1.661,0.528,2.643,2.266,2.643c2.416,0,5.135-2.265,12.988-7.854l0.378,3.323c-4.456,4.077-12.611,12.158-19.03,12.158
		c-2.945,0-4.758-2.039-4.758-5.06c0-2.492,0.982-5.362,1.964-7.552l-0.151-0.151l-3.851,3.097l-0.831-2.87
		c4.531-3.474,8.685-7.325,11.479-12.082c-4.606,0-3.172-0.303-7.174,0.302l0.83-1.359c4.078-6.646,4.683-7.854,12.763-8.155
		c2.266-3.097,3.927-6.646,8.307-6.646c0.981,0,2.416,0.227,2.416,1.435c0,1.359-2.189,3.852-2.944,4.908L238.883,80.63z"/>
</g>
<g>
	<path fill="#FAFAFA" d="M290.43,98.299c0,3.174-7.005,10.693-22.323,11.529c-4.1,0.223-9.795-1.114-9.795-6.182
		c0-1.782-0.284-2.061,6.321-10.582c-1.595-0.111-5.239-0.278-5.239-2.172c0-2.395,7.973-2.506,9.681-3.007
		c3.702-3.509,7.46-8.187,13.155-8.187c-0.399,0.947-0.798,1.671-5.524,7.073c12.87-1.727,15.888-5.514,15.774-7.018
		c-0.058-1.225-1.651-3.175-8.257-2.729c-1.311,0.111-7.347,0.835-16.002,3.898c0.342,0.167,0.797,0.39,0.797,0.835
		c0,0.835-1.31,1.17-2.05,1.281c-3.531,0.557-4.612,1.058-7.916,2.116c-0.512,0.167-1.139,0.39-1.765,0.39
		c-0.969,0-1.424-0.557-1.424-1.503c0-0.39,0.854-2.395,2.619-4.678c1.196-1.56,2.848-3.676,4.783-4.4
		c5.524-2.061,16.173-4.233,22.096-4.233c9.795,0,12.129,3.787,12.129,6.794c0,9.023-17.254,11.306-23.917,12.587l-1.139,1.002
		C276.478,91.838,290.43,92.952,290.43,98.299z M266.74,97.296c-0.74,0.779-1.993,2.005-1.993,3.174c0,2.395,4.498,3.063,6.32,3.063
		c5.068-0.056,12.927-3.676,12.927-5.904c0-2.896-11.73-3.731-14.065-3.731L266.74,97.296z"/>
	<path fill="#FAFAFA" d="M311.325,100.972c-3.132,3.174-8.484,8.8-13.382,8.8c-4.157,0-5.068-3.955-5.068-7.24
		c0-5.848,2.563-12.142,6.264-16.597c5.012-6.071,10.422-11.25,12.244-11.25c0.968,0,1.195,1.337,1.139,2.061
		c-0.398,5.291-1.879,10.192-14.236,21.888c-0.513,0.947-0.684,2.506-0.398,3.843c0.512,1.281,1.31,2.395,2.847,2.395
		c3.132,0,7.517-3.564,9.795-5.569L311.325,100.972z M299.538,93.509c4.043-3.676,7.573-9.022,8.599-12.197
		c-2.79,1.336-6.036,6.349-8.713,12.085L299.538,93.509z"/>
	<path fill="#FAFAFA" d="M333.533,100.861c-2.563,3.174-5.068,4.511-9.226,4.511c-2.392,2.395-5.183,4.177-8.77,4.177
		c-2.962,0-5.694-2.896-5.923-7.964c-0.113-4.177,1.993-6.961,5.183-9.356c3.075-2.451,7.175-3.954,10.648-4.122
		c1.253-0.056,3.132,0.501,3.132,2.005c0,0.835-0.683,1.169-1.31,1.503c1.708,0.446,2.05,1.615,2.05,3.286
		c0,2.451-1.139,4.4-2.221,6.572c2.506,0.446,4.101-1.671,5.865-2.952L333.533,100.861z M316.164,98.243
		c-1.253,1.225-2.335,3.397-2.335,5.124c0,1.615,1.082,2.117,2.506,2.117c1.879,0,3.075-1.058,4.385-2.228
		c-0.398-0.891-0.684-1.615-0.684-2.562c0-2.896,2.677-6.405,2.449-6.516C320.549,95.291,317.873,96.628,316.164,98.243z"/>
	<path fill="#FAFAFA" d="M339.112,98.744c-1.253,0.891-2.277,1.727-2.277,3.286c0,1.281,1.366,3.007,4.328,3.007
		c4.327,0,9.282-3.898,12.585-6.405l0.683,2.172c-3.474,3.62-9.852,9.134-15.261,9.134c-4.385,0-6.492-4.01-6.492-8.131
		c0-4.679,1.708-6.405,5.41-9.134c2.563-1.894,8.029-4.901,11.218-4.901c1.766,0,2.563,0.891,2.563,2.562
		c0,3.063-4.498,7.352-6.036,7.352c-1.31,0-1.879-1.393-1.936-2.451L339.112,98.744z"/>
	<path fill="#FAFAFA" d="M356.707,100.248l-0.114,1.504c3.075-2.729,15.147-12.921,19.021-12.921c1.936,0,2.961,2.395,2.961,4.01
		c0,5.179-7.688,8.02-11.503,10.248c1.082,1.448,1.708,2.339,3.701,2.451c1.082,0.056,3.303-0.724,10.364-6.238l0.569,2.283
		c-2.848,2.451-9.681,8.855-13.496,8.855c-3.759,0-6.378-4.232-8.144-6.906c-1.253,1.114-2.164,2.395-3.018,3.787
		c-0.456,0.835-0.969,1.671-2.051,1.671c-1.993,0-2.505-5.402-2.505-6.739c0-3.564,2.277-6.46,4.214-9.412
		c6.15-9.468,19.816-20.162,22.322-19.995c0.798,0.056,1.424,0.668,1.424,1.448C380.453,78.137,360.123,96.572,356.707,100.248z
		 M370.829,97.853c0.854-0.612,2.733-1.782,2.733-2.952c0-0.334-0.455-0.446-0.74-0.446c-2.106,0-8.086,3.899-9.51,5.792
		c0.797,0.278,1.537,0.668,2.164,1.225L370.829,97.853z"/>
</g>
</svg>
