<?xml version="1.0" encoding="UTF-8"?>
<!DOCTYPE svg PUBLIC "-//W3C//DTD SVG 1.1//EN" "http://www.w3.org/Graphics/SVG/1.1/DTD/svg11.dtd">
<!-- Creator: CorelDRAW X8 -->
<svg xmlns="http://www.w3.org/2000/svg" xml:space="preserve" width="5in" height="4in" version="1.1" shape-rendering="geometricPrecision" text-rendering="geometricPrecision" image-rendering="optimizeQuality" fill-rule="evenodd" clip-rule="evenodd"
viewBox="0 0 5000 4000"
 xmlns:xlink="http://www.w3.org/1999/xlink">
 <g id="Layer_x0020_1">
  <metadata id="CorelCorpID_0Corel-Layer"/>
  <g id="_1790955955776">
   <path fill="#F58634" d="M616 694l3909 0c91,0 166,75 166,166l0 2043c0,91 -75,165 -166,165l-3274 0c59,-96 92,-209 92,-329 0,-351 -284,-636 -636,-636 -91,0 -178,19 -256,54l0 -1297c0,-91 74,-166 165,-166zm3056 1480c87,0 165,44 210,112 47,-61 120,-100 203,-100 140,0 254,113 254,253 0,140 -114,254 -254,254 -88,0 -165,-45 -211,-113 -46,61 -120,101 -202,101 -141,0 -254,-114 -254,-254 0,-140 113,-253 254,-253zm-3029 -1137l3859 0 0 472 -3859 0 0 -472z"/>
   <path fill="#00A859" d="M707 2190c-303,0 -548,246 -548,549 0,303 245,548 548,548 303,0 549,-245 549,-548 0,-303 -246,-549 -549,-549zm-307 607l88 -117 144 103 436 -305c-145,162 -290,324 -436,486 -77,-56 -155,-112 -232,-167z"/>
  </g>
 </g>
</svg>
