<?xml version="1.0" encoding="UTF-8"?>
<!DOCTYPE svg PUBLIC "-//W3C//DTD SVG 1.1//EN" "http://www.w3.org/Graphics/SVG/1.1/DTD/svg11.dtd">
<!-- Creator: CorelDRAW X8 -->
<svg xmlns="http://www.w3.org/2000/svg" xml:space="preserve" width="5in" height="4in" version="1.1" shape-rendering="geometricPrecision" text-rendering="geometricPrecision" image-rendering="optimizeQuality" fill-rule="evenodd" clip-rule="evenodd"
viewBox="0 0 5000 4000"
 xmlns:xlink="http://www.w3.org/1999/xlink">
 <defs>
   <linearGradient id="id0" gradientUnits="userSpaceOnUse" x1="414.335" y1="1760.26" x2="4528.34" y2="2078.57">
    <stop offset="0" stop-opacity="1" stop-color="#179952"/>
    <stop offset="0.388235" stop-opacity="1" stop-color="#0F9852"/>
    <stop offset="1" stop-opacity="1" stop-color="#079752"/>
   </linearGradient>
 </defs>
 <g id="Layer_x0020_1">
  <metadata id="CorelCorpID_0Corel-Layer"/>
  <path fill="url(#id0)" d="M406 717l792 -196 63 629 685 13 -65 -811 595 -147 654 159 -69 812 676 6 78 -652 -23 -5 744 181 -673 2196 -1398 732 -1321 -688 -738 -2229zm2375 1743c0,65 9,113 27,144 19,31 47,46 87,46 39,0 68,-15 86,-45 18,-30 27,-79 27,-145 0,-67 -9,-115 -27,-146 -19,-30 -47,-46 -86,-46 -39,0 -68,16 -86,47 -19,31 -28,80 -28,145zm-161 0c0,-84 25,-153 76,-206 51,-52 117,-79 199,-79 81,0 147,27 199,80 51,53 77,121 77,205 0,84 -26,152 -77,204 -51,53 -118,79 -199,79 -82,0 -148,-26 -199,-78 -51,-52 -76,-121 -76,-205zm228 -665l-539 948 -117 0 541 -948 115 0zm-814 285c0,66 9,114 27,144 19,30 47,46 87,46 40,0 69,-15 87,-46 19,-30 28,-78 28,-144 0,-66 -10,-115 -28,-146 -19,-31 -48,-46 -87,-46 -39,0 -67,15 -86,47 -19,31 -28,80 -28,145zm-161 -1c0,-84 25,-152 76,-205 51,-53 117,-79 199,-79 81,0 147,26 199,79 51,53 77,121 77,205 0,84 -26,153 -77,205 -51,52 -118,79 -199,79 -82,0 -148,-27 -199,-79 -51,-52 -76,-121 -76,-205z"/>
 </g>
</svg>
