<?xml version="1.0" encoding="UTF-8"?>
<!DOCTYPE svg PUBLIC "-//W3C//DTD SVG 1.1//EN" "http://www.w3.org/Graphics/SVG/1.1/DTD/svg11.dtd">
<!-- Creator: CorelDRAW X8 -->
<svg xmlns="http://www.w3.org/2000/svg" xml:space="preserve" width="5in" height="4in" version="1.1" shape-rendering="geometricPrecision" text-rendering="geometricPrecision" image-rendering="optimizeQuality" fill-rule="evenodd" clip-rule="evenodd"
viewBox="0 0 5000 4000"
 xmlns:xlink="http://www.w3.org/1999/xlink">
 <defs>
   <linearGradient id="id0" gradientUnits="userSpaceOnUse" x1="-557.269" y1="-188.668" x2="-459.878" y2="-27.966">
    <stop offset="0" stop-opacity="1" stop-color="white"/>
    <stop offset="0.478431" stop-opacity="1" stop-color="#F2F2F2"/>
    <stop offset="1" stop-opacity="1" stop-color="white"/>
   </linearGradient>
     <linearGradient id="id1" gradientUnits="userSpaceOnUse" x1="2167.93" y1="2221.48" x2="2711.76" y2="2865.95">
      <stop offset="0" stop-opacity="1" stop-color="white"/>
      <stop offset="0.478431" stop-opacity="1" stop-color="#F2F2F2"/>
      <stop offset="1" stop-opacity="1" stop-color="white"/>
     </linearGradient>
      <linearGradient id="id2" gradientUnits="userSpaceOnUse" x1="2027.95" y1="1822.03" x2="2688.32" y2="2436.56">
       <stop offset="0" stop-opacity="1" stop-color="white"/>
       <stop offset="0.509804" stop-opacity="1" stop-color="#E0D7CE"/>
       <stop offset="1" stop-opacity="1" stop-color="#FEFEFE"/>
      </linearGradient>
      <linearGradient id="id3" gradientUnits="userSpaceOnUse" x1="2405.61" y1="1670.43" x2="2652.94" y2="1999.33">
       <stop offset="0" stop-opacity="1" stop-color="white"/>
       <stop offset="0.509804" stop-opacity="1" stop-color="#E0D7CE"/>
       <stop offset="1" stop-opacity="1" stop-color="#FEFEFE"/>
      </linearGradient>
      <linearGradient id="id4" gradientUnits="userSpaceOnUse" x1="2503.21" y1="2366.11" x2="3163.57" y2="2980.64">
       <stop offset="0" stop-opacity="1" stop-color="white"/>
       <stop offset="0.509804" stop-opacity="1" stop-color="#E0D7CE"/>
       <stop offset="1" stop-opacity="1" stop-color="#FEFEFE"/>
      </linearGradient>
      <linearGradient id="id5" gradientUnits="userSpaceOnUse" x1="2880.87" y1="2214.51" x2="3128.21" y2="2543.41">
       <stop offset="0" stop-opacity="1" stop-color="white"/>
       <stop offset="0.509804" stop-opacity="1" stop-color="#E0D7CE"/>
       <stop offset="1" stop-opacity="1" stop-color="#FEFEFE"/>
      </linearGradient>
 </defs>
 <g id="Layer_x0020_1">
  <metadata id="CorelCorpID_0Corel-Layer"/>
  <path fill="url(#id0)" fill-rule="nonzero" d="M-600 -203l183 189 -183 0 0 -189zm91 95m0 94m-91 -94"/>
  <g id="_1929727484880">
   <path fill="#3E4095" d="M2533 1207l-1049 0c0,-271 113,-516 296,-696l-322 -234c-22,-15 -26,-44 -9,-65l40 -51c16,-20 47,-24 68,-9l349 253c175,-125 392,-198 627,-198 245,0 470,80 648,214l365 -276c21,-16 51,-12 68,8l42 50c16,20 13,49 -8,65l-344 261c172,178 278,416 278,678l-1049 0zm385 -450c60,0 109,49 109,109 0,61 -49,110 -109,110 -60,0 -109,-49 -109,-110 0,-60 49,-109 109,-109zm-786 -10c60,0 109,48 109,109 0,60 -49,109 -109,109 -61,0 -110,-49 -110,-109 0,-61 49,-109 110,-109z"/>
   <path fill="#3E4095" d="M1487 1420l2097 0 0 1443c0,535 -437,972 -971,972l-155 0c-534,0 -971,-437 -971,-972l0 -1443z"/>
   <g>
    <path fill="url(#id1)" d="M2688 2369l-73 -90 155 190 -82 -100zm-244 -300l0 0 118 145 -4 -5 -114 -140z"/>
    <g>
     <polygon fill="url(#id2)" points="1982,1626 2260,1625 2260,2109 2735,2105 2735,2633 1982,2633 "/>
     <polygon fill="url(#id3)" fill-rule="nonzero" points="2330,1627 2731,2043 2328,2040 "/>
    </g>
    <g>
     <polygon fill="url(#id4)" points="2457,2170 2735,2170 2735,2653 3210,2649 3210,3177 2457,3177 "/>
     <polygon fill="url(#id5)" fill-rule="nonzero" points="2805,2171 3206,2587 2803,2584 "/>
    </g>
   </g>
  </g>
 </g>
</svg>
