<?xml version="1.0" encoding="utf-8"?>
<!-- Generator: Adobe Illustrator 16.0.0, SVG Export Plug-In . SVG Version: 6.00 Build 0)  -->
<!DOCTYPE svg PUBLIC "-//W3C//DTD SVG 1.1//EN" "http://www.w3.org/Graphics/SVG/1.1/DTD/svg11.dtd">
<svg version="1.1" id="Layer_1" xmlns="http://www.w3.org/2000/svg" xmlns:xlink="http://www.w3.org/1999/xlink" x="0px" y="0px"
	 width="163.515px" height="117.567px" viewBox="0 0 163.515 117.567" enable-background="new 0 0 163.515 117.567"
	 xml:space="preserve">
<g enable-background="new    ">
	<linearGradient id="SVGID_1_" gradientUnits="userSpaceOnUse" x1="52.1348" y1="50.1309" x2="155.4604" y2="50.1309">
		<stop  offset="0" style="stop-color:#F7941E"/>
		<stop  offset="0.057" style="stop-color:#F79723"/>
		<stop  offset="0.1286" style="stop-color:#F89E33"/>
		<stop  offset="0.2081" style="stop-color:#F9AA4D"/>
		<stop  offset="0.2932" style="stop-color:#FABB70"/>
		<stop  offset="0.3829" style="stop-color:#FCD19E"/>
		<stop  offset="0.4749" style="stop-color:#FEEBD6"/>
		<stop  offset="0.5363" style="stop-color:#FFFFFF"/>
		<stop  offset="0.5504" style="stop-color:#FFFAF2"/>
		<stop  offset="0.6077" style="stop-color:#FEE6C3"/>
		<stop  offset="0.6668" style="stop-color:#FDD69B"/>
		<stop  offset="0.727" style="stop-color:#FCC87A"/>
		<stop  offset="0.7886" style="stop-color:#FCBD60"/>
		<stop  offset="0.8522" style="stop-color:#FBB64E"/>
		<stop  offset="0.9191" style="stop-color:#FBB144"/>
		<stop  offset="0.9946" style="stop-color:#FBB040"/>
	</linearGradient>
	<path fill="url(#SVGID_1_)" d="M155.36,48.83c-0.036-0.397-0.079-0.796-0.132-1.189l-1.164-8.653
		c0.024,0.177,0.038,0.354,0.058,0.531c-1.313-11.532-10.33-21.909-25.515-27.137c-24.478-8.427-55.688-0.293-69.714,18.164
		c-5.544,7.297-7.56,15.111-6.478,22.416c-0.017-0.112-0.045-0.225-0.06-0.338l1.163,8.65c1.525,11.318,10.504,21.459,25.459,26.608
		c3.088,1.062,6.287,1.863,9.543,2.41c2.491,0.423,5.017,0.694,7.555,0.823c2.132,0.11,4.275,0.122,6.41,0.035
		c1.979-0.081,3.952-0.243,5.913-0.483c1.938-0.241,3.86-0.558,5.763-0.95c1.972-0.405,3.92-0.895,5.833-1.461
		c2.1-0.621,4.155-1.335,6.155-2.143c2.467-0.995,4.851-2.127,7.119-3.39c6.149-3.423,11.47-7.807,15.423-13.01
		c1.53-2.017,2.793-4.068,3.797-6.143c0.925-1.912,1.63-3.841,2.121-5.764c0.4-1.574,0.66-3.145,0.776-4.705
		C155.494,51.667,155.484,50.239,155.36,48.83z M154.195,40.18c0.012,0.128,0.009,0.26,0.018,0.389
		c-0.015-0.204-0.022-0.409-0.042-0.613C154.178,40.032,154.188,40.104,154.195,40.18z M134.725,72.513
		c-0.141,0.089-0.278,0.181-0.419,0.269C134.447,72.693,134.583,72.602,134.725,72.513z M140.991,67.923
		c-0.237,0.202-0.475,0.402-0.716,0.601C140.516,68.325,140.754,68.125,140.991,67.923z M139.082,69.475
		c-0.239,0.185-0.478,0.37-0.721,0.552C138.604,69.845,138.843,69.659,139.082,69.475z M137.036,70.979
		c-0.222,0.156-0.441,0.313-0.666,0.466C136.595,71.292,136.813,71.135,137.036,70.979z M70.111,34.444
		c6.891-9.067,19.291-14.814,32.156-15.921c1.225-0.105,2.455-0.168,3.684-0.188c-1.229,0.02-2.459,0.083-3.684,0.188
		c-12.865,1.106-25.264,6.854-32.154,15.921c-6.563,8.638-6.574,18.239-1.208,25.759c1.074,1.504,2.362,2.925,3.857,4.237
		c-1.495-1.313-2.783-2.733-3.857-4.237C63.539,52.684,63.549,43.082,70.111,34.444z M72.85,77.231
		c-0.263-0.12-0.521-0.244-0.779-0.369C72.329,76.987,72.587,77.111,72.85,77.231z M70.486,76.06
		c-0.23-0.123-0.464-0.243-0.691-0.369C70.022,75.816,70.256,75.937,70.486,76.06z M68.05,74.673
		c-0.124-0.076-0.253-0.147-0.376-0.225C67.796,74.525,67.926,74.597,68.05,74.673z M65.648,73.097
		c-0.109-0.076-0.21-0.158-0.317-0.235C65.438,72.938,65.54,73.021,65.648,73.097z M63.788,71.687
		c-0.181-0.145-0.355-0.294-0.533-0.441C63.433,71.393,63.607,71.542,63.788,71.687z M52.784,54.939
		c-0.044-0.194-0.082-0.39-0.121-0.584C52.702,54.55,52.739,54.745,52.784,54.939z M57.227,64.778
		c-0.106-0.15-0.203-0.303-0.306-0.455C57.024,64.476,57.121,64.628,57.227,64.778z M56.085,63.024
		c-0.114-0.188-0.223-0.377-0.332-0.567C55.862,62.647,55.971,62.837,56.085,63.024z M55.061,61.178
		c-0.093-0.183-0.189-0.366-0.278-0.553C54.871,60.812,54.967,60.995,55.061,61.178z M54.108,59.106
		c-0.045-0.109-0.096-0.218-0.14-0.328C54.012,58.889,54.063,58.997,54.108,59.106z M53.293,56.86
		c-0.032-0.104-0.057-0.211-0.088-0.315C53.236,56.649,53.261,56.756,53.293,56.86z M59.945,68.123
		c0.129,0.14,0.267,0.274,0.399,0.413C60.211,68.397,60.074,68.263,59.945,68.123z M62.034,70.182
		c-0.176-0.16-0.351-0.32-0.522-0.482C61.683,69.861,61.858,70.021,62.034,70.182z M74.558,77.981
		c0.242,0.101,0.478,0.204,0.723,0.303C75.036,78.186,74.799,78.082,74.558,77.981z M83.089,80.761
		c-0.193-0.047-0.388-0.085-0.579-0.134C82.702,80.676,82.896,80.714,83.089,80.761z M87.286,81.63
		c0.094,0.017,0.189,0.028,0.283,0.044c-0.071-0.013-0.143-0.018-0.214-0.03C87.332,81.64,87.309,81.635,87.286,81.63z
		 M84.884,81.176c0.474,0.099,0.951,0.183,1.428,0.271C85.835,81.358,85.357,81.275,84.884,81.176z M94.765,82.454
		c0.246,0.014,0.494,0.02,0.74,0.028c-0.199-0.007-0.397-0.006-0.595-0.016C94.862,82.465,94.813,82.458,94.765,82.454z
		 M90.68,82.103c0.264,0.03,0.528,0.061,0.792,0.088C91.208,82.163,90.945,82.133,90.68,82.103z M97.684,82.544
		c0.323,0.003,0.646,0.003,0.97,0.002C98.331,82.547,98.007,82.547,97.684,82.544z M100.715,82.511
		c0.308-0.01,0.616-0.017,0.924-0.031c-0.106,0.006-0.211,0.016-0.317,0.021C101.12,82.508,100.917,82.505,100.715,82.511z
		 M107.125,82.025c0.199-0.024,0.397-0.056,0.597-0.081c-0.164,0.021-0.325,0.05-0.488,0.069
		C107.197,82.019,107.161,82.021,107.125,82.025z M103.645,82.358c0.25-0.019,0.5-0.03,0.75-0.051
		C104.145,82.328,103.895,82.34,103.645,82.358z M112.481,81.162c0.339-0.067,0.677-0.137,1.014-0.208
		c-0.167,0.034-0.333,0.079-0.5,0.113C112.825,81.103,112.652,81.128,112.481,81.162z M109.818,81.643
		c0.309-0.05,0.616-0.104,0.923-0.158C110.434,81.538,110.126,81.593,109.818,81.643z M118.459,79.706
		c0.141-0.041,0.283-0.075,0.423-0.118c-0.018,0.006-0.035,0.013-0.054,0.019C118.707,79.643,118.582,79.671,118.459,79.706z
		 M115.336,80.532c0.289-0.07,0.58-0.137,0.868-0.21C115.916,80.396,115.625,80.462,115.336,80.532z M124.543,77.627
		c0.222-0.087,0.444-0.174,0.665-0.264c-0.076,0.031-0.148,0.068-0.224,0.099C124.838,77.521,124.688,77.569,124.543,77.627z
		 M121.672,78.69c0.249-0.085,0.494-0.177,0.742-0.264C122.167,78.514,121.921,78.605,121.672,78.69z M128.954,75.696
		c-0.189,0.09-0.375,0.184-0.565,0.272C128.579,75.88,128.765,75.786,128.954,75.696z M142.11,66.934
		c0.227-0.206,0.453-0.412,0.676-0.622C142.563,66.521,142.336,66.728,142.11,66.934z M143.869,65.246
		c0.203-0.205,0.408-0.407,0.606-0.614C144.277,64.839,144.072,65.041,143.869,65.246z M147.526,61.063
		c0.411-0.54,0.797-1.083,1.168-1.628C148.323,59.98,147.936,60.523,147.526,61.063z M145.581,63.415
		c0.158-0.178,0.321-0.352,0.475-0.531C145.902,63.063,145.738,63.237,145.581,63.415z M151.076,55.399
		c0.171-0.341,0.337-0.681,0.494-1.021c-0.083,0.18-0.158,0.361-0.246,0.542C151.246,55.081,151.157,55.24,151.076,55.399z
		 M149.088,58.833c0.229-0.35,0.455-0.699,0.668-1.049C149.543,58.134,149.317,58.483,149.088,58.833z M150.16,57.092
		c0.188-0.325,0.373-0.652,0.548-0.979C150.533,56.439,150.348,56.767,150.16,57.092z M151.844,53.775
		c0.171-0.392,0.331-0.785,0.484-1.179C152.174,52.99,152.015,53.383,151.844,53.775z M153.17,50.127
		c0.116-0.396,0.223-0.792,0.32-1.188c-0.018,0.072-0.027,0.146-0.045,0.218C153.362,49.481,153.265,49.804,153.17,50.127z
		 M152.51,52.137c0.2-0.54,0.385-1.081,0.551-1.623C152.895,51.056,152.711,51.597,152.51,52.137z M154.192,44.681
		c0.018-0.215,0.029-0.428,0.042-0.64c-0.008,0.137-0.004,0.273-0.014,0.411C154.214,44.527,154.198,44.604,154.192,44.681z
		 M153.934,46.816c0.006-0.036,0.009-0.072,0.015-0.109C153.943,46.744,153.94,46.78,153.934,46.816z M154.282,42.683
		c0.001-0.229,0.002-0.458-0.001-0.688C154.285,42.225,154.284,42.453,154.282,42.683z"/>
	<path fill="#F15A29" d="M141.064,40.613c-1.137-8.44-7.806-15.989-18.922-19.817c-2.293-0.789-4.664-1.383-7.08-1.79
		c-1.85-0.311-3.726-0.514-5.612-0.611c-1.585-0.08-3.177-0.087-4.766-0.024c-1.472,0.06-2.94,0.18-4.401,0.36
		c-1.441,0.177-2.874,0.414-4.291,0.709c-1.473,0.303-2.928,0.667-4.358,1.09c-1.568,0.463-3.104,0.996-4.601,1.6
		c-1.849,0.743-3.635,1.597-5.336,2.542c-4.616,2.57-8.615,5.863-11.587,9.773c-1.151,1.516-2.101,3.063-2.855,4.621
		c-0.696,1.434-1.224,2.882-1.592,4.329c-0.302,1.179-0.495,2.361-0.583,3.533c-0.083,1.075-0.074,2.145,0.017,3.199
		c0.026,0.298,0.06,0.597,0.099,0.893l1.165,8.648c-0.039-0.294-0.072-0.591-0.099-0.889c-0.092-1.059-0.1-2.126-0.018-3.201
		c0.09-1.174,0.283-2.352,0.584-3.533c0.369-1.445,0.897-2.894,1.593-4.33c0.755-1.558,1.704-3.104,2.855-4.618
		c2.972-3.911,6.97-7.204,11.589-9.774c1.699-0.947,3.485-1.797,5.334-2.541c1.495-0.604,3.032-1.137,4.601-1.604
		c1.427-0.42,2.883-0.784,4.356-1.09c1.417-0.292,2.849-0.53,4.292-0.706c1.458-0.182,2.93-0.299,4.4-0.362
		c1.588-0.063,3.182-0.054,4.765,0.026c1.885,0.098,3.761,0.302,5.612,0.611c2.416,0.408,4.789,1.002,7.08,1.793
		c11.118,3.826,17.786,11.374,18.922,19.813L141.064,40.613z"/>
</g>
<g enable-background="new    ">
	
		<linearGradient id="SVGID_2_" gradientUnits="userSpaceOnUse" x1="2.6938" y1="94.1211" x2="103.7754" y2="94.1211" gradientTransform="matrix(0.9876 -0.1572 0.1572 0.9876 -9.3753 -16.2836)">
		<stop  offset="0" style="stop-color:#F7941E"/>
		<stop  offset="0.057" style="stop-color:#F79723"/>
		<stop  offset="0.1286" style="stop-color:#F89E33"/>
		<stop  offset="0.2081" style="stop-color:#F9AA4D"/>
		<stop  offset="0.2932" style="stop-color:#FABB70"/>
		<stop  offset="0.3829" style="stop-color:#FCD19E"/>
		<stop  offset="0.4749" style="stop-color:#FEEBD6"/>
		<stop  offset="0.5363" style="stop-color:#FFFFFF"/>
		<stop  offset="0.5504" style="stop-color:#FFFAF2"/>
		<stop  offset="0.6077" style="stop-color:#FEE6C3"/>
		<stop  offset="0.6668" style="stop-color:#FDD69B"/>
		<stop  offset="0.727" style="stop-color:#FCC87A"/>
		<stop  offset="0.7886" style="stop-color:#FCBD60"/>
		<stop  offset="0.8522" style="stop-color:#FBB64E"/>
		<stop  offset="0.9191" style="stop-color:#FBB144"/>
		<stop  offset="0.9946" style="stop-color:#FBB040"/>
	</linearGradient>
	<path fill="url(#SVGID_2_)" d="M107.613,59.107c-0.095-0.378-0.2-0.757-0.312-1.128l-2.455-8.182
		c0.051,0.168,0.092,0.336,0.138,0.504c-3.042-10.938-13.349-19.578-28.824-22.293c-24.944-4.375-53.846,8.285-64.557,28.272
		c-4.233,7.902-4.98,15.762-2.811,22.653c-0.033-0.107-0.077-0.21-0.11-0.317l2.454,8.179c3.214,10.701,13.448,19.115,28.688,21.79
		c3.148,0.551,6.361,0.833,9.591,0.86c2.471,0.026,4.954-0.102,7.426-0.367c2.075-0.221,4.149-0.539,6.197-0.951
		c1.899-0.382,3.782-0.843,5.639-1.377c1.834-0.53,3.644-1.133,5.421-1.805c1.843-0.693,3.649-1.466,5.412-2.309
		c1.933-0.922,3.808-1.928,5.616-3.017c2.229-1.34,4.359-2.801,6.355-4.369c5.415-4.254,9.881-9.307,12.899-14.941
		c1.169-2.185,2.074-4.36,2.725-6.52c0.6-1.99,0.984-3.961,1.162-5.894c0.145-1.583,0.153-3.141,0.026-4.667
		C108.177,61.828,107.949,60.449,107.613,59.107z M105.156,50.931c0.031,0.121,0.049,0.25,0.077,0.373
		c-0.044-0.193-0.084-0.392-0.135-0.585C105.116,50.79,105.137,50.858,105.156,50.931z M91.319,85.163
		c-0.123,0.106-0.241,0.216-0.363,0.322C91.078,85.379,91.196,85.27,91.319,85.163z M96.667,79.764
		c-0.198,0.232-0.396,0.462-0.6,0.691C96.271,80.226,96.469,79.996,96.667,79.764z M95.061,81.557
		c-0.203,0.216-0.403,0.432-0.612,0.645C94.658,81.988,94.858,81.772,95.061,81.557z M93.315,83.324
		c-0.191,0.185-0.377,0.371-0.573,0.553C92.938,83.695,93.125,83.509,93.315,83.324z M23.039,58.323
		c5.263-9.82,16.357-17.28,28.617-20.328c1.167-0.29,2.346-0.541,3.53-0.749c-1.185,0.208-2.363,0.459-3.53,0.749
		c-12.259,3.047-23.354,10.507-28.616,20.328c-5.012,9.354-3.545,18.632,2.796,25.071c1.268,1.288,2.731,2.463,4.377,3.501
		c-1.646-1.038-3.109-2.213-4.377-3.501C19.495,76.955,18.027,67.678,23.039,58.323z M32.267,99.24
		c-0.273-0.077-0.542-0.156-0.81-0.238C31.725,99.084,31.995,99.164,32.267,99.24z M29.804,98.471
		c-0.243-0.082-0.485-0.165-0.724-0.25C29.319,98.306,29.561,98.389,29.804,98.471z M27.236,97.505
		c-0.131-0.053-0.268-0.104-0.397-0.158C26.968,97.401,27.104,97.452,27.236,97.505z M24.673,96.353
		c-0.117-0.057-0.228-0.121-0.343-0.179C24.445,96.231,24.557,96.296,24.673,96.353z M22.659,95.276
		c-0.196-0.113-0.389-0.229-0.581-0.345C22.27,95.047,22.463,95.163,22.659,95.276z M9.451,80.79
		c-0.073-0.183-0.138-0.364-0.207-0.547C9.313,80.426,9.378,80.607,9.451,80.79z M15.258,89.611
		c-0.125-0.13-0.243-0.262-0.366-0.393C15.015,89.35,15.133,89.481,15.258,89.611z M13.885,88.093
		c-0.14-0.164-0.274-0.33-0.408-0.497C13.611,87.763,13.745,87.929,13.885,88.093z M12.612,86.467
		c-0.119-0.163-0.241-0.325-0.355-0.492C12.371,86.142,12.493,86.304,12.612,86.467z M11.372,84.612
		c-0.06-0.1-0.126-0.196-0.185-0.297C11.246,84.416,11.312,84.513,11.372,84.612z M10.24,82.567
		c-0.048-0.097-0.088-0.195-0.133-0.292C10.152,82.372,10.192,82.471,10.24,82.567z M18.398,92.425
		c0.146,0.115,0.301,0.225,0.449,0.337C18.699,92.649,18.544,92.54,18.398,92.425z M20.733,94.092
		c-0.194-0.128-0.388-0.255-0.579-0.386C20.345,93.837,20.539,93.964,20.733,94.092z M34.033,99.7
		c0.249,0.061,0.493,0.124,0.745,0.183C34.526,99.824,34.281,99.761,34.033,99.7z M42.702,101.073
		c-0.193-0.014-0.387-0.021-0.579-0.04C42.315,101.052,42.509,101.06,42.702,101.073z M46.891,101.269
		c0.092,0.001,0.187-0.003,0.279-0.002c-0.07-0.001-0.141,0.005-0.212,0.004C46.935,101.27,46.914,101.27,46.891,101.269z
		 M44.5,101.199c0.473,0.021,0.947,0.03,1.421,0.042C45.447,101.229,44.972,101.222,44.5,101.199z M54.243,100.914
		c0.24-0.024,0.479-0.059,0.72-0.085c-0.193,0.022-0.385,0.053-0.577,0.074C54.338,100.909,54.29,100.91,54.243,100.914z
		 M50.242,101.202c0.259-0.012,0.519-0.021,0.779-0.037C50.761,101.181,50.503,101.19,50.242,101.202z M57.077,100.551
		c0.312-0.046,0.625-0.096,0.937-0.146C57.703,100.455,57.389,100.505,57.077,100.551z M60,100.054
		c0.296-0.058,0.593-0.111,0.888-0.173c-0.101,0.021-0.202,0.049-0.303,0.068C60.39,99.988,60.194,100.015,60,100.054z
		 M66.118,98.599c0.189-0.056,0.375-0.114,0.564-0.17c-0.155,0.045-0.306,0.099-0.461,0.143
		C66.187,98.58,66.151,98.589,66.118,98.599z M62.807,99.454c0.238-0.055,0.479-0.105,0.717-0.163
		C63.285,99.349,63.045,99.399,62.807,99.454z M71.16,96.94c0.317-0.118,0.633-0.236,0.947-0.358
		c-0.155,0.061-0.308,0.129-0.466,0.188C71.481,96.83,71.319,96.881,71.16,96.94z M68.66,97.813
		c0.292-0.095,0.581-0.195,0.869-0.294C69.239,97.618,68.952,97.719,68.66,97.813z M76.711,94.614
		c0.13-0.062,0.262-0.117,0.39-0.179c-0.016,0.008-0.031,0.017-0.049,0.025C76.941,94.514,76.823,94.562,76.711,94.614z
		 M73.821,95.893c0.269-0.112,0.539-0.221,0.807-0.336C74.36,95.672,74.089,95.78,73.821,95.893z M82.27,91.67
		c0.2-0.119,0.404-0.237,0.602-0.357c-0.069,0.042-0.134,0.088-0.202,0.13C82.538,91.521,82.401,91.591,82.27,91.67z M79.658,93.138
		c0.229-0.119,0.452-0.246,0.678-0.368C80.11,92.892,79.887,93.019,79.658,93.138z M86.233,89.125
		c-0.169,0.116-0.333,0.236-0.503,0.352C85.9,89.361,86.064,89.241,86.233,89.125z M97.597,78.637
		c0.186-0.233,0.374-0.468,0.555-0.705C97.971,78.169,97.783,78.403,97.597,78.637z M99.036,76.734
		c0.164-0.229,0.331-0.455,0.491-0.687C99.367,76.279,99.2,76.506,99.036,76.734z M101.926,72.132
		c0.313-0.584,0.602-1.169,0.878-1.753C102.528,70.963,102.237,71.547,101.926,72.132z M100.407,74.703
		c0.125-0.196,0.257-0.39,0.377-0.586C100.664,74.313,100.533,74.507,100.407,74.703z M104.483,66.114
		c0.114-0.356,0.221-0.709,0.32-1.063c-0.052,0.188-0.097,0.375-0.155,0.563C104.598,65.779,104.538,65.947,104.483,66.114z
		 M103.092,69.736c0.167-0.371,0.333-0.745,0.485-1.116C103.425,68.991,103.258,69.365,103.092,69.736z M103.858,67.89
		c0.132-0.343,0.261-0.688,0.379-1.031C104.119,67.201,103.99,67.547,103.858,67.89z M104.976,64.427
		c0.106-0.404,0.199-0.81,0.286-1.214C105.174,63.617,105.082,64.021,104.976,64.427z M105.697,60.698
		c0.05-0.401,0.093-0.8,0.126-1.197c-0.006,0.073-0.005,0.146-0.011,0.217C105.783,60.045,105.738,60.371,105.697,60.698z
		 M105.368,62.742c0.11-0.554,0.204-1.104,0.282-1.654C105.571,61.638,105.478,62.188,105.368,62.742z M105.846,55.278
		c-0.017-0.211-0.038-0.417-0.057-0.624c0.012,0.134,0.037,0.265,0.048,0.399C105.843,55.128,105.841,55.203,105.846,55.278z
		 M105.924,57.382c0-0.037-0.002-0.07-0.001-0.108C105.922,57.312,105.925,57.345,105.924,57.382z M105.625,53.334
		c-0.035-0.221-0.067-0.442-0.108-0.663C105.558,52.892,105.591,53.113,105.625,53.334z"/>
	<path fill="#F15A29" d="M92.537,53.368c-2.398-7.979-10.001-14.247-21.33-16.234c-2.336-0.409-4.72-0.618-7.116-0.642
		c-1.835-0.014-3.678,0.078-5.514,0.273c-1.545,0.167-3.083,0.406-4.608,0.709c-1.413,0.286-2.814,0.627-4.198,1.026
		c-1.365,0.392-2.713,0.841-4.036,1.343c-1.377,0.521-2.726,1.097-4.043,1.725c-1.443,0.689-2.845,1.44-4.199,2.252
		c-1.671,1.002-3.266,2.104-4.763,3.277c-4.065,3.193-7.422,6.99-9.691,11.225c-0.879,1.643-1.558,3.282-2.048,4.903
		c-0.452,1.492-0.739,2.973-0.873,4.426c-0.108,1.187-0.113,2.358-0.019,3.504c0.086,1.052,0.258,2.084,0.508,3.089
		c0.071,0.283,0.149,0.566,0.233,0.847l2.456,8.176c-0.083-0.278-0.161-0.561-0.232-0.844c-0.252-1.008-0.424-2.038-0.51-3.09
		c-0.093-1.147-0.088-2.314,0.021-3.502c0.133-1.453,0.423-2.934,0.873-4.43c0.49-1.62,1.169-3.261,2.048-4.9
		c2.27-4.236,5.626-8.03,9.693-11.226c1.495-1.176,3.091-2.272,4.762-3.273c1.352-0.814,2.754-1.566,4.199-2.258
		c1.314-0.625,2.664-1.202,4.041-1.725c1.324-0.5,2.669-0.951,4.038-1.342c1.381-0.4,2.783-0.74,4.194-1.027
		c1.525-0.304,3.066-0.543,4.607-0.707c1.837-0.197,3.681-0.288,5.516-0.273c2.396,0.021,4.782,0.23,7.117,0.643
		c11.33,1.986,18.934,8.252,21.328,16.231L92.537,53.368z"/>
</g>
</svg>
