<?xml version="1.0" encoding="utf-8"?>
<!-- Generator: Adobe Illustrator 16.0.0, SVG Export Plug-In . SVG Version: 6.00 Build 0)  -->
<!DOCTYPE svg PUBLIC "-//W3C//DTD SVG 1.1//EN" "http://www.w3.org/Graphics/SVG/1.1/DTD/svg11.dtd">
<svg version="1.1" id="Layer_1" xmlns="http://www.w3.org/2000/svg" xmlns:xlink="http://www.w3.org/1999/xlink" x="0px" y="0px"
	 width="235.488px" height="159.333px" viewBox="0 0 235.488 159.333" enable-background="new 0 0 235.488 159.333"
	 xml:space="preserve">
<g enable-background="new    ">
	<g>
		<path fill="#939598" d="M25.895,25.597L134.128,8.455c4.568-0.724,9.284,2.331,10.518,6.806l14.751,53.521
			c1.235,4.483-1.473,8.714-6.041,9.438L45.122,95.362c-4.568,0.725-9.284-2.331-10.52-6.814L19.851,35.026
			C18.618,30.551,21.326,26.32,25.895,25.597z"/>
	</g>
	<linearGradient id="SVGID_1_" gradientUnits="userSpaceOnUse" x1="17.603" y1="45.6108" x2="159.6953" y2="45.6108">
		<stop  offset="0" style="stop-color:#000000"/>
		<stop  offset="0.2643" style="stop-color:#020203"/>
		<stop  offset="0.4252" style="stop-color:#0B0B0B"/>
		<stop  offset="0.5585" style="stop-color:#191919"/>
		<stop  offset="0.6767" style="stop-color:#2C2D2E"/>
		<stop  offset="0.7849" style="stop-color:#464748"/>
		<stop  offset="0.8858" style="stop-color:#656769"/>
		<stop  offset="0.9792" style="stop-color:#8A8C8F"/>
		<stop  offset="1" style="stop-color:#939598"/>
	</linearGradient>
	<path fill="url(#SVGID_1_)" d="M159.396,68.782l-14.751-53.521c-1.233-4.475-5.95-7.53-10.518-6.807L25.895,25.597l-8.292,6.025
		l108.233-17.143c4.568-0.724,9.284,2.331,10.518,6.807l14.751,53.521c0.888,3.222-0.261,6.313-2.673,8.066l8.291-6.024
		C159.135,75.096,160.284,72.004,159.396,68.782z"/>
	<path fill="#F7941E" d="M153.355,78.22L45.122,95.362c-4.568,0.725-9.284-2.331-10.52-6.814L19.851,35.026
		c-0.528-1.917-0.32-3.783,0.435-5.354l5.608-4.075c-1.286,0.204-2.424,0.685-3.369,1.372l-8.291,6.024
		c-2.412,1.753-3.561,4.842-2.675,8.058l14.75,53.521c1.236,4.483,5.952,7.538,10.52,6.815l108.233-17.143
		c1.285-0.204,2.423-0.685,3.368-1.371l8.291-6.024C155.778,77.535,154.641,78.016,153.355,78.22z"/>
</g>
<g enable-background="new    ">
	<linearGradient id="SVGID_2_" gradientUnits="userSpaceOnUse" x1="37.0073" y1="98.9927" x2="225.2085" y2="98.9927">
		<stop  offset="0" style="stop-color:#A7A9AC"/>
		<stop  offset="0.4476" style="stop-color:#6A6A6C"/>
		<stop  offset="1" style="stop-color:#231F20"/>
	</linearGradient>
	<path fill="url(#SVGID_2_)" d="M220.704,86.059l-33.628-11.126c-0.015-0.005-0.029-0.01-0.044-0.015
		c-0.057-0.019-0.122-0.036-0.18-0.054c-0.274-0.088-0.562-0.172-0.851-0.255l0.008-0.172c-0.396-0.109-0.805-0.214-1.225-0.315
		c-0.37-0.089-0.749-0.174-1.135-0.256c-0.356-0.076-0.72-0.149-1.089-0.219c-0.346-0.066-0.698-0.129-1.055-0.19
		c-0.345-0.059-0.695-0.115-1.049-0.169c-0.348-0.053-0.7-0.104-1.055-0.152c-0.351-0.048-0.706-0.093-1.063-0.137
		c-0.354-0.043-0.712-0.083-1.072-0.122c-0.357-0.038-0.717-0.074-1.079-0.107c-0.274-0.025-0.55-0.048-0.826-0.07
		c0,0,0-0.001,0-0.001c-0.029-0.002-0.058-0.004-0.087-0.006c-0.056-0.004-0.111-0.01-0.167-0.014
		c-0.357-0.028-0.715-0.054-1.074-0.077c-0.028-0.002-0.055-0.003-0.083-0.005c-0.011,0-0.022-0.001-0.034-0.002
		c-0.032-0.002-0.063-0.003-0.095-0.005c-0.284-0.018-0.568-0.035-0.853-0.05c-0.192-0.01-0.384-0.018-0.576-0.027
		c-0.064-0.003-0.128-0.007-0.192-0.01c0,0,0,0.001,0,0.001c-0.103-0.004-0.205-0.01-0.308-0.014
		c-0.366-0.014-0.731-0.026-1.097-0.036c-0.182-0.005-0.363-0.007-0.544-0.01c0-0.001,0-0.001,0-0.002c-0.048-0.001-0.096,0-0.144,0
		c-0.18-0.003-0.36-0.008-0.54-0.01c-0.523-0.006-1.044-0.007-1.563-0.002c-0.029,0-0.056,0.002-0.085,0.002
		c-0.917,0.008-1.821,0.034-2.711,0.075c-0.226,0.01-0.441,0.028-0.665,0.041c-0.657,0.037-1.305,0.081-1.938,0.137
		c-0.113,0.01-0.235,0.014-0.348,0.024c-0.222,0.021-0.426,0.052-0.644,0.076c-0.261,0.028-0.534,0.048-0.79,0.08
		c0,0.004,0,0.009,0,0.013c-0.281,0.035-0.577,0.061-0.851,0.1l-0.007,0.153c-0.111,0.017-0.224,0.033-0.333,0.05l-0.323,0.051
		l0.007-0.156L45.082,91.166l-0.007,0.16c-0.221,0.037-0.444,0.073-0.654,0.113c-0.125,0.023-0.235,0.05-0.356,0.074l0.008-0.174
		c-0.121,0.022-0.227,0.049-0.345,0.072c0-0.002,0-0.004,0-0.006c-0.637,0.126-1.22,0.264-1.754,0.409
		c-0.02,0.005-0.043,0.01-0.063,0.016c-0.103,0.028-0.194,0.059-0.292,0.088c-0.137,0.04-0.275,0.08-0.405,0.121
		c-0.024,0.008-0.051,0.015-0.074,0.022c-0.086,0.028-0.163,0.058-0.246,0.087c-0.12,0.041-0.241,0.082-0.353,0.124
		c-0.017,0.007-0.037,0.013-0.054,0.02c-0.078,0.03-0.147,0.061-0.222,0.092c-0.1,0.04-0.202,0.08-0.295,0.121
		c-0.013,0.006-0.029,0.012-0.042,0.018c-0.083,0.037-0.155,0.076-0.232,0.113c-0.078,0.038-0.16,0.075-0.232,0.113
		c-0.005,0.003-0.012,0.005-0.017,0.008c-0.1,0.053-0.189,0.107-0.279,0.162c-0.059,0.034-0.118,0.069-0.172,0.104
		c-0.111,0.072-0.217,0.145-0.311,0.219c-0.003,0.002-0.005,0.005-0.008,0.007c-0.004,0.004-0.011,0.007-0.015,0.011
		c0,0.001,0,0.002,0,0.003c-0.098,0.078-0.189,0.156-0.268,0.236l-1.386,31.032c0.015-0.015,0.035-0.029,0.05-0.044l-0.048,1.075
		c0.002-0.045,0.007-0.091,0.014-0.136c0.017-0.103,0.048-0.204,0.094-0.306c0.042-0.095,0.097-0.189,0.165-0.283
		c0.064-0.088,0.139-0.176,0.225-0.262c0.084-0.085,0.179-0.169,0.285-0.252c0.104-0.081,0.218-0.161,0.343-0.241
		c0.124-0.078,0.258-0.156,0.402-0.232c0.146-0.077,0.302-0.153,0.469-0.229c0.171-0.076,0.353-0.151,0.545-0.225
		c0.2-0.077,0.412-0.151,0.636-0.225c0.237-0.077,0.488-0.152,0.751-0.225c0.29-0.08,0.595-0.157,0.916-0.231
		c0.373-0.086,0.767-0.169,1.183-0.246c0.314-0.059,0.64-0.115,0.978-0.169l114.234-18.093c0.202-0.031,0.406-0.063,0.613-0.092
		c0.711-0.102,1.451-0.188,2.211-0.261c1.791-0.171,3.701-0.261,5.657-0.276c0.504-0.004,1.011-0.003,1.519,0.003
		c0.393,0.005,0.786,0.013,1.179,0.022c0.361,0.01,0.723,0.021,1.084,0.036c0.349,0.014,0.697,0.03,1.045,0.048
		c0.348,0.019,0.696,0.039,1.042,0.062c0.351,0.023,0.702,0.049,1.05,0.076c0.075,0.006,0.15,0.012,0.225,0.018
		c0.279,0.022,0.557,0.047,0.833,0.072c0.029,0.003,0.058,0.006,0.087,0.008c0.917,0.086,1.82,0.187,2.704,0.302
		c0.589,0.077,1.169,0.161,1.737,0.251c0.426,0.068,0.846,0.139,1.259,0.214c0.412,0.074,0.812,0.154,1.207,0.235
		c0.084,0.018,0.171,0.034,0.254,0.052c0.414,0.088,0.817,0.18,1.211,0.274c0.159,0.039,0.309,0.08,0.464,0.119
		c0.252,0.064,0.503,0.129,0.746,0.196c0.366,0.102,0.716,0.209,1.058,0.318c0.083,0.026,0.174,0.051,0.256,0.078l33.629,11.126
		c3.009,0.996,4.485,2.114,4.504,3.166c0,0.023,0,0.047-0.001,0.069l1.386-31.032c0.001-0.023,0.001-0.046,0.001-0.069
		C225.19,88.173,223.713,87.055,220.704,86.059z"/>
	<g enable-background="new    ">
		<linearGradient id="SVGID_3_" gradientUnits="userSpaceOnUse" x1="75.2427" y1="92.2891" x2="166.457" y2="92.2891">
			<stop  offset="0" style="stop-color:#F7941E"/>
			<stop  offset="0.057" style="stop-color:#F79723"/>
			<stop  offset="0.1286" style="stop-color:#F89E33"/>
			<stop  offset="0.2081" style="stop-color:#F9AA4D"/>
			<stop  offset="0.2932" style="stop-color:#FABB70"/>
			<stop  offset="0.3829" style="stop-color:#FCD19E"/>
			<stop  offset="0.4749" style="stop-color:#FEEBD6"/>
			<stop  offset="0.5363" style="stop-color:#FFFFFF"/>
			<stop  offset="0.5504" style="stop-color:#FFFAF2"/>
			<stop  offset="0.6077" style="stop-color:#FEE6C3"/>
			<stop  offset="0.6668" style="stop-color:#FDD69B"/>
			<stop  offset="0.727" style="stop-color:#FCC87A"/>
			<stop  offset="0.7886" style="stop-color:#FCBD60"/>
			<stop  offset="0.8522" style="stop-color:#FBB64E"/>
			<stop  offset="0.9191" style="stop-color:#FBB144"/>
			<stop  offset="0.9946" style="stop-color:#FBB040"/>
		</linearGradient>
		<path fill="url(#SVGID_3_)" d="M166.369,91.14c-0.032-0.35-0.07-0.702-0.117-1.05l-1.027-7.638
			c0.021,0.156,0.034,0.313,0.051,0.468c-1.159-10.18-9.119-19.34-22.524-23.956c-21.608-7.439-49.161-0.258-61.542,16.035
			c-4.894,6.441-6.674,13.339-5.719,19.789c-0.015-0.1-0.039-0.198-0.053-0.299l1.026,7.637c1.346,9.992,9.272,18.943,22.475,23.489
			c2.727,0.938,5.55,1.646,8.425,2.128c2.198,0.373,4.429,0.612,6.669,0.727c1.882,0.098,3.774,0.107,5.658,0.031
			c1.747-0.071,3.489-0.215,5.22-0.427c1.711-0.213,3.407-0.492,5.087-0.839c1.741-0.357,3.46-0.79,5.15-1.289
			c1.854-0.549,3.667-1.179,5.434-1.893c2.177-0.878,4.282-1.877,6.285-2.992c5.428-3.021,10.125-6.891,13.615-11.484
			c1.351-1.78,2.466-3.592,3.353-5.423c0.817-1.688,1.439-3.391,1.872-5.088c0.353-1.39,0.582-2.776,0.685-4.154
			C166.487,93.645,166.478,92.384,166.369,91.14z M165.34,83.504c0.01,0.114,0.008,0.23,0.016,0.344
			c-0.013-0.18-0.02-0.361-0.038-0.541C165.325,83.373,165.334,83.438,165.34,83.504z M148.152,112.047
			c-0.125,0.078-0.245,0.159-0.371,0.236C147.907,112.207,148.027,112.125,148.152,112.047z M153.684,107.996
			c-0.209,0.179-0.419,0.355-0.632,0.53C153.265,108.351,153.475,108.174,153.684,107.996z M151.999,109.365
			c-0.211,0.163-0.421,0.327-0.636,0.487C151.577,109.692,151.788,109.528,151.999,109.365z M150.192,110.693
			c-0.196,0.138-0.389,0.277-0.588,0.411C149.803,110.97,149.996,110.831,150.192,110.693z M91.112,78.441
			c6.083-8.004,17.029-13.078,28.387-14.055c1.082-0.093,2.167-0.149,3.252-0.167c-1.085,0.018-2.171,0.073-3.252,0.167
			C108.142,65.363,97.195,70.437,91.112,78.441c-5.792,7.625-5.802,16.102-1.064,22.739c0.948,1.328,2.085,2.582,3.404,3.741
			c-1.319-1.159-2.457-2.413-3.404-3.741C85.31,94.542,85.319,86.066,91.112,78.441z M93.529,116.213
			c-0.232-0.106-0.46-0.216-0.688-0.326C93.069,115.998,93.298,116.107,93.529,116.213z M91.443,115.178
			c-0.204-0.108-0.41-0.215-0.61-0.325C91.034,114.963,91.24,115.07,91.443,115.178z M89.292,113.955
			c-0.109-0.067-0.224-0.131-0.333-0.198C89.068,113.824,89.183,113.887,89.292,113.955z M87.172,112.563
			c-0.096-0.067-0.186-0.14-0.28-0.208C86.986,112.423,87.076,112.496,87.172,112.563z M85.53,111.318
			c-0.16-0.128-0.314-0.26-0.47-0.39C85.216,111.058,85.371,111.19,85.53,111.318z M75.815,96.534
			c-0.039-0.172-0.072-0.344-0.107-0.516C75.744,96.19,75.776,96.362,75.815,96.534z M79.738,105.219
			c-0.093-0.133-0.179-0.268-0.27-0.401C79.559,104.952,79.645,105.086,79.738,105.219z M78.73,103.671
			c-0.101-0.166-0.197-0.333-0.293-0.501C78.533,103.338,78.629,103.505,78.73,103.671z M77.826,102.042
			c-0.083-0.162-0.167-0.324-0.246-0.488C77.658,101.717,77.743,101.879,77.826,102.042z M76.984,100.212
			c-0.04-0.097-0.085-0.192-0.124-0.289C76.899,100.02,76.945,100.116,76.984,100.212z M76.266,98.23
			c-0.029-0.093-0.05-0.187-0.078-0.278C76.215,98.043,76.237,98.137,76.266,98.23z M82.137,108.172
			c0.114,0.123,0.235,0.242,0.353,0.364C82.373,108.415,82.251,108.295,82.137,108.172z M83.981,109.99
			c-0.155-0.142-0.31-0.283-0.461-0.427C83.672,109.707,83.826,109.848,83.981,109.99z M95.038,116.875
			c0.213,0.089,0.422,0.181,0.638,0.268C95.459,117.055,95.25,116.963,95.038,116.875z M102.569,119.329
			c-0.17-0.041-0.342-0.075-0.511-0.118C102.227,119.253,102.399,119.288,102.569,119.329z M106.274,120.096
			c0.083,0.015,0.167,0.024,0.25,0.038c-0.063-0.011-0.126-0.016-0.189-0.026C106.314,120.104,106.294,120.1,106.274,120.096z
			 M104.153,119.695c0.418,0.087,0.839,0.161,1.26,0.239C104.993,119.856,104.571,119.783,104.153,119.695z M112.876,120.824
			c0.217,0.012,0.436,0.017,0.654,0.025c-0.175-0.007-0.351-0.006-0.525-0.015C112.961,120.833,112.919,120.827,112.876,120.824z
			 M109.27,120.513c0.233,0.026,0.466,0.054,0.699,0.078C109.736,120.567,109.503,120.54,109.27,120.513z M115.453,120.903
			c0.285,0.003,0.571,0.003,0.856,0.002C116.023,120.906,115.738,120.906,115.453,120.903z M118.129,120.874
			c0.272-0.009,0.543-0.015,0.815-0.027c-0.093,0.005-0.187,0.014-0.28,0.018C118.486,120.871,118.307,120.868,118.129,120.874z
			 M123.787,120.445c0.176-0.021,0.351-0.049,0.527-0.071c-0.144,0.019-0.286,0.044-0.43,0.062
			C123.851,120.439,123.819,120.441,123.787,120.445z M120.715,120.739c0.22-0.016,0.441-0.026,0.662-0.045
			C121.156,120.712,120.936,120.722,120.715,120.739z M128.516,119.683c0.299-0.06,0.597-0.121,0.895-0.185
			c-0.147,0.031-0.293,0.07-0.441,0.101C128.819,119.63,128.667,119.653,128.516,119.683z M126.165,120.107
			c0.272-0.044,0.544-0.093,0.815-0.14C126.708,120.014,126.437,120.063,126.165,120.107z M133.793,118.398
			c0.124-0.036,0.25-0.067,0.374-0.104c-0.016,0.005-0.031,0.011-0.047,0.016C134.011,118.341,133.901,118.367,133.793,118.398z
			 M131.036,119.126c0.255-0.062,0.512-0.12,0.766-0.186C131.548,119.006,131.292,119.065,131.036,119.126z M139.164,116.562
			c0.196-0.077,0.393-0.153,0.587-0.232c-0.067,0.027-0.131,0.06-0.198,0.087C139.424,116.468,139.292,116.511,139.164,116.562z
			 M136.629,117.5c0.22-0.075,0.437-0.155,0.655-0.232C137.066,117.345,136.849,117.425,136.629,117.5z M143.058,114.857
			c-0.167,0.08-0.331,0.163-0.499,0.241C142.727,115.02,142.891,114.937,143.058,114.857z M154.671,107.123
			c0.2-0.182,0.4-0.364,0.597-0.55C155.072,106.758,154.872,106.941,154.671,107.123z M156.225,105.632
			c0.179-0.181,0.36-0.359,0.535-0.543C156.585,105.273,156.403,105.452,156.225,105.632z M159.453,101.94
			c0.362-0.477,0.704-0.956,1.032-1.438C160.157,100.984,159.815,101.463,159.453,101.94z M157.735,104.016
			c0.139-0.157,0.284-0.311,0.419-0.47C158.019,103.706,157.875,103.859,157.735,104.016z M162.586,96.94
			c0.151-0.301,0.297-0.601,0.436-0.901c-0.074,0.159-0.14,0.319-0.217,0.479C162.737,96.659,162.658,96.799,162.586,96.94z
			 M160.832,99.971c0.202-0.309,0.402-0.617,0.589-0.926C161.234,99.354,161.034,99.663,160.832,99.971z M161.778,98.434
			c0.166-0.287,0.329-0.576,0.484-0.865C162.107,97.858,161.944,98.147,161.778,98.434z M163.264,95.506
			c0.151-0.346,0.292-0.693,0.427-1.041C163.556,94.813,163.416,95.16,163.264,95.506z M164.436,92.285
			c0.102-0.349,0.196-0.699,0.282-1.048c-0.016,0.064-0.024,0.128-0.04,0.192C164.605,91.715,164.519,92,164.436,92.285z
			 M163.853,94.06c0.177-0.478,0.339-0.955,0.486-1.434C164.192,93.105,164.03,93.583,163.853,94.06z M165.337,87.477
			c0.016-0.188,0.026-0.376,0.037-0.564c-0.007,0.122-0.003,0.242-0.013,0.363C165.357,87.342,165.343,87.41,165.337,87.477z
			 M165.11,89.363c0.005-0.032,0.008-0.064,0.013-0.096C165.118,89.299,165.115,89.331,165.11,89.363z M165.417,85.714
			c0.001-0.203,0.002-0.405-0.001-0.607C165.419,85.309,165.418,85.511,165.417,85.714z"/>
		<path fill="#F15A29" d="M153.748,83.886c-1.003-7.451-6.891-14.115-16.704-17.494c-2.024-0.697-4.118-1.221-6.25-1.581
			c-1.633-0.274-3.289-0.454-4.954-0.54c-1.4-0.071-2.805-0.077-4.208-0.021c-1.299,0.053-2.596,0.159-3.885,0.317
			c-1.272,0.157-2.537,0.366-3.788,0.626c-1.3,0.268-2.584,0.589-3.847,0.962c-1.384,0.409-2.74,0.88-4.062,1.412
			c-1.632,0.656-3.208,1.41-4.71,2.244c-4.075,2.27-7.605,5.176-10.229,8.628c-1.016,1.339-1.855,2.704-2.521,4.08
			c-0.614,1.265-1.08,2.544-1.405,3.821c-0.266,1.041-0.437,2.084-0.515,3.119c-0.073,0.949-0.065,1.894,0.015,2.824
			c0.023,0.262,0.053,0.526,0.088,0.788l1.028,7.635c-0.035-0.26-0.063-0.522-0.087-0.785c-0.081-0.934-0.088-1.877-0.016-2.826
			c0.08-1.035,0.25-2.075,0.516-3.118c0.325-1.276,0.792-2.555,1.406-3.823c0.666-1.375,1.504-2.74,2.52-4.076
			c2.624-3.454,6.153-6.36,10.23-8.629c1.5-0.836,3.077-1.586,4.709-2.243c1.32-0.534,2.677-1.004,4.062-1.416
			c1.26-0.371,2.545-0.692,3.846-0.962c1.25-0.258,2.514-0.469,3.789-0.624c1.288-0.161,2.586-0.264,3.884-0.32
			c1.401-0.055,2.809-0.048,4.207,0.023c1.665,0.086,3.32,0.266,4.954,0.54c2.132,0.36,4.228,0.884,6.25,1.583
			c9.815,3.377,15.702,10.04,16.705,17.491L153.748,83.886z"/>
	</g>
	<path fill="#F7941E" d="M225.583,89.906c-0.01,0.025-0.025,0.05-0.036,0.075c-0.078,0.176-0.18,0.352-0.314,0.522
		c-0.007,0.008-0.011,0.017-0.017,0.024c-0.145,0.179-0.325,0.353-0.531,0.523c-0.023,0.019-0.044,0.038-0.067,0.057
		c-0.204,0.163-0.439,0.32-0.698,0.473c-0.045,0.026-0.088,0.054-0.133,0.078c-0.265,0.15-0.557,0.295-0.875,0.436
		c-0.057,0.024-0.114,0.049-0.172,0.072c-0.337,0.144-0.698,0.282-1.093,0.412c-0.052,0.018-0.111,0.035-0.165,0.051
		c-0.342,0.11-0.708,0.214-1.091,0.316c-0.156,0.041-0.315,0.081-0.479,0.121c-0.443,0.106-0.897,0.212-1.39,0.307l-0.007,0.192
		l-0.323,0.063l0.014-0.382l-114.234,21.946l-0.007,0.186c-0.111,0.021-0.221,0.042-0.334,0.061c-0.736,0.127-1.5,0.234-2.287,0.325
		c-1.823,0.209-3.764,0.32-5.75,0.341c-0.519,0.004-1.041,0.003-1.564-0.004c-0.018,0-0.035-0.001-0.053-0.001l0.005-0.148
		c-0.398-0.005-0.798-0.014-1.198-0.027c-0.357-0.012-0.714-0.025-1.071-0.042c-0.351-0.019-0.702-0.037-1.052-0.06
		c-0.348-0.022-0.695-0.048-1.042-0.075l-0.005,0.148c-0.017-0.001-0.035-0.002-0.052-0.004c-0.359-0.028-0.718-0.059-1.075-0.093
		c-0.362-0.035-0.722-0.072-1.081-0.113l-0.005,0.145l0,0l0.005-0.145c-0.362-0.04-0.722-0.082-1.079-0.129
		c-0.36-0.046-0.718-0.096-1.073-0.147c-0.357-0.053-0.712-0.108-1.063-0.166c-0.355-0.059-0.707-0.12-1.055-0.184
		c-0.354-0.066-0.704-0.134-1.049-0.206c-0.356-0.073-0.708-0.15-1.054-0.23c-0.369-0.085-0.732-0.173-1.088-0.265
		c-0.387-0.1-0.765-0.204-1.135-0.311c-0.42-0.123-0.828-0.25-1.224-0.383c-0.371-0.124-0.718-0.256-1.065-0.389l0.008-0.214
		L42.901,99.565l-0.008,0.227l-0.379-0.151c-2.192-0.879-3.574-1.834-4.211-2.78l0.091-2.471c-0.088,0.108-0.165,0.216-0.23,0.326
		c-0.069,0.115-0.125,0.231-0.169,0.351c-0.046,0.125-0.078,0.252-0.095,0.379c-0.008,0.056-0.013,0.112-0.015,0.168l-0.047,1.269
		c-0.296-0.436-0.455-0.87-0.439-1.296l-1.386,37.64c-0.05,1.368,1.501,2.828,4.735,4.127l0.009-0.235
		c0.126,0.055,0.239,0.109,0.372,0.163l33.628,13.494c0.014,0.006,0.027,0.011,0.041,0.017c0.447,0.178,0.916,0.35,1.404,0.513
		c0.396,0.132,0.804,0.26,1.224,0.381c0.37,0.108,0.748,0.211,1.134,0.313c0.356,0.091,0.719,0.18,1.088,0.265
		c0.346,0.079,0.698,0.156,1.054,0.229c0.346,0.071,0.696,0.141,1.05,0.205c0.348,0.064,0.7,0.126,1.055,0.186
		c0.352,0.058,0.706,0.113,1.063,0.165c0.354,0.053,0.712,0.101,1.072,0.147c0.326,0.042,0.656,0.081,0.985,0.118l-0.005,0.146
		c0.369,0.042,0.739,0.081,1.111,0.115c0.367,0.035,0.735,0.067,1.105,0.097c0.364,0.028,0.729,0.055,1.095,0.078
		c0.369,0.024,0.738,0.044,1.107,0.062c0.376,0.019,0.752,0.033,1.129,0.045c0.419,0.015,0.838,0.024,1.256,0.03
		c0.538,0.007,1.073,0.008,1.605,0.003c2.035-0.02,4.024-0.135,5.89-0.348c0.802-0.093,1.583-0.203,2.333-0.333
		c0.226-0.038,0.449-0.079,0.669-0.122l114.234-21.944c0.355-0.067,0.698-0.14,1.027-0.214l0.008-0.215
		c0.007-0.001,0.014-0.004,0.021-0.005c0.171-0.041,0.339-0.084,0.503-0.126c0.111-0.03,0.234-0.057,0.343-0.087
		c0.27-0.076,0.52-0.154,0.768-0.234c0.039-0.013,0.084-0.025,0.123-0.038c0.016-0.005,0.034-0.01,0.051-0.016
		c0.27-0.091,0.527-0.185,0.771-0.28c0.095-0.037,0.178-0.077,0.268-0.115c0.066-0.027,0.132-0.055,0.195-0.083
		c0.062-0.027,0.129-0.053,0.188-0.08c0.197-0.092,0.384-0.185,0.56-0.279c0.044-0.025,0.083-0.05,0.126-0.075
		c0.041-0.022,0.078-0.046,0.118-0.069c0.079-0.047,0.162-0.093,0.236-0.141c0.147-0.095,0.284-0.19,0.411-0.289
		c0.02-0.015,0.035-0.03,0.055-0.046c0.024-0.02,0.047-0.04,0.07-0.061c0.078-0.063,0.158-0.128,0.227-0.192
		c0.107-0.103,0.204-0.206,0.291-0.312c0.005-0.006,0.007-0.011,0.012-0.017c0.007-0.009,0.012-0.018,0.019-0.026
		c0.074-0.094,0.144-0.188,0.2-0.283c0.047-0.08,0.081-0.162,0.116-0.243c0.01-0.022,0.023-0.045,0.032-0.067
		c0.006-0.014,0.015-0.027,0.02-0.04c0.047-0.125,0.078-0.252,0.096-0.38c0.008-0.056,0.013-0.111,0.015-0.168
		c0.462-12.546,0.924-25.092,1.386-37.639C225.705,89.518,225.659,89.713,225.583,89.906z"/>
</g>
<g>
	<g>
		<g enable-background="new    ">
			<g enable-background="new    ">
				<defs>
					<path id="SVGID_4_" enable-background="new    " d="M188.843,116.923l-0.13,2.909c0.012-0.271-0.297-0.529-0.963-0.75
						c-1.817-0.602-2.997-1.162-2.986-1.391l0.13-2.909c-0.01,0.229,1.169,0.789,2.986,1.391
						C188.546,116.394,188.855,116.652,188.843,116.923z"/>
				</defs>
				<clipPath id="SVGID_5_">
					<use xlink:href="#SVGID_4_"  overflow="visible"/>
				</clipPath>
				<g clip-path="url(#SVGID_5_)" enable-background="new    ">
					<path fill="#4C4D4F" d="M188.843,116.923l-0.13,2.909c0.012-0.271-0.297-0.529-0.963-0.75
						c-1.817-0.602-2.997-1.162-2.986-1.391l0.13-2.909c-0.01,0.229,1.169,0.789,2.986,1.391
						C188.546,116.394,188.855,116.652,188.843,116.923"/>
				</g>
			</g>
			<g enable-background="new    ">
				<defs>
					<path id="SVGID_6_" enable-background="new    " d="M193.256,117.551l-0.13,2.909c-0.03,0.672-1.42,1.326-3.991,1.733
						l0.13-2.909C191.836,118.877,193.226,118.223,193.256,117.551z"/>
				</defs>
				<clipPath id="SVGID_7_">
					<use xlink:href="#SVGID_6_"  overflow="visible"/>
				</clipPath>
				<g clip-path="url(#SVGID_7_)" enable-background="new    ">
					<path fill="#555658" d="M193.256,117.551l-0.13,2.909c-0.001,0.021-0.003,0.04-0.007,0.061l0.13-2.909
						C193.253,117.591,193.255,117.571,193.256,117.551"/>
					<path fill="#58595B" d="M193.25,117.612l-0.13,2.909c-0.008,0.047-0.022,0.093-0.042,0.139l0.13-2.909
						C193.228,117.705,193.242,117.659,193.25,117.612"/>
					<path fill="#5B5C5E" d="M193.207,117.75l-0.13,2.909c-0.02,0.045-0.046,0.089-0.077,0.133l0.13-2.909
						C193.161,117.839,193.187,117.795,193.207,117.75"/>
					<path fill="#5E5F61" d="M193.13,117.883l-0.13,2.909c-0.031,0.043-0.068,0.086-0.11,0.128l0.13-2.909
						C193.062,117.968,193.099,117.926,193.13,117.883"/>
					<path fill="#616264" d="M193.02,118.011l-0.13,2.909c-0.042,0.042-0.09,0.084-0.143,0.126l0.13-2.909
						C192.93,118.095,192.978,118.053,193.02,118.011"/>
					<path fill="#646567" d="M192.876,118.137l-0.13,2.909c-0.054,0.042-0.112,0.084-0.177,0.125l0.13-2.909
						C192.764,118.22,192.823,118.179,192.876,118.137"/>
					<path fill="#67686A" d="M192.699,118.262l-0.13,2.909c-0.065,0.041-0.137,0.083-0.213,0.123l0.13-2.909
						C192.563,118.344,192.634,118.303,192.699,118.262"/>
					<path fill="#6A6B6D" d="M192.486,118.385l-0.13,2.909c-0.079,0.042-0.165,0.084-0.256,0.125l0.13-2.909
						C192.321,118.469,192.407,118.427,192.486,118.385"/>
					<path fill="#6D6E70" d="M192.23,118.51l-0.13,2.909c-0.095,0.042-0.197,0.084-0.305,0.126l0.13-2.91
						C192.033,118.594,192.135,118.552,192.23,118.51"/>
					<path fill="#707174" d="M191.925,118.635l-0.13,2.91c-0.114,0.043-0.236,0.086-0.364,0.128l0.13-2.909
						C191.689,118.722,191.811,118.679,191.925,118.635"/>
					<path fill="#737477" d="M191.561,118.764l-0.13,2.909c-0.139,0.045-0.286,0.089-0.441,0.132l0.13-2.909
						C191.275,118.853,191.422,118.809,191.561,118.764"/>
					<path fill="#76777A" d="M191.12,118.896l-0.13,2.909c-0.172,0.048-0.354,0.094-0.547,0.139l0.13-2.91
						C190.765,118.99,190.947,118.944,191.12,118.896"/>
					<path fill="#797A7D" d="M190.573,119.034l-0.13,2.91c-0.221,0.051-0.456,0.1-0.704,0.146l0.13-2.909
						C190.117,119.134,190.352,119.085,190.573,119.034"/>
					<path fill="#7B7D80" d="M189.869,119.181l-0.13,2.909c-0.193,0.036-0.395,0.07-0.604,0.104l0.13-2.909
						C189.475,119.251,189.676,119.217,189.869,119.181"/>
				</g>
			</g>
			<g>
				<polygon fill="#818386" points="189.266,119.285 189.136,122.194 174.29,124.545 174.42,121.636 				"/>
			</g>
			<g enable-background="new    ">
				<defs>
					<path id="SVGID_8_" enable-background="new    " d="M156.792,122.098l0.13-2.909c-0.01,0.233,1.807,1.015,4.434,1.884
						c2.97,0.982,8.822,1.235,13.063,0.563l-0.13,2.909c-4.242,0.672-10.093,0.419-13.063-0.563
						C158.599,123.113,156.782,122.332,156.792,122.098z"/>
				</defs>
				<clipPath id="SVGID_9_">
					<use xlink:href="#SVGID_8_"  overflow="visible"/>
				</clipPath>
				<g clip-path="url(#SVGID_9_)" enable-background="new    ">
					<path fill="#7B7D80" d="M174.42,121.636l-0.13,2.909c-0.127,0.021-0.255,0.039-0.385,0.058l0.13-2.909
						C174.165,121.675,174.293,121.657,174.42,121.636"/>
					<path fill="#7E8083" d="M174.035,121.694l-0.13,2.909c-0.435,0.063-0.885,0.115-1.346,0.158l0.13-2.909
						C173.15,121.808,173.6,121.756,174.035,121.694"/>
					<path fill="#818386" d="M172.689,121.852l-0.13,2.909c-1.034,0.099-2.12,0.15-3.206,0.159l0.13-2.909
						C170.57,122.002,171.656,121.95,172.689,121.852"/>
					<path fill="#7E8083" d="M169.483,122.011l-0.13,2.909c-0.265,0.002-0.53,0.002-0.794-0.002l0.13-2.909
						C168.954,122.012,169.218,122.013,169.483,122.011"/>
					<path fill="#7B7D80" d="M168.689,122.009l-0.13,2.909c-0.204-0.002-0.408-0.006-0.611-0.012l0.13-2.909
						C168.281,122.003,168.485,122.007,168.689,122.009"/>
					<path fill="#797A7D" d="M168.078,121.998l-0.13,2.909c-0.176-0.004-0.352-0.01-0.526-0.017l0.13-2.909
						C167.726,121.988,167.901,121.994,168.078,121.998"/>
					<path fill="#76777A" d="M167.551,121.981l-0.13,2.909c-0.168-0.007-0.335-0.015-0.501-0.023l0.13-2.909
						C167.216,121.966,167.383,121.974,167.551,121.981"/>
					<path fill="#737477" d="M167.051,121.958l-0.13,2.909c-0.163-0.009-0.324-0.018-0.485-0.028l0.13-2.909
						C166.726,121.94,166.888,121.949,167.051,121.958"/>
					<path fill="#707174" d="M166.565,121.929l-0.13,2.909c-0.159-0.011-0.317-0.021-0.473-0.034l0.13-2.909
						C166.249,121.907,166.407,121.918,166.565,121.929"/>
					<path fill="#6D6E70" d="M166.092,121.895l-0.13,2.909c-0.156-0.012-0.31-0.025-0.463-0.039l0.13-2.909
						C165.782,121.87,165.937,121.882,166.092,121.895"/>
					<path fill="#6A6B6D" d="M165.629,121.856l-0.13,2.909c-0.151-0.015-0.302-0.029-0.451-0.045l0.13-2.909
						C165.328,121.827,165.478,121.841,165.629,121.856"/>
					<path fill="#67686A" d="M165.179,121.811l-0.13,2.909c-0.147-0.016-0.293-0.032-0.437-0.05l0.13-2.909
						C164.886,121.779,165.032,121.795,165.179,121.811"/>
					<path fill="#646567" d="M164.742,121.761l-0.13,2.909c-0.142-0.017-0.282-0.035-0.421-0.054l0.13-2.909
						C164.459,121.726,164.6,121.745,164.742,121.761"/>
					<path fill="#616264" d="M164.321,121.708l-0.13,2.909c-0.139-0.019-0.275-0.039-0.41-0.06l0.13-2.909
						C164.045,121.668,164.182,121.688,164.321,121.708"/>
					<path fill="#5E5F61" d="M163.911,121.648l-0.13,2.909c-0.135-0.021-0.268-0.042-0.398-0.064l0.13-2.909
						C163.643,121.606,163.776,121.627,163.911,121.648"/>
					<path fill="#5B5C5E" d="M163.512,121.583l-0.13,2.909c-0.135-0.022-0.268-0.047-0.398-0.071l0.13-2.909
						C163.244,121.537,163.377,121.561,163.512,121.583"/>
					<path fill="#58595B" d="M163.114,121.512l-0.13,2.909c-0.136-0.025-0.269-0.053-0.399-0.08l0.13-2.909
						C162.845,121.459,162.978,121.487,163.114,121.512"/>
					<path fill="#555658" d="M162.715,121.432l-0.13,2.909c-0.138-0.029-0.272-0.06-0.404-0.091l0.13-2.91
						C162.442,121.373,162.577,121.403,162.715,121.432"/>
					<path fill="#525355" d="M162.311,121.34l-0.13,2.91c-0.151-0.036-0.297-0.074-0.439-0.113l0.13-2.909
						C162.014,121.267,162.16,121.304,162.311,121.34"/>
					<path fill="#4F5052" d="M161.872,121.228l-0.13,2.909c-0.175-0.048-0.342-0.099-0.501-0.15l0.13-2.91
						C161.53,121.129,161.697,121.18,161.872,121.228"/>
					<path fill="#4C4D4F" d="M161.371,121.077l-0.13,2.91c-0.005-0.002-0.01-0.004-0.014-0.005c-2.627-0.869-4.444-1.65-4.434-1.884
						l0.13-2.909c-0.01,0.233,1.807,1.015,4.434,1.884C161.361,121.074,161.366,121.076,161.371,121.077"/>
				</g>
			</g>
			<g>
				<path fill="#666769" d="M185.052,114.687c0.622-0.099,3.532,0.617,6.507,1.602c2.97,0.983,1.941,2.325-2.293,2.996
					l-14.846,2.352c-4.242,0.672-10.093,0.419-13.063-0.563c-2.975-0.984-4.912-1.855-4.331-1.947
					c0.573-0.091,2.81,0.42,4.997,1.144s7.393,0.766,11.634,0.094l10.508-1.664c4.241-0.672,5.902-1.802,3.715-2.525
					S184.43,114.785,185.052,114.687z"/>
			</g>
		</g>
	</g>
</g>
</svg>
