<?xml version="1.0" encoding="utf-8"?>
<!-- Generator: Adobe Illustrator 16.0.0, SVG Export Plug-In . SVG Version: 6.00 Build 0)  -->
<!DOCTYPE svg PUBLIC "-//W3C//DTD SVG 1.1//EN" "http://www.w3.org/Graphics/SVG/1.1/DTD/svg11.dtd">
<svg version="1.1" id="Layer_1" xmlns="http://www.w3.org/2000/svg" xmlns:xlink="http://www.w3.org/1999/xlink" x="0px" y="0px"
	 width="433.478px" height="248.987px" viewBox="0 0 433.478 248.987" enable-background="new 0 0 433.478 248.987"
	 xml:space="preserve">
<path fill="#F7941E" d="M8.144,203.501h417.348l0,0c0,18.618-26.592,33.709-59.392,33.709H67.536
	C34.734,237.211,8.144,222.12,8.144,203.501z"/>
<g>
	<g enable-background="new    ">
		<linearGradient id="SVGID_1_" gradientUnits="userSpaceOnUse" x1="177.4639" y1="94.6646" x2="301.2788" y2="94.6646">
			<stop  offset="0" style="stop-color:#F7941E"/>
			<stop  offset="0.057" style="stop-color:#F79723"/>
			<stop  offset="0.1286" style="stop-color:#F89E33"/>
			<stop  offset="0.2081" style="stop-color:#F9AA4D"/>
			<stop  offset="0.2932" style="stop-color:#FABB70"/>
			<stop  offset="0.3829" style="stop-color:#FCD19E"/>
			<stop  offset="0.4749" style="stop-color:#FEEBD6"/>
			<stop  offset="0.5363" style="stop-color:#FFFFFF"/>
			<stop  offset="0.5504" style="stop-color:#FFFAF2"/>
			<stop  offset="0.6077" style="stop-color:#FEE6C3"/>
			<stop  offset="0.6668" style="stop-color:#FDD69B"/>
			<stop  offset="0.727" style="stop-color:#FCC87A"/>
			<stop  offset="0.7886" style="stop-color:#FCBD60"/>
			<stop  offset="0.8522" style="stop-color:#FBB64E"/>
			<stop  offset="0.9191" style="stop-color:#FBB144"/>
			<stop  offset="0.9946" style="stop-color:#FBB040"/>
		</linearGradient>
		<path fill="url(#SVGID_1_)" d="M301.159,93.106c-0.043-0.477-0.095-0.954-0.155-1.425l-1.396-10.37
			c0.025,0.213,0.045,0.424,0.071,0.636c-1.575-13.819-12.38-26.252-30.577-32.519c-29.333-10.097-66.73-0.351-83.54,21.766
			c-6.643,8.744-9.058,18.109-7.761,26.862c-0.022-0.134-0.055-0.269-0.071-0.406l1.391,10.366
			c1.827,13.563,12.586,25.715,30.508,31.884c3.702,1.273,7.534,2.234,11.437,2.889c2.986,0.507,6.011,0.833,9.052,0.987
			c2.555,0.132,5.123,0.145,7.681,0.042c2.371-0.098,4.737-0.292,7.085-0.58c2.324-0.289,4.627-0.669,6.905-1.139
			c2.363-0.485,4.7-1.072,6.991-1.75c2.517-0.744,4.978-1.601,7.376-2.567c2.957-1.192,5.812-2.549,8.531-4.062
			c7.368-4.101,13.743-9.355,18.48-15.59c1.834-2.417,3.349-4.875,4.553-7.361c1.106-2.291,1.95-4.602,2.538-6.906
			c0.479-1.886,0.79-3.767,0.933-5.637C301.319,96.505,301.307,94.795,301.159,93.106z M299.762,82.741
			c0.014,0.153,0.011,0.312,0.021,0.466c-0.017-0.244-0.026-0.49-0.049-0.733C299.745,82.562,299.755,82.65,299.762,82.741z
			 M276.433,121.485c-0.173,0.106-0.334,0.217-0.505,0.322C276.099,121.702,276.26,121.591,276.433,121.485z M283.941,115.985
			c-0.284,0.242-0.57,0.482-0.858,0.72C283.371,116.468,283.657,116.228,283.941,115.985z M281.654,117.845
			c-0.287,0.22-0.572,0.443-0.864,0.662C281.082,118.288,281.367,118.065,281.654,117.845z M279.202,119.647
			c-0.267,0.187-0.528,0.375-0.798,0.558C278.673,120.022,278.935,119.834,279.202,119.647z M199.001,75.867
			c8.26-10.865,23.118-17.753,38.533-19.078c1.471-0.126,2.941-0.202,4.415-0.226c-1.474,0.024-2.944,0.1-4.415,0.226
			c-15.415,1.325-30.273,8.213-38.531,19.078c-7.861,10.351-7.876,21.857-1.444,30.869c1.287,1.802,2.83,3.503,4.622,5.076
			c-1.792-1.573-3.335-3.274-4.622-5.076C191.127,97.724,191.142,86.218,199.001,75.867z M202.288,127.139
			c-0.316-0.144-0.628-0.291-0.937-0.441C201.66,126.848,201.972,126.995,202.288,127.139z M199.455,125.735
			c-0.277-0.146-0.557-0.291-0.828-0.443C198.898,125.444,199.177,125.588,199.455,125.735z M196.534,124.073
			c-0.148-0.091-0.305-0.176-0.452-0.269C196.229,123.897,196.385,123.982,196.534,124.073z M193.655,122.186
			c-0.13-0.092-0.251-0.19-0.379-0.283C193.404,121.996,193.525,122.094,193.655,122.186z M191.426,120.496
			c-0.216-0.174-0.423-0.354-0.638-0.53C191.003,120.143,191.21,120.322,191.426,120.496z M178.24,100.428
			c-0.051-0.234-0.098-0.468-0.144-0.701C178.142,99.96,178.188,100.193,178.24,100.428z M183.564,112.217
			c-0.125-0.18-0.241-0.363-0.366-0.546C183.323,111.854,183.439,112.037,183.564,112.217z M182.196,110.115
			c-0.136-0.224-0.268-0.452-0.397-0.679C181.928,109.664,182.06,109.891,182.196,110.115z M180.969,107.903
			c-0.112-0.219-0.226-0.439-0.335-0.662C180.743,107.463,180.857,107.684,180.969,107.903z M179.829,105.42
			c-0.055-0.131-0.115-0.261-0.168-0.393C179.713,105.16,179.774,105.289,179.829,105.42z M178.853,102.728
			c-0.04-0.125-0.069-0.252-0.108-0.377C178.784,102.476,178.813,102.604,178.853,102.728z M186.823,116.226
			c0.153,0.167,0.318,0.328,0.477,0.495C187.141,116.553,186.976,116.393,186.823,116.226z M189.326,118.692
			c-0.213-0.192-0.421-0.385-0.625-0.578C188.905,118.307,189.113,118.5,189.326,118.692z M204.33,128.038
			c0.291,0.121,0.576,0.246,0.87,0.365C204.906,128.284,204.621,128.158,204.33,128.038z M214.556,131.369
			c-0.23-0.056-0.466-0.102-0.692-0.162C214.09,131.268,214.326,131.313,214.556,131.369z M219.583,132.41
			c0.113,0.021,0.229,0.036,0.341,0.054c-0.085-0.015-0.168-0.022-0.258-0.037C219.641,132.422,219.614,132.416,219.583,132.41z
			 M216.705,131.867c0.571,0.119,1.142,0.219,1.714,0.323C217.846,132.085,217.276,131.986,216.705,131.867z M228.55,133.397
			c0.293,0.017,0.589,0.025,0.884,0.034c-0.236-0.008-0.476-0.007-0.712-0.019C228.663,133.412,228.605,133.404,228.55,133.397z
			 M223.652,132.976c0.317,0.037,0.633,0.074,0.948,0.105C224.285,133.05,223.969,133.013,223.652,132.976z M232.046,133.506
			c0.385,0.002,0.774,0.002,1.16,0.002C232.821,133.509,232.431,133.509,232.046,133.506z M235.676,133.465
			c0.37-0.011,0.739-0.019,1.109-0.036c-0.127,0.006-0.254,0.017-0.38,0.024C236.162,133.463,235.917,133.458,235.676,133.465z
			 M243.357,132.885c0.238-0.03,0.477-0.067,0.716-0.097c-0.196,0.025-0.389,0.059-0.585,0.083
			C243.447,132.876,243.403,132.878,243.357,132.885z M239.19,133.284c0.297-0.022,0.599-0.037,0.896-0.061
			C239.789,133.247,239.487,133.261,239.19,133.284z M249.776,131.851c0.408-0.082,0.813-0.165,1.215-0.25
			c-0.199,0.042-0.397,0.096-0.6,0.135C250.188,131.779,249.982,131.809,249.776,131.851z M246.585,132.425
			c0.371-0.059,0.737-0.125,1.105-0.19C247.323,132.3,246.957,132.367,246.585,132.425z M256.94,130.105
			c0.169-0.049,0.339-0.09,0.51-0.142c-0.026,0.008-0.044,0.016-0.066,0.022C257.237,130.029,257.087,130.063,256.94,130.105z
			 M253.198,131.095c0.348-0.084,0.697-0.164,1.039-0.251C253.895,130.931,253.545,131.011,253.198,131.095z M264.232,127.613
			c0.264-0.104,0.53-0.208,0.795-0.316c-0.091,0.039-0.178,0.083-0.27,0.118C264.585,127.487,264.403,127.544,264.232,127.613z
			 M260.792,128.888c0.296-0.102,0.591-0.21,0.889-0.316C261.382,128.677,261.087,128.786,260.792,128.888z M269.518,125.3
			c-0.227,0.109-0.451,0.22-0.68,0.327C269.067,125.52,269.292,125.409,269.518,125.3z M285.28,114.8
			c0.271-0.247,0.546-0.494,0.812-0.746C285.826,114.306,285.551,114.553,285.28,114.8z M287.389,112.778
			c0.244-0.246,0.489-0.488,0.726-0.736C287.878,112.29,287.633,112.532,287.389,112.778z M291.772,107.766
			c0.491-0.647,0.954-1.299,1.399-1.952C292.726,106.467,292.263,107.119,291.772,107.766z M289.44,110.583
			c0.188-0.213,0.385-0.421,0.569-0.636C289.825,110.162,289.628,110.37,289.44,110.583z M296.024,100.979
			c0.206-0.41,0.405-0.817,0.592-1.224c-0.1,0.216-0.19,0.434-0.293,0.651C296.23,100.597,296.122,100.788,296.024,100.979z
			 M293.644,105.093c0.272-0.419,0.547-0.839,0.801-1.257C294.191,104.254,293.917,104.674,293.644,105.093z M294.928,103.006
			c0.226-0.391,0.445-0.782,0.656-1.173C295.374,102.224,295.154,102.616,294.928,103.006z M296.947,99.032
			c0.203-0.469,0.394-0.941,0.577-1.412C297.34,98.091,297.15,98.561,296.947,99.032z M298.535,94.66
			c0.14-0.474,0.268-0.948,0.383-1.423c-0.021,0.088-0.033,0.174-0.054,0.262C298.765,93.887,298.647,94.273,298.535,94.66z
			 M297.744,97.068c0.239-0.647,0.461-1.294,0.659-1.945C298.205,95.774,297.984,96.421,297.744,97.068z M299.758,88.134
			c0.022-0.257,0.037-0.513,0.05-0.767c-0.01,0.164-0.002,0.327-0.017,0.493C299.785,87.95,299.767,88.042,299.758,88.134z
			 M299.451,90.692c0.006-0.042,0.011-0.085,0.017-0.129C299.461,90.607,299.457,90.649,299.451,90.692z M299.868,85.739
			c0.003-0.275,0.004-0.547-0.002-0.823C299.872,85.192,299.871,85.464,299.868,85.739z"/>
		<path fill="#F15A29" d="M284.027,83.258c-1.361-10.114-9.352-19.16-22.676-23.746c-2.748-0.947-5.588-1.658-8.482-2.146
			c-2.217-0.373-4.465-0.615-6.724-0.733c-1.901-0.096-3.808-0.104-5.711-0.028c-1.765,0.072-3.524,0.216-5.276,0.432
			c-1.724,0.211-3.442,0.495-5.14,0.848c-1.768,0.363-3.508,0.8-5.223,1.308c-1.878,0.555-3.721,1.193-5.513,1.916
			c-2.213,0.891-4.354,1.914-6.393,3.046c-5.531,3.081-10.327,7.026-13.889,11.712c-1.377,1.816-2.515,3.67-3.42,5.537
			c-0.834,1.718-1.466,3.454-1.906,5.187c-0.363,1.412-0.594,2.83-0.7,4.234c-0.097,1.288-0.089,2.568,0.021,3.833
			c0.031,0.356,0.07,0.715,0.118,1.07l1.397,10.363c-0.047-0.352-0.089-0.708-0.122-1.063c-0.107-1.27-0.117-2.548-0.021-3.836
			c0.109-1.406,0.338-2.818,0.701-4.233c0.441-1.733,1.073-3.468,1.908-5.19c0.904-1.866,2.04-3.72,3.42-5.534
			c3.562-4.687,8.352-8.632,13.889-11.712c2.035-1.136,4.175-2.153,6.394-3.045c1.788-0.725,3.63-1.363,5.51-1.923
			c1.712-0.502,3.457-0.939,5.221-1.305c1.699-0.351,3.417-0.636,5.146-0.846c1.747-0.219,3.509-0.359,5.271-0.435
			c1.901-0.075,3.815-0.064,5.711,0.031c2.258,0.119,4.506,0.362,6.725,0.733c2.894,0.488,5.739,1.201,8.482,2.148
			c13.324,4.584,21.315,13.63,22.675,23.742L284.027,83.258z"/>
	</g>
	<g enable-background="new    ">
		
			<linearGradient id="SVGID_2_" gradientUnits="userSpaceOnUse" x1="163.5566" y1="167.7603" x2="284.6851" y2="167.7603" gradientTransform="matrix(0.9876 -0.1572 0.1572 0.9876 -63.2239 -14.0001)">
			<stop  offset="0" style="stop-color:#F7941E"/>
			<stop  offset="0.057" style="stop-color:#F79723"/>
			<stop  offset="0.1286" style="stop-color:#F89E33"/>
			<stop  offset="0.2081" style="stop-color:#F9AA4D"/>
			<stop  offset="0.2932" style="stop-color:#FABB70"/>
			<stop  offset="0.3829" style="stop-color:#FCD19E"/>
			<stop  offset="0.4749" style="stop-color:#FEEBD6"/>
			<stop  offset="0.5363" style="stop-color:#FFFFFF"/>
			<stop  offset="0.5504" style="stop-color:#FFFAF2"/>
			<stop  offset="0.6077" style="stop-color:#FEE6C3"/>
			<stop  offset="0.6668" style="stop-color:#FDD69B"/>
			<stop  offset="0.727" style="stop-color:#FCC87A"/>
			<stop  offset="0.7886" style="stop-color:#FCBD60"/>
			<stop  offset="0.8522" style="stop-color:#FBB64E"/>
			<stop  offset="0.9191" style="stop-color:#FBB144"/>
			<stop  offset="0.9946" style="stop-color:#FBB040"/>
		</linearGradient>
		<path fill="url(#SVGID_2_)" d="M243.943,105.421c-0.113-0.454-0.24-0.907-0.371-1.352l-2.945-9.805
			c0.063,0.202,0.112,0.403,0.165,0.604c-3.644-13.107-15.996-23.459-34.538-26.713c-29.892-5.243-64.525,9.928-77.361,33.879
			c-5.071,9.469-5.968,18.887-3.367,27.146c-0.041-0.129-0.091-0.251-0.133-0.381l2.943,9.802
			c3.85,12.823,16.114,22.906,34.377,26.111c3.772,0.66,7.622,0.999,11.491,1.032c2.962,0.03,5.938-0.123,8.899-0.441
			c2.487-0.263,4.971-0.646,7.424-1.14c2.279-0.457,4.533-1.01,6.759-1.649c2.197-0.637,4.367-1.358,6.496-2.163
			c2.209-0.831,4.374-1.756,6.484-2.766c2.315-1.105,4.563-2.31,6.729-3.616c2.67-1.605,5.227-3.355,7.616-5.234
			c6.49-5.099,11.841-11.153,15.457-17.906c1.402-2.618,2.486-5.225,3.266-7.813c0.72-2.385,1.18-4.745,1.393-7.063
			c0.173-1.896,0.185-3.763,0.029-5.592C244.62,108.682,244.348,107.03,243.943,105.421z M240.999,95.623
			c0.038,0.146,0.059,0.299,0.093,0.447c-0.054-0.232-0.1-0.47-0.16-0.7C240.949,95.456,240.976,95.536,240.999,95.623z
			 M224.42,136.644c-0.149,0.128-0.292,0.259-0.436,0.386C224.128,136.903,224.271,136.772,224.42,136.644z M230.825,130.174
			c-0.235,0.278-0.474,0.553-0.719,0.829C230.351,130.728,230.589,130.452,230.825,130.174z M228.904,132.323
			c-0.247,0.258-0.486,0.517-0.735,0.772C228.417,132.84,228.657,132.581,228.904,132.323z M226.809,134.44
			c-0.229,0.222-0.453,0.445-0.687,0.663C226.356,134.885,226.581,134.662,226.809,134.44z M142.599,104.482
			c6.304-11.769,19.6-20.707,34.293-24.359c1.396-0.348,2.809-0.649,4.228-0.897c-1.419,0.248-2.833,0.549-4.228,0.897
			C162.198,83.775,148.903,92.713,142.599,104.482c-6.005,11.209-4.25,22.326,3.349,30.043c1.522,1.543,3.276,2.952,5.248,4.195
			c-1.972-1.243-3.725-2.651-5.248-4.195C138.349,126.808,136.592,115.691,142.599,104.482z M153.652,153.513
			c-0.324-0.092-0.646-0.186-0.967-0.286C153.006,153.327,153.328,153.422,153.652,153.513z M150.702,152.591
			c-0.29-0.099-0.58-0.197-0.867-0.301C150.123,152.394,150.413,152.492,150.702,152.591z M147.625,151.434
			c-0.155-0.063-0.32-0.124-0.475-0.189C147.305,151.31,147.47,151.371,147.625,151.434z M144.553,150.052
			c-0.138-0.067-0.271-0.145-0.41-0.213C144.283,149.908,144.417,149.985,144.553,150.052z M142.139,148.763
			c-0.231-0.136-0.463-0.275-0.693-0.412C141.676,148.488,141.907,148.627,142.139,148.763z M126.313,131.403
			c-0.085-0.218-0.162-0.436-0.246-0.655C126.151,130.968,126.227,131.185,126.313,131.403z M133.272,141.974
			c-0.148-0.154-0.289-0.313-0.438-0.469C132.984,141.661,133.124,141.819,133.272,141.974z M131.628,140.155
			c-0.171-0.197-0.329-0.395-0.489-0.597C131.3,139.76,131.458,139.958,131.628,140.155z M130.104,138.208
			c-0.144-0.196-0.289-0.391-0.427-0.59C129.815,137.816,129.96,138.012,130.104,138.208z M128.614,135.984
			c-0.071-0.119-0.147-0.236-0.22-0.356C128.467,135.749,128.543,135.865,128.614,135.984z M127.261,133.534
			c-0.061-0.116-0.106-0.235-0.161-0.35C127.155,133.299,127.201,133.418,127.261,133.534z M137.034,145.347
			c0.178,0.138,0.361,0.269,0.539,0.403C137.395,145.616,137.212,145.484,137.034,145.347z M139.834,147.343
			c-0.232-0.153-0.465-0.305-0.693-0.462C139.369,147.039,139.602,147.19,139.834,147.343z M155.77,154.064
			c0.298,0.072,0.592,0.15,0.894,0.219C156.362,154.214,156.068,154.136,155.77,154.064z M166.158,155.709
			c-0.23-0.016-0.461-0.024-0.691-0.047C165.697,155.685,165.928,155.693,166.158,155.709z M171.181,155.944
			c0.109,0.001,0.222-0.005,0.334-0.003c-0.084-0.001-0.171,0.005-0.256,0.005C171.233,155.945,171.206,155.945,171.181,155.944z
			 M168.316,155.86c0.565,0.026,1.132,0.036,1.702,0.05C169.448,155.896,168.879,155.888,168.316,155.86z M179.988,155.518
			c0.29-0.028,0.577-0.069,0.865-0.101c-0.233,0.028-0.462,0.063-0.694,0.089C180.103,155.513,180.046,155.514,179.988,155.518z
			 M175.195,155.864c0.308-0.013,0.62-0.026,0.931-0.043C175.815,155.838,175.508,155.851,175.195,155.864z M183.384,155.083
			c0.376-0.055,0.752-0.114,1.124-0.176C184.136,154.969,183.76,155.028,183.384,155.083z M186.886,154.487
			c0.357-0.069,0.711-0.133,1.065-0.206c-0.12,0.025-0.242,0.058-0.362,0.081C187.355,154.41,187.119,154.441,186.886,154.487z
			 M194.219,152.744c0.227-0.066,0.448-0.136,0.676-0.203c-0.182,0.054-0.367,0.118-0.55,0.171
			C194.301,152.722,194.258,152.732,194.219,152.744z M190.253,153.77c0.283-0.066,0.572-0.127,0.856-0.197
			C190.826,153.643,190.537,153.704,190.253,153.77z M200.261,150.757c0.381-0.141,0.758-0.283,1.137-0.429
			c-0.189,0.072-0.371,0.153-0.56,0.224C200.645,150.625,200.453,150.686,200.261,150.757z M197.267,151.804
			c0.347-0.113,0.694-0.233,1.041-0.353C197.958,151.57,197.614,151.69,197.267,151.804z M206.915,147.97
			c0.154-0.074,0.312-0.141,0.466-0.214c-0.021,0.009-0.037,0.019-0.059,0.03C207.188,147.85,207.046,147.907,206.915,147.97z
			 M203.449,149.502c0.322-0.134,0.647-0.264,0.968-0.403C204.096,149.238,203.771,149.368,203.449,149.502z M213.573,144.441
			c0.24-0.143,0.484-0.284,0.721-0.429c-0.081,0.051-0.159,0.107-0.241,0.157C213.897,144.264,213.732,144.347,213.573,144.441z
			 M210.446,146.201c0.271-0.143,0.54-0.294,0.812-0.441C210.986,145.906,210.717,146.058,210.446,146.201z M218.323,141.393
			c-0.201,0.139-0.398,0.282-0.602,0.421C217.924,141.675,218.122,141.532,218.323,141.393z M231.942,128.824
			c0.222-0.28,0.447-0.561,0.665-0.846C232.389,128.263,232.164,128.544,231.942,128.824z M233.666,126.543
			c0.196-0.273,0.396-0.545,0.589-0.823C234.062,125.999,233.862,126.27,233.666,126.543z M237.128,121.029
			c0.375-0.701,0.721-1.402,1.054-2.101C237.849,119.627,237.5,120.328,237.128,121.029z M235.307,124.11
			c0.15-0.235,0.311-0.467,0.452-0.702C235.618,123.643,235.458,123.875,235.307,124.11z M240.192,113.818
			c0.139-0.427,0.264-0.85,0.384-1.275c-0.062,0.226-0.116,0.45-0.187,0.674C240.331,113.416,240.257,113.617,240.192,113.818z
			 M238.527,118.159c0.197-0.445,0.397-0.893,0.58-1.338C238.924,117.266,238.724,117.714,238.527,118.159z M239.444,115.945
			c0.158-0.41,0.312-0.825,0.455-1.236C239.755,115.121,239.602,115.535,239.444,115.945z M240.783,111.796
			c0.128-0.484,0.239-0.971,0.341-1.455C241.022,110.825,240.91,111.309,240.783,111.796z M241.647,107.327
			c0.061-0.48,0.111-0.958,0.151-1.434c-0.008,0.087-0.005,0.173-0.015,0.26C241.75,106.545,241.698,106.935,241.647,107.327z
			 M241.25,109.776c0.133-0.663,0.246-1.322,0.342-1.982C241.497,108.455,241.383,109.114,241.25,109.776z M241.827,100.834
			c-0.02-0.254-0.046-0.5-0.068-0.748c0.016,0.16,0.042,0.316,0.055,0.478C241.824,100.653,241.819,100.744,241.827,100.834z
			 M241.92,103.354c0-0.043-0.004-0.084-0.004-0.129C241.917,103.27,241.92,103.311,241.92,103.354z M241.561,98.503
			c-0.042-0.264-0.08-0.53-0.13-0.795C241.481,97.973,241.519,98.239,241.561,98.503z"/>
		<path fill="#F15A29" d="M225.88,98.544c-2.875-9.561-11.99-17.072-25.562-19.454c-2.802-0.491-5.657-0.741-8.53-0.77
			c-2.195-0.016-4.407,0.093-6.605,0.327c-1.851,0.201-3.696,0.487-5.521,0.851c-1.695,0.342-3.374,0.752-5.033,1.23
			c-1.634,0.47-3.25,1.008-4.837,1.61c-1.648,0.624-3.265,1.313-4.845,2.066c-1.728,0.826-3.408,1.726-5.028,2.699
			c-2.005,1.201-3.917,2.521-5.709,3.926c-4.872,3.829-8.893,8.379-11.612,13.452c-1.054,1.969-1.869,3.933-2.458,5.876
			c-0.538,1.788-0.881,3.561-1.045,5.303c-0.128,1.421-0.135,2.825-0.018,4.198c0.104,1.26,0.308,2.496,0.608,3.702
			c0.083,0.338,0.178,0.679,0.275,1.014l2.947,9.796c-0.1-0.332-0.197-0.671-0.279-1.01c-0.304-1.207-0.507-2.442-0.61-3.701
			c-0.114-1.376-0.105-2.774,0.022-4.198c0.161-1.742,0.507-3.516,1.048-5.309c0.585-1.94,1.399-3.907,2.451-5.871
			c2.722-5.077,6.743-9.623,11.616-13.453c1.792-1.408,3.705-2.721,5.707-3.921c1.618-0.976,3.303-1.877,5.032-2.707
			c1.575-0.748,3.191-1.438,4.841-2.066c1.588-0.598,3.199-1.14,4.84-1.607c1.655-0.48,3.335-0.887,5.026-1.231
			c1.828-0.363,3.674-0.651,5.521-0.847c2.201-0.236,4.411-0.346,6.609-0.328c2.871,0.026,5.729,0.276,8.528,0.771
			c13.578,2.378,22.688,9.888,25.557,19.45L225.88,98.544z"/>
	</g>
</g>
<path fill="#F7941E" d="M357.731,10.549H75.7c-6.56,0-11.878,7.421-11.878,16.576v172.707H369.61V27.125
	C369.61,17.97,364.291,10.549,357.731,10.549z M347.155,176.168H86.479V41.167h260.675V176.168z"/>
<circle fill="#FFFFFF" cx="216.715" cy="23.813" r="3.761"/>
</svg>
