<?xml version="1.0" encoding="utf-8"?>
<!-- Generator: Adobe Illustrator 16.0.0, SVG Export Plug-In . SVG Version: 6.00 Build 0)  -->
<!DOCTYPE svg PUBLIC "-//W3C//DTD SVG 1.1//EN" "http://www.w3.org/Graphics/SVG/1.1/DTD/svg11.dtd">
<svg version="1.1" id="Layer_1" xmlns="http://www.w3.org/2000/svg" xmlns:xlink="http://www.w3.org/1999/xlink" x="0px" y="0px"
	 width="78px" height="83.333px" viewBox="0 0 78 83.333" enable-background="new 0 0 78 83.333" xml:space="preserve">
<g display="none">
	<g display="inline">
		<g enable-background="new    ">
			<g>
				<path fill="#9B6738" d="M76.807,94.267l-4.904-0.628c-0.057-0.007-0.113-0.02-0.168-0.037l4.904,0.628
					C76.694,94.247,76.75,94.259,76.807,94.267"/>
				<polygon fill="#9B6738" points="76.638,94.229 71.734,93.602 46.774,86.038 51.678,86.667 				"/>
				<path fill="#9B6738" d="M51.678,86.667l-4.904-0.628c-0.874-0.27-1.291-1.688-1.03-3.31l4.904,0.628
					C50.387,84.978,50.804,86.396,51.678,86.667"/>
				<path fill="#9B6738" d="M54.521,30.91l-4.904-0.628c0.134-0.002,0.266,0.004,0.395,0.021l4.904,0.628
					C54.786,30.914,54.654,30.907,54.521,30.91"/>
				<polygon fill="#9B6738" points="50.648,83.356 45.744,82.728 46.511,33.836 51.415,34.464 				"/>
				<path fill="#9B6738" d="M49.616,30.282c-0.749,0.015-1.438,0.336-1.977,0.858c-0.209,0.203-0.396,0.437-0.554,0.694
					c-0.155,0.252-0.283,0.528-0.378,0.82c-0.121,0.371-0.19,0.769-0.196,1.182l4.904,0.628c0.006-0.414,0.075-0.812,0.196-1.182
					c0.096-0.292,0.224-0.568,0.378-0.82c0.158-0.257,0.345-0.491,0.554-0.693c0.539-0.522,1.229-0.844,1.977-0.859L49.616,30.282z"
					/>
			</g>
			<g>
				<path fill="#F7941E" d="M54.521,30.91c1.686-0.034,3.026,1.501,2.996,3.433l-0.731,46.584l21.605,6.543
					c0.991,0.304,1.395,2.056,0.911,3.924c-0.433,1.669-1.434,2.863-2.343,2.881c-0.108,0.002-0.215-0.012-0.32-0.045l-24.96-7.563
					c-0.875-0.27-1.291-1.689-1.03-3.31l0.767-48.892C51.445,32.533,52.834,30.943,54.521,30.91z"/>
			</g>
		</g>
	</g>
	<g display="inline">
		<g enable-background="new    ">
			<g>
				<path fill="#9B6738" d="M60.457,19.538l-14.859-1.42c22.985,2.197,40.616,24.26,40.106,51.28
					c-0.111,5.884-1.075,11.543-2.752,16.822c-1.452,4.57-3.44,8.855-5.873,12.754c-2.611,4.184-5.736,7.923-9.263,11.094
					c-7.822,7.03-17.623,11.26-28.197,11.325c-1.358,0.008-2.7-0.052-4.024-0.179l14.858,1.42c1.325,0.126,2.667,0.187,4.024,0.179
					c10.574-0.065,20.376-4.294,28.198-11.325c3.527-3.17,6.651-6.91,9.262-11.094c2.434-3.899,4.421-8.184,5.874-12.754
					c1.678-5.279,2.641-10.939,2.752-16.823C101.073,43.798,83.442,21.735,60.457,19.538z"/>
				<path fill="#9B6738" d="M0.224,93.187l13.265-0.082l0.618-0.003l-14.858-1.42l-0.618,0.004l-13.265,0.082
					c6.851,24.199,25.739,41.971,48.8,44.175l14.859,1.42C25.962,135.158,7.075,117.386,0.224,93.187z"/>
				<path fill="#9B6738" d="M6.582,81.804L-6.904,52.188l7.182,0.037c0.113-0.402,0.239-0.797,0.358-1.196l13.232,1.265l9.839,0.039
					l-14.858-1.42L0.68,50.88c0.105-0.348,0.203-0.7,0.313-1.045v0c1.868-5.883,4.426-11.399,7.557-16.417
					c3.354-5.376,7.367-10.181,11.896-14.255c10.057-9.047,22.661-14.49,36.261-14.573c1.747-0.011,3.475,0.067,5.18,0.23
					l-14.859-1.42c-1.705-0.163-3.432-0.241-5.179-0.23c-13.6,0.083-26.204,5.526-36.261,14.573
					c-4.529,4.074-8.542,8.879-11.896,14.255c-3.131,5.019-5.689,10.535-7.558,16.418c-0.251,0.79-0.49,1.587-0.715,2.39
					l-7.182-0.037l13.486,29.616L6.582,81.804z"/>
			</g>
			<path fill="#F7941E" d="M56.707,4.588c32.033-0.196,57.447,29.409,56.754,66.15c-0.693,36.724-27.23,66.657-59.263,66.854
				c-25.381,0.155-46.618-18.419-53.975-44.406l13.265-0.082l0.618-0.003c6.827,17.639,22.236,29.823,40.371,29.711
				c24.919-0.153,45.547-23.434,46.085-51.995c0.539-28.578-19.215-51.612-44.134-51.459c-19.042,0.117-35.587,13.756-42.561,32.935
				l9.839,0.039L6.582,81.804L-6.904,52.188l7.182,0.037C7.985,24.816,30.498,4.75,56.707,4.588z"/>
		</g>
	</g>
</g>
<g display="none">
	<g display="inline">
		<g enable-background="new    ">
			<g>
				<polygon fill="#A35F1C" points="4.546,103.39 -15.721,97.492 61.403,65.027 81.669,70.924 				"/>
				<polygon fill="#A35F1C" points="-23.772,109.393 -23.772,109.393 -15.464,76.476 4.802,82.373 				"/>
			</g>
			<polygon fill="#F7941E" points="81.669,70.924 82.184,105.479 4.666,112.021 4.802,127.705 -23.772,109.393 4.802,82.373 
				4.546,103.39 			"/>
		</g>
	</g>
	<g display="inline">
		<g enable-background="new    ">
			<g>
				<polygon fill="#A35F1C" points="75.501,35.834 75.359,57.021 95.625,62.975 95.768,41.787 				"/>
				<polygon fill="#A35F1C" points="95.591,33.07 94.868,11.618 74.601,5.664 75.325,27.118 -2.228,34.875 -1.52,69.707 
					18.747,75.659 18.039,40.828 				"/>
			</g>
			<g>
				<polygon fill="#F7941E" points="94.868,11.618 115.104,32.554 95.625,62.975 95.768,41.787 18.747,75.659 18.039,40.828 
					95.591,33.07 				"/>
			</g>
		</g>
	</g>
</g>
<g display="none">
	<g display="inline" enable-background="new    ">
		<g>
			<path fill="#9B6738" d="M64.309,111.966c-0.158,0.18-0.325,0.348-0.499,0.503c-0.188,0.169-0.384,0.324-0.586,0.465
				c-0.251,0.174-0.514,0.326-0.784,0.453c-0.458,0.216-0.939,0.362-1.432,0.431c-0.587,0.083-1.158,0.051-1.691-0.087
				c-0.262-0.068-0.517-0.163-0.759-0.282c-0.05-0.024-0.098-0.05-0.146-0.076l15.726,8.556c0.048,0.026,0.098,0.051,0.146,0.076
				c0.243,0.119,0.497,0.213,0.76,0.282c0.534,0.138,1.104,0.169,1.691,0.087c0.492-0.069,0.973-0.215,1.431-0.431
				c0.271-0.127,0.533-0.279,0.785-0.453c0.203-0.141,0.399-0.295,0.586-0.464c0.173-0.157,0.339-0.324,0.498-0.503
				c0.057-0.064,0.112-0.129,0.167-0.196l-15.727-8.555C64.42,111.836,64.365,111.902,64.309,111.966z"/>
			<path fill="#9B6738" d="M51.371,98.833l-15.726-8.555c-2.96,0.416-5.805,0.242-8.449-0.439c-1.369-0.354-2.685-0.842-3.935-1.455
				c-0.259-0.127-0.515-0.26-0.769-0.398l4.301,2.34c-1.316-0.355-2.587-0.824-3.793-1.416c-0.265-0.129-0.526-0.265-0.785-0.405
				l15.727,8.554c0.258,0.141,0.52,0.276,0.784,0.406c1.276,0.626,2.619,1.126,4.018,1.486c2.699,0.695,5.604,0.874,8.626,0.449
				l0.23-0.032l-0.873-0.475C50.943,98.867,51.155,98.863,51.371,98.833z"/>
			<path fill="#9B6738" d="M62.541,94.367c1.058-0.73,2.072-1.534,3.04-2.404c0.906-0.816,1.771-1.689,2.587-2.613h0
				c0.819-0.927,1.589-1.905,2.306-2.928c0.77-1.098,1.479-2.248,2.121-3.441c0.759-1.413,1.423-2.886,1.981-4.406
				c1.332-3.629,2.059-7.524,2.033-11.497c-0.066-9.925-4.869-17.981-12.008-21.866l-15.727-8.554
				c7.139,3.883,11.942,11.939,12.007,21.865c0.026,3.973-0.701,7.868-2.032,11.497c-0.558,1.52-1.222,2.994-1.981,4.407
				c-0.641,1.193-1.35,2.342-2.12,3.441c-0.718,1.023-1.487,2.001-2.306,2.927c-0.816,0.925-1.681,1.798-2.587,2.613
				c-0.966,0.871-1.981,1.675-3.039,2.405c-1.281,0.885-2.624,1.662-4.015,2.314c-2.199,1.032-4.521,1.757-6.924,2.118L51.602,98.8
				c2.403-0.361,4.726-1.087,6.924-2.118C59.918,96.029,61.261,95.252,62.541,94.367z"/>
			<path fill="#9B6738" d="M79.185,13.261c-0.252-0.232-0.526-0.428-0.818-0.586L62.641,4.119c-0.049-0.026-0.097-0.051-0.146-0.076
				c-0.243-0.119-0.497-0.214-0.76-0.282c-0.534-0.138-1.104-0.169-1.691-0.087c-0.495,0.069-0.978,0.215-1.436,0.432
				c-0.269,0.126-0.529,0.277-0.779,0.45c-0.202,0.14-0.398,0.294-0.584,0.462c-0.174,0.157-0.341,0.326-0.5,0.505
				c-0.057,0.064-0.113,0.131-0.168,0.198l-2.995,3.675L53.127,9.15c-0.064,0.078-0.129,0.154-0.196,0.23
				c-0.205,0.232-0.429,0.457-0.669,0.673c-0.303,0.272-0.631,0.53-0.981,0.772c-0.5,0.345-1.042,0.656-1.609,0.923
				c-1.011,0.477-2.105,0.815-3.192,0.968c-0.589,0.083-1.151,0.102-1.667,0.065c-2.934-0.222-5.932-0.116-8.931,0.305
				c-3.203,0.45-6.406,1.262-9.529,2.419c-0.553,0.208-1.161,0.352-1.797,0.441c-0.287,0.04-0.576,0.063-0.862,0.079l-9.862-5.365
				c-0.053-0.029-0.107-0.057-0.162-0.083c-0.269-0.133-0.552-0.237-0.845-0.313c-0.593-0.154-1.227-0.189-1.878-0.097
				c-0.547,0.076-1.081,0.239-1.589,0.478c-0.297,0.14-0.585,0.306-0.861,0.498c-0.223,0.154-0.438,0.324-0.643,0.509
				c-0.189,0.171-0.372,0.355-0.546,0.551c-0.066,0.076-0.132,0.153-0.196,0.233l-21.202,26.049c-0.108,0.133-0.212,0.27-0.31,0.409
				c-0.161,0.23-0.307,0.468-0.439,0.712c-0.156,0.29-0.291,0.59-0.403,0.896c-0.273,0.743-0.415,1.525-0.412,2.306
				c0.007,1.551,0.575,2.922,1.595,3.872l3.283,3.027c1.847,1.698,2.844,5.494,2.268,8.637c-1.238,6.754-1.213,13.43,0.083,19.809
				c0.397,1.957,0.112,4.4-0.653,6.484c-0.192,0.523-0.415,1.023-0.664,1.488c-0.174,0.323-0.362,0.63-0.561,0.914
				c-0.102,0.145-0.207,0.284-0.314,0.417l-3.71,4.556c-0.108,0.132-0.21,0.267-0.307,0.405c-0.16,0.228-0.304,0.462-0.434,0.704
				c-0.155,0.288-0.29,0.585-0.401,0.89c-0.275,0.75-0.417,1.54-0.414,2.335c0.007,1.549,0.574,2.921,1.594,3.86l21.402,19.754
				c0.277,0.258,0.581,0.476,0.902,0.651l15.727,8.555c-0.323-0.175-0.625-0.393-0.902-0.65l-1.726-1.594l2.086,1.135L1.809,108.313
				c-0.929-0.854-1.433-2.095-1.44-3.486c-0.002-0.714,0.126-1.423,0.373-2.097c0.102-0.278,0.224-0.55,0.367-0.814
				c0.12-0.223,0.254-0.441,0.403-0.651c0.083-0.121,0.172-0.238,0.265-0.354l-0.452-0.246c0.026-0.033,0.049-0.066,0.075-0.099
				l3.71-4.557c0.108-0.132,0.212-0.272,0.313-0.416c0.199-0.285,0.387-0.592,0.561-0.915c0.249-0.464,0.471-0.965,0.664-1.488
				c0.009-0.024,0.013-0.05,0.022-0.074l0.45,0.245c0.81-2.204,1.111-4.783,0.696-6.848c-1.277-6.31-1.311-12.895-0.083-19.579
				c0.605-3.314-0.456-7.321-2.413-9.132l-2.114-1.15l-1.537-1.418c-0.35-0.326-0.626-0.715-0.865-1.13l1.234,0.671
				c-0.92-0.854-1.433-2.095-1.44-3.486c-0.003-0.712,0.125-1.42,0.372-2.091c0.101-0.275,0.222-0.544,0.362-0.805
				c0.119-0.22,0.25-0.434,0.396-0.64c0.088-0.125,0.181-0.249,0.278-0.368l21.202-26.049l-0.45-0.245l0.082-0.101
				c0.064-0.079,0.13-0.157,0.196-0.233c0.173-0.196,0.355-0.379,0.546-0.551c0.206-0.185,0.42-0.355,0.643-0.509
				c0.276-0.191,0.564-0.357,0.861-0.498c0.159-0.075,0.326-0.128,0.49-0.188l10.749,5.848c1.226,0.317,2.6,0.4,3.959,0.21
				c0.673-0.095,1.317-0.255,1.908-0.467c3.084-1.146,6.247-1.946,9.41-2.39c2.968-0.417,5.936-0.521,8.837-0.304
				c0.553,0.042,1.142,0.019,1.769-0.069c1.136-0.16,2.28-0.515,3.341-1.015c0.601-0.284,1.176-0.613,1.707-0.981l-0.541-0.294
				c0.094-0.061,0.203-0.105,0.295-0.169c0.349-0.242,0.677-0.5,0.98-0.773c0.24-0.215,0.464-0.44,0.669-0.672
				c0.039-0.045,0.077-0.09,0.115-0.136l0.457,0.249l3.074-3.771c0.055-0.067,0.11-0.134,0.167-0.197
				c0.159-0.18,0.326-0.35,0.5-0.506v0c0.016-0.015,0.033-0.025,0.049-0.04l11.83,10.925l15.727,8.556L79.185,13.261z"/>
		</g>
		<g>
			<path fill="#F7941E" d="M101.371,86.886c0.919,0.855,1.433,2.094,1.438,3.485c0.008,1.401-0.492,2.783-1.407,3.905
				l-21.201,26.049c-0.923,1.134-2.159,1.864-3.466,2.048c-1.29,0.182-2.495-0.186-3.415-1.031l-4.211-3.892
				c-1.563-1.439-4.314-2.126-7.014-1.747c-0.645,0.091-1.253,0.235-1.815,0.434c-2.909,1.042-5.885,1.775-8.863,2.194
				c-2.965,0.417-5.932,0.521-8.832,0.303c-0.552-0.041-1.142-0.018-1.769,0.07c-2.708,0.38-5.464,1.871-7.024,3.79l-3.711,4.548
				c-0.922,1.143-2.148,1.862-3.466,2.048c-1.28,0.179-2.495-0.187-3.415-1.032L1.809,108.313c-0.929-0.854-1.433-2.095-1.44-3.486
				c-0.006-1.4,0.494-2.783,1.408-3.915l3.71-4.556c1.939-2.39,2.959-6.709,2.329-9.841c-1.277-6.31-1.311-12.895-0.083-19.579
				c0.605-3.314-0.456-7.321-2.413-9.132l-3.282-3.028c-0.92-0.854-1.433-2.095-1.44-3.486c-0.006-1.399,0.494-2.782,1.407-3.904
				l21.202-26.049c0.922-1.134,2.158-1.863,3.466-2.047c1.289-0.182,2.504,0.185,3.414,1.03l3.283,3.027
				c1.544,1.423,4.26,2.095,6.912,1.723c0.673-0.095,1.317-0.255,1.908-0.467c3.084-1.146,6.247-1.946,9.41-2.39
				c2.968-0.417,5.936-0.521,8.837-0.304c0.553,0.042,1.142,0.019,1.769-0.069c2.708-0.381,5.465-1.871,7.024-3.791l3.074-3.771
				c0.923-1.133,2.149-1.863,3.466-2.048c1.29-0.181,2.496,0.186,3.415,1.031l21.393,19.755c0.928,0.843,1.442,2.083,1.438,3.485
				c0.007,1.39-0.493,2.783-1.407,3.905l-3.073,3.782c-1.938,2.379-2.959,6.708-2.331,9.83c1.306,6.417,1.292,13.396-0.037,20.192
				c-0.641,3.301,0.392,7.311,2.35,9.123L101.371,86.886z M51.601,99.367c14.186-2.133,25.632-16.653,25.532-32.363
				c-0.109-15.57-11.627-26.624-25.674-24.65l-0.239,0.034c-14.187,2.133-25.642,16.654-25.532,32.354
				c0.1,15.57,11.627,26.633,25.684,24.658L51.601,99.367"/>
		</g>
	</g>
</g>
<g display="none">
	<g display="inline" enable-background="new    ">
		<path fill="#9B6738" d="M41.376,68.673c-0.142-0.077-0.283-0.15-0.427-0.221c-0.699-0.344-1.423-0.613-2.173-0.808
			c-1.578-0.409-3.269-0.488-5.073-0.235c-1.546,0.218-3.005,0.65-4.378,1.297c-0.76,0.357-1.492,0.781-2.198,1.269
			c-0.581,0.402-1.145,0.849-1.689,1.34c-0.533,0.479-1.049,1.001-1.547,1.566c-0.181,0.205-0.36,0.416-0.536,0.631
			c-0.326,0.399-0.634,0.805-0.923,1.217c-0.444,0.634-0.845,1.282-1.201,1.945c-0.409,0.76-0.76,1.539-1.054,2.337
			c-0.743,2.022-1.116,4.167-1.12,6.436c-0.009,4.596,1.356,8.181,4.094,10.756c0.747,0.702,1.55,1.288,2.41,1.756l11.481,6.246
			c-0.859-0.468-1.662-1.053-2.409-1.756c-2.738-2.575-4.103-6.161-4.095-10.756c0.004-2.268,0.378-4.414,1.121-6.435
			c0.293-0.798,0.644-1.577,1.053-2.337c0.356-0.663,0.757-1.311,1.202-1.945c0.289-0.412,0.597-0.818,0.923-1.218
			c0.177-0.216,0.355-0.427,0.536-0.631c0.499-0.564,1.014-1.086,1.547-1.567c0.545-0.491,1.108-0.937,1.69-1.339
			c0.705-0.488,1.438-0.911,2.197-1.269c1.373-0.646,2.833-1.079,4.378-1.296c1.804-0.253,3.495-0.175,5.073,0.234
			c0.75,0.194,1.475,0.463,2.173,0.807c0.143,0.071,0.286,0.145,0.427,0.222L41.376,68.673z"/>
		<g>
			<path fill="#F7941E" d="M45.185,73.656c4.045-0.568,7.523,0.532,10.432,3.291c2.91,2.748,4.355,6.311,4.347,10.677
				c-0.008,4.377-1.458,8.292-4.359,11.748c-2.9,3.455-6.384,5.48-10.479,6.056c-4.258,0.598-7.755-0.402-10.494-2.978
				c-2.738-2.575-4.103-6.161-4.095-10.756c0.009-4.453,1.438-8.432,4.298-11.935C37.687,76.267,41.139,74.225,45.185,73.656z"/>
		</g>
	</g>
	<g display="inline" enable-background="new    ">
		<g>
			<path fill="#9B6738" d="M47.898,33.681l-11.482-6.246c0.336,0.183,0.653,0.415,0.95,0.698c1.037,0.965,1.549,2.254,1.546,3.854
				c-0.001,0.803-0.137,1.574-0.408,2.31c-0.111,0.304-0.246,0.602-0.403,0.895c-0.14,0.26-0.297,0.516-0.474,0.767
				c-0.182,0.259-0.383,0.513-0.603,0.762c-0.253,0.286-0.531,0.565-0.834,0.838c-0.4,0.36-0.845,0.709-1.333,1.047
				c-0.233,0.16-0.475,0.319-0.728,0.474l-4.221,2.597c-0.295,0.184-0.583,0.371-0.86,0.564c-0.652,0.451-1.256,0.926-1.81,1.425
				c-0.453,0.407-0.873,0.83-1.26,1.269c-0.355,0.403-0.684,0.819-0.985,1.248c-0.307,0.438-0.587,0.891-0.838,1.357
				c-0.211,0.394-0.402,0.796-0.574,1.209c-0.069,0.168-0.136,0.341-0.202,0.519c-1.031,2.805-1.546,6.819-1.556,12.062
				l-0.008,4.214l11.482,6.246l0.008-4.213c0.01-5.243,0.526-9.257,1.557-12.062c0.065-0.178,0.133-0.351,0.203-0.52
				c0.17-0.412,0.362-0.815,0.573-1.209c0.251-0.466,0.53-0.918,0.837-1.356c0.302-0.429,0.63-0.845,0.986-1.248
				c0.387-0.438,0.807-0.861,1.259-1.269c0.554-0.499,1.157-0.974,1.81-1.425c0.278-0.192,0.564-0.38,0.86-0.564l4.221-2.596
				c0.252-0.155,0.495-0.313,0.727-0.474c0.489-0.337,0.934-0.687,1.333-1.047c0.304-0.273,0.582-0.553,0.834-0.838
				c0.221-0.249,0.422-0.503,0.603-0.763c0.177-0.251,0.335-0.507,0.475-0.767c0.157-0.292,0.292-0.59,0.402-0.895
				c0.271-0.736,0.407-1.506,0.408-2.311c0.003-1.6-0.509-2.889-1.546-3.853C48.551,34.096,48.234,33.864,47.898,33.681z"/>
			<path fill="#9B6738" d="M49.183,6.156c-0.26-0.141-0.522-0.276-0.787-0.407c-1.312-0.645-2.682-1.153-4.108-1.522
				c-3.129-0.811-6.534-0.957-10.215-0.439c-2.732,0.384-5.41,1.193-8.031,2.428c-1.579,0.745-3.138,1.644-4.675,2.699
				c-0.049,0.034-0.099,0.068-0.147,0.101c-1.274,0.883-2.474,1.83-3.599,2.842c-0.978,0.881-1.899,1.811-2.765,2.79
				c-0.845,0.956-1.635,1.96-2.373,3.012c-0.385,0.549-0.755,1.11-1.111,1.685c-0.332,0.535-0.647,1.082-0.948,1.64
				c-0.718,1.335-1.346,2.735-1.884,4.199C6.944,29.53,6.14,34.447,6.13,39.936l11.482,6.247c0.01-5.49,0.813-10.407,2.411-14.753
				c0.538-1.464,1.166-2.864,1.884-4.198c0.3-0.559,0.616-1.105,0.948-1.64c0.355-0.574,0.726-1.136,1.111-1.685
				c0.737-1.052,1.529-2.055,2.373-3.012c0.865-0.979,1.786-1.909,2.765-2.79c1.124-1.012,2.324-1.958,3.599-2.841
				c0.049-0.034,0.097-0.067,0.146-0.101c1.538-1.055,3.096-1.955,4.675-2.699c2.621-1.236,5.299-2.044,8.031-2.428
				c3.681-0.518,7.086-0.371,10.215,0.439c1.427,0.369,2.797,0.876,4.108,1.522c0.264,0.129,0.526,0.265,0.787,0.407L49.183,6.156z"
				/>
		</g>
		<g>
			<path fill="#F7941E" d="M65.15,15.608c5.296,4.796,7.936,11.304,7.921,19.503c-0.019,10.127-3.835,17.771-11.439,22.932
				c-2.484,1.688-3.999,3.066-4.535,4.121c-0.537,1.055-0.814,3.184-0.819,6.396l-22.98,3.23l0.008-4.213
				c0.01-5.576,0.593-9.761,1.759-12.581c1.164-2.809,3.266-5.172,6.326-7.072l4.221-2.596c3.181-1.96,4.778-4.329,4.783-7.095
				c0.003-1.6-0.509-2.889-1.546-3.853c-1.027-0.977-2.287-1.355-3.77-1.147c-4.055,0.57-6.078,3.88-6.089,9.945l-21.377,3.005
				c0.015-8.112,1.763-14.976,5.242-20.592c2.57-4.149,5.894-7.621,9.994-10.429c4.089-2.806,8.328-4.513,12.707-5.127
				C53.313,8.944,59.845,10.802,65.15,15.608z"/>
		</g>
	</g>
</g>
<g>
	<g>
		<g enable-background="new    ">
			<path fill="#9B6738" d="M40.743,60.623c-0.07-0.039-0.142-0.076-0.214-0.111c-0.351-0.172-0.722-0.31-1.109-0.41
				c-0.719-0.185-1.493-0.241-2.302-0.146c-0.05,0.006-0.1,0.012-0.149,0.019l5.787,3.148c0.05-0.007,0.1-0.014,0.149-0.019
				c0.809-0.096,1.584-0.041,2.302,0.145c0.387,0.101,0.758,0.238,1.109,0.411c0.073,0.035,0.144,0.072,0.215,0.111L40.743,60.623z"
				/>
			<path fill="#9B6738" d="M36.968,59.975c-0.713,0.1-1.403,0.312-2.054,0.619c-0.398,0.187-0.781,0.409-1.147,0.662
				c-0.297,0.206-0.582,0.432-0.854,0.676c-0.253,0.228-0.493,0.471-0.721,0.729c-0.226,0.256-0.439,0.526-0.637,0.808
				c-0.209,0.299-0.401,0.611-0.576,0.935c-0.206,0.383-0.385,0.782-0.536,1.192c-0.328,0.897-0.519,1.852-0.539,2.83
				c-0.054,2.772,1.259,5.036,3.274,6.131l5.786,3.147c-2.013-1.095-3.328-3.359-3.273-6.131c0.021-0.978,0.211-1.933,0.54-2.829
				c0.151-0.411,0.331-0.81,0.536-1.193c0.173-0.323,0.367-0.635,0.576-0.935c0.198-0.282,0.411-0.551,0.637-0.808
				s0.467-0.5,0.72-0.728c0.271-0.244,0.557-0.47,0.854-0.676c0.366-0.253,0.749-0.475,1.147-0.662
				c0.65-0.306,1.34-0.518,2.054-0.618L36.968,59.975z"/>
		</g>
		<g enable-background="new    ">
			<path fill="#9B6738" d="M49.338,17.924c-0.354-0.292-0.731-0.547-1.133-0.766l-5.787-3.149c0.401,0.219,0.779,0.474,1.132,0.767
				c1.813,1.493,2.718,3.473,2.713,5.931c-0.002,1.053-0.187,2.08-0.555,3.08c-0.159,0.434-0.354,0.863-0.582,1.288
				c-0.127,0.235-0.264,0.468-0.411,0.7c-0.034,0.051-0.07,0.104-0.109,0.162c-0.282,0.4-0.732,0.953-1.353,1.655
				c-1.061,1.201-2.618,2.843-4.671,4.926c-0.809,0.824-1.554,1.622-2.236,2.394c-1.049,1.189-1.947,2.315-2.696,3.38
				c-0.548,0.783-1.016,1.533-1.401,2.25c-0.189,0.352-0.359,0.693-0.508,1.029c-0.149,0.333-0.288,0.676-0.418,1.029
				c-0.865,2.356-1.302,5.146-1.307,8.379c-0.001,0.359,0.01,1.359,0.035,3.002l5.787,3.148c-0.024-1.643-0.036-2.643-0.036-3.002
				c0.006-3.233,0.442-6.023,1.308-8.379c0.131-0.354,0.269-0.696,0.417-1.029c0.151-0.335,0.319-0.678,0.508-1.029
				c0.386-0.717,0.853-1.467,1.402-2.249c0.748-1.065,1.646-2.192,2.696-3.38c0.682-0.771,1.427-1.569,2.236-2.394
				c2.053-2.083,3.61-3.726,4.67-4.927c0.62-0.703,1.071-1.255,1.352-1.655c0.04-0.057,0.077-0.11,0.109-0.162
				c0.147-0.231,0.285-0.465,0.411-0.7c0.229-0.423,0.423-0.854,0.582-1.288c0.368-1,0.553-2.027,0.556-3.08
				C52.056,21.398,51.151,19.418,49.338,17.924z"/>
			<path fill="#9B6738" d="M49.342,5.451c-0.19-0.104-0.382-0.204-0.577-0.299c-1.006-0.495-2.077-0.89-3.214-1.186
				c-2.86-0.742-6.136-0.854-9.828-0.335c-2.955,0.416-5.65,1.197-8.082,2.342c-1.192,0.562-2.322,1.212-3.389,1.949
				c-0.817,0.565-1.598,1.183-2.342,1.853c-0.576,0.518-1.13,1.067-1.662,1.648c-0.119,0.131-0.236,0.261-0.352,0.392
				c-0.688,0.778-1.315,1.573-1.886,2.385c-0.559,0.796-1.06,1.608-1.506,2.438c-0.508,0.944-0.944,1.91-1.307,2.899
				c-0.753,2.051-1.196,4.198-1.326,6.441l5.787,3.147c0.131-2.243,0.573-4.39,1.327-6.441c0.363-0.988,0.798-1.955,1.307-2.899
				c0.446-0.829,0.949-1.642,1.506-2.437c0.57-0.813,1.199-1.608,1.887-2.386c0.116-0.131,0.233-0.262,0.352-0.392
				c0.531-0.581,1.085-1.13,1.662-1.649c0.743-0.668,1.523-1.286,2.342-1.852c1.066-0.737,2.195-1.386,3.389-1.949
				c2.431-1.146,5.125-1.927,8.082-2.341c3.692-0.519,6.967-0.408,9.828,0.335c1.137,0.295,2.208,0.69,3.214,1.185
				c0.195,0.096,0.388,0.196,0.578,0.299L49.342,5.451z"/>
		</g>
	</g>
	<g>
		<path fill="#F7941E" d="M42.755,63.123c0.05-0.007,0.1-0.014,0.149-0.019c3.898-0.46,6.982,2.581,6.894,6.799
			c-0.081,4.164-3.233,7.911-7.057,8.448c-0.05,0.008-0.1,0.013-0.15,0.02c-3.897,0.459-6.983-2.581-6.9-6.799
			C35.779,67.414,38.931,63.661,42.755,63.123z"/>
		<path fill="#F7941E" d="M57.532,10.211c3.959,3.232,5.938,7.366,5.928,12.4c-0.006,2.787-0.742,5.525-2.198,8.216
			c-1.462,2.693-4.587,6.511-9.368,11.47c-2.479,2.565-4.014,4.558-4.613,5.989c-0.599,1.438-0.875,3.883-0.827,7.351l-10.616,1.493
			c-0.024-1.643-0.036-2.643-0.036-3.002c0.007-3.717,0.583-6.848,1.725-9.409c1.145-2.56,3.427-5.573,6.843-9.052
			c3.422-3.472,5.466-5.721,6.132-6.744c1.027-1.614,1.545-3.303,1.549-5.068c0.004-2.458-0.9-4.438-2.713-5.931
			c-1.814-1.501-4.267-2.026-7.344-1.594c-2.97,0.417-5.459,1.682-7.456,3.783c-2.003,2.111-3.385,5.092-4.138,8.943l-10.742,0.069
			c0.315-5.407,2.439-10.255,6.378-14.554c3.933-4.297,9.095-6.895,15.474-7.792C48.229,5.835,53.567,6.979,57.532,10.211z"/>
	</g>
</g>
</svg>
