<?xml version="1.0" encoding="utf-8"?>
<!-- Generator: Adobe Illustrator 16.0.0, SVG Export Plug-In . SVG Version: 6.00 Build 0)  -->
<!DOCTYPE svg PUBLIC "-//W3C//DTD SVG 1.1//EN" "http://www.w3.org/Graphics/SVG/1.1/DTD/svg11.dtd">
<svg version="1.1" id="Layer_1" xmlns="http://www.w3.org/2000/svg" xmlns:xlink="http://www.w3.org/1999/xlink" x="0px" y="0px"
	 width="287.985px" height="152.992px" viewBox="0 0 287.985 152.992" enable-background="new 0 0 287.985 152.992"
	 xml:space="preserve">
<g display="none">
	<g display="inline">
		<g enable-background="new    ">
			<g>
				<path fill="#9B6738" d="M-87.447,229.996l-4.904-0.628c-0.057-0.007-0.113-0.02-0.168-0.037l4.904,0.628
					C-87.561,229.976-87.504,229.988-87.447,229.996"/>
				<polygon fill="#9B6738" points="-87.616,229.958 -92.52,229.331 -117.48,221.767 -112.576,222.396 				"/>
				<path fill="#9B6738" d="M-112.576,222.396l-4.904-0.628c-0.874-0.27-1.291-1.688-1.03-3.31l4.904,0.628
					C-113.867,220.707-113.451,222.125-112.576,222.396"/>
				<path fill="#9B6738" d="M-109.734,166.639l-4.904-0.628c0.134-0.002,0.266,0.004,0.395,0.021l4.904,0.628
					C-109.468,166.643-109.6,166.636-109.734,166.639"/>
				<polygon fill="#9B6738" points="-113.606,219.085 -118.511,218.457 -117.744,169.565 -112.839,170.193 				"/>
				<path fill="#9B6738" d="M-114.638,166.011c-0.749,0.015-1.438,0.336-1.977,0.858c-0.209,0.203-0.396,0.437-0.554,0.694
					c-0.155,0.252-0.283,0.528-0.378,0.82c-0.121,0.371-0.19,0.769-0.196,1.182l4.904,0.628c0.006-0.414,0.075-0.812,0.196-1.182
					c0.096-0.292,0.224-0.568,0.378-0.82c0.158-0.257,0.345-0.491,0.554-0.693c0.539-0.522,1.229-0.844,1.977-0.859
					L-114.638,166.011z"/>
			</g>
			<g>
				<path fill="#F7941E" d="M-109.734,166.639c1.686-0.034,3.026,1.501,2.996,3.433l-0.731,46.584l21.605,6.543
					c0.991,0.304,1.395,2.056,0.911,3.924c-0.433,1.669-1.434,2.863-2.343,2.881c-0.108,0.002-0.215-0.012-0.32-0.045l-24.96-7.563
					c-0.875-0.27-1.291-1.689-1.03-3.31l0.767-48.892C-112.809,168.262-111.42,166.672-109.734,166.639z"/>
			</g>
		</g>
	</g>
	<g display="inline">
		<g enable-background="new    ">
			<g>
				<path fill="#9B6738" d="M-103.797,155.267l-14.859-1.42c22.985,2.197,40.616,24.26,40.106,51.28
					c-0.111,5.884-1.075,11.543-2.752,16.822c-1.452,4.57-3.44,8.855-5.873,12.754c-2.611,4.184-5.736,7.923-9.263,11.094
					c-7.822,7.03-17.623,11.26-28.197,11.325c-1.358,0.008-2.7-0.052-4.024-0.179l14.858,1.42c1.325,0.126,2.667,0.187,4.024,0.179
					c10.574-0.065,20.376-4.294,28.198-11.325c3.527-3.17,6.651-6.91,9.262-11.094c2.434-3.899,4.421-8.184,5.874-12.754
					c1.678-5.279,2.641-10.939,2.752-16.823C-63.182,179.527-80.812,157.464-103.797,155.267z"/>
				<path fill="#9B6738" d="M-164.031,228.916l13.265-0.082l0.618-0.003l-14.858-1.42l-0.618,0.004l-13.265,0.082
					c6.851,24.199,25.739,41.971,48.8,44.175l14.859,1.42C-138.292,270.887-157.179,253.115-164.031,228.916z"/>
				<path fill="#9B6738" d="M-157.672,217.533l-13.486-29.616l7.182,0.037c0.113-0.402,0.239-0.797,0.358-1.196l13.232,1.265
					l9.839,0.039l-14.858-1.42l-8.168-0.032c0.105-0.348,0.203-0.7,0.313-1.045v0c1.868-5.883,4.426-11.399,7.557-16.417
					c3.354-5.376,7.367-10.181,11.896-14.255c10.057-9.047,22.661-14.49,36.261-14.573c1.747-0.011,3.475,0.067,5.18,0.23
					l-14.859-1.42c-1.705-0.163-3.432-0.241-5.179-0.23c-13.6,0.083-26.204,5.526-36.261,14.573
					c-4.529,4.074-8.542,8.879-11.896,14.255c-3.131,5.019-5.689,10.535-7.558,16.418c-0.251,0.79-0.49,1.587-0.715,2.39
					l-7.182-0.037l13.486,29.616L-157.672,217.533z"/>
			</g>
			<path fill="#F7941E" d="M-107.547,140.317c32.033-0.196,57.447,29.409,56.754,66.15c-0.693,36.724-27.23,66.657-59.263,66.854
				c-25.381,0.155-46.618-18.419-53.975-44.406l13.265-0.082l0.618-0.003c6.827,17.639,22.236,29.823,40.371,29.711
				c24.919-0.153,45.547-23.434,46.085-51.995c0.539-28.578-19.215-51.612-44.134-51.459c-19.042,0.117-35.587,13.756-42.561,32.935
				l9.839,0.039l-17.125,29.471l-13.486-29.616l7.182,0.037C-156.27,160.545-133.757,140.479-107.547,140.317z"/>
		</g>
	</g>
</g>
<g display="none">
	<g display="inline">
		<g enable-background="new    ">
			<g>
				<polygon fill="#A35F1C" points="-159.708,239.119 -179.975,233.221 -102.852,200.756 -82.585,206.653 				"/>
				<polygon fill="#A35F1C" points="-188.026,245.122 -188.026,245.122 -179.719,212.205 -159.452,218.102 				"/>
			</g>
			<polygon fill="#F7941E" points="-82.585,206.653 -82.07,241.208 -159.589,247.75 -159.452,263.434 -188.026,245.122 
				-159.452,218.102 -159.708,239.119 			"/>
		</g>
	</g>
	<g display="inline">
		<g enable-background="new    ">
			<g>
				<polygon fill="#A35F1C" points="-88.753,171.563 -88.895,192.75 -68.629,198.704 -68.486,177.516 				"/>
				<polygon fill="#A35F1C" points="-68.664,168.799 -69.387,147.347 -89.653,141.393 -88.93,162.847 -166.482,170.604 
					-165.774,205.436 -145.508,211.388 -146.215,176.557 				"/>
			</g>
			<g>
				<polygon fill="#F7941E" points="-69.387,147.347 -49.15,168.283 -68.629,198.704 -68.486,177.516 -145.508,211.388 
					-146.215,176.557 -68.664,168.799 				"/>
			</g>
		</g>
	</g>
</g>
<g display="none">
	<g display="inline" enable-background="new    ">
		<g>
			<path fill="#9B6738" d="M-99.945,247.695c-0.158,0.18-0.325,0.348-0.499,0.503c-0.188,0.169-0.384,0.324-0.586,0.465
				c-0.251,0.174-0.514,0.326-0.784,0.453c-0.458,0.216-0.939,0.362-1.432,0.431c-0.587,0.083-1.158,0.051-1.691-0.087
				c-0.262-0.068-0.517-0.163-0.759-0.282c-0.05-0.024-0.098-0.05-0.146-0.076l15.726,8.556c0.048,0.026,0.098,0.051,0.146,0.076
				c0.243,0.119,0.497,0.213,0.76,0.282c0.534,0.138,1.104,0.169,1.691,0.087c0.492-0.069,0.973-0.215,1.431-0.431
				c0.271-0.127,0.533-0.279,0.785-0.453c0.203-0.141,0.399-0.295,0.586-0.464c0.173-0.157,0.339-0.324,0.498-0.503
				c0.057-0.064,0.112-0.129,0.167-0.196l-15.727-8.555C-99.834,247.565-99.889,247.631-99.945,247.695z"/>
			<path fill="#9B6738" d="M-112.883,234.562l-15.726-8.555c-2.96,0.416-5.805,0.242-8.449-0.439
				c-1.369-0.354-2.685-0.842-3.935-1.455c-0.259-0.127-0.515-0.26-0.769-0.398l4.301,2.34c-1.316-0.355-2.587-0.824-3.793-1.416
				c-0.265-0.129-0.526-0.265-0.785-0.405l15.727,8.554c0.258,0.141,0.52,0.276,0.784,0.406c1.276,0.626,2.619,1.126,4.018,1.486
				c2.699,0.695,5.604,0.874,8.626,0.449l0.23-0.032l-0.873-0.475C-113.311,234.596-113.1,234.592-112.883,234.562z"/>
			<path fill="#9B6738" d="M-101.713,230.096c1.058-0.73,2.072-1.534,3.04-2.404c0.906-0.816,1.771-1.689,2.587-2.613h0
				c0.819-0.927,1.589-1.905,2.306-2.928c0.77-1.098,1.479-2.248,2.121-3.441c0.759-1.413,1.423-2.886,1.981-4.406
				c1.332-3.629,2.059-7.524,2.033-11.497c-0.066-9.925-4.869-17.981-12.008-21.866l-15.727-8.554
				c7.139,3.883,11.942,11.939,12.007,21.865c0.026,3.973-0.701,7.868-2.032,11.497c-0.558,1.52-1.222,2.994-1.981,4.407
				c-0.641,1.193-1.35,2.342-2.12,3.441c-0.718,1.023-1.487,2.001-2.306,2.927c-0.816,0.925-1.681,1.798-2.587,2.613
				c-0.966,0.871-1.981,1.675-3.039,2.405c-1.281,0.885-2.624,1.662-4.015,2.314c-2.199,1.032-4.521,1.757-6.924,2.118l15.726,8.555
				c2.403-0.361,4.726-1.087,6.924-2.118C-104.336,231.758-102.994,230.981-101.713,230.096z"/>
			<path fill="#9B6738" d="M-85.07,148.99c-0.252-0.232-0.526-0.428-0.818-0.586l-15.726-8.555
				c-0.049-0.026-0.097-0.051-0.146-0.076c-0.243-0.119-0.497-0.214-0.76-0.282c-0.534-0.138-1.104-0.169-1.691-0.087
				c-0.495,0.069-0.978,0.215-1.436,0.432c-0.269,0.126-0.529,0.277-0.779,0.45c-0.202,0.14-0.398,0.294-0.584,0.462
				c-0.174,0.157-0.341,0.326-0.5,0.505c-0.057,0.064-0.113,0.131-0.168,0.198l-2.995,3.675l-0.455-0.248
				c-0.064,0.078-0.129,0.154-0.196,0.23c-0.205,0.232-0.429,0.457-0.669,0.673c-0.303,0.272-0.631,0.53-0.981,0.772
				c-0.5,0.345-1.042,0.656-1.609,0.923c-1.011,0.477-2.105,0.815-3.192,0.968c-0.589,0.083-1.151,0.102-1.667,0.065
				c-2.934-0.222-5.932-0.116-8.931,0.305c-3.203,0.45-6.406,1.262-9.529,2.419c-0.553,0.208-1.161,0.352-1.797,0.441
				c-0.287,0.04-0.576,0.063-0.862,0.079l-9.862-5.365c-0.053-0.029-0.107-0.057-0.162-0.083c-0.269-0.133-0.552-0.237-0.845-0.313
				c-0.593-0.154-1.227-0.189-1.878-0.097c-0.547,0.076-1.081,0.239-1.589,0.478c-0.297,0.14-0.585,0.306-0.861,0.498
				c-0.223,0.154-0.438,0.324-0.643,0.509c-0.189,0.171-0.372,0.355-0.546,0.551c-0.066,0.076-0.132,0.153-0.196,0.233
				l-21.202,26.049c-0.108,0.133-0.212,0.27-0.31,0.409c-0.161,0.23-0.307,0.468-0.439,0.712c-0.156,0.29-0.291,0.59-0.403,0.896
				c-0.273,0.743-0.415,1.525-0.412,2.306c0.007,1.551,0.575,2.922,1.595,3.872l3.283,3.027c1.847,1.698,2.844,5.494,2.268,8.637
				c-1.238,6.754-1.213,13.43,0.083,19.809c0.397,1.957,0.112,4.4-0.653,6.484c-0.192,0.523-0.415,1.023-0.664,1.488
				c-0.174,0.323-0.362,0.63-0.561,0.914c-0.102,0.145-0.207,0.284-0.314,0.417l-3.71,4.556c-0.108,0.132-0.21,0.267-0.307,0.405
				c-0.16,0.228-0.304,0.462-0.434,0.704c-0.155,0.288-0.29,0.585-0.401,0.89c-0.275,0.75-0.417,1.54-0.414,2.335
				c0.007,1.549,0.574,2.921,1.594,3.86l21.402,19.754c0.277,0.258,0.581,0.476,0.902,0.651l15.727,8.555
				c-0.323-0.175-0.625-0.393-0.902-0.65l-1.726-1.594l2.086,1.135l-21.393-19.745c-0.929-0.854-1.433-2.095-1.44-3.486
				c-0.002-0.714,0.126-1.423,0.373-2.097c0.102-0.278,0.224-0.55,0.367-0.814c0.12-0.223,0.254-0.441,0.403-0.651
				c0.083-0.121,0.172-0.238,0.265-0.354l-0.452-0.246c0.026-0.033,0.049-0.066,0.075-0.099l3.71-4.557
				c0.108-0.132,0.212-0.272,0.313-0.416c0.199-0.285,0.387-0.592,0.561-0.915c0.249-0.464,0.471-0.965,0.664-1.488
				c0.009-0.024,0.013-0.05,0.022-0.074l0.45,0.245c0.81-2.204,1.111-4.783,0.696-6.848c-1.277-6.31-1.311-12.895-0.083-19.579
				c0.605-3.314-0.456-7.321-2.413-9.132l-2.114-1.15l-1.537-1.418c-0.35-0.326-0.626-0.715-0.865-1.13l1.234,0.671
				c-0.92-0.854-1.433-2.095-1.44-3.486c-0.003-0.712,0.125-1.42,0.372-2.091c0.101-0.275,0.222-0.544,0.362-0.805
				c0.119-0.22,0.25-0.434,0.396-0.64c0.088-0.125,0.181-0.249,0.278-0.368l21.202-26.049l-0.45-0.245l0.082-0.101
				c0.064-0.079,0.13-0.157,0.196-0.233c0.173-0.196,0.355-0.379,0.546-0.551c0.206-0.185,0.42-0.355,0.643-0.509
				c0.276-0.191,0.564-0.357,0.861-0.498c0.159-0.075,0.326-0.128,0.49-0.188l10.749,5.848c1.226,0.317,2.6,0.4,3.959,0.21
				c0.673-0.095,1.317-0.255,1.908-0.467c3.084-1.146,6.247-1.946,9.41-2.39c2.968-0.417,5.936-0.521,8.837-0.304
				c0.553,0.042,1.142,0.019,1.769-0.069c1.136-0.16,2.28-0.515,3.341-1.015c0.601-0.284,1.176-0.613,1.707-0.981l-0.541-0.294
				c0.094-0.061,0.203-0.105,0.295-0.169c0.349-0.242,0.677-0.5,0.98-0.773c0.24-0.215,0.464-0.44,0.669-0.672
				c0.039-0.045,0.077-0.09,0.115-0.136l0.457,0.249l3.074-3.771c0.055-0.067,0.11-0.134,0.167-0.197
				c0.159-0.18,0.326-0.35,0.5-0.506v0c0.016-0.015,0.033-0.025,0.049-0.04l11.83,10.925l15.727,8.556L-85.07,148.99z"/>
		</g>
		<g>
			<path fill="#F7941E" d="M-62.884,222.615c0.919,0.855,1.433,2.094,1.438,3.485c0.008,1.401-0.492,2.783-1.407,3.905
				l-21.201,26.049c-0.923,1.134-2.159,1.864-3.466,2.048c-1.29,0.182-2.495-0.186-3.415-1.031l-4.211-3.892
				c-1.563-1.439-4.314-2.126-7.014-1.747c-0.645,0.091-1.253,0.235-1.815,0.434c-2.909,1.042-5.885,1.775-8.863,2.194
				c-2.965,0.417-5.932,0.521-8.832,0.303c-0.552-0.041-1.142-0.018-1.769,0.07c-2.708,0.38-5.464,1.871-7.024,3.79l-3.711,4.548
				c-0.922,1.143-2.148,1.862-3.466,2.048c-1.28,0.179-2.495-0.187-3.415-1.032l-21.393-19.745c-0.929-0.854-1.433-2.095-1.44-3.486
				c-0.006-1.4,0.494-2.783,1.408-3.915l3.71-4.556c1.939-2.39,2.959-6.709,2.329-9.841c-1.277-6.31-1.311-12.895-0.083-19.579
				c0.605-3.314-0.456-7.321-2.413-9.132l-3.282-3.028c-0.92-0.854-1.433-2.095-1.44-3.486c-0.006-1.399,0.494-2.782,1.407-3.904
				l21.202-26.049c0.922-1.134,2.158-1.863,3.466-2.047c1.289-0.182,2.504,0.185,3.414,1.03l3.283,3.027
				c1.544,1.423,4.26,2.095,6.912,1.723c0.673-0.095,1.317-0.255,1.908-0.467c3.084-1.146,6.247-1.946,9.41-2.39
				c2.968-0.417,5.936-0.521,8.837-0.304c0.553,0.042,1.142,0.019,1.769-0.069c2.708-0.381,5.465-1.871,7.024-3.791l3.074-3.771
				c0.923-1.133,2.149-1.863,3.466-2.048c1.29-0.181,2.496,0.186,3.415,1.031l21.393,19.755c0.928,0.843,1.442,2.083,1.438,3.485
				c0.007,1.39-0.493,2.783-1.407,3.905l-3.073,3.782c-1.938,2.379-2.959,6.708-2.331,9.83c1.306,6.417,1.292,13.396-0.037,20.192
				c-0.641,3.301,0.392,7.311,2.35,9.123L-62.884,222.615z M-112.654,235.096c14.186-2.133,25.632-16.653,25.532-32.363
				c-0.109-15.57-11.627-26.624-25.674-24.65l-0.239,0.034c-14.187,2.133-25.642,16.654-25.532,32.354
				c0.1,15.57,11.627,26.633,25.684,24.658L-112.654,235.096"/>
		</g>
	</g>
</g>
<g display="none">
	<g display="inline" enable-background="new    ">
		<path fill="#9B6738" d="M-122.878,204.402c-0.142-0.077-0.283-0.15-0.427-0.221c-0.699-0.344-1.423-0.613-2.173-0.808
			c-1.578-0.409-3.269-0.488-5.073-0.235c-1.546,0.218-3.005,0.65-4.378,1.297c-0.76,0.357-1.492,0.781-2.198,1.269
			c-0.581,0.402-1.145,0.849-1.689,1.34c-0.533,0.479-1.049,1.001-1.547,1.566c-0.181,0.205-0.36,0.416-0.536,0.631
			c-0.326,0.399-0.634,0.805-0.923,1.217c-0.444,0.634-0.845,1.282-1.201,1.945c-0.409,0.76-0.76,1.539-1.054,2.337
			c-0.743,2.022-1.116,4.167-1.12,6.436c-0.009,4.596,1.356,8.181,4.094,10.756c0.747,0.702,1.55,1.288,2.41,1.756l11.481,6.246
			c-0.859-0.468-1.662-1.053-2.409-1.756c-2.738-2.575-4.103-6.161-4.095-10.756c0.004-2.268,0.378-4.414,1.121-6.435
			c0.293-0.798,0.644-1.577,1.053-2.337c0.356-0.663,0.757-1.311,1.202-1.945c0.289-0.412,0.597-0.818,0.923-1.218
			c0.177-0.216,0.355-0.427,0.536-0.631c0.499-0.564,1.014-1.086,1.547-1.567c0.545-0.491,1.108-0.937,1.69-1.339
			c0.705-0.488,1.438-0.911,2.197-1.269c1.373-0.646,2.833-1.079,4.378-1.296c1.804-0.253,3.495-0.175,5.073,0.234
			c0.75,0.194,1.475,0.463,2.173,0.807c0.143,0.071,0.286,0.145,0.427,0.222L-122.878,204.402z"/>
		<g>
			<path fill="#F7941E" d="M-119.069,209.385c4.045-0.568,7.523,0.532,10.432,3.291c2.91,2.748,4.355,6.311,4.347,10.677
				c-0.008,4.377-1.458,8.292-4.359,11.748c-2.9,3.455-6.384,5.48-10.479,6.056c-4.258,0.598-7.755-0.402-10.494-2.978
				c-2.738-2.575-4.103-6.161-4.095-10.756c0.009-4.453,1.438-8.432,4.298-11.935C-126.567,211.996-123.115,209.954-119.069,209.385
				z"/>
		</g>
	</g>
	<g display="inline" enable-background="new    ">
		<g>
			<path fill="#9B6738" d="M-116.356,169.41l-11.482-6.246c0.336,0.183,0.653,0.415,0.95,0.698c1.037,0.965,1.549,2.254,1.546,3.854
				c-0.001,0.803-0.137,1.574-0.408,2.31c-0.111,0.304-0.246,0.602-0.403,0.895c-0.14,0.26-0.297,0.516-0.474,0.767
				c-0.182,0.259-0.383,0.513-0.603,0.762c-0.253,0.286-0.531,0.565-0.834,0.838c-0.4,0.36-0.845,0.709-1.333,1.047
				c-0.233,0.16-0.475,0.319-0.728,0.474l-4.221,2.597c-0.295,0.184-0.583,0.371-0.86,0.564c-0.652,0.451-1.256,0.926-1.81,1.425
				c-0.453,0.407-0.873,0.83-1.26,1.269c-0.355,0.403-0.684,0.819-0.985,1.248c-0.307,0.438-0.587,0.891-0.838,1.357
				c-0.211,0.394-0.402,0.796-0.574,1.209c-0.069,0.168-0.136,0.341-0.202,0.519c-1.031,2.805-1.546,6.819-1.556,12.062
				l-0.008,4.214l11.482,6.246l0.008-4.213c0.01-5.243,0.526-9.257,1.557-12.062c0.065-0.178,0.133-0.351,0.203-0.52
				c0.17-0.412,0.362-0.815,0.573-1.209c0.251-0.466,0.53-0.918,0.837-1.356c0.302-0.429,0.63-0.845,0.986-1.248
				c0.387-0.438,0.807-0.861,1.259-1.269c0.554-0.499,1.157-0.974,1.81-1.425c0.278-0.192,0.564-0.38,0.86-0.564l4.221-2.596
				c0.252-0.155,0.495-0.313,0.727-0.474c0.489-0.337,0.934-0.687,1.333-1.047c0.304-0.273,0.582-0.553,0.834-0.838
				c0.221-0.249,0.422-0.503,0.603-0.763c0.177-0.251,0.335-0.507,0.475-0.767c0.157-0.292,0.292-0.59,0.402-0.895
				c0.271-0.736,0.407-1.506,0.408-2.311c0.003-1.6-0.509-2.889-1.546-3.853C-115.704,169.825-116.021,169.593-116.356,169.41z"/>
			<path fill="#9B6738" d="M-115.071,141.885c-0.26-0.141-0.522-0.276-0.787-0.407c-1.312-0.645-2.682-1.153-4.108-1.522
				c-3.129-0.811-6.534-0.957-10.215-0.439c-2.732,0.384-5.41,1.193-8.031,2.428c-1.579,0.745-3.138,1.644-4.675,2.699
				c-0.049,0.034-0.099,0.068-0.147,0.101c-1.274,0.883-2.474,1.83-3.599,2.842c-0.978,0.881-1.899,1.811-2.765,2.79
				c-0.845,0.956-1.635,1.96-2.373,3.012c-0.385,0.549-0.755,1.11-1.111,1.685c-0.332,0.535-0.647,1.082-0.948,1.64
				c-0.718,1.335-1.346,2.735-1.884,4.199c-1.597,4.347-2.401,9.264-2.411,14.752l11.482,6.247c0.01-5.49,0.813-10.407,2.411-14.753
				c0.538-1.464,1.166-2.864,1.884-4.198c0.3-0.559,0.616-1.105,0.948-1.64c0.355-0.574,0.726-1.136,1.111-1.685
				c0.737-1.052,1.529-2.055,2.373-3.012c0.865-0.979,1.786-1.909,2.765-2.79c1.124-1.012,2.324-1.958,3.599-2.841
				c0.049-0.034,0.097-0.067,0.146-0.101c1.538-1.055,3.096-1.955,4.675-2.699c2.621-1.236,5.299-2.044,8.031-2.428
				c3.681-0.518,7.086-0.371,10.215,0.439c1.427,0.369,2.797,0.876,4.108,1.522c0.264,0.129,0.526,0.265,0.787,0.407
				L-115.071,141.885z"/>
		</g>
		<g>
			<path fill="#F7941E" d="M-99.104,151.337c5.296,4.796,7.936,11.304,7.921,19.503c-0.019,10.127-3.835,17.771-11.439,22.932
				c-2.484,1.688-3.999,3.066-4.535,4.121c-0.537,1.055-0.814,3.184-0.819,6.396l-22.98,3.23l0.008-4.213
				c0.01-5.576,0.593-9.761,1.759-12.581c1.164-2.809,3.266-5.172,6.326-7.072l4.221-2.596c3.181-1.96,4.778-4.329,4.783-7.095
				c0.003-1.6-0.509-2.889-1.546-3.853c-1.027-0.977-2.287-1.355-3.77-1.147c-4.055,0.57-6.078,3.88-6.089,9.945l-21.377,3.005
				c0.015-8.112,1.763-14.976,5.242-20.592c2.57-4.149,5.894-7.621,9.994-10.429c4.089-2.806,8.328-4.513,12.707-5.127
				C-110.941,144.673-104.41,146.531-99.104,151.337z"/>
		</g>
	</g>
</g>
<g display="none">
	<g display="inline">
		<g enable-background="new    ">
			<path fill="#9B6738" d="M-123.512,196.352c-0.07-0.039-0.142-0.076-0.214-0.111c-0.351-0.172-0.722-0.31-1.109-0.41
				c-0.719-0.185-1.493-0.241-2.302-0.146c-0.05,0.006-0.1,0.012-0.149,0.019l5.787,3.148c0.05-0.007,0.1-0.014,0.149-0.019
				c0.809-0.096,1.584-0.041,2.302,0.145c0.387,0.101,0.758,0.238,1.109,0.411c0.073,0.035,0.144,0.072,0.215,0.111
				L-123.512,196.352z"/>
			<path fill="#9B6738" d="M-127.287,195.704c-0.713,0.1-1.403,0.312-2.054,0.619c-0.398,0.187-0.781,0.409-1.147,0.662
				c-0.297,0.206-0.582,0.432-0.854,0.676c-0.253,0.228-0.493,0.471-0.721,0.729c-0.226,0.256-0.439,0.526-0.637,0.808
				c-0.209,0.299-0.401,0.611-0.576,0.935c-0.206,0.383-0.385,0.782-0.536,1.192c-0.328,0.897-0.519,1.852-0.539,2.83
				c-0.054,2.772,1.259,5.036,3.274,6.131l5.786,3.147c-2.013-1.095-3.328-3.359-3.273-6.131c0.021-0.978,0.211-1.933,0.54-2.829
				c0.151-0.411,0.331-0.81,0.536-1.193c0.173-0.323,0.367-0.635,0.576-0.935c0.198-0.282,0.411-0.551,0.637-0.808
				s0.467-0.5,0.72-0.728c0.271-0.244,0.557-0.47,0.854-0.676c0.366-0.253,0.749-0.475,1.147-0.662
				c0.65-0.306,1.34-0.518,2.054-0.618L-127.287,195.704z"/>
		</g>
		<g enable-background="new    ">
			<path fill="#9B6738" d="M-114.916,153.653c-0.354-0.292-0.731-0.547-1.133-0.766l-5.787-3.149
				c0.401,0.219,0.779,0.474,1.132,0.767c1.813,1.493,2.718,3.473,2.713,5.931c-0.002,1.053-0.187,2.08-0.555,3.08
				c-0.159,0.434-0.354,0.863-0.582,1.288c-0.127,0.235-0.264,0.468-0.411,0.7c-0.034,0.051-0.07,0.104-0.109,0.162
				c-0.282,0.4-0.732,0.953-1.353,1.655c-1.061,1.201-2.618,2.843-4.671,4.926c-0.809,0.824-1.554,1.622-2.236,2.394
				c-1.049,1.189-1.947,2.315-2.696,3.38c-0.548,0.783-1.016,1.533-1.401,2.25c-0.189,0.352-0.359,0.693-0.508,1.029
				c-0.149,0.333-0.288,0.676-0.418,1.029c-0.865,2.356-1.302,5.146-1.307,8.379c-0.001,0.359,0.01,1.359,0.035,3.002l5.787,3.148
				c-0.024-1.643-0.036-2.643-0.036-3.002c0.006-3.233,0.442-6.023,1.308-8.379c0.131-0.354,0.269-0.696,0.417-1.029
				c0.151-0.335,0.319-0.678,0.508-1.029c0.386-0.717,0.853-1.467,1.402-2.249c0.748-1.065,1.646-2.192,2.696-3.38
				c0.682-0.771,1.427-1.569,2.236-2.394c2.053-2.083,3.61-3.726,4.67-4.927c0.62-0.703,1.071-1.255,1.352-1.655
				c0.04-0.057,0.077-0.11,0.109-0.162c0.147-0.231,0.285-0.465,0.411-0.7c0.229-0.423,0.423-0.854,0.582-1.288
				c0.368-1,0.553-2.027,0.556-3.08C-112.199,157.127-113.103,155.147-114.916,153.653z"/>
			<path fill="#9B6738" d="M-114.912,141.18c-0.19-0.104-0.382-0.204-0.577-0.299c-1.006-0.495-2.077-0.89-3.214-1.186
				c-2.86-0.742-6.136-0.854-9.828-0.335c-2.955,0.416-5.65,1.197-8.082,2.342c-1.192,0.562-2.322,1.212-3.389,1.949
				c-0.817,0.565-1.598,1.183-2.342,1.853c-0.576,0.518-1.13,1.067-1.662,1.648c-0.119,0.131-0.236,0.261-0.352,0.392
				c-0.688,0.778-1.315,1.573-1.886,2.385c-0.559,0.796-1.06,1.608-1.506,2.438c-0.508,0.944-0.944,1.91-1.307,2.899
				c-0.753,2.051-1.196,4.198-1.326,6.441l5.787,3.147c0.131-2.243,0.573-4.39,1.327-6.441c0.363-0.988,0.798-1.955,1.307-2.899
				c0.446-0.829,0.949-1.642,1.506-2.437c0.57-0.813,1.199-1.608,1.887-2.386c0.116-0.131,0.233-0.262,0.352-0.392
				c0.531-0.581,1.085-1.13,1.662-1.649c0.743-0.668,1.523-1.286,2.342-1.852c1.066-0.737,2.195-1.386,3.389-1.949
				c2.431-1.146,5.125-1.927,8.082-2.341c3.692-0.519,6.967-0.408,9.828,0.335c1.137,0.295,2.208,0.69,3.214,1.185
				c0.195,0.096,0.388,0.196,0.578,0.299L-114.912,141.18z"/>
		</g>
	</g>
	<g display="inline">
		<path fill="#F7941E" d="M-121.5,198.852c0.05-0.007,0.1-0.014,0.149-0.019c3.898-0.46,6.982,2.581,6.894,6.799
			c-0.081,4.164-3.233,7.911-7.057,8.448c-0.05,0.008-0.1,0.013-0.15,0.02c-3.897,0.459-6.983-2.581-6.9-6.799
			C-128.475,203.143-125.323,199.39-121.5,198.852z"/>
		<path fill="#F7941E" d="M-106.722,145.94c3.959,3.232,5.938,7.366,5.928,12.4c-0.006,2.787-0.742,5.525-2.198,8.216
			c-1.462,2.693-4.587,6.511-9.368,11.47c-2.479,2.565-4.014,4.558-4.613,5.989c-0.599,1.438-0.875,3.883-0.827,7.351l-10.616,1.493
			c-0.024-1.643-0.036-2.643-0.036-3.002c0.007-3.717,0.583-6.848,1.725-9.409c1.145-2.56,3.427-5.573,6.843-9.052
			c3.422-3.472,5.466-5.721,6.132-6.744c1.027-1.614,1.545-3.303,1.549-5.068c0.004-2.458-0.9-4.438-2.713-5.931
			c-1.814-1.501-4.267-2.026-7.344-1.594c-2.97,0.417-5.459,1.682-7.456,3.783c-2.003,2.111-3.385,5.092-4.138,8.943l-10.742,0.069
			c0.315-5.407,2.439-10.255,6.378-14.554c3.933-4.297,9.095-6.895,15.474-7.792C-116.026,141.564-110.687,142.708-106.722,145.94z"
			/>
	</g>
</g>
<g display="none">
	
		<text transform="matrix(1 0 0 1 -150.7544 195.8193)" display="inline" fill="#F7941E" font-family="'Arial-BoldMT'" font-size="67.7984">*</text>
	<g display="inline">
		<text transform="matrix(1 0 0 1 -118.7544 195.8193)" fill="#F7941E" font-family="'Arial-BoldMT'" font-size="67.7984">*</text>
	</g>
	<g display="inline">
		<text transform="matrix(1 0 0 1 -87.7539 195.8193)" fill="#F7941E" font-family="'Arial-BoldMT'" font-size="67.7984">*</text>
	</g>
</g>
<g display="none">
	<g display="inline" enable-background="new    ">
		<g>
			<path fill="#9B6738" d="M-98.334,160.737l-3.173,0.446c-0.184,0.276-0.391,0.531-0.595,0.789
				c-0.104,0.132-0.203,0.27-0.313,0.396c-0.195,0.226-0.409,0.434-0.622,0.644c-0.11,0.108-0.211,0.226-0.327,0.33
				c-0.123,0.111-0.262,0.208-0.39,0.315c-0.245,0.204-0.489,0.409-0.754,0.596c-0.363,0.255-0.74,0.497-1.14,0.718
				c-0.362,0.203-0.747,0.384-1.139,0.559c-0.161,0.072-0.327,0.14-0.493,0.207c-0.286,0.115-0.579,0.223-0.878,0.324
				c-0.173,0.058-0.345,0.116-0.522,0.17c-0.33,0.099-0.671,0.188-1.018,0.271c-0.16,0.038-0.314,0.081-0.477,0.116
				c-0.516,0.111-1.044,0.208-1.595,0.286c-0.593,0.083-1.167,0.137-1.727,0.167c-0.183,0.009-0.356,0.002-0.535,0.006
				c-0.37,0.008-0.74,0.015-1.095-0.001c-0.208-0.009-0.406-0.035-0.608-0.053c-0.313-0.027-0.625-0.055-0.926-0.103
				c-0.208-0.033-0.409-0.079-0.612-0.121c-0.359-0.075-0.721-0.147-1.063-0.252c-0.394-0.121-0.761-0.273-1.118-0.441
				c-0.141-0.066-0.286-0.127-0.421-0.201l4.559,2.48c0.094,0.051,0.188,0.1,0.285,0.148c0.043,0.021,0.093,0.033,0.137,0.054
				c0.356,0.167,0.724,0.32,1.117,0.44c0.16,0.049,0.323,0.095,0.487,0.138c0.186,0.048,0.385,0.074,0.577,0.114
				c0.203,0.042,0.403,0.088,0.611,0.121c0.3,0.047,0.611,0.075,0.923,0.102c0.205,0.018,0.404,0.044,0.614,0.053
				c0.351,0.016,0.715,0.009,1.079,0.001c0.185-0.004,0.363,0.003,0.552-0.007c0.56-0.03,1.133-0.083,1.725-0.166
				c0.55-0.077,1.079-0.175,1.594-0.286c0.164-0.035,0.319-0.078,0.479-0.117c0.346-0.083,0.686-0.171,1.015-0.271
				c0.178-0.054,0.352-0.112,0.524-0.17c0.3-0.101,0.592-0.208,0.876-0.323c0.167-0.067,0.333-0.135,0.495-0.207
				c0.094-0.042,0.195-0.077,0.288-0.121c0.292-0.138,0.576-0.284,0.851-0.438c0.371-0.206,0.727-0.426,1.066-0.661
				c0.025-0.017,0.045-0.038,0.07-0.056c0.265-0.187,0.51-0.392,0.756-0.597c0.116-0.096,0.244-0.18,0.355-0.28
				c0.013-0.012,0.024-0.025,0.037-0.037c0.113-0.103,0.213-0.218,0.322-0.325c0.19-0.187,0.386-0.368,0.563-0.568
				c0.022-0.025,0.04-0.053,0.062-0.078c0.112-0.129,0.211-0.269,0.317-0.403c0.14-0.177,0.289-0.346,0.419-0.532
				c0.058-0.083,0.115-0.167,0.171-0.251l3.173-0.446L-98.334,160.737z"/>
			<path fill="#9B6738" d="M-101.062,145.181l-4.559-2.48c0.428,0.233,0.825,0.508,1.191,0.828c0.954,0.823,1.642,1.814,2.081,2.961
				l-2.796-1.521l-3.934,0.553l-0.276,1.334l-1.415-0.77c-0.039-0.021-0.078-0.042-0.118-0.061
				c-0.057-0.028-0.122-0.042-0.181-0.067c-0.122-0.051-0.245-0.101-0.375-0.139c-0.032-0.009-0.059-0.025-0.091-0.033
				c-0.046-0.012-0.1-0.011-0.147-0.021c-0.184-0.04-0.376-0.067-0.576-0.081c-0.08-0.006-0.159-0.014-0.241-0.015
				c-0.279-0.005-0.567,0.006-0.874,0.049c-0.337,0.047-0.665,0.122-0.985,0.213c-0.104,0.03-0.203,0.071-0.305,0.105
				c-0.214,0.072-0.427,0.149-0.634,0.242c-0.04,0.018-0.082,0.028-0.122,0.046c-0.064,0.03-0.124,0.076-0.187,0.108
				c-0.233,0.119-0.461,0.25-0.685,0.396c-0.059,0.038-0.122,0.063-0.179,0.104c-0.047,0.032-0.09,0.074-0.136,0.108
				c-0.153,0.111-0.302,0.233-0.451,0.357c-0.077,0.064-0.158,0.118-0.234,0.186c-0.035,0.032-0.067,0.071-0.102,0.103
				c-0.144,0.134-0.284,0.281-0.423,0.429c-0.079,0.083-0.162,0.155-0.24,0.243c-0.023,0.027-0.045,0.06-0.068,0.087
				c-0.21,0.243-0.414,0.505-0.612,0.779c-0.036,0.049-0.074,0.089-0.109,0.139c-0.005,0.007-0.009,0.015-0.014,0.022
				c-0.218,0.313-0.43,0.645-0.634,0.997c-0.092,0.158-0.181,0.317-0.267,0.477c-0.031,0.058-0.056,0.117-0.086,0.175
				c-0.091,0.173-0.176,0.348-0.259,0.522c-0.061,0.129-0.123,0.258-0.18,0.389c-0.08,0.182-0.152,0.364-0.224,0.547
				c-0.036,0.093-0.079,0.184-0.113,0.276c-0.011,0.029-0.018,0.06-0.028,0.089c-0.125,0.347-0.238,0.696-0.334,1.048
				c-0.015,0.056-0.026,0.112-0.041,0.168c-0.078,0.3-0.146,0.602-0.203,0.906c-0.022,0.116-0.041,0.233-0.06,0.35
				c-0.042,0.26-0.077,0.521-0.104,0.783c-0.012,0.112-0.025,0.225-0.034,0.337c-0.029,0.367-0.049,0.736-0.05,1.109
				c-0.004,2.031,0.538,3.589,1.625,4.664c0.326,0.322,0.677,0.585,1.053,0.79l4.559,2.48c-0.376-0.205-0.727-0.468-1.053-0.79
				c-1.087-1.075-1.628-2.632-1.625-4.664c0.001-0.374,0.021-0.744,0.05-1.112c0.009-0.109,0.022-0.217,0.033-0.325
				c0.028-0.269,0.063-0.535,0.106-0.801c0.019-0.111,0.036-0.224,0.057-0.334c0.059-0.311,0.127-0.619,0.208-0.926
				c0.013-0.05,0.022-0.101,0.037-0.151c0.096-0.354,0.21-0.704,0.335-1.051c0.044-0.122,0.093-0.242,0.141-0.364
				c0.072-0.184,0.145-0.367,0.225-0.549c0.057-0.129,0.118-0.256,0.179-0.384c0.084-0.178,0.17-0.354,0.262-0.53
				c0.113-0.217,0.227-0.433,0.352-0.647c0.205-0.352,0.416-0.684,0.634-0.997c0.04-0.057,0.083-0.105,0.123-0.161
				c0.199-0.274,0.402-0.537,0.612-0.78c0.101-0.116,0.205-0.221,0.308-0.33c0.139-0.147,0.279-0.294,0.423-0.428
				c0.11-0.103,0.223-0.194,0.336-0.289c0.148-0.124,0.297-0.246,0.451-0.357c0.104-0.075,0.21-0.143,0.315-0.211
				c0.144-0.094,0.294-0.173,0.442-0.255c0.077,0.066,0.153,0.134,0.225,0.213c0.519,0.575,0.782,1.472,0.78,2.683
				c-0.002,1.081-0.196,2.274-0.583,3.583c-0.101,0.35-0.208,0.676-0.32,0.983c-0.096,0.264-0.196,0.515-0.3,0.749
				c-0.021,0.046-0.042,0.085-0.063,0.13c-0.085,0.183-0.172,0.358-0.262,0.522c-0.081,0.147-0.167,0.279-0.252,0.411
				c-0.057,0.088-0.111,0.186-0.17,0.267c-0.167,0.231-0.335,0.43-0.503,0.612c-0.042,0.046-0.085,0.087-0.127,0.13
				c-0.161,0.161-0.322,0.311-0.484,0.427c-0.234,0.175-0.479,0.312-0.731,0.421c-0.041,0.018-0.082,0.031-0.123,0.047
				c-0.244,0.095-0.493,0.17-0.75,0.206c-0.213,0.03-0.413,0.023-0.606-0.001c-0.044-0.005-0.088-0.011-0.132-0.019
				c-0.193-0.038-0.379-0.094-0.552-0.188l4.559,2.48c0.023,0.013,0.046,0.024,0.07,0.036c0.116,0.057,0.236,0.102,0.361,0.134
				c0.039,0.01,0.081,0.01,0.12,0.018c0.044,0.008,0.088,0.014,0.133,0.02c0.194,0.024,0.393,0.031,0.606,0.001
				c0.146-0.021,0.288-0.055,0.429-0.097l3.724,2.026c-0.019-0.011-0.038-0.021-0.056-0.032c-0.416-0.253-0.695-0.663-0.831-1.249
				l-2.02-1.099c0.079-0.046,0.16-0.084,0.237-0.137c0.04-0.028,0.08-0.057,0.12-0.086c0.104-0.075,0.209-0.159,0.313-0.252
				c0.058-0.052,0.114-0.117,0.172-0.174c0.042-0.042,0.084-0.083,0.127-0.129c0.029-0.031,0.058-0.056,0.087-0.089
				c0.139-0.158,0.278-0.332,0.417-0.523c0.016-0.023,0.033-0.046,0.049-0.069c0.041-0.059,0.079-0.132,0.119-0.194
				c0.086-0.134,0.173-0.268,0.256-0.417c0.011-0.021,0.023-0.037,0.035-0.057c0.077-0.143,0.15-0.3,0.223-0.458
				c0.022-0.046,0.045-0.087,0.066-0.135c0.067-0.15,0.13-0.315,0.193-0.477l3.953,2.15c0.006,0.003,0.012,0.006,0.018,0.009
				c0.028,0.014,0.058,0.025,0.088,0.033c0.059,0.015,0.122,0.019,0.189,0.009c0.131-0.019,0.275-0.068,0.427-0.137
				c0.011-0.005,0.021-0.005,0.032-0.01c0.048-0.022,0.104-0.063,0.154-0.091c0.086-0.047,0.172-0.094,0.265-0.156
				c0.018-0.012,0.034-0.018,0.052-0.03c0.037-0.026,0.082-0.068,0.12-0.096c0.137-0.101,0.28-0.214,0.429-0.345
				c0.036-0.031,0.066-0.049,0.103-0.082c0.085-0.077,0.173-0.159,0.263-0.245c0.209-0.197,0.41-0.404,0.603-0.622
				c0.02-0.022,0.037-0.049,0.057-0.072c0.129-0.15,0.25-0.312,0.371-0.472c0.084-0.109,0.175-0.209,0.255-0.324
				c0.014-0.021,0.026-0.044,0.04-0.065c0.228-0.33,0.443-0.675,0.641-1.043c0.002-0.004,0.005-0.007,0.007-0.011
				c0.176-0.326,0.339-0.667,0.492-1.023c0.098-0.224,0.188-0.449,0.271-0.674c0.029-0.08,0.05-0.161,0.078-0.241
				c0.044-0.13,0.086-0.261,0.125-0.392c0.065-0.215,0.123-0.43,0.175-0.645c0.031-0.131,0.063-0.261,0.089-0.392
				c0.046-0.229,0.081-0.458,0.111-0.686c0.015-0.114,0.035-0.228,0.047-0.342c0.034-0.341,0.056-0.682,0.056-1.023
				c0.005-2.637-0.88-4.717-2.647-6.241C-100.236,145.689-100.633,145.413-101.062,145.181z M-101.838,150.794
				c-0.011,0.111-0.031,0.222-0.045,0.332c-0.031,0.232-0.066,0.465-0.113,0.697c-0.026,0.128-0.057,0.256-0.088,0.384
				c-0.052,0.218-0.111,0.436-0.177,0.653c-0.039,0.129-0.08,0.257-0.124,0.386c-0.105,0.307-0.216,0.613-0.35,0.918
				c-0.154,0.36-0.321,0.704-0.499,1.034c-0.198,0.368-0.414,0.713-0.641,1.042c-0.095,0.138-0.199,0.263-0.299,0.394
				c-0.121,0.158-0.239,0.318-0.367,0.466c-0.211,0.244-0.429,0.478-0.661,0.695c-0.128,0.124-0.247,0.224-0.367,0.329
				c-0.15,0.131-0.293,0.245-0.431,0.346c-0.055,0.041-0.113,0.087-0.167,0.123c-0.094,0.063-0.181,0.11-0.269,0.158
				c-0.047,0.025-0.094,0.052-0.14,0.076c0.091-0.26,0.182-0.525,0.265-0.815c0.387-1.308,0.582-2.502,0.583-3.583
				c0.002-1.21-0.26-2.107-0.78-2.683c-0.183-0.202-0.383-0.363-0.6-0.481l-4.126-2.245c0.063-0.034,0.123-0.075,0.186-0.107
				c0.103-0.052,0.204-0.107,0.309-0.154c0.205-0.092,0.417-0.168,0.629-0.24c0.104-0.035,0.205-0.077,0.31-0.107
				c0.32-0.091,0.647-0.166,0.984-0.213c0.288-0.04,0.557-0.049,0.82-0.046l3.093,1.683l0.38-1.834l2.514-0.354
				c0.144,0.664,0.224,1.367,0.223,2.121C-101.782,150.111-101.804,150.453-101.838,150.794z"/>
			<path fill="#9B6738" d="M-120.779,167.168c-1.165-2.17-1.737-4.631-1.732-7.372c0.001-0.528,0.029-1.051,0.071-1.572
				c0.009-0.116,0.018-0.232,0.029-0.348c0.049-0.511,0.114-1.019,0.203-1.523c0.012-0.068,0.028-0.136,0.041-0.204
				c0.085-0.459,0.188-0.915,0.307-1.368c0.026-0.101,0.051-0.202,0.079-0.303c0.136-0.491,0.292-0.979,0.467-1.463
				c0.033-0.092,0.07-0.183,0.104-0.274c0.208-0.553,0.435-1.102,0.694-1.645c0.24-0.505,0.515-0.969,0.787-1.436
				c0.178-0.306,0.359-0.608,0.551-0.897c0.229-0.344,0.469-0.675,0.717-0.997c0.158-0.205,0.313-0.412,0.479-0.607
				c0.296-0.35,0.612-0.676,0.933-0.995c0.147-0.146,0.285-0.301,0.437-0.441c0.488-0.447,0.998-0.869,1.539-1.252
				c0.108-0.077,0.222-0.146,0.332-0.219c0.272-0.183,0.549-0.359,0.83-0.525c0.113-0.067,0.228-0.133,0.342-0.198
				c0.292-0.164,0.589-0.319,0.891-0.466c0.084-0.041,0.166-0.085,0.251-0.125c0.368-0.171,0.743-0.331,1.124-0.477
				c0.09-0.035,0.184-0.064,0.275-0.098c0.299-0.109,0.602-0.212,0.909-0.306c0.131-0.04,0.263-0.077,0.396-0.114
				c0.288-0.081,0.58-0.154,0.875-0.222c0.125-0.028,0.25-0.059,0.376-0.085c0.417-0.086,0.838-0.164,1.269-0.225
				c0.57-0.08,1.121-0.122,1.662-0.144c0.166-0.007,0.326-0.003,0.489-0.004c0.379-0.003,0.751,0.008,1.115,0.035
				c0.171,0.013,0.341,0.027,0.508,0.046c0.377,0.043,0.745,0.106,1.105,0.182c0.124,0.026,0.251,0.045,0.373,0.075
				c0.49,0.121,0.967,0.268,1.425,0.452c0.364,0.145,0.711,0.307,1.043,0.487l-4.559-2.479c-0.111-0.061-0.224-0.119-0.338-0.175
				c-0.228-0.112-0.463-0.217-0.706-0.313c-0.421-0.169-0.855-0.312-1.302-0.428c-0.04-0.01-0.083-0.015-0.123-0.025
				c-0.122-0.03-0.249-0.048-0.373-0.074c-0.361-0.077-0.729-0.14-1.106-0.183c-0.167-0.02-0.336-0.033-0.506-0.046
				c-0.365-0.027-0.737-0.038-1.117-0.036c-0.162,0.001-0.323-0.002-0.488,0.004c-0.541,0.022-1.092,0.064-1.663,0.144
				c-0.43,0.061-0.85,0.138-1.266,0.224c-0.129,0.027-0.256,0.058-0.384,0.087c-0.292,0.067-0.582,0.14-0.867,0.22
				c-0.135,0.038-0.269,0.076-0.402,0.116c-0.304,0.093-0.604,0.195-0.9,0.303c-0.094,0.034-0.189,0.064-0.282,0.1
				c-0.381,0.146-0.756,0.305-1.123,0.477c-0.021,0.01-0.042,0.017-0.062,0.026c-0.063,0.03-0.122,0.066-0.185,0.097
				c-0.305,0.148-0.604,0.305-0.898,0.47c-0.112,0.063-0.223,0.127-0.333,0.193c-0.292,0.172-0.578,0.354-0.859,0.544
				c-0.057,0.038-0.116,0.07-0.172,0.109c-0.045,0.031-0.09,0.063-0.136,0.095c-0.5,0.354-0.978,0.736-1.433,1.145
				c-0.037,0.033-0.068,0.073-0.105,0.106c-0.153,0.141-0.292,0.298-0.44,0.445c-0.246,0.244-0.5,0.477-0.731,0.739
				c-0.07,0.08-0.13,0.171-0.199,0.253c-0.166,0.195-0.321,0.403-0.479,0.608c-0.156,0.203-0.325,0.39-0.473,0.601
				c-0.087,0.125-0.159,0.268-0.244,0.396c-0.191,0.288-0.371,0.587-0.548,0.891c-0.11,0.188-0.235,0.359-0.34,0.554
				c-0.155,0.289-0.305,0.585-0.449,0.888c-0.259,0.543-0.485,1.092-0.694,1.645c-0.021,0.056-0.05,0.11-0.07,0.167
				c-0.013,0.036-0.021,0.072-0.035,0.108c-0.175,0.484-0.33,0.971-0.466,1.462c-0.028,0.102-0.052,0.204-0.079,0.306
				c-0.118,0.452-0.221,0.906-0.306,1.364c-0.013,0.069-0.029,0.138-0.042,0.207c-0.088,0.503-0.153,1.011-0.203,1.522
				c-0.011,0.116-0.021,0.232-0.029,0.349c-0.042,0.521-0.07,1.043-0.071,1.571c-0.005,2.741,0.567,5.201,1.732,7.372
				c0.901,1.69,2.171,2.983,3.815,3.877c1.52,0.827,3.039,1.653,4.559,2.48C-118.608,170.15-119.878,168.858-120.779,167.168z"/>
		</g>
		<path fill="#F7941E" d="M-96.948,163.663l3.173-0.446c-0.998,2.319-2.522,4.236-4.583,5.762c-2.358,1.749-5.235,2.854-8.624,3.33
			c-3.276,0.46-6.103,0.261-8.488-0.597c-2.385-0.857-4.152-2.372-5.309-4.543c-1.165-2.17-1.737-4.631-1.732-7.372
			c0.005-3.017,0.667-5.919,1.994-8.699c1.327-2.789,3.141-4.997,5.442-6.625c2.293-1.619,4.922-2.646,7.87-3.06
			c2.507-0.352,4.733-0.138,6.678,0.644c1.944,0.772,3.432,2.059,4.454,3.852c1.021,1.792,1.538,3.829,1.534,6.129
			c-0.005,2.731-0.794,5.315-2.36,7.748c-1.96,3.059-4.47,4.803-7.53,5.233c-0.825,0.116-1.449,0.048-1.866-0.205
			c-0.416-0.253-0.695-0.663-0.831-1.249c-1.171,1.392-2.526,2.188-4.056,2.402c-1.65,0.232-3.019-0.189-4.106-1.264
			c-1.087-1.075-1.628-2.632-1.625-4.664c0.005-2.524,0.666-4.917,1.983-7.176c1.599-2.757,3.636-4.314,6.119-4.663
			c1.771-0.249,3.075,0.303,3.913,1.637l0.38-1.834l3.933-0.553l-2.272,11.85c-0.137,0.746-0.21,1.232-0.211,1.447
			c0,0.269,0.055,0.459,0.167,0.582c0.121,0.113,0.256,0.163,0.417,0.141c0.473-0.066,1.09-0.464,1.844-1.192
			c1.019-0.956,1.838-2.169,2.465-3.631c0.635-1.455,0.95-2.925,0.953-4.395c0.005-2.637-0.88-4.717-2.647-6.241
			c-1.759-1.533-4.233-2.067-7.396-1.623c-2.7,0.379-4.984,1.288-6.852,2.735c-1.877,1.448-3.29,3.315-4.247,5.602
			c-0.949,2.286-1.434,4.592-1.438,6.918c-0.004,2.256,0.529,4.248,1.583,5.949c1.054,1.71,2.534,2.851,4.446,3.438
			c1.913,0.587,4.099,0.703,6.566,0.356c2.371-0.333,4.415-0.975,6.122-1.933C-99.372,166.501-97.992,165.236-96.948,163.663z
			 M-106.307,158.012c0.387-1.308,0.582-2.502,0.583-3.583c0.002-1.21-0.26-2.107-0.78-2.683c-0.52-0.575-1.176-0.811-1.969-0.699
			c-0.857,0.12-1.651,0.595-2.373,1.405c-0.73,0.82-1.277,1.909-1.648,3.283c-0.371,1.366-0.558,2.559-0.56,3.579
			c-0.002,1.366,0.252,2.333,0.764,2.901c0.511,0.576,1.144,0.807,1.896,0.701c0.569-0.08,1.106-0.302,1.604-0.675
			c0.376-0.269,0.746-0.658,1.115-1.168C-107.144,160.342-106.686,159.327-106.307,158.012"/>
	</g>
</g>
<g>
	<g>
		<g>
			<g enable-background="new    ">
				
					<linearGradient id="SVGID_1_" gradientUnits="userSpaceOnUse" x1="138.3994" y1="108.3965" x2="274.7803" y2="108.3965" gradientTransform="matrix(0.8871 0.4616 -0.4616 0.8871 78.904 -114.9271)">
					<stop  offset="0" style="stop-color:#F7941E"/>
					<stop  offset="0.5108" style="stop-color:#FCD19F"/>
					<stop  offset="1" style="stop-color:#F7941E"/>
				</linearGradient>
				<path fill="url(#SVGID_1_)" d="M276.074,101.362c0.55-1.197,1.024-2.421,1.421-3.667c0.384-1.201,0.692-2.424,0.926-3.666
					c0.06-0.322,0.116-0.645,0.166-0.968l1.865-12.025c-0.019,0.112-0.04,0.223-0.058,0.334c0.735-4.424,0.518-9.077-0.781-13.853
					c-6.98-25.666-42.428-45.106-79.181-43.42c-30.97,1.422-52.977,17.397-54.952,37.749c0.056-0.583,0.126-1.163,0.216-1.739
					l-1.864,12.025c-0.671,4.324-0.428,8.863,0.838,13.517c3.354,12.333,13.28,23.228,26.765,31.032
					c2.351,1.36,4.811,2.627,7.362,3.792c2.035,0.93,4.131,1.793,6.277,2.586c1.902,0.705,3.845,1.354,5.822,1.945
					c1.832,0.547,3.693,1.045,5.579,1.49c1.81,0.428,3.641,0.807,5.491,1.136c1.827,0.324,3.674,0.6,5.534,0.823
					c1.896,0.229,3.807,0.405,5.729,0.525c2.034,0.126,4.079,0.192,6.132,0.192c1.492,0,2.986-0.033,4.484-0.102
					c0.798-0.037,1.589-0.083,2.373-0.139c2.715-0.193,5.357-0.498,7.918-0.91c4.546-0.731,8.835-1.797,12.825-3.155
					c3.845-1.31,7.412-2.892,10.663-4.711c3.446-1.927,6.535-4.123,9.223-6.54c1.574-1.417,3.011-2.909,4.301-4.471
					c1.064-1.29,2.029-2.626,2.888-4.005C274.801,103.913,275.481,102.652,276.074,101.362z M203.538,35.831
					c18.824-0.864,37.2,5.746,48.545,16.204C240.738,41.577,222.362,34.968,203.538,35.831
					c-27.382,1.257-45.342,17.849-40.117,37.062c1.794,6.599,6.092,12.648,12.07,17.697c-5.979-5.049-10.276-11.098-12.071-17.698
					C158.196,53.68,176.156,37.088,203.538,35.831z M173.297,104.657c-0.176-0.102-0.344-0.209-0.518-0.313
					c0.667,0.394,1.34,0.782,2.025,1.16C174.297,105.225,173.794,104.944,173.297,104.657z M180.661,108.448
					c-0.025-0.012-0.05-0.024-0.076-0.036c0.251,0.115,0.51,0.221,0.763,0.333C181.121,108.645,180.887,108.551,180.661,108.448z
					 M186.938,111.036c-0.104-0.038-0.204-0.082-0.308-0.12c0.594,0.222,1.195,0.432,1.797,0.644
					C187.93,111.385,187.429,111.217,186.938,111.036z M192.76,112.979c-0.049-0.015-0.097-0.032-0.146-0.047
					c0.984,0.296,1.977,0.58,2.978,0.847C194.641,113.525,193.696,113.259,192.76,112.979z M198.34,114.469
					c-0.814-0.192-1.623-0.398-2.428-0.61c0.891,0.234,1.787,0.458,2.689,0.668C198.516,114.507,198.427,114.49,198.34,114.469z
					 M203.831,115.605c-0.371-0.066-0.737-0.143-1.104-0.213c0.678,0.128,1.359,0.251,2.043,0.366
					C204.457,115.706,204.142,115.66,203.831,115.605z M209.364,116.43c-0.137-0.017-0.271-0.038-0.409-0.055
					c0.899,0.112,1.801,0.211,2.707,0.299C210.895,116.599,210.127,116.522,209.364,116.43z M215.094,116.954
					c-1.001-0.062-1.999-0.142-2.993-0.234c1.06,0.099,2.124,0.179,3.19,0.244C215.226,116.959,215.159,116.958,215.094,116.954z
					 M221.226,117.146c-0.493,0-0.984-0.016-1.477-0.023c0.726,0.011,1.451,0.021,2.179,0.016
					C221.693,117.14,221.459,117.146,221.226,117.146z M228.083,116.906c-0.784,0.056-1.575,0.102-2.372,0.138
					c1.051-0.048,2.088-0.118,3.117-0.2C228.579,116.865,228.333,116.889,228.083,116.906z M236.001,115.996
					c-0.07,0.012-0.142,0.021-0.213,0.032c0.462-0.073,0.91-0.162,1.366-0.242C236.768,115.855,236.392,115.934,236.001,115.996z
					 M248.826,112.841c-0.158,0.054-0.321,0.099-0.479,0.151c0.45-0.15,0.894-0.306,1.336-0.464
					C249.396,112.631,249.117,112.743,248.826,112.841z M279.36,85.671c-0.01,0.032-0.022,0.063-0.032,0.094
					c0.211-0.658,0.399-1.321,0.566-1.991C279.735,84.412,279.56,85.045,279.36,85.671z M259.489,108.131
					c-0.181,0.101-0.372,0.194-0.555,0.294c0.613-0.335,1.225-0.67,1.816-1.021C260.335,107.65,259.915,107.893,259.489,108.131z
					 M268.712,101.591c-0.453,0.407-0.922,0.806-1.396,1.201c0.553-0.459,1.092-0.927,1.614-1.403
					C268.856,101.455,268.786,101.524,268.712,101.591z M280.356,81.592c-0.024,0.138-0.046,0.276-0.071,0.413
					c-0.076,0.401-0.172,0.797-0.264,1.194C280.144,82.666,280.263,82.132,280.356,81.592z M273.013,97.12
					c-0.123,0.149-0.255,0.294-0.38,0.442c0.272-0.322,0.533-0.651,0.793-0.979C273.285,96.761,273.156,96.944,273.013,97.12z
					 M275.9,93.115c-0.088,0.141-0.189,0.275-0.278,0.415c0.205-0.319,0.404-0.642,0.598-0.965
					C276.111,92.747,276.013,92.934,275.9,93.115z M278.281,88.528c-0.116,0.27-0.221,0.543-0.344,0.811
					c-0.054,0.118-0.119,0.232-0.174,0.35C277.945,89.305,278.114,88.917,278.281,88.528z"/>
				<path fill="#9B6738" d="M263.205,78.5c0.505-3.248,0.321-6.661-0.629-10.159c-2.52-9.26-9.965-17.438-20.068-23.285
					c-1.753-1.015-3.588-1.96-5.489-2.828c-1.52-0.693-3.082-1.338-4.683-1.929c-1.416-0.525-2.863-1.007-4.334-1.447
					c-1.363-0.408-2.747-0.778-4.149-1.109c-1.344-0.317-2.703-0.599-4.078-0.843c-1.356-0.24-2.728-0.444-4.109-0.612
					c-1.406-0.169-2.824-0.299-4.252-0.389c-1.509-0.094-3.026-0.143-4.549-0.143c-1.106,0-2.215,0.024-3.326,0.075
					c-0.592,0.027-1.179,0.062-1.761,0.103c-2.015,0.144-3.976,0.371-5.875,0.676c-3.375,0.542-6.561,1.333-9.524,2.343
					c-2.862,0.976-5.519,2.154-7.939,3.511c-2.56,1.433-4.856,3.065-6.855,4.862c-1.179,1.061-2.406,2.127-3.371,3.296
					c-0.797,0.965-1.555,1.87-2.313,2.944l0,0v0.001c-0.759,0.958-0.932,1.915-1.375,2.881c-0.414,0.898-0.694,1.843-0.991,2.778
					c-0.288,0.902-0.48,1.834-0.657,2.766c-0.045,0.242-0.067,0.49-0.104,0.733l-1.856,12.028c0.039-0.244,0.086-0.484,0.131-0.727
					c0.175-0.932,0.41-1.849,0.697-2.751c0.298-0.936,0.653-1.854,1.067-2.752c0.443-0.967,0.955-1.911,1.528-2.83
					c0.643-1.031,1.363-2.031,2.16-2.996c0.966-1.167,2.042-2.287,3.22-3.346c2-1.798,4.296-3.429,6.855-4.863
					c2.421-1.356,5.077-2.536,7.939-3.51c2.964-1.011,6.149-1.801,9.523-2.345c1.901-0.305,3.862-0.533,5.877-0.675
					c0.582-0.042,1.168-0.076,1.76-0.103c1.111-0.051,2.22-0.076,3.326-0.075c1.522,0,3.041,0.048,4.549,0.143
					c1.426,0.088,2.845,0.219,4.253,0.389c1.381,0.166,2.751,0.371,4.108,0.612c1.375,0.245,2.734,0.525,4.079,0.842
					c1.402,0.332,2.785,0.702,4.148,1.109c1.472,0.44,2.918,0.923,4.335,1.447c1.6,0.592,3.162,1.236,4.682,1.93
					c1.902,0.867,3.736,1.812,5.488,2.827c10.105,5.847,17.551,14.025,20.067,23.286c0.953,3.499,1.135,6.911,0.632,10.159
					L263.205,78.5z"/>
			</g>
		</g>
	</g>
	<g>
		<g>
			<g enable-background="new    ">
				<linearGradient id="SVGID_2_" gradientUnits="userSpaceOnUse" x1="75.71" y1="72.0352" x2="212.0908" y2="72.0352">
					<stop  offset="0" style="stop-color:#F7941E"/>
					<stop  offset="0.5108" style="stop-color:#FCD19F"/>
					<stop  offset="1" style="stop-color:#F7941E"/>
				</linearGradient>
				<path fill="url(#SVGID_2_)" d="M212.051,64.508c-0.064-1.316-0.208-2.621-0.432-3.909c-0.214-1.243-0.505-2.47-0.871-3.679
					c-0.095-0.313-0.194-0.625-0.299-0.936l-3.896-11.528c0.036,0.107,0.068,0.216,0.104,0.323
					c-1.389-4.264-3.73-8.292-7.086-11.929c-18.039-19.546-58.458-20.432-90.283-1.973C82.47,46.434,70.321,70.762,77.96,89.729
					c-0.219-0.543-0.424-1.09-0.61-1.643l3.896,11.529c1.401,4.145,3.712,8.059,6.982,11.604
					c8.667,9.392,22.502,14.476,38.065,15.175c2.714,0.122,5.48,0.11,8.282-0.034c2.234-0.115,4.491-0.315,6.762-0.603
					c2.013-0.253,4.036-0.574,6.063-0.963c1.878-0.36,3.759-0.777,5.638-1.253c1.802-0.455,3.602-0.965,5.396-1.527
					c1.77-0.555,3.535-1.164,5.289-1.824c1.787-0.672,3.563-1.398,5.324-2.178c1.862-0.827,3.707-1.712,5.528-2.659
					c1.323-0.688,2.634-1.408,3.932-2.16c0.69-0.4,1.37-0.807,2.041-1.218c2.319-1.425,4.522-2.915,6.604-4.462
					c3.694-2.747,7.008-5.672,9.921-8.718c2.807-2.936,5.241-5.987,7.286-9.101c2.167-3.3,3.895-6.674,5.162-10.059
					c0.743-1.983,1.328-3.97,1.752-5.951c0.349-1.636,0.588-3.267,0.713-4.886C212.099,67.359,212.121,65.926,212.051,64.508z
					 M117.457,39.854c16.301-9.455,35.652-12.073,50.544-8.031C153.109,27.781,133.758,30.399,117.457,39.854
					c-23.71,13.753-31.985,36.761-18.482,51.394c4.638,5.026,11.242,8.41,18.876,10.128c-7.634-1.719-14.238-5.102-18.877-10.128
					C85.472,76.615,93.747,53.606,117.457,39.854z M122.396,114.868c-0.203-0.009-0.401-0.027-0.604-0.038
					c0.773,0.041,1.55,0.075,2.332,0.094C123.546,114.91,122.97,114.894,122.396,114.868z M130.68,114.832
					c-0.028,0.001-0.056,0.002-0.084,0.003c0.275-0.014,0.554-0.039,0.83-0.056C131.178,114.794,130.927,114.819,130.68,114.832z
					 M137.441,114.231c-0.109,0.014-0.219,0.022-0.329,0.035c0.63-0.077,1.261-0.168,1.893-0.258
					C138.483,114.083,137.961,114.165,137.441,114.231z M143.504,113.267c-0.051,0.01-0.101,0.017-0.151,0.026
					c1.01-0.191,2.021-0.398,3.032-0.624C145.424,112.884,144.463,113.083,143.504,113.267z M149.142,112.014
					c-0.812,0.206-1.624,0.395-2.436,0.579c0.898-0.203,1.797-0.418,2.694-0.648C149.314,111.967,149.229,111.992,149.142,112.014z
					 M154.537,110.487c-0.359,0.112-0.72,0.213-1.078,0.321c0.661-0.199,1.321-0.405,1.981-0.619
					C155.139,110.288,154.838,110.392,154.537,110.487z M159.827,108.665c-0.13,0.048-0.26,0.092-0.39,0.14
					c0.85-0.315,1.695-0.644,2.539-0.984C161.262,108.108,160.546,108.394,159.827,108.665z M165.15,106.485
					c-0.916,0.406-1.838,0.796-2.763,1.174c0.985-0.402,1.966-0.822,2.943-1.257C165.27,106.429,165.211,106.458,165.15,106.485z
					 M170.679,103.826c-0.438,0.228-0.88,0.44-1.319,0.661c0.648-0.325,1.296-0.652,1.938-0.992
					C171.092,103.604,170.887,103.718,170.679,103.826z M176.652,100.448c-0.671,0.411-1.352,0.818-2.041,1.217
					c0.91-0.527,1.798-1.068,2.673-1.615C177.073,100.182,176.866,100.316,176.652,100.448z M183.256,95.986
					c-0.057,0.042-0.116,0.084-0.174,0.126c0.375-0.278,0.732-0.563,1.1-0.844C183.871,95.506,183.573,95.75,183.256,95.986z
					 M193.177,87.268c-0.114,0.12-0.239,0.236-0.355,0.355c0.331-0.341,0.651-0.685,0.972-1.028
					C193.585,86.818,193.39,87.046,193.177,87.268z M207.725,49.072c0.006,0.033,0.008,0.066,0.014,0.099
					c-0.116-0.681-0.255-1.357-0.415-2.028C207.477,47.781,207.612,48.425,207.725,49.072z M200.463,78.167
					c-0.113,0.173-0.241,0.344-0.357,0.517c0.39-0.58,0.777-1.16,1.141-1.744C200.991,77.351,200.73,77.759,200.463,78.167z
					 M205.626,68.108c-0.214,0.571-0.446,1.141-0.685,1.71c0.278-0.663,0.54-1.326,0.784-1.99
					C205.691,67.922,205.661,68.015,205.626,68.108z M206.725,44.993c0.042,0.134,0.087,0.266,0.128,0.399
					c0.117,0.391,0.215,0.786,0.317,1.18C207.032,46.044,206.891,45.516,206.725,44.993z M207.377,62.158
					c-0.041,0.189-0.09,0.378-0.133,0.567c0.094-0.412,0.172-0.823,0.252-1.235C207.453,61.713,207.424,61.935,207.377,62.158z
					 M208.09,57.272c-0.012,0.165-0.04,0.332-0.055,0.497c0.034-0.378,0.063-0.756,0.085-1.133
					C208.107,56.849,208.106,57.06,208.09,57.272z M208.085,52.104c0.022,0.292,0.056,0.583,0.069,0.877
					c0.007,0.13,0.002,0.261,0.007,0.391C208.146,52.948,208.117,52.526,208.085,52.104z"/>
				<path fill="#9B6738" d="M190.083,50.167c-1.052-3.115-2.789-6.057-5.247-8.722c-6.509-7.052-16.889-10.871-28.55-11.394
					c-2.024-0.091-4.088-0.083-6.175,0.025c-1.668,0.086-3.352,0.236-5.045,0.45c-1.498,0.188-3.005,0.428-4.513,0.717
					c-1.396,0.267-2.796,0.578-4.192,0.931c-1.338,0.339-2.675,0.717-4.007,1.135c-1.314,0.413-2.625,0.864-3.928,1.353
					c-1.327,0.5-2.645,1.038-3.952,1.618c-1.382,0.613-2.751,1.27-4.102,1.973c-0.981,0.51-1.953,1.044-2.916,1.602
					c-0.512,0.297-1.017,0.599-1.515,0.904c-1.721,1.057-3.355,2.164-4.899,3.311c-2.744,2.04-5.204,4.211-7.367,6.475
					c-2.09,2.187-3.901,4.458-5.424,6.779c-1.608,2.453-2.893,4.96-3.837,7.478c-0.556,1.485-1.104,2.973-1.422,4.455
					c-0.261,1.224-0.644,2.443-0.644,3.654l0,0v0.001c0,1.079,0.01,2.153,0.062,3.215c0.048,0.988,0.211,1.968,0.38,2.935
					c0.161,0.933,0.407,1.855,0.681,2.763c0.071,0.235,0.16,0.469,0.24,0.702l3.902,11.528c-0.079-0.234-0.149-0.469-0.223-0.704
					c-0.273-0.908-0.49-1.83-0.651-2.762c-0.168-0.968-0.275-1.946-0.322-2.935c-0.054-1.063-0.036-2.136,0.049-3.216
					c0.094-1.21,0.271-2.431,0.533-3.655c0.317-1.481,0.755-2.971,1.312-4.454c0.944-2.518,2.229-5.025,3.837-7.478
					c1.522-2.32,3.334-4.593,5.423-6.778c2.164-2.265,4.624-4.436,7.367-6.476c1.545-1.148,3.18-2.255,4.901-3.312
					c0.497-0.305,1.002-0.607,1.514-0.904c0.962-0.558,1.935-1.092,2.916-1.602c1.351-0.703,2.72-1.36,4.101-1.972
					c1.307-0.58,2.625-1.119,3.953-1.618c1.302-0.49,2.611-0.941,3.928-1.354c1.332-0.417,2.668-0.796,4.007-1.135
					c1.396-0.353,2.795-0.664,4.192-0.931c1.508-0.289,3.015-0.528,4.513-0.717c1.693-0.213,3.377-0.363,5.044-0.448
					c2.088-0.109,4.151-0.117,6.175-0.026c11.662,0.523,22.041,4.342,28.549,11.395c2.46,2.665,4.196,5.607,5.249,8.722
					L190.083,50.167z"/>
			</g>
		</g>
	</g>
	<g>
		<g enable-background="new    ">
			<linearGradient id="SVGID_3_" gradientUnits="userSpaceOnUse" x1="7.4678" y1="87.2002" x2="143.8486" y2="87.2002">
				<stop  offset="0" style="stop-color:#F7941E"/>
				<stop  offset="0.5108" style="stop-color:#FCD19F"/>
				<stop  offset="1" style="stop-color:#F7941E"/>
			</linearGradient>
			<path fill="url(#SVGID_3_)" d="M143.809,79.673c-0.064-1.316-0.208-2.621-0.432-3.909c-0.214-1.243-0.505-2.47-0.871-3.679
				c-0.095-0.313-0.194-0.625-0.299-0.936l-3.896-11.528c0.036,0.107,0.068,0.216,0.104,0.323c-1.389-4.264-3.73-8.292-7.086-11.929
				c-18.039-19.547-58.459-20.432-90.283-1.973C14.228,61.599,2.078,85.927,9.718,104.894c-0.219-0.543-0.424-1.09-0.61-1.643
				l3.896,11.528c1.401,4.146,3.712,8.059,6.982,11.604c8.667,9.392,22.502,14.476,38.065,15.175c2.713,0.122,5.48,0.11,8.281-0.034
				c2.235-0.115,4.492-0.315,6.763-0.603c2.013-0.253,4.036-0.574,6.063-0.963c1.877-0.36,3.759-0.777,5.638-1.253
				c1.802-0.455,3.602-0.965,5.395-1.527c1.771-0.555,3.536-1.164,5.29-1.824c1.787-0.672,3.563-1.398,5.324-2.178
				c1.862-0.827,3.707-1.712,5.528-2.659c1.323-0.688,2.634-1.408,3.932-2.16c0.69-0.4,1.37-0.807,2.041-1.218
				c2.319-1.425,4.522-2.915,6.604-4.462c3.694-2.747,7.008-5.672,9.921-8.718c2.807-2.936,5.241-5.987,7.285-9.101
				c2.168-3.3,3.896-6.674,5.163-10.059c0.742-1.983,1.328-3.97,1.752-5.951c0.349-1.636,0.588-3.267,0.713-4.886
				C143.856,82.524,143.878,81.091,143.809,79.673z M49.215,55.019c16.301-9.455,35.652-12.073,50.544-8.031
				C84.867,42.946,65.516,45.564,49.215,55.019c-23.71,13.753-31.985,36.761-18.482,51.394c4.638,5.026,11.242,8.409,18.876,10.128
				c-7.634-1.719-14.238-5.102-18.877-10.128C17.229,91.78,25.505,68.771,49.215,55.019z M54.154,130.033
				c-0.203-0.009-0.401-0.027-0.604-0.038c0.773,0.041,1.55,0.075,2.332,0.094C55.304,130.075,54.728,130.058,54.154,130.033z
				 M62.438,129.997c-0.028,0.001-0.056,0.002-0.084,0.003c0.275-0.014,0.554-0.039,0.83-0.056
				C62.936,129.959,62.685,129.984,62.438,129.997z M69.199,129.396c-0.109,0.014-0.219,0.022-0.329,0.035
				c0.63-0.077,1.261-0.168,1.892-0.258C70.241,129.248,69.719,129.33,69.199,129.396z M75.262,128.432
				c-0.051,0.01-0.102,0.017-0.151,0.026c1.01-0.192,2.021-0.398,3.032-0.624C77.182,128.049,76.221,128.248,75.262,128.432z
				 M80.899,127.179c-0.812,0.206-1.624,0.396-2.436,0.579c0.898-0.203,1.797-0.418,2.694-0.648
				C81.072,127.131,80.986,127.157,80.899,127.179z M86.295,125.652c-0.359,0.113-0.72,0.213-1.078,0.322
				c0.661-0.199,1.321-0.405,1.981-0.619C86.896,125.453,86.596,125.557,86.295,125.652z M91.584,123.829
				c-0.129,0.049-0.259,0.092-0.389,0.14c0.85-0.315,1.695-0.644,2.539-0.984C93.02,123.273,92.304,123.559,91.584,123.829z
				 M96.908,121.65c-0.916,0.406-1.838,0.796-2.764,1.174c0.986-0.402,1.967-0.822,2.943-1.257
				C97.027,121.594,96.969,121.624,96.908,121.65z M102.437,118.991c-0.438,0.228-0.88,0.44-1.32,0.661
				c0.649-0.325,1.297-0.651,1.939-0.992C102.85,118.77,102.645,118.883,102.437,118.991z M108.409,115.613
				c-0.67,0.411-1.351,0.818-2.04,1.217c0.91-0.528,1.798-1.068,2.673-1.615C108.831,115.347,108.623,115.481,108.409,115.613z
				 M115.014,111.151c-0.057,0.042-0.116,0.083-0.174,0.126c0.375-0.278,0.732-0.563,1.1-0.844
				C115.629,110.671,115.331,110.916,115.014,111.151z M124.935,102.433c-0.114,0.12-0.239,0.236-0.355,0.355
				c0.33-0.341,0.651-0.685,0.972-1.028C125.343,101.983,125.147,102.211,124.935,102.433z M139.482,64.237
				c0.006,0.033,0.008,0.066,0.014,0.099c-0.116-0.681-0.255-1.357-0.415-2.028C139.234,62.946,139.369,63.59,139.482,64.237z
				 M132.221,93.333c-0.113,0.173-0.241,0.344-0.357,0.517c0.39-0.58,0.777-1.16,1.141-1.744
				C132.749,92.516,132.488,92.924,132.221,93.333z M137.384,83.273c-0.214,0.57-0.446,1.141-0.686,1.71
				c0.279-0.663,0.541-1.326,0.784-1.99C137.449,83.087,137.418,83.18,137.384,83.273z M138.482,60.158
				c0.042,0.133,0.087,0.266,0.127,0.399c0.118,0.391,0.216,0.786,0.318,1.18C138.79,61.209,138.648,60.681,138.482,60.158z
				 M139.134,77.323c-0.04,0.189-0.089,0.378-0.132,0.567c0.094-0.412,0.172-0.823,0.252-1.235
				C139.211,76.878,139.182,77.1,139.134,77.323z M139.848,72.437c-0.013,0.165-0.04,0.332-0.056,0.497
				c0.035-0.378,0.063-0.756,0.086-1.133C139.865,72.013,139.864,72.225,139.848,72.437z M139.843,67.27
				c0.022,0.292,0.056,0.583,0.069,0.877c0.007,0.13,0.002,0.261,0.007,0.391C139.903,68.113,139.875,67.691,139.843,67.27z"/>
			<path fill="#9B6738" d="M121.841,65.332c-1.052-3.114-2.789-6.057-5.247-8.722c-6.51-7.052-16.889-10.871-28.551-11.395
				c-2.023-0.091-4.087-0.083-6.175,0.025c-1.667,0.086-3.351,0.236-5.044,0.45c-1.498,0.188-3.005,0.428-4.513,0.717
				c-1.396,0.267-2.796,0.578-4.192,0.931c-1.339,0.339-2.675,0.717-4.007,1.135c-1.314,0.413-2.625,0.864-3.928,1.353
				c-1.327,0.5-2.646,1.038-3.953,1.618c-1.381,0.613-2.75,1.27-4.101,1.973c-0.981,0.51-1.953,1.044-2.916,1.602
				c-0.512,0.297-1.017,0.599-1.515,0.904c-1.721,1.057-3.355,2.164-4.899,3.311c-2.744,2.04-5.204,4.211-7.367,6.475
				c-2.09,2.187-3.901,4.458-5.424,6.779c-1.608,2.453-2.893,4.96-3.837,7.478c-0.556,1.485-1.104,2.973-1.422,4.455
				c-0.261,1.224-0.644,2.443-0.644,3.654l0,0v0.001c0,1.079,0.009,2.153,0.062,3.215c0.048,0.988,0.211,1.968,0.38,2.935
				c0.161,0.933,0.407,1.855,0.681,2.763c0.071,0.235,0.16,0.469,0.24,0.702l3.902,11.528c-0.079-0.234-0.149-0.469-0.223-0.704
				c-0.273-0.908-0.49-1.83-0.651-2.762c-0.168-0.968-0.275-1.946-0.323-2.935c-0.053-1.063-0.035-2.136,0.049-3.216
				c0.095-1.21,0.272-2.431,0.533-3.655c0.318-1.481,0.756-2.971,1.313-4.454c0.944-2.518,2.229-5.025,3.837-7.478
				c1.521-2.32,3.334-4.593,5.423-6.778c2.163-2.265,4.624-4.436,7.367-6.476c1.545-1.148,3.18-2.255,4.901-3.312
				c0.497-0.305,1.001-0.607,1.514-0.904c0.962-0.558,1.935-1.092,2.916-1.602c1.351-0.703,2.719-1.36,4.101-1.972
				c1.307-0.58,2.625-1.119,3.953-1.618c1.302-0.49,2.611-0.941,3.928-1.354c1.332-0.417,2.668-0.796,4.006-1.135
				c1.397-0.353,2.796-0.664,4.193-0.931c1.508-0.289,3.014-0.528,4.513-0.717c1.693-0.213,3.377-0.363,5.044-0.448
				c2.088-0.109,4.15-0.117,6.175-0.026c11.662,0.523,22.041,4.342,28.549,11.395c2.46,2.664,4.196,5.607,5.249,8.721
				L121.841,65.332z"/>
		</g>
	</g>
</g>
</svg>
