<?xml version="1.0" encoding="utf-8"?>
<!-- Generator: Adobe Illustrator 16.0.0, SVG Export Plug-In . SVG Version: 6.00 Build 0)  -->
<!DOCTYPE svg PUBLIC "-//W3C//DTD SVG 1.1//EN" "http://www.w3.org/Graphics/SVG/1.1/DTD/svg11.dtd">
<svg version="1.1" id="Layer_1" xmlns="http://www.w3.org/2000/svg" xmlns:xlink="http://www.w3.org/1999/xlink" x="0px" y="0px"
	 width="163px" height="194px" viewBox="0 0 163 194" enable-background="new 0 0 163 194" xml:space="preserve">
<g display="none">
	<path display="inline" fill="#F7941E" d="M-117.256,198.11h417.348l0,0c0,18.618-26.592,33.709-59.392,33.709H-57.864
		C-90.666,231.82-117.256,216.729-117.256,198.11z"/>
	<g display="inline">
		<g enable-background="new    ">
			<linearGradient id="SVGID_1_" gradientUnits="userSpaceOnUse" x1="52.064" y1="89.2734" x2="175.8789" y2="89.2734">
				<stop  offset="0" style="stop-color:#F7941E"/>
				<stop  offset="0.057" style="stop-color:#F79723"/>
				<stop  offset="0.1286" style="stop-color:#F89E33"/>
				<stop  offset="0.2081" style="stop-color:#F9AA4D"/>
				<stop  offset="0.2932" style="stop-color:#FABB70"/>
				<stop  offset="0.3829" style="stop-color:#FCD19E"/>
				<stop  offset="0.4749" style="stop-color:#FEEBD6"/>
				<stop  offset="0.5363" style="stop-color:#FFFFFF"/>
				<stop  offset="0.5504" style="stop-color:#FFFAF2"/>
				<stop  offset="0.6077" style="stop-color:#FEE6C3"/>
				<stop  offset="0.6668" style="stop-color:#FDD69B"/>
				<stop  offset="0.727" style="stop-color:#FCC87A"/>
				<stop  offset="0.7886" style="stop-color:#FCBD60"/>
				<stop  offset="0.8522" style="stop-color:#FBB64E"/>
				<stop  offset="0.9191" style="stop-color:#FBB144"/>
				<stop  offset="0.9946" style="stop-color:#FBB040"/>
			</linearGradient>
			<path fill="url(#SVGID_1_)" d="M175.759,87.715c-0.043-0.477-0.095-0.954-0.155-1.425l-1.396-10.37
				c0.025,0.213,0.045,0.424,0.071,0.636c-1.575-13.819-12.38-26.252-30.577-32.519c-29.333-10.097-66.73-0.351-83.54,21.766
				c-6.643,8.744-9.058,18.109-7.761,26.862c-0.022-0.134-0.055-0.269-0.071-0.406l1.391,10.366
				c1.827,13.563,12.586,25.715,30.508,31.884c3.702,1.273,7.534,2.234,11.437,2.889c2.986,0.507,6.011,0.833,9.052,0.987
				c2.555,0.132,5.123,0.145,7.681,0.042c2.371-0.098,4.737-0.292,7.085-0.58c2.324-0.289,4.627-0.669,6.905-1.139
				c2.363-0.485,4.7-1.072,6.991-1.75c2.517-0.744,4.978-1.601,7.376-2.567c2.957-1.192,5.812-2.549,8.531-4.062
				c7.368-4.101,13.743-9.355,18.48-15.59c1.834-2.417,3.349-4.875,4.553-7.361c1.106-2.291,1.95-4.602,2.538-6.906
				c0.479-1.886,0.79-3.767,0.933-5.637C175.919,91.114,175.907,89.404,175.759,87.715z M174.362,77.35
				c0.014,0.153,0.011,0.312,0.021,0.466c-0.017-0.244-0.026-0.49-0.049-0.733C174.345,77.171,174.355,77.259,174.362,77.35z
				 M151.033,116.094c-0.173,0.106-0.334,0.217-0.505,0.322C150.699,116.311,150.86,116.2,151.033,116.094z M158.541,110.594
				c-0.284,0.242-0.57,0.482-0.858,0.72C157.971,111.077,158.257,110.836,158.541,110.594z M156.254,112.454
				c-0.287,0.22-0.572,0.443-0.864,0.662C155.682,112.897,155.967,112.674,156.254,112.454z M153.802,114.256
				c-0.267,0.187-0.528,0.375-0.798,0.558C153.273,114.631,153.535,114.443,153.802,114.256z M73.602,70.476
				c8.26-10.865,23.118-17.753,38.533-19.078c1.471-0.126,2.941-0.202,4.415-0.226c-1.474,0.024-2.944,0.1-4.415,0.226
				c-15.415,1.325-30.273,8.213-38.531,19.078c-7.861,10.351-7.876,21.857-1.444,30.869c1.287,1.802,2.83,3.503,4.622,5.076
				c-1.792-1.573-3.335-3.274-4.622-5.076C65.728,92.333,65.742,80.827,73.602,70.476z M76.888,121.748
				c-0.316-0.144-0.628-0.291-0.937-0.441C76.26,121.457,76.572,121.604,76.888,121.748z M74.055,120.344
				c-0.277-0.146-0.557-0.291-0.828-0.443C73.498,120.053,73.777,120.197,74.055,120.344z M71.134,118.682
				c-0.148-0.091-0.305-0.176-0.452-0.269C70.829,118.506,70.985,118.591,71.134,118.682z M68.255,116.794
				c-0.13-0.092-0.251-0.19-0.379-0.283C68.004,116.604,68.125,116.703,68.255,116.794z M66.026,115.105
				c-0.216-0.174-0.423-0.354-0.638-0.53C65.604,114.751,65.811,114.931,66.026,115.105z M52.84,95.037
				c-0.051-0.234-0.098-0.468-0.144-0.701C52.742,94.569,52.789,94.802,52.84,95.037z M58.164,106.826
				c-0.125-0.18-0.241-0.363-0.366-0.546C57.923,106.463,58.039,106.646,58.164,106.826z M56.796,104.724
				c-0.136-0.224-0.268-0.452-0.397-0.679C56.528,104.272,56.66,104.5,56.796,104.724z M55.569,102.512
				c-0.112-0.219-0.226-0.439-0.335-0.662C55.343,102.072,55.457,102.293,55.569,102.512z M54.429,100.029
				c-0.055-0.131-0.115-0.261-0.168-0.393C54.313,99.769,54.374,99.898,54.429,100.029z M53.453,97.337
				c-0.04-0.125-0.069-0.252-0.108-0.377C53.384,97.084,53.413,97.212,53.453,97.337z M61.423,110.834
				c0.153,0.167,0.318,0.328,0.477,0.495C61.741,111.162,61.576,111.001,61.423,110.834z M63.926,113.301
				c-0.213-0.192-0.421-0.385-0.625-0.578C63.505,112.916,63.713,113.109,63.926,113.301z M78.93,122.646
				c0.291,0.121,0.576,0.246,0.87,0.365C79.506,122.893,79.221,122.767,78.93,122.646z M89.156,125.978
				c-0.23-0.056-0.466-0.102-0.692-0.162C88.69,125.876,88.926,125.922,89.156,125.978z M94.183,127.019
				c0.113,0.021,0.229,0.036,0.341,0.054c-0.085-0.015-0.168-0.022-0.258-0.037C94.241,127.031,94.214,127.025,94.183,127.019z
				 M91.305,126.476c0.571,0.119,1.142,0.219,1.714,0.323C92.446,126.694,91.876,126.595,91.305,126.476z M103.15,128.006
				c0.293,0.017,0.589,0.025,0.884,0.034c-0.236-0.008-0.476-0.007-0.712-0.019C103.263,128.021,103.205,128.013,103.15,128.006z
				 M98.252,127.585c0.317,0.037,0.633,0.074,0.948,0.105C98.885,127.659,98.569,127.622,98.252,127.585z M106.646,128.115
				c0.385,0.002,0.774,0.002,1.16,0.002C107.421,128.118,107.031,128.118,106.646,128.115z M110.276,128.074
				c0.37-0.011,0.739-0.019,1.109-0.036c-0.127,0.006-0.254,0.017-0.38,0.024C110.762,128.072,110.518,128.067,110.276,128.074z
				 M117.957,127.494c0.238-0.03,0.477-0.067,0.716-0.097c-0.196,0.025-0.389,0.059-0.585,0.083
				C118.047,127.485,118.003,127.487,117.957,127.494z M113.79,127.893c0.297-0.022,0.599-0.037,0.896-0.061
				C114.389,127.855,114.087,127.87,113.79,127.893z M124.376,126.459c0.408-0.082,0.813-0.165,1.215-0.25
				c-0.199,0.042-0.397,0.096-0.6,0.135C124.788,126.388,124.582,126.418,124.376,126.459z M121.186,127.034
				c0.371-0.059,0.737-0.125,1.105-0.19C121.923,126.909,121.557,126.976,121.186,127.034z M131.54,124.714
				c0.169-0.049,0.339-0.09,0.51-0.142c-0.026,0.008-0.044,0.016-0.066,0.022C131.837,124.638,131.688,124.672,131.54,124.714z
				 M127.798,125.704c0.348-0.084,0.697-0.164,1.039-0.251C128.495,125.54,128.146,125.62,127.798,125.704z M138.832,122.222
				c0.264-0.104,0.53-0.208,0.795-0.316c-0.091,0.039-0.178,0.083-0.27,0.118C139.186,122.096,139.003,122.153,138.832,122.222z
				 M135.392,123.497c0.296-0.102,0.591-0.21,0.889-0.316C135.982,123.286,135.688,123.395,135.392,123.497z M144.118,119.909
				c-0.227,0.109-0.451,0.22-0.68,0.327C143.667,120.129,143.892,120.018,144.118,119.909z M159.88,109.409
				c0.271-0.247,0.546-0.494,0.812-0.746C160.426,108.915,160.151,109.162,159.88,109.409z M161.989,107.387
				c0.244-0.246,0.489-0.488,0.726-0.736C162.479,106.898,162.233,107.141,161.989,107.387z M166.372,102.375
				c0.491-0.647,0.954-1.299,1.399-1.952C167.326,101.076,166.863,101.728,166.372,102.375z M164.04,105.192
				c0.188-0.213,0.385-0.421,0.569-0.636C164.425,104.771,164.229,104.979,164.04,105.192z M170.624,95.588
				c0.206-0.41,0.405-0.817,0.592-1.224c-0.1,0.216-0.19,0.434-0.293,0.651C170.83,95.206,170.722,95.396,170.624,95.588z
				 M168.244,99.702c0.272-0.419,0.547-0.839,0.801-1.257C168.791,98.863,168.517,99.283,168.244,99.702z M169.528,97.615
				c0.226-0.391,0.445-0.782,0.656-1.173C169.974,96.833,169.754,97.225,169.528,97.615z M171.547,93.641
				c0.203-0.469,0.394-0.941,0.577-1.412C171.94,92.7,171.75,93.169,171.547,93.641z M173.135,89.269
				c0.14-0.474,0.268-0.948,0.383-1.423c-0.021,0.088-0.033,0.174-0.054,0.262C173.365,88.496,173.247,88.882,173.135,89.269z
				 M172.344,91.677c0.239-0.647,0.461-1.294,0.659-1.945C172.805,90.383,172.584,91.03,172.344,91.677z M174.358,82.743
				c0.022-0.257,0.037-0.513,0.05-0.767c-0.01,0.164-0.002,0.327-0.017,0.493C174.385,82.559,174.367,82.65,174.358,82.743z
				 M174.051,85.301c0.006-0.042,0.011-0.085,0.017-0.129C174.062,85.216,174.057,85.258,174.051,85.301z M174.468,80.348
				c0.003-0.275,0.004-0.547-0.002-0.823C174.472,79.801,174.471,80.073,174.468,80.348z"/>
			<path fill="#F15A29" d="M158.627,77.867c-1.361-10.114-9.352-19.16-22.676-23.746c-2.748-0.947-5.588-1.658-8.482-2.146
				c-2.217-0.373-4.465-0.615-6.724-0.733c-1.901-0.096-3.808-0.104-5.711-0.028c-1.765,0.072-3.524,0.216-5.276,0.432
				c-1.724,0.211-3.442,0.495-5.14,0.848c-1.768,0.363-3.508,0.8-5.223,1.308c-1.878,0.555-3.721,1.193-5.513,1.916
				c-2.213,0.891-4.354,1.914-6.393,3.046c-5.531,3.081-10.327,7.026-13.889,11.712c-1.377,1.816-2.515,3.67-3.42,5.537
				c-0.834,1.718-1.466,3.454-1.906,5.187c-0.363,1.412-0.594,2.83-0.7,4.234c-0.097,1.288-0.089,2.568,0.021,3.833
				c0.031,0.356,0.07,0.715,0.118,1.07l1.397,10.363c-0.047-0.352-0.089-0.708-0.122-1.063c-0.107-1.27-0.117-2.548-0.021-3.836
				c0.109-1.406,0.338-2.818,0.701-4.233c0.441-1.733,1.073-3.468,1.908-5.19c0.904-1.866,2.04-3.72,3.42-5.534
				c3.562-4.687,8.352-8.632,13.889-11.712c2.035-1.136,4.175-2.153,6.394-3.045c1.788-0.725,3.63-1.363,5.51-1.923
				c1.712-0.502,3.457-0.939,5.221-1.305c1.699-0.351,3.417-0.636,5.146-0.846c1.747-0.219,3.509-0.359,5.271-0.435
				c1.901-0.075,3.815-0.064,5.711,0.031c2.258,0.119,4.506,0.362,6.725,0.733c2.894,0.488,5.739,1.201,8.482,2.148
				c13.324,4.584,21.315,13.63,22.675,23.742L158.627,77.867z"/>
		</g>
		<g enable-background="new    ">
			
				<linearGradient id="SVGID_2_" gradientUnits="userSpaceOnUse" x1="38.1567" y1="162.3691" x2="159.2852" y2="162.3691" gradientTransform="matrix(0.9876 -0.1572 0.1572 0.9876 -63.9362 -33.7851)">
				<stop  offset="0" style="stop-color:#F7941E"/>
				<stop  offset="0.057" style="stop-color:#F79723"/>
				<stop  offset="0.1286" style="stop-color:#F89E33"/>
				<stop  offset="0.2081" style="stop-color:#F9AA4D"/>
				<stop  offset="0.2932" style="stop-color:#FABB70"/>
				<stop  offset="0.3829" style="stop-color:#FCD19E"/>
				<stop  offset="0.4749" style="stop-color:#FEEBD6"/>
				<stop  offset="0.5363" style="stop-color:#FFFFFF"/>
				<stop  offset="0.5504" style="stop-color:#FFFAF2"/>
				<stop  offset="0.6077" style="stop-color:#FEE6C3"/>
				<stop  offset="0.6668" style="stop-color:#FDD69B"/>
				<stop  offset="0.727" style="stop-color:#FCC87A"/>
				<stop  offset="0.7886" style="stop-color:#FCBD60"/>
				<stop  offset="0.8522" style="stop-color:#FBB64E"/>
				<stop  offset="0.9191" style="stop-color:#FBB144"/>
				<stop  offset="0.9946" style="stop-color:#FBB040"/>
			</linearGradient>
			<path fill="url(#SVGID_2_)" d="M118.543,100.03c-0.113-0.454-0.24-0.907-0.371-1.352l-2.945-9.805
				c0.063,0.202,0.112,0.403,0.165,0.604c-3.644-13.107-15.996-23.459-34.538-26.713c-29.892-5.243-64.525,9.928-77.361,33.879
				c-5.071,9.469-5.968,18.887-3.367,27.146c-0.041-0.129-0.091-0.251-0.133-0.381l2.943,9.802
				c3.85,12.823,16.114,22.906,34.377,26.111c3.772,0.66,7.622,0.999,11.491,1.032c2.962,0.03,5.938-0.123,8.899-0.441
				c2.487-0.263,4.971-0.646,7.424-1.14c2.279-0.457,4.533-1.01,6.759-1.649c2.197-0.637,4.367-1.358,6.496-2.163
				c2.209-0.831,4.374-1.756,6.484-2.766c2.315-1.105,4.563-2.31,6.729-3.616c2.67-1.605,5.227-3.355,7.616-5.234
				c6.49-5.099,11.841-11.153,15.457-17.906c1.402-2.618,2.486-5.225,3.266-7.813c0.72-2.385,1.18-4.745,1.393-7.063
				c0.173-1.896,0.185-3.763,0.029-5.592C119.22,103.291,118.948,101.639,118.543,100.03z M115.599,90.232
				c0.038,0.146,0.059,0.299,0.093,0.447c-0.054-0.232-0.1-0.47-0.16-0.7C115.549,90.064,115.576,90.145,115.599,90.232z
				 M99.021,131.253c-0.149,0.128-0.292,0.259-0.436,0.386C98.729,131.512,98.871,131.381,99.021,131.253z M105.425,124.783
				c-0.235,0.278-0.474,0.553-0.719,0.829C104.951,125.336,105.189,125.061,105.425,124.783z M103.504,126.932
				c-0.247,0.258-0.486,0.517-0.735,0.772C103.018,127.449,103.257,127.19,103.504,126.932z M101.409,129.049
				c-0.229,0.222-0.453,0.445-0.687,0.663C100.956,129.494,101.181,129.271,101.409,129.049z M17.199,99.091
				c6.304-11.769,19.6-20.707,34.293-24.359c1.396-0.348,2.809-0.649,4.228-0.897c-1.419,0.248-2.833,0.549-4.228,0.897
				C36.798,78.384,23.503,87.322,17.199,99.091c-6.005,11.209-4.25,22.326,3.349,30.043c1.522,1.543,3.276,2.952,5.248,4.195
				c-1.972-1.243-3.725-2.651-5.248-4.195C12.949,121.417,11.192,110.3,17.199,99.091z M28.252,148.122
				c-0.324-0.092-0.646-0.186-0.967-0.286C27.606,147.936,27.928,148.031,28.252,148.122z M25.302,147.2
				c-0.29-0.099-0.58-0.197-0.867-0.301C24.723,147.003,25.013,147.101,25.302,147.2z M22.225,146.042
				c-0.155-0.063-0.32-0.124-0.475-0.189C21.905,145.919,22.07,145.979,22.225,146.042z M19.153,144.661
				c-0.138-0.067-0.271-0.145-0.41-0.213C18.883,144.517,19.017,144.594,19.153,144.661z M16.739,143.372
				c-0.231-0.136-0.463-0.275-0.693-0.412C16.276,143.097,16.507,143.236,16.739,143.372z M0.913,126.012
				c-0.085-0.218-0.162-0.436-0.246-0.655C0.751,125.577,0.827,125.794,0.913,126.012z M7.873,136.583
				c-0.148-0.154-0.289-0.313-0.438-0.469C7.584,136.27,7.724,136.428,7.873,136.583z M6.229,134.764
				c-0.171-0.197-0.329-0.395-0.489-0.597C5.9,134.369,6.058,134.567,6.229,134.764z M4.704,132.816
				c-0.144-0.196-0.289-0.391-0.427-0.59C4.415,132.425,4.56,132.621,4.704,132.816z M3.214,130.593
				c-0.071-0.119-0.147-0.236-0.22-0.356C3.067,130.357,3.143,130.474,3.214,130.593z M1.861,128.143
				c-0.061-0.116-0.106-0.235-0.161-0.35C1.755,127.908,1.801,128.027,1.861,128.143z M11.634,139.956
				c0.178,0.138,0.361,0.269,0.539,0.403C11.995,140.225,11.813,140.093,11.634,139.956z M14.435,141.952
				c-0.232-0.153-0.465-0.305-0.693-0.462C13.969,141.647,14.202,141.799,14.435,141.952z M30.37,148.673
				c0.298,0.072,0.592,0.15,0.894,0.219C30.962,148.823,30.668,148.745,30.37,148.673z M40.758,150.318
				c-0.23-0.016-0.461-0.024-0.691-0.047C40.297,150.294,40.528,150.302,40.758,150.318z M45.781,150.553
				c0.109,0.001,0.222-0.005,0.334-0.003c-0.084-0.001-0.171,0.005-0.256,0.005C45.833,150.554,45.806,150.554,45.781,150.553z
				 M42.916,150.469c0.565,0.026,1.132,0.036,1.702,0.05C44.048,150.505,43.479,150.497,42.916,150.469z M54.588,150.127
				c0.29-0.028,0.577-0.069,0.865-0.101c-0.233,0.028-0.462,0.063-0.694,0.089C54.703,150.122,54.646,150.123,54.588,150.127z
				 M49.795,150.473c0.308-0.013,0.62-0.026,0.931-0.043C50.416,150.447,50.108,150.46,49.795,150.473z M57.984,149.692
				c0.376-0.055,0.752-0.114,1.124-0.176C58.736,149.578,58.36,149.637,57.984,149.692z M61.486,149.096
				c0.357-0.069,0.711-0.133,1.065-0.206c-0.12,0.025-0.242,0.058-0.362,0.081C61.955,149.019,61.719,149.05,61.486,149.096z
				 M68.819,147.353c0.227-0.066,0.448-0.136,0.676-0.203c-0.182,0.054-0.367,0.118-0.55,0.171
				C68.901,147.331,68.858,147.341,68.819,147.353z M64.854,148.379c0.283-0.066,0.572-0.127,0.856-0.197
				C65.426,148.252,65.137,148.313,64.854,148.379z M74.861,145.366c0.381-0.141,0.758-0.283,1.137-0.429
				c-0.189,0.072-0.371,0.153-0.56,0.224C75.245,145.234,75.053,145.295,74.861,145.366z M71.867,146.413
				c0.347-0.113,0.694-0.233,1.041-0.353C72.558,146.179,72.214,146.299,71.867,146.413z M81.515,142.579
				c0.154-0.074,0.312-0.141,0.466-0.214c-0.021,0.009-0.037,0.019-0.059,0.03C81.788,142.458,81.646,142.516,81.515,142.579z
				 M78.049,144.111c0.322-0.134,0.647-0.264,0.968-0.403C78.696,143.847,78.371,143.977,78.049,144.111z M88.173,139.05
				c0.24-0.143,0.484-0.284,0.721-0.429c-0.081,0.051-0.159,0.107-0.241,0.157C88.497,138.873,88.332,138.956,88.173,139.05z
				 M85.046,140.81c0.271-0.143,0.54-0.294,0.812-0.441C85.586,140.515,85.317,140.667,85.046,140.81z M92.923,136.001
				c-0.201,0.139-0.398,0.282-0.602,0.421C92.524,136.284,92.722,136.141,92.923,136.001z M106.542,123.433
				c0.222-0.28,0.447-0.561,0.665-0.846C106.989,122.872,106.764,123.153,106.542,123.433z M108.266,121.152
				c0.196-0.273,0.396-0.545,0.589-0.823C108.662,120.607,108.462,120.879,108.266,121.152z M111.729,115.638
				c0.375-0.701,0.721-1.402,1.054-2.101C112.449,114.236,112.101,114.937,111.729,115.638z M109.907,118.719
				c0.15-0.235,0.311-0.467,0.452-0.702C110.218,118.252,110.058,118.483,109.907,118.719z M114.792,108.427
				c0.139-0.427,0.264-0.85,0.384-1.275c-0.062,0.226-0.116,0.45-0.187,0.674C114.931,108.025,114.857,108.226,114.792,108.427z
				 M113.127,112.768c0.197-0.445,0.397-0.893,0.58-1.338C113.524,111.875,113.324,112.323,113.127,112.768z M114.044,110.554
				c0.158-0.41,0.312-0.825,0.455-1.236C114.355,109.729,114.202,110.144,114.044,110.554z M115.383,106.405
				c0.128-0.484,0.239-0.971,0.341-1.455C115.622,105.434,115.51,105.918,115.383,106.405z M116.247,101.936
				c0.061-0.48,0.111-0.958,0.151-1.434c-0.008,0.087-0.005,0.173-0.015,0.26C116.351,101.154,116.298,101.544,116.247,101.936z
				 M115.851,104.385c0.133-0.663,0.246-1.322,0.342-1.982C116.097,103.063,115.983,103.723,115.851,104.385z M116.427,95.443
				c-0.02-0.254-0.046-0.5-0.068-0.748c0.016,0.16,0.042,0.316,0.055,0.478C116.424,95.262,116.419,95.353,116.427,95.443z
				 M116.521,97.962c0-0.043-0.004-0.084-0.004-0.129C116.517,97.878,116.521,97.919,116.521,97.962z M116.161,93.112
				c-0.042-0.264-0.08-0.53-0.13-0.795C116.081,92.582,116.119,92.848,116.161,93.112z"/>
			<path fill="#F15A29" d="M100.48,93.153c-2.875-9.561-11.99-17.072-25.562-19.454c-2.802-0.491-5.657-0.741-8.53-0.77
				c-2.195-0.016-4.407,0.093-6.605,0.327c-1.851,0.201-3.696,0.487-5.521,0.851c-1.695,0.342-3.374,0.752-5.033,1.23
				c-1.634,0.47-3.25,1.008-4.837,1.61c-1.648,0.624-3.265,1.313-4.845,2.066c-1.728,0.826-3.408,1.726-5.028,2.699
				c-2.005,1.201-3.917,2.521-5.709,3.926c-4.872,3.829-8.893,8.379-11.612,13.452c-1.054,1.969-1.869,3.933-2.458,5.876
				c-0.538,1.788-0.881,3.561-1.045,5.303c-0.128,1.421-0.135,2.825-0.018,4.198c0.104,1.26,0.308,2.496,0.608,3.702
				c0.083,0.338,0.178,0.679,0.275,1.014l2.947,9.796c-0.1-0.332-0.197-0.671-0.279-1.01c-0.304-1.207-0.507-2.442-0.61-3.701
				c-0.114-1.376-0.105-2.774,0.022-4.198c0.161-1.742,0.507-3.516,1.048-5.309c0.585-1.94,1.399-3.907,2.451-5.871
				c2.722-5.077,6.743-9.623,11.616-13.453c1.792-1.408,3.705-2.721,5.707-3.921c1.618-0.976,3.303-1.877,5.032-2.707
				c1.575-0.748,3.191-1.438,4.841-2.066c1.588-0.598,3.199-1.14,4.84-1.607c1.655-0.48,3.335-0.887,5.026-1.231
				c1.828-0.363,3.674-0.651,5.521-0.847c2.201-0.236,4.411-0.346,6.609-0.328c2.871,0.026,5.729,0.276,8.528,0.771
				c13.578,2.378,22.688,9.888,25.557,19.45L100.48,93.153z"/>
		</g>
	</g>
	<path display="inline" fill="#F7941E" d="M232.331,5.158H-49.7c-6.56,0-11.878,7.421-11.878,16.576V194.44H244.21V21.734
		C244.21,12.579,238.891,5.158,232.331,5.158z M221.755,170.777H-38.92V35.776h260.675V170.777z"/>
	<circle display="inline" fill="#FFFFFF" cx="91.315" cy="18.422" r="3.761"/>
</g>
<g>
	<g enable-background="new    ">
		<g>
			<polygon fill="#AF6915" points="86.543,95.951 107.13,104.682 147.466,92.005 			"/>
			<polygon fill="#AF6915" points="127.145,23.063 106.557,14.331 33.799,22.303 54.92,98.739 15.534,98.447 36.122,107.179 
				75.506,107.471 54.387,31.034 			"/>
		</g>
		<polygon fill="#F7941E" points="107.13,104.682 147.466,92.005 89.404,176.508 15.534,98.447 75.506,107.471 54.387,31.034 
			127.145,23.063 		"/>
	</g>
</g>
</svg>
