<?xml version="1.0" encoding="utf-8"?>
<!-- Generator: Adobe Illustrator 16.0.0, SVG Export Plug-In . SVG Version: 6.00 Build 0)  -->
<!DOCTYPE svg PUBLIC "-//W3C//DTD SVG 1.1//EN" "http://www.w3.org/Graphics/SVG/1.1/DTD/svg11.dtd">
<svg version="1.1" id="Layer_1" xmlns="http://www.w3.org/2000/svg" xmlns:xlink="http://www.w3.org/1999/xlink" x="0px" y="0px"
	 width="467.567px" height="79.014px" viewBox="0 0 467.567 79.014" enable-background="new 0 0 467.567 79.014"
	 xml:space="preserve">
<g display="none">
	<path display="inline" fill="#F15A29" d="M420.864,19.714l-49.651,33.624l-64.456-39.189l-52.703,40.541L182.432,8.35
		L144.05,56.013L78.378,16.852L58.108,60.095l-41.26-25.676L-9.459,79.014h490.54"/>
</g>
<g>
	<path fill="#F15A29" d="M-2.595,41.176c0,0,8.813-7.264,16.344-7.796c8.301-0.587,22.642,8.286,43.464,5.679
		c20.824-2.603,58.129-35.067,81.959-35.721c23.826-0.65,56.716,27.9,81.667,29.662c25.094,1.771,25.094,1.771,51.233-2.5
		c26.132-4.269,43.568-25.33,67.464-27.174c23.896-1.845,50.966,26.06,68.576,27.109c17.606,1.049,24.793-10.747,39.409-10.747
		c6.635,0,22.883,9.736,22.883,9.662 M-2.595,41.176v37.838h473V29.35"/>
</g>
</svg>
