<?xml version="1.0" encoding="utf-8"?>
<!-- Generator: Adobe Illustrator 16.0.0, SVG Export Plug-In . SVG Version: 6.00 Build 0)  -->
<!DOCTYPE svg PUBLIC "-//W3C//DTD SVG 1.1//EN" "http://www.w3.org/Graphics/SVG/1.1/DTD/svg11.dtd">
<svg version="1.1" xmlns="http://www.w3.org/2000/svg" xmlns:xlink="http://www.w3.org/1999/xlink" x="0px" y="0px" width="510px"
	 height="215px" viewBox="0 0 510 215" enable-background="new 0 0 510 215" xml:space="preserve">
<g id="Layer_3">
</g>
<g id="Layer_5">
	<g>
		<g>
			<g opacity="0.3">
				<ellipse opacity="0" fill="#A6A8AB" cx="100.454" cy="188.418" rx="86.915" ry="10.787"/>
				<ellipse opacity="0.0099" fill="#A5A7AA" cx="100.454" cy="188.417" rx="86.169" ry="10.695"/>
				<ellipse opacity="0.0198" fill="#A3A5A8" cx="100.454" cy="188.418" rx="85.424" ry="10.602"/>
				<ellipse opacity="0.0297" fill="#A2A4A7" cx="100.454" cy="188.418" rx="84.678" ry="10.51"/>
				<ellipse opacity="0.0396" fill="#A1A3A5" cx="100.454" cy="188.418" rx="83.934" ry="10.417"/>
				<ellipse opacity="0.0495" fill="#A0A1A4" cx="100.454" cy="188.417" rx="83.188" ry="10.325"/>
				<ellipse opacity="0.0594" fill="#9EA0A3" cx="100.454" cy="188.418" rx="82.443" ry="10.232"/>
				<ellipse opacity="0.0693" fill="#9D9FA1" cx="100.454" cy="188.418" rx="81.698" ry="10.14"/>
				<ellipse opacity="0.0792" fill="#9C9DA0" cx="100.454" cy="188.418" rx="80.952" ry="10.047"/>
				<ellipse opacity="0.0891" fill="#9A9C9F" cx="100.454" cy="188.418" rx="80.207" ry="9.955"/>
				<ellipse opacity="0.099" fill="#999A9D" cx="100.454" cy="188.418" rx="79.462" ry="9.862"/>
				<ellipse opacity="0.1089" fill="#98999C" cx="100.454" cy="188.418" rx="78.717" ry="9.77"/>
				<ellipse opacity="0.1188" fill="#96989A" cx="100.454" cy="188.418" rx="77.971" ry="9.677"/>
				<ellipse opacity="0.1287" fill="#959699" cx="100.454" cy="188.418" rx="77.226" ry="9.584"/>
				<ellipse opacity="0.1386" fill="#949598" cx="100.454" cy="188.418" rx="76.48" ry="9.492"/>
				<ellipse opacity="0.1485" fill="#939496" cx="100.454" cy="188.418" rx="75.735" ry="9.399"/>
				<ellipse opacity="0.1584" fill="#919295" cx="100.454" cy="188.418" rx="74.99" ry="9.307"/>
				<ellipse opacity="0.1683" fill="#909194" cx="100.454" cy="188.418" rx="74.245" ry="9.214"/>
				<ellipse opacity="0.1782" fill="#8F9092" cx="100.454" cy="188.418" rx="73.499" ry="9.122"/>
				<ellipse opacity="0.1881" fill="#8D8E91" cx="100.454" cy="188.418" rx="72.754" ry="9.03"/>
				<ellipse opacity="0.198" fill="#8C8D8F" cx="100.454" cy="188.418" rx="72.009" ry="8.937"/>
				<ellipse opacity="0.2079" fill="#8B8C8E" cx="100.454" cy="188.418" rx="71.264" ry="8.845"/>
				<ellipse opacity="0.2178" fill="#898A8D" cx="100.454" cy="188.418" rx="70.518" ry="8.752"/>
				<ellipse opacity="0.2277" fill="#88898B" cx="100.454" cy="188.418" rx="69.773" ry="8.66"/>
				<ellipse opacity="0.2376" fill="#87878A" cx="100.454" cy="188.418" rx="69.028" ry="8.567"/>
				<ellipse opacity="0.2475" fill="#868689" cx="100.454" cy="188.418" rx="68.282" ry="8.475"/>
				<ellipse opacity="0.2574" fill="#848587" cx="100.454" cy="188.418" rx="67.537" ry="8.382"/>
				<ellipse opacity="0.2673" fill="#838386" cx="100.454" cy="188.418" rx="66.792" ry="8.29"/>
				<ellipse opacity="0.2772" fill="#828284" cx="100.454" cy="188.418" rx="66.046" ry="8.197"/>
				<ellipse opacity="0.2871" fill="#808183" cx="100.454" cy="188.418" rx="65.302" ry="8.104"/>
				<ellipse opacity="0.297" fill="#7F7F82" cx="100.454" cy="188.418" rx="64.556" ry="8.012"/>
				<ellipse opacity="0.3069" fill="#7E7E80" cx="100.454" cy="188.418" rx="63.811" ry="7.919"/>
				<ellipse opacity="0.3168" fill="#7C7D7F" cx="100.454" cy="188.418" rx="63.065" ry="7.827"/>
				<ellipse opacity="0.3267" fill="#7B7B7E" cx="100.454" cy="188.418" rx="62.32" ry="7.734"/>
				<ellipse opacity="0.3366" fill="#7A7A7C" cx="100.454" cy="188.418" rx="61.575" ry="7.642"/>
				<ellipse opacity="0.3465" fill="#79797B" cx="100.454" cy="188.418" rx="60.83" ry="7.549"/>
				<ellipse opacity="0.3564" fill="#777779" cx="100.454" cy="188.418" rx="60.084" ry="7.457"/>
				<ellipse opacity="0.3663" fill="#767678" cx="100.454" cy="188.418" rx="59.339" ry="7.365"/>
				<ellipse opacity="0.3762" fill="#757477" cx="100.454" cy="188.418" rx="58.594" ry="7.272"/>
				<ellipse opacity="0.3861" fill="#737375" cx="100.454" cy="188.418" rx="57.848" ry="7.18"/>
				<ellipse opacity="0.396" fill="#727274" cx="100.454" cy="188.418" rx="57.103" ry="7.087"/>
				<ellipse opacity="0.4059" fill="#717073" cx="100.454" cy="188.418" rx="56.358" ry="6.995"/>
				<ellipse opacity="0.4158" fill="#706F71" cx="100.454" cy="188.418" rx="55.612" ry="6.902"/>
				<ellipse opacity="0.4257" fill="#6E6E70" cx="100.454" cy="188.418" rx="54.867" ry="6.81"/>
				<ellipse opacity="0.4356" fill="#6D6C6E" cx="100.454" cy="188.418" rx="54.122" ry="6.717"/>
				<ellipse opacity="0.4455" fill="#6C6B6D" cx="100.454" cy="188.418" rx="53.376" ry="6.625"/>
				<ellipse opacity="0.4554" fill="#6A6A6C" cx="100.454" cy="188.418" rx="52.632" ry="6.532"/>
				<ellipse opacity="0.4653" fill="#69686A" cx="100.454" cy="188.418" rx="51.886" ry="6.439"/>
				<ellipse opacity="0.4752" fill="#686769" cx="100.454" cy="188.418" rx="51.141" ry="6.347"/>
				<ellipse opacity="0.4851" fill="#666668" cx="100.454" cy="188.418" rx="50.396" ry="6.254"/>
				<ellipse opacity="0.495" fill="#656466" cx="100.454" cy="188.418" rx="49.65" ry="6.162"/>
				<ellipse opacity="0.505" fill="#646365" cx="100.454" cy="188.418" rx="48.905" ry="6.069"/>
				<ellipse opacity="0.5149" fill="#636163" cx="100.454" cy="188.418" rx="48.16" ry="5.977"/>
				<ellipse opacity="0.5248" fill="#616062" cx="100.454" cy="188.418" rx="47.415" ry="5.885"/>
				<ellipse opacity="0.5347" fill="#605F61" cx="100.454" cy="188.418" rx="46.669" ry="5.792"/>
				<ellipse opacity="0.5446" fill="#5F5D5F" cx="100.454" cy="188.418" rx="45.924" ry="5.699"/>
				<ellipse opacity="0.5545" fill="#5D5C5E" cx="100.454" cy="188.418" rx="45.178" ry="5.607"/>
				<ellipse opacity="0.5644" fill="#5C5B5D" cx="100.454" cy="188.418" rx="44.433" ry="5.515"/>
				<ellipse opacity="0.5743" fill="#5B595B" cx="100.454" cy="188.418" rx="43.688" ry="5.422"/>
				<ellipse opacity="0.5842" fill="#59585A" cx="100.454" cy="188.418" rx="42.943" ry="5.329"/>
				<ellipse opacity="0.5941" fill="#585758" cx="100.454" cy="188.418" rx="42.198" ry="5.237"/>
				<ellipse opacity="0.604" fill="#575557" cx="100.454" cy="188.418" rx="41.452" ry="5.145"/>
				<ellipse opacity="0.6139" fill="#565456" cx="100.454" cy="188.418" rx="40.707" ry="5.052"/>
				<ellipse opacity="0.6238" fill="#545354" cx="100.454" cy="188.418" rx="39.961" ry="4.959"/>
				<ellipse opacity="0.6337" fill="#535153" cx="100.454" cy="188.418" rx="39.216" ry="4.867"/>
				<ellipse opacity="0.6436" fill="#525052" cx="100.454" cy="188.418" rx="38.471" ry="4.774"/>
				<ellipse opacity="0.6535" fill="#504E50" cx="100.454" cy="188.418" rx="37.726" ry="4.682"/>
				<ellipse opacity="0.6634" fill="#4F4D4F" cx="100.454" cy="188.418" rx="36.98" ry="4.589"/>
				<ellipse opacity="0.6733" fill="#4E4C4D" cx="100.454" cy="188.418" rx="36.235" ry="4.497"/>
				<ellipse opacity="0.6832" fill="#4D4A4C" cx="100.454" cy="188.418" rx="35.49" ry="4.404"/>
				<ellipse opacity="0.6931" fill="#4B494B" cx="100.454" cy="188.418" rx="34.745" ry="4.312"/>
				<ellipse opacity="0.703" fill="#4A4849" cx="100.454" cy="188.418" rx="34" ry="4.22"/>
				<ellipse opacity="0.7129" fill="#494648" cx="100.454" cy="188.418" rx="33.254" ry="4.127"/>
				<ellipse opacity="0.7228" fill="#474547" cx="100.454" cy="188.418" rx="32.508" ry="4.034"/>
				<ellipse opacity="0.7327" fill="#464445" cx="100.454" cy="188.418" rx="31.763" ry="3.942"/>
				<ellipse opacity="0.7426" fill="#454244" cx="100.454" cy="188.418" rx="31.018" ry="3.85"/>
				<ellipse opacity="0.7525" fill="#434142" cx="100.454" cy="188.418" rx="30.273" ry="3.757"/>
				<ellipse opacity="0.7624" fill="#424041" cx="100.454" cy="188.418" rx="29.527" ry="3.665"/>
				<ellipse opacity="0.7723" fill="#413E40" cx="100.454" cy="188.418" rx="28.782" ry="3.572"/>
				<ellipse opacity="0.7822" fill="#403D3E" cx="100.454" cy="188.418" rx="28.037" ry="3.479"/>
				<ellipse opacity="0.7921" fill="#3E3B3D" cx="100.454" cy="188.418" rx="27.292" ry="3.387"/>
				<ellipse opacity="0.802" fill="#3D3A3C" cx="100.454" cy="188.418" rx="26.546" ry="3.294"/>
				<ellipse opacity="0.8119" fill="#3C393A" cx="100.454" cy="188.418" rx="25.801" ry="3.202"/>
				<ellipse opacity="0.8218" fill="#3A3739" cx="100.454" cy="188.418" rx="25.056" ry="3.109"/>
				<ellipse opacity="0.8317" fill="#393637" cx="100.454" cy="188.418" rx="24.311" ry="3.017"/>
				<ellipse opacity="0.8416" fill="#383536" cx="100.453" cy="188.418" rx="23.565" ry="2.924"/>
				<ellipse opacity="0.8515" fill="#363335" cx="100.454" cy="188.418" rx="22.82" ry="2.832"/>
				<ellipse opacity="0.8614" fill="#353233" cx="100.454" cy="188.418" rx="22.075" ry="2.739"/>
				<ellipse opacity="0.8713" fill="#343132" cx="100.454" cy="188.418" rx="21.329" ry="2.647"/>
				<ellipse opacity="0.8812" fill="#332F31" cx="100.454" cy="188.418" rx="20.584" ry="2.554"/>
				<ellipse opacity="0.8911" fill="#312E2F" cx="100.453" cy="188.418" rx="19.839" ry="2.462"/>
				<ellipse opacity="0.901" fill="#302D2E" cx="100.454" cy="188.418" rx="19.094" ry="2.369"/>
				<ellipse opacity="0.9109" fill="#2F2B2C" cx="100.454" cy="188.418" rx="18.348" ry="2.277"/>
				<ellipse opacity="0.9208" fill="#2D2A2B" cx="100.454" cy="188.418" rx="17.603" ry="2.185"/>
				<ellipse opacity="0.9307" fill="#2C282A" cx="100.454" cy="188.418" rx="16.857" ry="2.092"/>
				<ellipse opacity="0.9406" fill="#2B2728" cx="100.454" cy="188.418" rx="16.113" ry="2"/>
				<ellipse opacity="0.9505" fill="#292627" cx="100.454" cy="188.418" rx="15.367" ry="1.907"/>
				<ellipse opacity="0.9604" fill="#282426" cx="100.453" cy="188.418" rx="14.622" ry="1.814"/>
				<ellipse opacity="0.9703" fill="#272324" cx="100.454" cy="188.418" rx="13.876" ry="1.722"/>
				<ellipse opacity="0.9802" fill="#262223" cx="100.454" cy="188.418" rx="13.131" ry="1.629"/>
				<ellipse opacity="0.9901" fill="#242021" cx="100.454" cy="188.418" rx="12.386" ry="1.537"/>
				<ellipse fill="#231F20" cx="100.454" cy="188.418" rx="11.641" ry="1.444"/>
			</g>
			<g>
				<g>
					<linearGradient id="SVGID_1_" gradientUnits="userSpaceOnUse" x1="303.4121" y1="-67.1724" x2="78.2577" y2="108.2729">
						<stop  offset="0" style="stop-color:#FAAF40"/>
						<stop  offset="0.5222" style="stop-color:#F16522"/>
						<stop  offset="1" style="stop-color:#E23D21"/>
					</linearGradient>
					<path fill="url(#SVGID_1_)" d="M63.557,40.526h0.002c3.777,0,7.399,1.503,10.067,4.177l40.115,41.739
						c1.129,1.245,3.087,1.245,4.215,0l37.84-39.383c-14.13-17.807-35.944-29.241-60.442-29.241
						c-42.602,0-77.137,34.535-77.137,77.137c0,42.601,34.535,77.136,77.137,77.136c20.021,0,38.257-7.629,51.968-20.136V98.49
						c0-1.268-1.534-1.902-2.43-1.005l-24.766,28.458c-2.268,2.606-6.314,2.606-8.582,0L86.778,97.485
						c-0.895-0.897-2.429-0.263-2.429,1.005v55.173c-15.449,0-27.974-10.291-27.974-25.74V47.708
						C56.375,43.742,59.591,40.526,63.557,40.526z"/>
					<linearGradient id="SVGID_2_" gradientUnits="userSpaceOnUse" x1="349.9697" y1="-7.4204" x2="124.8155" y2="168.0247">
						<stop  offset="0" style="stop-color:#FAAF40"/>
						<stop  offset="0.5222" style="stop-color:#F16522"/>
						<stop  offset="1" style="stop-color:#E23D21"/>
					</linearGradient>
					<path fill="url(#SVGID_2_)" d="M186.44,113.642h-18.243c-2.402,0-4.351,1.948-4.351,4.35v18.243
						c0,2.403,1.948,4.351,4.351,4.351h18.243c2.403,0,4.351-1.948,4.351-4.351v-18.243
						C190.791,115.589,188.843,113.642,186.44,113.642z"/>
					<linearGradient id="SVGID_3_" gradientUnits="userSpaceOnUse" x1="328.5225" y1="-35.377" x2="103.3738" y2="140.0638">
						<stop  offset="0" style="stop-color:#FAAF40"/>
						<stop  offset="0.5222" style="stop-color:#F16522"/>
						<stop  offset="1" style="stop-color:#E23D21"/>
					</linearGradient>
					<path fill="url(#SVGID_3_)" d="M172.595,91.457h12.557c2.179,0,3.944-1.766,3.944-3.944V74.955
						c0-2.178-1.766-3.944-3.944-3.944h-12.557c-2.179,0-3.945,1.766-3.945,3.944v12.558
						C168.65,89.69,170.417,91.457,172.595,91.457z"/>
					<linearGradient id="SVGID_4_" gradientUnits="userSpaceOnUse" x1="345.0078" y1="-12.2363" x2="119.8528" y2="163.2094">
						<stop  offset="0" style="stop-color:#FAAF40"/>
						<stop  offset="0.5222" style="stop-color:#F16522"/>
						<stop  offset="1" style="stop-color:#E23D21"/>
					</linearGradient>
					<path fill="url(#SVGID_4_)" d="M203.91,93.79h-10.341c-1.534,0-2.778,1.243-2.778,2.778v10.342
						c0,1.534,1.244,2.778,2.778,2.778h10.341c1.535,0,2.778-1.244,2.778-2.778V96.567C206.688,95.033,205.445,93.79,203.91,93.79z"
						/>
					<linearGradient id="SVGID_5_" gradientUnits="userSpaceOnUse" x1="324.5586" y1="-40.0313" x2="99.4045" y2="135.4138">
						<stop  offset="0" style="stop-color:#FAAF40"/>
						<stop  offset="0.5222" style="stop-color:#F16522"/>
						<stop  offset="1" style="stop-color:#E23D21"/>
					</linearGradient>
					<path fill="url(#SVGID_5_)" d="M191.104,66.925h7.388c1.187,0,2.149-0.962,2.149-2.15v-7.387c0-1.188-0.963-2.15-2.149-2.15
						h-7.388c-1.188,0-2.149,0.962-2.149,2.15v7.387C188.955,65.963,189.917,66.925,191.104,66.925z"/>
				</g>
				<g>
					<linearGradient id="SVGID_6_" gradientUnits="userSpaceOnUse" x1="208.8506" y1="8.96" x2="103.584" y2="183.7546">
						<stop  offset="0" style="stop-color:#FAAF40"/>
						<stop  offset="0.5222" style="stop-color:#F16522"/>
						<stop  offset="1" style="stop-color:#E23D21"/>
					</linearGradient>
					<path fill="url(#SVGID_6_)" d="M115.835,131.468c-0.261,0-0.512-0.061-0.77-0.083c4.049,10.027,6.701,20.716,7.703,31.829
						c7.603-3.054,14.703-7.368,20.982-12.858v-46.122l-20.933,24.055C121.06,130.31,118.513,131.468,115.835,131.468z"/>
					<linearGradient id="SVGID_7_" gradientUnits="userSpaceOnUse" x1="141.8721" y1="-31.3765" x2="36.6056" y2="143.418">
						<stop  offset="0" style="stop-color:#FAAF40"/>
						<stop  offset="0.5222" style="stop-color:#F16522"/>
						<stop  offset="1" style="stop-color:#E23D21"/>
					</linearGradient>
					<path fill="url(#SVGID_7_)" d="M95.354,21.389c-28.359,0-53.006,16.141-65.28,39.708c7.874,1.511,15.487,3.831,22.733,6.907
						V47.709c0-5.929,4.822-10.755,10.753-10.755c4.688,0,9.279,1.905,12.64,5.277l39.648,41.251l35.168-36.603
						C137,30.64,116.888,21.389,95.354,21.389z"/>
					<linearGradient id="SVGID_8_" gradientUnits="userSpaceOnUse" x1="237.9292" y1="26.4712" x2="132.6615" y2="201.2678">
						<stop  offset="0" style="stop-color:#FAAF40"/>
						<stop  offset="0.5222" style="stop-color:#F16522"/>
						<stop  offset="1" style="stop-color:#E23D21"/>
					</linearGradient>
					<path fill="url(#SVGID_8_)" d="M186.44,115.979h-18.243c-1.107,0-2.01,0.906-2.01,2.014v18.241c0,1.108,0.902,2.014,2.01,2.014
						h18.243c1.108,0,2.011-0.906,2.011-2.014v-18.241C188.451,116.886,187.548,115.979,186.44,115.979z"/>
					<linearGradient id="SVGID_9_" gradientUnits="userSpaceOnUse" x1="218.5205" y1="15.4023" x2="113.2541" y2="190.1967">
						<stop  offset="0" style="stop-color:#FAAF40"/>
						<stop  offset="0.5222" style="stop-color:#F16522"/>
						<stop  offset="1" style="stop-color:#E23D21"/>
					</linearGradient>
					<path fill="url(#SVGID_9_)" d="M172.594,89.12h12.559c0.886,0,1.604-0.724,1.604-1.607V74.957c0-0.883-0.719-1.607-1.604-1.607
						h-12.559c-0.885,0-1.604,0.724-1.604,1.607v12.557C170.99,88.396,171.709,89.12,172.594,89.12z"/>
					<linearGradient id="SVGID_10_" gradientUnits="userSpaceOnUse" x1="241.7461" y1="30.3262" x2="136.4791" y2="205.1215">
						<stop  offset="0" style="stop-color:#FAAF40"/>
						<stop  offset="0.5222" style="stop-color:#F16522"/>
						<stop  offset="1" style="stop-color:#E23D21"/>
					</linearGradient>
					<path fill="url(#SVGID_10_)" d="M203.911,96.125H193.57c-0.242,0-0.44,0.198-0.44,0.442v10.341c0,0.244,0.198,0.441,0.44,0.441
						h10.341c0.241,0,0.438-0.198,0.438-0.441V96.567C204.348,96.323,204.152,96.125,203.911,96.125z"/>
					<linearGradient id="SVGID_11_" gradientUnits="userSpaceOnUse" x1="221.6611" y1="16.2305" x2="115.6891" y2="192.1965">
						<stop  offset="0" style="stop-color:#FAAF40"/>
						<stop  offset="0.5222" style="stop-color:#F16522"/>
						<stop  offset="1" style="stop-color:#E23D21"/>
					</linearGradient>
					<rect x="191.104" y="57.388" fill="url(#SVGID_11_)" width="7.204" height="7.2"/>
				</g>
			</g>
		</g>
	</g>
	<text transform="matrix(1 0 0 1 374.7646 121.9468)" fill="#E8E6E6" font-family="'Neon80s'" font-size="113.8469">ex</text>
	<g>
		<linearGradient id="SVGID_12_" gradientUnits="userSpaceOnUse" x1="222.9082" y1="85.6816" x2="269.3579" y2="85.6816">
			<stop  offset="0" style="stop-color:#F7941E"/>
			<stop  offset="0.1987" style="stop-color:#F78F1F"/>
			<stop  offset="0.4337" style="stop-color:#F58124"/>
			<stop  offset="0.6871" style="stop-color:#F3692A"/>
			<stop  offset="0.9519" style="stop-color:#F04834"/>
			<stop  offset="1" style="stop-color:#EF4136"/>
		</linearGradient>
		<path fill="url(#SVGID_12_)" d="M247.738,90.39c-1.042,0.169-2.111,0.253-3.209,0.253h-13.006v21.029
			c0,1.183-0.422,2.196-1.267,3.041c-0.845,0.844-1.858,1.267-3.041,1.267s-2.196-0.422-3.041-1.267
			c-0.844-0.845-1.267-1.858-1.267-3.041V59.733c0-1.183,0.422-2.196,1.267-3.041c0.845-0.844,1.858-1.267,3.041-1.267l17.313-0.042
			c4.87,0,9.029,1.718,12.479,5.152c3.448,3.435,5.172,7.587,5.172,12.457c0,4.871-1.717,9.023-5.152,12.457
			c-0.479,0.479-0.943,0.901-1.393,1.267l13.133,22.803c0.394,0.676,0.591,1.366,0.591,2.069c0,0.395-0.057,0.789-0.168,1.183
			c-0.311,1.154-0.986,2.026-2.027,2.618c-0.676,0.395-1.366,0.591-2.069,0.591c-0.395,0-0.789-0.056-1.183-0.169
			c-1.155-0.31-2.027-0.971-2.618-1.985L247.738,90.39z M244.528,63.871h-13.006v18.285h13.006c2.534,0,4.694-0.894,6.482-2.682
			c1.788-1.788,2.682-3.948,2.682-6.482c0-2.505-0.894-4.652-2.682-6.439C249.222,64.765,247.062,63.871,244.528,63.871z"/>
		<linearGradient id="SVGID_13_" gradientUnits="userSpaceOnUse" x1="272.8633" y1="94.9082" x2="310.1494" y2="94.9082">
			<stop  offset="0" style="stop-color:#F7941E"/>
			<stop  offset="0.1987" style="stop-color:#F78F1F"/>
			<stop  offset="0.4337" style="stop-color:#F58124"/>
			<stop  offset="0.6871" style="stop-color:#F3692A"/>
			<stop  offset="0.9519" style="stop-color:#F04834"/>
			<stop  offset="1" style="stop-color:#EF4136"/>
		</linearGradient>
		<path fill="url(#SVGID_13_)" d="M299.043,83.422c-1.548-0.704-3.251-1.056-5.109-1.056c-3.462,0-6.418,1.218-8.867,3.652
			c-2.45,2.436-3.674,5.384-3.674,8.847c0,3.462,1.224,6.418,3.674,8.867c2.449,2.449,5.405,3.674,8.867,3.674
			c3.435,0,6.376-1.21,8.826-3.632c0.028-0.028,0.057-0.056,0.084-0.084c0.817-0.816,1.816-1.225,2.999-1.225
			c1.182,0,2.195,0.416,3.04,1.246c0.845,0.831,1.267,1.837,1.267,3.02c0,1.182-0.422,2.196-1.267,3.04
			c-0.028,0.029-0.057,0.057-0.084,0.084c-4.083,4.082-9.037,6.123-14.865,6.123c-5.827,0-10.796-2.055-14.906-6.165
			c-4.11-4.11-6.165-9.079-6.165-14.907c0-5.827,2.055-10.795,6.165-14.906c4.109-4.11,9.079-6.165,14.906-6.165
			c5.828,0,10.782,2.041,14.865,6.123l-0.043,0.042c0,0.028,0.015,0.042,0.043,0.042c0.816,0.816,1.224,1.815,1.224,2.998
			c0,1.155-0.407,2.14-1.224,2.956l-12.078,11.993c-0.844,0.817-1.858,1.225-3.041,1.225c-1.21,0-2.237-0.408-3.083-1.225
			c-0.817-0.845-1.224-1.872-1.224-3.083c0-1.182,0.407-2.195,1.224-3.04L299.043,83.422z"/>
		<linearGradient id="SVGID_14_" gradientUnits="userSpaceOnUse" x1="319.1865" y1="88.6582" x2="327.8008" y2="88.6582">
			<stop  offset="0" style="stop-color:#F7941E"/>
			<stop  offset="0.1987" style="stop-color:#F78F1F"/>
			<stop  offset="0.4337" style="stop-color:#F58124"/>
			<stop  offset="0.6871" style="stop-color:#F3692A"/>
			<stop  offset="0.9519" style="stop-color:#F04834"/>
			<stop  offset="1" style="stop-color:#EF4136"/>
		</linearGradient>
		<path fill="url(#SVGID_14_)" d="M326.533,62.604c0.845,0.845,1.268,1.858,1.268,3.04v46.028c0,1.183-0.423,2.196-1.268,3.041
			c-0.844,0.844-1.857,1.267-3.04,1.267s-2.195-0.422-3.04-1.267c-0.845-0.845-1.267-1.858-1.267-3.041V65.645
			c0-1.182,0.422-2.195,1.267-3.04s1.857-1.267,3.04-1.267S325.689,61.76,326.533,62.604z"/>
	</g>
	<linearGradient id="SVGID_15_" gradientUnits="userSpaceOnUse" x1="343.2783" y1="91.4561" x2="357.0928" y2="91.4561">
		<stop  offset="0" style="stop-color:#F7941E"/>
		<stop  offset="0.1987" style="stop-color:#F78F1F"/>
		<stop  offset="0.4337" style="stop-color:#F58124"/>
		<stop  offset="0.6871" style="stop-color:#F3692A"/>
		<stop  offset="0.9519" style="stop-color:#F04834"/>
		<stop  offset="1" style="stop-color:#EF4136"/>
	</linearGradient>
	<circle fill="url(#SVGID_15_)" cx="350.186" cy="91.456" r="6.907"/>
</g>
</svg>
