<?xml version="1.0" encoding="utf-8"?>
<!-- Generator: Adobe Illustrator 16.0.0, SVG Export Plug-In . SVG Version: 6.00 Build 0)  -->
<!DOCTYPE svg PUBLIC "-//W3C//DTD SVG 1.1//EN" "http://www.w3.org/Graphics/SVG/1.1/DTD/svg11.dtd">
<svg version="1.1" id="Layer_1" xmlns="http://www.w3.org/2000/svg" xmlns:xlink="http://www.w3.org/1999/xlink" x="0px" y="0px"
	 width="192px" height="40.333px" viewBox="210 376.5 192 40.333" enable-background="new 210 376.5 192 40.333"
	 xml:space="preserve">
<rect x="50" y="140" display="none" width="512" height="512"/>
<g>
	
		<g id="_x33_5703a85-e0f8-4818-9682-3057cc22a658" transform="matrix(1.3260060363889863,0,0,1.3260060363889863,118.91295807597078,126.70678904259813)">
		<path fill="#FAFAFA" d="M120.758,201.33v-8.167h5.225v1.45h-3.7v1.733h2.874v1.45h-2.874v2.084h3.817v1.45H120.758z M126.6,201.33
			l1.941-2.917l-1.941-2.916h1.725l1.066,1.691l0.974-1.691h1.734l-1.941,2.916l1.941,2.917h-1.734l-1.058-1.693l-0.983,1.693H126.6
			z M135.6,201.445L135.6,201.445c-0.65,0-1.205-0.132-1.667-0.398l0,0l0,0c-0.461-0.273-0.808-0.637-1.041-1.093l0,0l0,0
			c-0.233-0.461-0.35-0.972-0.35-1.533l0,0l0,0c0-0.567,0.116-1.081,0.35-1.541l0,0l0,0c0.233-0.461,0.583-0.828,1.049-1.101l0,0
			l0,0c0.468-0.266,1.033-0.4,1.701-0.4l0,0l0,0c0.599,0,1.122,0.125,1.566,0.376l0,0l-0.116,1.167l0,0
			c-0.422-0.217-0.858-0.325-1.308-0.325l0,0l0,0c-0.549,0-0.98,0.166-1.292,0.499l0,0l0,0c-0.311,0.334-0.467,0.775-0.467,1.325
			l0,0l0,0c0,0.533,0.159,0.972,0.476,1.316l0,0l0,0c0.316,0.344,0.741,0.517,1.274,0.517l0,0l0,0c0.439,0,0.88-0.129,1.325-0.383
			l0,0l0.134,1.224l0,0c-0.211,0.112-0.458,0.198-0.742,0.258l0,0l0,0C136.208,201.416,135.911,201.445,135.6,201.445L135.6,201.445
			z M141.142,195.404L141.142,195.404c0.738,0,1.288,0.239,1.649,0.717l0,0l0,0c0.361,0.478,0.543,1.133,0.543,1.967l0,0v3.242
			h-1.451v-3.142l0,0c0-0.549-0.089-0.952-0.267-1.208l0,0l0,0c-0.177-0.256-0.461-0.383-0.851-0.383l0,0l0,0
			c-0.46,0-0.838,0.166-1.133,0.499l0,0v4.234h-1.45v-8.75h1.45v3.292l0,0c0.233-0.15,0.469-0.267,0.708-0.35l0,0l0,0
			C140.586,195.443,140.852,195.404,141.142,195.404L141.142,195.404z M145.884,201.445L145.884,201.445
			c-0.479,0-0.878-0.158-1.2-0.474l0,0l0,0c-0.328-0.312-0.492-0.736-0.492-1.276l0,0l0,0c0-0.505,0.183-0.91,0.55-1.216l0,0l0,0
			c0.368-0.311,0.8-0.531,1.301-0.658l0,0l0,0c0.494-0.128,0.972-0.2,1.433-0.218l0,0l0,0c-0.018-0.338-0.107-0.583-0.267-0.733l0,0
			l0,0c-0.155-0.144-0.416-0.216-0.783-0.216l0,0l0,0c-0.256,0-0.506,0.033-0.75,0.099l0,0l0,0c-0.25,0.073-0.532,0.186-0.849,0.342
			l0,0l-0.125-1.184l0,0c0.705-0.338,1.411-0.508,2.117-0.508l0,0l0,0c0.689,0,1.214,0.186,1.575,0.559l0,0l0,0
			c0.362,0.372,0.542,0.967,0.542,1.783l0,0v1.575l0,0c0,0.295,0.013,0.508,0.041,0.642l0,0l0,0
			c0.029,0.127,0.075,0.208,0.141,0.242l0,0l0,0c0.061,0.034,0.17,0.05,0.326,0.05l0,0h0.19l-0.133,1.191h-0.524l0,0
			c-0.317,0-0.583-0.06-0.8-0.183l0,0l0,0c-0.217-0.117-0.384-0.28-0.501-0.492l0,0l0,0c-0.188,0.212-0.443,0.375-0.766,0.492l0,0
			l0,0C146.586,201.385,146.244,201.445,145.884,201.445L145.884,201.445z M146.491,200.338L146.491,200.338
			c0.15,0,0.316-0.036,0.501-0.109l0,0l0,0c0.189-0.077,0.352-0.18,0.492-0.308l0,0v-1.333l0,0c-0.468,0.022-0.879,0.122-1.235,0.3
			l0,0l0,0c-0.361,0.183-0.541,0.433-0.541,0.749l0,0l0,0c0,0.24,0.063,0.417,0.191,0.534l0,0l0,0
			C146.021,200.282,146.219,200.338,146.491,200.338L146.491,200.338z M153.374,195.404L153.374,195.404
			c0.722,0,1.273,0.242,1.65,0.725l0,0l0,0c0.373,0.477,0.559,1.125,0.559,1.941l0,0v3.259h-1.451v-3.142l0,0
			c0-0.545-0.09-0.947-0.274-1.208l0,0l0,0c-0.183-0.256-0.475-0.383-0.874-0.383l0,0l0,0c-0.446,0-0.811,0.166-1.101,0.499l0,0
			v4.234h-1.45v-5.834h1.358l0.026,0.409l0,0C152.305,195.571,152.824,195.404,153.374,195.404L153.374,195.404z M159.183,204.272
			L159.183,204.272c-0.823,0-1.478-0.152-1.967-0.451l0,0l0,0c-0.488-0.299-0.733-0.706-0.733-1.216l0,0l0,0
			c0-0.562,0.314-1.022,0.941-1.384l0,0l0,0c-0.344-0.205-0.516-0.48-0.516-0.824l0,0l0,0c0-0.178,0.052-0.336,0.158-0.475l0,0l0,0
			c0.106-0.145,0.247-0.258,0.425-0.341l0,0l0,0c-0.295-0.212-0.516-0.482-0.667-0.81l0,0l0,0c-0.15-0.321-0.224-0.677-0.224-1.066
			l0,0l0,0c0-0.428,0.091-0.82,0.273-1.175l0,0l0,0c0.19-0.355,0.461-0.636,0.818-0.842l0,0l0,0c0.36-0.205,0.786-0.308,1.275-0.308
			l0,0l0,0c0.51,0,0.952,0.125,1.325,0.376l0,0l0,0c0.133-0.072,0.311-0.133,0.532-0.183l0,0l0,0
			c0.222-0.05,0.463-0.075,0.717-0.075l0,0h0.375l-0.091,0.908h-0.525l0,0c-0.133,0-0.242,0.005-0.326,0.016l0,0l0,0
			c0.233,0.356,0.351,0.784,0.351,1.284l0,0l0,0c0,0.428-0.091,0.817-0.275,1.166l0,0l0,0c-0.183,0.356-0.456,0.636-0.817,0.842l0,0
			l0,0c-0.354,0.206-0.778,0.309-1.265,0.309l0,0l0,0c-0.179,0-0.384-0.028-0.617-0.084l0,0l0,0
			c-0.089,0.039-0.134,0.103-0.134,0.192l0,0l0,0c0,0.1,0.061,0.181,0.183,0.243l0,0l0,0c0.122,0.055,0.325,0.102,0.609,0.141l0,0
			l1.007,0.126l0,0c1.339,0.183,2.009,0.747,2.009,1.691l0,0l0,0c0,0.595-0.253,1.068-0.759,1.417l0,0l0,0
			C160.766,204.096,160.072,204.272,159.183,204.272L159.183,204.272z M158.967,198.946L158.967,198.946
			c0.332,0,0.591-0.112,0.773-0.333l0,0l0,0c0.184-0.217,0.275-0.52,0.275-0.908l0,0l0,0c0-0.389-0.091-0.694-0.275-0.917l0,0l0,0
			c-0.182-0.223-0.441-0.334-0.773-0.334l0,0l0,0c-0.345,0-0.609,0.111-0.792,0.334l0,0l0,0c-0.183,0.222-0.275,0.527-0.275,0.917
			l0,0l0,0c0,0.389,0.092,0.692,0.275,0.908l0,0l0,0C158.358,198.835,158.622,198.946,158.967,198.946L158.967,198.946z
			 M159.24,203.171L159.24,203.171c1.001,0,1.502-0.245,1.502-0.733l0,0l0,0c0-0.217-0.087-0.377-0.259-0.483l0,0l0,0
			c-0.172-0.106-0.455-0.189-0.851-0.25l0,0l-1.282-0.191l0,0c-0.444,0.183-0.667,0.455-0.667,0.816l0,0l0,0
			c0,0.284,0.137,0.495,0.408,0.634l0,0l0,0C158.364,203.102,158.747,203.171,159.24,203.171L159.24,203.171z M165.533,201.445
			L165.533,201.445c-0.678,0-1.256-0.138-1.734-0.416l0,0l0,0c-0.479-0.272-0.837-0.641-1.075-1.108l0,0l0,0
			c-0.233-0.461-0.351-0.975-0.351-1.541l0,0l0,0c0-0.545,0.113-1.042,0.334-1.492l0,0l0,0c0.228-0.456,0.555-0.817,0.982-1.083l0,0
			l0,0c0.429-0.267,0.936-0.401,1.525-0.401l0,0l0,0c0.545,0,1.005,0.112,1.384,0.333l0,0l0,0c0.378,0.228,0.661,0.533,0.85,0.917
			l0,0l0,0c0.194,0.377,0.292,0.805,0.292,1.283l0,0l0,0c0,0.233-0.034,0.497-0.099,0.792l0,0h-3.767l0,0
			c0.078,0.511,0.281,0.895,0.608,1.15l0,0l0,0c0.328,0.249,0.72,0.375,1.175,0.375l0,0l0,0c0.635,0,1.217-0.159,1.751-0.476l0,0
			l0.074,1.225l0,0c-0.25,0.134-0.539,0.239-0.867,0.317l0,0l0,0C166.283,201.404,165.921,201.445,165.533,201.445L165.533,201.445z
			 M163.908,197.746h2.359l0,0c0-0.3-0.087-0.566-0.259-0.8l0,0l0,0c-0.166-0.234-0.43-0.35-0.792-0.35l0,0l0,0
			c-0.355,0-0.641,0.102-0.857,0.307l0,0l0,0C164.135,197.116,163.986,197.396,163.908,197.746L163.908,197.746z M173.166,201.33
			v-6.717h-2.316v-1.45h6.116v1.45h-2.309v6.717H173.166z M177.817,201.33v-5.834h1.357l0.034,0.616l0,0
			c0.172-0.194,0.391-0.363,0.658-0.508l0,0l0,0c0.267-0.15,0.547-0.225,0.841-0.225l0,0l0,0c0.095,0,0.181,0.009,0.26,0.025l0,0
			l-0.101,1.425l0,0c-0.15-0.039-0.32-0.058-0.509-0.058l0,0l0,0c-0.239,0-0.458,0.056-0.658,0.166l0,0l0,0
			c-0.205,0.112-0.35,0.25-0.434,0.417l0,0v3.975H177.817z M182.924,201.445L182.924,201.445c-0.478,0-0.878-0.158-1.199-0.474l0,0
			l0,0c-0.328-0.312-0.493-0.736-0.493-1.276l0,0l0,0c0-0.505,0.184-0.91,0.552-1.216l0,0l0,0c0.366-0.311,0.798-0.531,1.299-0.658
			l0,0l0,0c0.494-0.128,0.973-0.2,1.434-0.218l0,0l0,0c-0.018-0.338-0.106-0.583-0.267-0.733l0,0l0,0
			c-0.155-0.144-0.416-0.216-0.783-0.216l0,0l0,0c-0.256,0-0.506,0.033-0.75,0.099l0,0l0,0c-0.251,0.073-0.534,0.186-0.85,0.342l0,0
			l-0.126-1.184l0,0c0.705-0.338,1.411-0.508,2.116-0.508l0,0l0,0c0.691,0,1.214,0.186,1.576,0.559l0,0l0,0
			c0.361,0.372,0.541,0.967,0.541,1.783l0,0v1.575l0,0c0,0.295,0.015,0.508,0.043,0.642l0,0l0,0
			c0.028,0.127,0.074,0.208,0.141,0.242l0,0l0,0c0.061,0.034,0.17,0.05,0.326,0.05l0,0h0.191l-0.134,1.191h-0.524l0,0
			c-0.316,0-0.583-0.06-0.801-0.183l0,0l0,0c-0.217-0.117-0.383-0.28-0.499-0.492l0,0l0,0c-0.189,0.212-0.444,0.375-0.767,0.492l0,0
			l0,0C183.628,201.385,183.285,201.445,182.924,201.445L182.924,201.445z M183.533,200.338L183.533,200.338
			c0.15,0,0.317-0.036,0.5-0.109l0,0l0,0c0.189-0.077,0.352-0.18,0.492-0.308l0,0v-1.333l0,0c-0.467,0.022-0.877,0.122-1.233,0.3
			l0,0l0,0c-0.362,0.183-0.543,0.433-0.543,0.749l0,0l0,0c0,0.24,0.065,0.417,0.191,0.534l0,0l0,0
			C183.063,200.282,183.26,200.338,183.533,200.338L183.533,200.338z M191.35,192.579h1.449v8.75h-1.367l-0.024-0.375l0,0
			c-0.222,0.166-0.455,0.288-0.7,0.366l0,0l0,0c-0.25,0.083-0.541,0.124-0.875,0.124l0,0l0,0c-0.566,0-1.052-0.136-1.458-0.407l0,0
			l0,0c-0.412-0.273-0.722-0.639-0.934-1.101l0,0l0,0c-0.21-0.456-0.316-0.96-0.316-1.516l0,0l0,0c0-0.551,0.106-1.055,0.316-1.517
			l0,0l0,0c0.211-0.455,0.522-0.819,0.934-1.091l0,0l0,0c0.406-0.274,0.892-0.409,1.458-0.409l0,0l0,0
			c0.566,0,1.072,0.156,1.517,0.467l0,0V192.579z M190.041,200.255L190.041,200.255c0.461,0,0.806-0.164,1.033-0.492l0,0l0,0
			c0.234-0.322,0.351-0.769,0.351-1.341l0,0l0,0c0-0.567-0.116-1.014-0.351-1.341l0,0l0,0c-0.228-0.322-0.572-0.483-1.033-0.483l0,0
			l0,0c-0.45,0-0.801,0.166-1.051,0.499l0,0l0,0c-0.255,0.334-0.382,0.775-0.382,1.325l0,0l0,0c0,0.556,0.127,1,0.382,1.333l0,0l0,0
			C189.24,200.088,189.591,200.255,190.041,200.255L190.041,200.255z M194.141,194.613v-1.45h1.442v1.45H194.141z M194.141,201.33
			v-5.834h1.442v5.834H194.141z M199.883,195.404L199.883,195.404c0.722,0,1.269,0.242,1.641,0.725l0,0l0,0
			c0.372,0.477,0.559,1.125,0.559,1.941l0,0v3.259h-1.442v-3.142l0,0c0-0.545-0.091-0.947-0.275-1.208l0,0l0,0
			c-0.183-0.256-0.478-0.383-0.883-0.383l0,0l0,0c-0.445,0-0.811,0.166-1.101,0.499l0,0v4.234h-1.441v-5.834h1.35l0.025,0.409l0,0
			C198.805,195.571,199.327,195.404,199.883,195.404L199.883,195.404z M205.691,204.272L205.691,204.272
			c-0.829,0-1.486-0.152-1.974-0.451l0,0l0,0c-0.49-0.299-0.734-0.706-0.734-1.216l0,0l0,0c0-0.562,0.314-1.022,0.942-1.384l0,0l0,0
			c-0.34-0.205-0.509-0.48-0.509-0.824l0,0l0,0c0-0.178,0.053-0.336,0.158-0.475l0,0l0,0c0.106-0.145,0.247-0.258,0.426-0.341l0,0
			l0,0c-0.295-0.212-0.521-0.482-0.675-0.81l0,0l0,0c-0.15-0.321-0.225-0.677-0.225-1.066l0,0l0,0c0-0.428,0.094-0.82,0.284-1.175
			l0,0l0,0c0.183-0.355,0.455-0.636,0.817-0.842l0,0l0,0c0.355-0.205,0.777-0.308,1.266-0.308l0,0l0,0
			c0.516,0,0.962,0.125,1.334,0.376l0,0l0,0c0.133-0.072,0.312-0.133,0.533-0.183l0,0l0,0c0.217-0.05,0.455-0.075,0.717-0.075l0,0
			h0.367l-0.092,0.908h-0.525l0,0c-0.134,0-0.242,0.005-0.326,0.016l0,0l0,0c0.233,0.356,0.351,0.784,0.351,1.284l0,0l0,0
			c0,0.428-0.092,0.817-0.275,1.166l0,0l0,0c-0.183,0.356-0.453,0.636-0.809,0.842l0,0l0,0c-0.361,0.206-0.785,0.309-1.275,0.309
			l0,0l0,0c-0.178,0-0.383-0.028-0.617-0.084l0,0l0,0c-0.082,0.039-0.124,0.103-0.124,0.192l0,0l0,0c0,0.1,0.059,0.181,0.175,0.243
			l0,0l0,0c0.122,0.055,0.328,0.102,0.616,0.141l0,0l1,0.126l0,0c1.338,0.183,2.008,0.747,2.008,1.691l0,0l0,0
			c0,0.595-0.25,1.068-0.75,1.417l0,0l0,0C207.268,204.096,206.575,204.272,205.691,204.272L205.691,204.272z M205.465,198.946
			L205.465,198.946c0.334,0,0.591-0.112,0.776-0.333l0,0l0,0c0.183-0.217,0.274-0.52,0.274-0.908l0,0l0,0
			c0-0.389-0.091-0.694-0.274-0.917l0,0l0,0c-0.185-0.223-0.443-0.334-0.776-0.334l0,0l0,0c-0.339,0-0.599,0.111-0.783,0.334l0,0
			l0,0c-0.183,0.222-0.275,0.527-0.275,0.917l0,0l0,0c0,0.389,0.092,0.692,0.275,0.908l0,0l0,0
			C204.866,198.835,205.127,198.946,205.465,198.946L205.465,198.946z M205.75,203.171L205.75,203.171
			c0.994,0,1.491-0.245,1.491-0.733l0,0l0,0c0-0.217-0.086-0.377-0.257-0.483l0,0l0,0c-0.174-0.106-0.457-0.189-0.85-0.25l0,0
			l-1.285-0.191l0,0c-0.443,0.183-0.666,0.455-0.666,0.816l0,0l0,0c0,0.284,0.135,0.495,0.408,0.634l0,0l0,0
			C204.862,203.102,205.25,203.171,205.75,203.171L205.75,203.171z"/>
	</g>
	
		<g id="f6299842-523c-4feb-81eb-09a196711832" transform="matrix(0.6743810442044567,0,0,0.6743810442044567,39.953462398187035,116.28096193885455)">
		<path fill="#F9B200" d="M338.402,397.535l-14.319,4.538l0.125,0.797l-6.196,1.796l0.678,3.63l-7.874-0.426l-9.556-5.109
			c0,0-3.201-1.274-10.551-1.145l-1.279,1.572l-14.571,1.625l0.264-2.08l-6.288-1.431l0.078-0.801l-13.666-3.728v30.517
			l10.949,0.996l0.114-1.156l5.747-0.168l0.294-2.331l1.284,0.046c0.475,2.853,3.714,2.557,3.714,2.557s0.495-0.275,1.045-0.646
			l0.554,0.426l-1.318,0.982c-0.054,1.025,0.096,2.711,1.217,3.556c1.311,0.988,3.358,0.843,3.858,0.313
			c0.168-0.18,0.627-0.585,1.119-1.095l0.602,0.46l-1.765,2.091c1.55,3.287,5.632,2.485,5.632,2.485l0.769-1.011l0.592,0.458
			l-0.586,0.788c0.775,2.053,3.112,2.094,4.195,1.993l0.82,0.631l0.138,0.055c0.841,0.321,1.738,0.472,2.638,0.446
			c1.956-0.072,3.483-0.875,4.204-1.326c0.577,0.151,1.171,0.22,1.767,0.209c1.794-0.052,3.087-0.959,3.854-1.796
			c0.326-0.348,0.613-0.73,0.854-1.141c2.428-0.324,3.908-1.295,4.697-2.372c0.367-0.495,0.628-1.063,0.765-1.665
			c1.791-0.339,3.015-1.399,3.721-2.384c0.83-1.147,1.084-2.207,1.104-2.285l0.124-0.513l-1.208-1.408l4.724-1.338l1.03,5.526
			l5.747-0.168l0.182,1.15l10.041-1.584L338.402,397.535L338.402,397.535z M270.467,425.214l-3.745,0.107l3-21.975l3.415,0.778
			L270.467,425.214L270.467,425.214z M314.822,427.78c-0.55,0.623-1.286,1.158-2.452,1.309l-7.751-9.52l-1.593,1.297l7.964,9.778
			c-0.075,0.316-0.213,0.617-0.409,0.875c-0.439,0.582-1.311,1.295-3.393,1.567l-5.443-7.081l-1.625,1.254l5.461,7.099
			c-0.156,0.223-0.361,0.478-0.613,0.712c-0.531,0.492-1.22,0.898-2.199,0.927c-0.433,0.009-0.865-0.049-1.282-0.171l-2.812-3.58
			l-1.615,1.266l2.298,2.925c-0.643,0.316-1.563,0.654-2.561,0.678c-0.581,0.02-1.158-0.067-1.707-0.261l-0.468-0.359l1.718-3.145
			c-0.356-3.409-3.573-2.285-3.573-2.285l-1.893,2.546l-0.577-0.443l2.111-2.78c0.709-4.979-4.045-3.814-4.045-3.814l-2.615,3.093
			l-0.686-0.53c0.327-0.617,0.464-1.245,0.157-1.787c-1.051-1.859-3.2-1.683-4.336-1.431l-1.016-0.779
			c0.17-0.808-0.823-2.662-2.836-2.94c-0.864-0.116-1.611,0.136-2.187,0.475l-2.235-0.084l1.986-15.678l12.987-1.448l-0.009,0.009
			c0,0,2.705,5.876,7.641,1.536l6.799,3.462l13.653,15.917C315.461,426.894,315.175,427.363,314.822,427.78L314.822,427.78z
			 M323.977,426.836l-3.9-20.9l3.365-0.974l4.277,21.763L323.977,426.836z"/>
	</g>
	
		<g id="ea508e51-4da4-411c-b86e-fda0a83d5423" transform="matrix(0.24120860834386115,0,0,0.24120860834386115,120.21961618043878,158.38775218409495)">
		<path fill="#FFFFFF" d="M666.31,1030.377c0-0.624-0.113-1.207-0.296-1.725c-0.192-0.518-0.46-0.955-0.808-1.336
			c-0.346-0.364-0.757-0.656-1.229-0.858c-0.488-0.194-1.026-0.308-1.611-0.308c-0.585,0-1.111,0.113-1.593,0.308
			c-0.472,0.202-0.901,0.494-1.249,0.858c-0.354,0.381-0.621,0.818-0.8,1.336c-0.192,0.518-0.294,1.101-0.294,1.725
			c0,0.64,0.101,1.223,0.294,1.741c0.178,0.51,0.445,0.955,0.8,1.328c0.348,0.372,0.777,0.656,1.249,0.85
			c0.482,0.194,1.008,0.308,1.593,0.308c0.585,0,1.124-0.113,1.611-0.308c0.472-0.194,0.883-0.478,1.229-0.85
			c0.348-0.373,0.615-0.818,0.808-1.328C666.196,1031.599,666.31,1031.016,666.31,1030.377z M665.674,1030.377
			c0,0.591-0.065,1.101-0.235,1.547c-0.16,0.462-0.385,0.858-0.674,1.166c-0.296,0.316-0.642,0.583-1.051,0.745
			c-0.407,0.154-0.844,0.243-1.348,0.243c-0.496,0-0.933-0.089-1.344-0.243c-0.407-0.162-0.759-0.429-1.047-0.745
			c-0.292-0.308-0.526-0.704-0.692-1.166c-0.17-0.445-0.237-0.955-0.237-1.547c0-0.567,0.067-1.093,0.237-1.547
			c0.166-0.462,0.401-0.85,0.692-1.174c0.287-0.316,0.64-0.575,1.047-0.729c0.411-0.17,0.848-0.259,1.344-0.259
			c0.504,0,0.941,0.089,1.348,0.259c0.409,0.154,0.755,0.413,1.051,0.729c0.289,0.324,0.514,0.713,0.674,1.174
			C665.609,1029.284,665.674,1029.81,665.674,1030.377z M679.84,1026.263h-0.597h-1.13v0.219c0,0.121,0.075,0.194,0.235,0.21h0.132
			c0.085,0,0.204,0.008,0.342,0.008c0.144,0,0.285,0.016,0.421,0.016v4.648c0,0.373-0.059,0.729-0.178,1.077
			c-0.117,0.324-0.273,0.615-0.5,0.866c-0.217,0.243-0.474,0.429-0.789,0.567c-0.318,0.146-0.666,0.211-1.063,0.211
			c-0.397,0-0.755-0.065-1.075-0.211c-0.312-0.138-0.581-0.332-0.792-0.583c-0.225-0.243-0.375-0.534-0.488-0.85
			c-0.117-0.34-0.18-0.704-0.18-1.077v-4.648c0.148,0,0.277-0.016,0.421-0.016c0.142,0,0.259-0.008,0.342-0.008h0.142
			c0.148-0.016,0.233-0.089,0.233-0.21v-0.219h-1.138h-0.597h-0.974v0.219c0,0.121,0.063,0.194,0.215,0.21h0.115
			c0.059,0,0.144,0.008,0.263,0.008c0.117,0,0.251,0.016,0.38,0.016v4.648c0,0.445,0.077,0.875,0.219,1.263
			c0.13,0.397,0.346,0.753,0.615,1.045c0.269,0.283,0.607,0.518,0.99,0.688c0.383,0.154,0.83,0.243,1.308,0.243
			c0.478,0,0.911-0.089,1.293-0.243c0.385-0.17,0.723-0.405,0.994-0.688c0.263-0.292,0.476-0.648,0.611-1.045
			c0.144-0.389,0.229-0.818,0.229-1.263v-4.648c0.142,0,0.263-0.016,0.375-0.016c0.115,0,0.211-0.008,0.267-0.008h0.097
			c0.162-0.016,0.233-0.089,0.233-0.21v-0.219H679.84z M694.164,1034.069h-0.081h-0.152c-0.067,0-0.142-0.016-0.208-0.016
			l-2.476-3.117c-0.067-0.097-0.166-0.17-0.255-0.235c0.362-0.032,0.688-0.121,0.982-0.243c0.292-0.121,0.528-0.292,0.733-0.486
			c0.194-0.202,0.36-0.437,0.466-0.688c0.109-0.259,0.166-0.543,0.166-0.866c0-0.704-0.231-1.231-0.7-1.611
			c-0.464-0.364-1.182-0.542-2.142-0.542H688.5h-0.988v0.219c0,0.121,0.071,0.194,0.229,0.21h0.115c0.059,0,0.134,0.008,0.249,0.008
			c0.117,0,0.251,0.016,0.395,0.016v7.328c-0.144,0-0.277,0.008-0.395,0.008c-0.115,0-0.19,0.016-0.249,0.016h-0.115
			c-0.158,0.008-0.233,0.081-0.233,0.203v0.235h0.992h0.593h0.98v-0.235c0-0.121-0.081-0.194-0.231-0.203h-0.117
			c-0.063,0-0.144-0.016-0.263-0.016c-0.111,0-0.233-0.008-0.368-0.008v-3.263h0.98c0.156,0,0.275,0,0.352,0.041
			c0.067,0.041,0.13,0.105,0.206,0.186l2.65,3.352c0.041,0.057,0.077,0.089,0.124,0.113c0.051,0.016,0.107,0.032,0.166,0.032h0.063
			h0.449h0.31v-0.235C694.393,1034.15,694.316,1034.077,694.164,1034.069z M690.425,1030.336h-1.332v-3.611h1.403
			c0.747,0,1.3,0.154,1.684,0.429c0.383,0.275,0.579,0.729,0.579,1.312c0,0.292-0.053,0.534-0.16,0.769
			c-0.097,0.235-0.267,0.413-0.466,0.583c-0.196,0.162-0.445,0.3-0.735,0.38C691.103,1030.288,690.783,1030.336,690.425,1030.336z
			 M715.81,1026.263h-0.296h-4.656h-0.996v0.219c0,0.121,0.085,0.194,0.233,0.21h0.119c0.059,0,0.14,0.008,0.259,0.008
			c0.117,0,0.249,0.016,0.385,0.016v7.328c-0.136,0-0.267,0.008-0.385,0.008c-0.119,0-0.2,0.016-0.259,0.016h-0.119
			c-0.148,0.008-0.233,0.081-0.233,0.203v0.235h0.996h0.597h0.976v-0.235c0-0.121-0.065-0.194-0.217-0.203h-0.117
			c-0.057,0-0.142-0.016-0.259-0.016c-0.115,0-0.239-0.008-0.383-0.008v-3.328h3.079v-0.502h-3.079v-3.466h3.832
			c0.026,0.559,0.049,0.875,0.049,0.939c0.014,0.178,0.093,0.267,0.263,0.267h0.271v-1.692H715.81z M724.99,1026.692
			c0.148-0.016,0.214-0.089,0.214-0.21v-0.235h-0.978h-0.597h-0.992v0.235c0,0.121,0.085,0.194,0.237,0.21h0.111
			c0.059,0,0.144,0.008,0.261,0.008c0.119,0,0.255,0.016,0.383,0.016v7.328c-0.128,0-0.263,0.008-0.383,0.008
			c-0.117,0-0.203,0.016-0.261,0.016h-0.111c-0.152,0.008-0.237,0.081-0.237,0.203v0.235h0.992h0.597h0.978v-0.235
			c0-0.121-0.067-0.194-0.214-0.203h-0.115c-0.063,0-0.142-0.016-0.261-0.016c-0.117,0-0.243-0.008-0.387-0.008v-7.328
			c0.144,0,0.269-0.016,0.387-0.016c0.12,0,0.198-0.008,0.261-0.008H724.99z M739.527,1026.263h-0.528h-1.016v0.219
			c0,0.121,0.085,0.194,0.231,0.21h0.121c0.053,0,0.15,0.008,0.271,0.008c0.115,0,0.251,0.016,0.393,0.016v6.462
			c0,0.105,0,0.227,0.014,0.34l-5.35-7.15c-0.03-0.049-0.057-0.081-0.089-0.097c-0.034-0.008-0.067-0.024-0.128-0.024h-0.292h-0.986
			v0.235c0,0.121,0.081,0.194,0.227,0.21h0.117c0.057,0,0.142,0.008,0.259,0.008c0.12,0,0.245,0.016,0.383,0.016v7.328
			c-0.138,0-0.263,0.008-0.383,0.008c-0.117,0-0.202,0.016-0.259,0.016h-0.117c-0.146,0.008-0.227,0.081-0.227,0.203v0.235h0.986
			h0.508h1.018v-0.235c0-0.121-0.081-0.194-0.237-0.203h-0.115c-0.055,0-0.156-0.016-0.267-0.016c-0.121,0-0.255-0.008-0.399-0.008
			v-6.478c0-0.105,0-0.227-0.004-0.34l5.368,7.166c0.057,0.081,0.111,0.113,0.204,0.113h0.296v-7.79
			c0.136,0,0.253-0.016,0.372-0.016c0.115,0,0.204-0.008,0.263-0.008h0.107c0.152-0.016,0.233-0.089,0.233-0.21v-0.219H739.527z
			 M754.946,1034.004l-0.381-0.041l-3.152-7.717h-0.603l-3.156,7.717l-0.376,0.041c-0.148,0.016-0.213,0.097-0.213,0.235v0.267
			h0.366h0.249h0.208h0.081h1.093v-0.267c0-0.154-0.089-0.219-0.267-0.235c-0.004,0-0.032-0.016-0.063-0.016
			c-0.034,0-0.085-0.008-0.17-0.008c-0.085,0-0.182,0-0.302-0.016l0.82-2.016l0.059-0.146h3.943l0.057,0.146l0.818,2.016
			c-0.121,0.016-0.21,0.016-0.296,0.016c-0.085,0-0.142,0.008-0.174,0.008c-0.036,0-0.057,0.016-0.069,0.016
			c-0.174,0.016-0.275,0.081-0.275,0.235v0.267h1.101h0.081h0.219h0.239h0.393v-0.267
			C755.177,1034.101,755.096,1034.02,754.946,1034.004z M750.946,1027.34c0.026-0.065,0.063-0.146,0.085-0.235
			c0.012-0.073,0.059-0.154,0.071-0.251c0.026,0.097,0.063,0.178,0.089,0.251c0.022,0.089,0.059,0.162,0.081,0.235l1.638,4.024
			h-3.587L750.946,1027.34z M769.387,1026.263h-0.522h-1.02v0.219c0,0.121,0.085,0.194,0.239,0.21h0.113
			c0.061,0,0.158,0.008,0.279,0.008c0.105,0,0.247,0.016,0.389,0.016v6.462c0,0.105,0,0.227,0.012,0.34l-5.348-7.15
			c-0.028-0.049-0.061-0.081-0.093-0.097c-0.032-0.008-0.065-0.024-0.121-0.024h-0.292h-0.992v0.235c0,0.121,0.085,0.194,0.235,0.21
			h0.113c0.061,0,0.142,0.008,0.259,0.008c0.113,0,0.243,0.016,0.385,0.016v7.328c-0.142,0-0.271,0.008-0.385,0.008
			c-0.117,0-0.198,0.016-0.259,0.016h-0.113c-0.15,0.008-0.235,0.081-0.235,0.203v0.235h0.992h0.506h1.016v-0.235
			c0-0.121-0.081-0.194-0.231-0.203h-0.117c-0.053,0-0.162-0.016-0.275-0.016c-0.113,0-0.247-0.008-0.393-0.008v-6.478
			c0-0.105,0-0.227-0.008-0.34l5.373,7.166c0.057,0.081,0.113,0.113,0.202,0.113h0.292v-7.79c0.146,0,0.255-0.016,0.38-0.016
			c0.109,0,0.207-0.008,0.263-0.008h0.109c0.146-0.016,0.231-0.089,0.231-0.21v-0.219H769.387z M783.505,1033.17
			c-0.024-0.024-0.061-0.057-0.097-0.057c-0.02,0-0.028,0-0.049,0.016c-0.012,0.016-0.041,0.04-0.061,0.049
			c-0.166,0.154-0.344,0.283-0.506,0.397c-0.162,0.121-0.34,0.202-0.534,0.283c-0.194,0.073-0.413,0.13-0.648,0.17
			c-0.231,0.04-0.478,0.057-0.769,0.057c-0.474,0-0.927-0.081-1.328-0.251c-0.409-0.162-0.741-0.413-1.036-0.721
			c-0.292-0.316-0.534-0.721-0.696-1.174c-0.166-0.453-0.247-0.972-0.247-1.563c0-0.567,0.081-1.085,0.247-1.547
			c0.174-0.445,0.405-0.834,0.709-1.166c0.312-0.308,0.664-0.559,1.081-0.729c0.425-0.178,0.879-0.259,1.389-0.259
			c0.737,0,1.429,0.113,2.036,0.389c0.032,0.745,0.073,1.182,0.073,1.271c0.004,0.186,0.077,0.283,0.239,0.283h0.283v-1.87
			c-0.984-0.397-1.87-0.575-2.632-0.575c-0.603,0-1.134,0.089-1.636,0.292c-0.49,0.211-0.931,0.486-1.283,0.875
			c-0.372,0.372-0.636,0.81-0.834,1.32s-0.292,1.093-0.292,1.717c0,0.64,0.105,1.215,0.292,1.741
			c0.19,0.526,0.458,0.955,0.793,1.328c0.34,0.372,0.749,0.656,1.227,0.85c0.482,0.194,0.988,0.308,1.563,0.308
			c0.344,0,0.652-0.024,0.939-0.089c0.283-0.057,0.551-0.138,0.806-0.243c0.227-0.105,0.445-0.227,0.648-0.373
			c0.198-0.146,0.381-0.3,0.555-0.494L783.505,1033.17z M792.756,1026.692c0.154-0.016,0.223-0.089,0.223-0.21v-0.235h-0.98h-0.595
			h-0.988v0.235c0,0.121,0.077,0.194,0.231,0.21h0.117c0.057,0,0.142,0.008,0.259,0.008c0.113,0,0.239,0.016,0.381,0.016v7.328
			c-0.142,0-0.267,0.008-0.381,0.008c-0.117,0-0.202,0.016-0.259,0.016h-0.117c-0.154,0.008-0.231,0.081-0.231,0.203v0.235h0.988
			h0.595h0.98v-0.235c0-0.121-0.069-0.194-0.223-0.203h-0.117c-0.057,0-0.134-0.016-0.255-0.016c-0.109,0-0.247-0.008-0.385-0.008
			v-7.328c0.138,0,0.275-0.016,0.385-0.016c0.121,0,0.198-0.008,0.255-0.008H792.756z M807.679,1034.004l-0.38-0.041l-3.154-7.717
			h-0.595l-3.166,7.717l-0.373,0.041c-0.15,0.016-0.214,0.097-0.214,0.235v0.267h0.364h0.255h0.202h0.093h1.085v-0.267
			c0-0.154-0.089-0.219-0.267-0.235c-0.008,0-0.032-0.016-0.073-0.016c-0.024,0-0.077-0.008-0.162-0.008
			c-0.081,0-0.186,0-0.292-0.016l0.81-2.016l0.061-0.146h3.935l0.061,0.146l0.814,2.016c-0.113,0.016-0.202,0.016-0.292,0.016
			c-0.077,0-0.138,0.008-0.17,0.008c-0.032,0-0.061,0.016-0.065,0.016c-0.178,0.016-0.275,0.081-0.275,0.235v0.267h1.097h0.085
			h0.215h0.235h0.393v-0.267C807.906,1034.101,807.833,1034.02,807.679,1034.004z M803.675,1027.34
			c0.028-0.065,0.061-0.146,0.093-0.235c0.012-0.073,0.057-0.154,0.069-0.251c0.02,0.097,0.061,0.178,0.085,0.251
			c0.028,0.089,0.057,0.162,0.081,0.235l1.636,4.024h-3.587L803.675,1027.34z M820.068,1032.968c-0.166,0-0.231,0.089-0.243,0.283
			c0,0,0,0.057-0.012,0.097c-0.012,0.057-0.012,0.138-0.024,0.235c-0.012,0.113-0.028,0.251-0.036,0.405h-3.405v-7.271
			c0.138,0,0.259-0.016,0.368-0.016c0.126,0,0.215-0.008,0.271-0.008h0.109c0.15-0.016,0.235-0.089,0.235-0.21v-0.219h-0.984h-0.595
			h-0.984v0.219c0,0.121,0.081,0.194,0.227,0.21h0.121c0.057,0,0.138,0.008,0.255,0.008s0.239,0.016,0.381,0.016v7.328
			c-0.142,0-0.263,0.008-0.381,0.008s-0.198,0.016-0.255,0.016h-0.121c-0.146,0.008-0.227,0.081-0.227,0.203v0.235h0.984h4.401
			h0.101h0.109v-0.219v-0.47v-0.85h-0.235H820.068z M837.023,1026.263h-0.996v0.219c0,0.121,0.085,0.194,0.235,0.21h0.117
			c0.061,0,0.142,0.008,0.263,0.008c0.113,0,0.239,0.016,0.38,0.016v7.328c-0.142,0-0.267,0.008-0.38,0.008
			c-0.121,0-0.203,0.016-0.263,0.016h-0.117c-0.15,0.008-0.227,0.081-0.227,0.203v0.235h0.988h4.947v-0.502v-1.207h-0.291
			c-0.17,0-0.235,0.105-0.247,0.292c0,0.024-0.008,0.065-0.008,0.146s0,0.202-0.016,0.372c-0.02,0.178-0.02,0.292-0.02,0.397h-3.777
			v-3.441h3.296v-0.47h-3.296v-3.344h3.777c0.02,0.518,0.044,0.826,0.044,0.939c0.012,0.178,0.077,0.267,0.247,0.267h0.291v-1.206
			v-0.486H837.023z M856.327,1034.069h-0.069c-0.04,0-0.093-0.016-0.154-0.016c-0.057,0-0.121-0.008-0.211-0.008l-2.648-3.814
			l2.53-3.514c0.097,0,0.146-0.016,0.227-0.016c0.065,0,0.125-0.008,0.162-0.008h0.081c0.15-0.016,0.235-0.089,0.235-0.21v-0.219
			h-0.376h-0.219h-0.344h-0.036h-1.332v0.219c0,0.121,0.085,0.194,0.231,0.21h0.089c0.053,0,0.138,0.008,0.247,0.008
			c0.117,0,0.239,0.016,0.372,0.016l-2.174,3.093c-0.028,0.032-0.041,0.057-0.053,0.097c0,0.024-0.024,0.049-0.036,0.089
			l-2.259-3.279c0.13,0,0.235-0.016,0.344-0.016c0.097,0,0.166-0.008,0.202-0.008h0.093c0.146-0.016,0.223-0.089,0.223-0.21v-0.219
			h-1.279h-0.02h-0.417h-0.174h-0.376v0.219c0,0.121,0.081,0.194,0.235,0.21h0.081c0.036,0,0.093,0.008,0.17,0.008
			c0.065,0,0.134,0.016,0.231,0.016l2.51,3.563l-2.648,3.765c-0.093,0-0.17,0.008-0.231,0.008c-0.077,0-0.142,0.016-0.17,0.016
			h-0.085c-0.146,0.008-0.239,0.081-0.239,0.203v0.235h0.397h0.211h0.328h0.061h1.332v-0.235c0-0.121-0.081-0.194-0.231-0.203
			h-0.105c-0.045,0-0.138-0.016-0.247-0.016c-0.105,0-0.231-0.008-0.376-0.008l0,0l2.336-3.32c0.036-0.057,0.077-0.097,0.085-0.162
			l2.381,3.482c-0.134,0-0.247,0.008-0.352,0.008c-0.097,0-0.186,0.016-0.219,0.016h-0.085c-0.15,0.008-0.235,0.081-0.235,0.203
			v0.235h1.263h0.049h0.417h0.17h0.344v-0.235C856.562,1034.15,856.481,1034.077,856.327,1034.069z M868.688,1026.895
			c-0.49-0.429-1.223-0.632-2.203-0.632h-2h-0.988v0.219c0,0.121,0.069,0.194,0.231,0.21h0.117c0.057,0,0.13,0.008,0.247,0.008
			s0.255,0.016,0.393,0.016v7.328c-0.138,0-0.275,0.008-0.393,0.008s-0.19,0.016-0.247,0.016h-0.117
			c-0.162,0.008-0.231,0.081-0.231,0.203v0.235h0.988h0.595h0.988v-0.235c0-0.121-0.089-0.194-0.239-0.203h-0.105
			c-0.061,0-0.154-0.016-0.271-0.016c-0.121,0-0.235-0.008-0.372-0.008v-2.866h1.405c0.462,0,0.866-0.065,1.223-0.186
			c0.369-0.13,0.668-0.292,0.931-0.502c0.255-0.227,0.453-0.494,0.579-0.785c0.146-0.3,0.203-0.632,0.203-0.996
			C869.421,1027.923,869.174,1027.308,868.688,1026.895z M868.663,1029.502c-0.109,0.251-0.259,0.453-0.462,0.632
			c-0.198,0.17-0.441,0.316-0.729,0.421c-0.292,0.105-0.624,0.146-0.988,0.146h-1.405v-3.976h1.405c0.777,0,1.36,0.178,1.753,0.518
			c0.393,0.332,0.583,0.826,0.583,1.458C868.821,1028.992,868.765,1029.267,868.663,1029.502z M877.238,1026.263h-0.992v0.219
			c0,0.121,0.077,0.194,0.231,0.21h0.117c0.057,0,0.142,0.008,0.255,0.008c0.121,0,0.243,0.016,0.389,0.016v7.328
			c-0.146,0-0.267,0.008-0.389,0.008c-0.113,0-0.198,0.016-0.255,0.016h-0.117c-0.154,0.008-0.227,0.081-0.227,0.203v0.235h0.988
			h4.943v-0.502v-1.207h-0.292c-0.162,0-0.235,0.105-0.247,0.292c0,0.024-0.008,0.065-0.008,0.146s0,0.202-0.016,0.372
			c-0.008,0.178-0.024,0.292-0.024,0.397h-3.765v-3.441h3.292v-0.47h-3.292v-3.344h3.765c0.024,0.518,0.049,0.826,0.049,0.939
			c0.012,0.178,0.085,0.267,0.247,0.267h0.292v-1.206v-0.486H877.238z M895.992,1034.069h-0.081h-0.146
			c-0.065,0-0.146-0.016-0.211-0.016l-2.478-3.117c-0.065-0.097-0.166-0.17-0.255-0.235c0.364-0.032,0.692-0.121,0.984-0.243
			c0.287-0.121,0.526-0.292,0.733-0.486c0.198-0.202,0.356-0.437,0.466-0.688c0.113-0.259,0.166-0.543,0.166-0.866
			c0-0.704-0.235-1.231-0.7-1.611c-0.466-0.364-1.182-0.542-2.142-0.542h-2.004h-0.98v0.219c0,0.121,0.069,0.194,0.231,0.21h0.113
			c0.057,0,0.13,0.008,0.251,0.008c0.117,0,0.247,0.016,0.385,0.016v7.328c-0.138,0-0.267,0.008-0.385,0.008
			c-0.121,0-0.194,0.016-0.251,0.016h-0.113c-0.162,0.008-0.235,0.081-0.235,0.203v0.235h0.984h0.603h0.976v-0.235
			c0-0.121-0.081-0.194-0.235-0.203h-0.117c-0.057,0-0.134-0.016-0.255-0.016c-0.117,0-0.235-0.008-0.368-0.008v-3.263h0.976
			c0.158,0,0.279,0,0.348,0.041s0.134,0.105,0.211,0.186l2.656,3.352c0.032,0.057,0.073,0.089,0.121,0.113
			c0.049,0.016,0.109,0.032,0.17,0.032h0.053h0.449h0.316v-0.235C896.226,1034.15,896.145,1034.077,895.992,1034.069z
			 M892.251,1030.336h-1.324v-3.611h1.401c0.741,0,1.296,0.154,1.684,0.429c0.385,0.275,0.575,0.729,0.575,1.312
			c0,0.292-0.049,0.534-0.158,0.769c-0.097,0.235-0.263,0.413-0.47,0.583c-0.194,0.162-0.437,0.3-0.733,0.38
			C892.935,1030.288,892.615,1030.336,892.251,1030.336z M909.065,1026.263h-0.166h-6.081h-0.17h-0.089v1.692h0.292
			c0.166,0,0.239-0.089,0.255-0.267c0-0.089,0.016-0.389,0.036-0.931h2.421v7.287c-0.142,0-0.259,0.008-0.377,0.008
			c-0.113,0-0.202,0.016-0.271,0.016h-0.101c-0.154,0.008-0.235,0.081-0.235,0.203v0.235h0.984h0.595h0.984v-0.235
			c0-0.121-0.073-0.194-0.235-0.203h-0.113c-0.057,0-0.138-0.016-0.247-0.016c-0.121,0-0.251-0.008-0.389-0.008v-7.287h2.401
			c0.032,0.599,0.049,0.899,0.049,0.931c0.012,0.178,0.093,0.267,0.255,0.267h0.283v-1.692H909.065z M918.243,1026.692
			c0.154-0.016,0.219-0.089,0.219-0.21v-0.235h-0.976h-0.599h-0.992v0.235c0,0.121,0.089,0.194,0.235,0.21h0.113
			c0.061,0,0.146,0.008,0.259,0.008c0.117,0,0.251,0.016,0.385,0.016v7.328c-0.134,0-0.267,0.008-0.385,0.008
			c-0.113,0-0.198,0.016-0.259,0.016h-0.113c-0.146,0.008-0.235,0.081-0.235,0.203v0.235h0.992h0.599h0.976v-0.235
			c0-0.121-0.065-0.194-0.219-0.203h-0.117c-0.057,0-0.138-0.016-0.255-0.016c-0.117,0-0.239-0.008-0.385-0.008v-7.328
			c0.146,0,0.267-0.016,0.385-0.016c0.117,0,0.198-0.008,0.255-0.008H918.243z M930.186,1031.251
			c-0.117-0.219-0.275-0.429-0.474-0.583c-0.194-0.146-0.409-0.275-0.652-0.381c-0.247-0.113-0.518-0.194-0.773-0.292
			c-0.263-0.065-0.51-0.17-0.761-0.243c-0.239-0.105-0.466-0.202-0.668-0.332c-0.19-0.13-0.348-0.275-0.457-0.47
			c-0.125-0.186-0.186-0.413-0.186-0.704c0-0.202,0.045-0.397,0.121-0.599c0.085-0.194,0.202-0.364,0.352-0.518
			c0.154-0.146,0.336-0.259,0.571-0.348c0.231-0.081,0.494-0.121,0.794-0.121c0.559,0,1.077,0.089,1.538,0.292
			c0.036,0.656,0.061,1.036,0.061,1.093c0.012,0.186,0.081,0.292,0.239,0.292h0.287v-1.684c-0.737-0.324-1.433-0.478-2.125-0.478
			c-0.385,0-0.725,0.057-1.028,0.17c-0.296,0.113-0.547,0.259-0.749,0.462c-0.186,0.202-0.352,0.421-0.462,0.672
			c-0.101,0.267-0.158,0.526-0.158,0.818c0,0.348,0.065,0.648,0.178,0.875c0.117,0.243,0.287,0.421,0.482,0.591
			s0.413,0.283,0.652,0.381c0.247,0.105,0.518,0.202,0.765,0.283c0.263,0.089,0.514,0.154,0.761,0.243
			c0.251,0.081,0.466,0.194,0.672,0.324c0.194,0.138,0.352,0.283,0.462,0.47c0.117,0.194,0.182,0.429,0.182,0.721
			c0,0.267-0.049,0.526-0.146,0.761c-0.093,0.235-0.223,0.437-0.389,0.607c-0.174,0.178-0.405,0.324-0.664,0.405
			c-0.251,0.113-0.538,0.146-0.879,0.146c-0.648,0-1.194-0.113-1.636-0.316c-0.008-0.17-0.008-0.34-0.028-0.534
			c-0.008-0.178-0.008-0.332-0.024-0.453c-0.004-0.121-0.004-0.211-0.004-0.211c-0.012-0.194-0.097-0.283-0.263-0.283h-0.267v1.53
			v0.154v0.162c0.704,0.3,1.433,0.453,2.207,0.453c0.417,0,0.797-0.073,1.117-0.202c0.332-0.13,0.607-0.316,0.83-0.526
			c0.219-0.235,0.405-0.494,0.522-0.802c0.117-0.308,0.174-0.632,0.174-0.98C930.36,1031.753,930.304,1031.478,930.186,1031.251z
			 M938.239,1026.263h-0.996v0.219c0,0.121,0.089,0.194,0.231,0.21h0.121c0.053,0,0.138,0.008,0.259,0.008
			c0.113,0,0.251,0.016,0.385,0.016v7.328c-0.134,0-0.271,0.008-0.385,0.008c-0.121,0-0.206,0.016-0.259,0.016h-0.121
			c-0.142,0.008-0.214,0.081-0.214,0.203v0.235h0.98h4.947v-0.502v-1.207h-0.292c-0.17,0-0.235,0.105-0.243,0.292
			c0,0.024-0.012,0.065-0.012,0.146s0,0.202-0.008,0.372c-0.024,0.178-0.028,0.292-0.028,0.397h-3.769v-3.441h3.296v-0.47h-3.296
			v-3.344h3.769c0.028,0.518,0.049,0.826,0.049,0.939c0.008,0.178,0.073,0.267,0.243,0.267h0.292v-1.206v-0.486H938.239z
			 M966.725,1034.004l-0.381-0.041l-3.15-7.717h-0.591l-3.166,7.717l-0.38,0.041c-0.15,0.016-0.215,0.097-0.215,0.235v0.267h0.376
			h0.243h0.207h0.081h1.105v-0.267c0-0.154-0.105-0.219-0.275-0.235c-0.008,0-0.036-0.016-0.069-0.016
			c-0.032,0-0.085-0.008-0.166-0.008c-0.069,0-0.182,0-0.3-0.016l0.818-2.016l0.057-0.146h3.939l0.061,0.146l0.818,2.016
			c-0.113,0.016-0.211,0.016-0.287,0.016c-0.093,0-0.146,0.008-0.182,0.008c-0.032,0-0.057,0.016-0.061,0.016
			c-0.178,0.016-0.271,0.081-0.271,0.235v0.267h1.089h0.089h0.223h0.235h0.377v-0.267
			C966.948,1034.101,966.879,1034.02,966.725,1034.004z M962.729,1027.34c0.024-0.065,0.057-0.146,0.081-0.235
			c0.024-0.073,0.061-0.154,0.085-0.251c0.02,0.097,0.057,0.178,0.069,0.251c0.028,0.089,0.061,0.162,0.093,0.235l1.628,4.024
			h-3.583L962.729,1027.34z M979.17,1026.263h-0.166h-6.077h-0.178h-0.081v1.692h0.292c0.158,0,0.235-0.089,0.247-0.267
			c0-0.089,0.02-0.389,0.045-0.931h2.413v7.287c-0.134,0-0.255,0.008-0.373,0.008c-0.117,0-0.21,0.016-0.267,0.016h-0.105
			c-0.154,0.008-0.231,0.081-0.231,0.203v0.235h0.976h0.595h0.992v-0.235c0-0.121-0.081-0.194-0.235-0.203h-0.113
			c-0.061,0-0.142-0.016-0.259-0.016s-0.239-0.008-0.385-0.008v-7.287h2.401c0.04,0.599,0.049,0.899,0.049,0.931
			c0.008,0.178,0.093,0.267,0.263,0.267h0.271v-1.692H979.17z M1001.426,1026.263h-0.057h-0.462h-0.097h-1.166v0.219
			c0,0.121,0.073,0.194,0.235,0.21h0.093c0.032,0,0.093,0.008,0.194,0.008c0.097,0,0.186,0.016,0.308,0.016l-2.154,3.474
			c-0.061,0.097-0.101,0.178-0.134,0.259c-0.041,0.073-0.077,0.178-0.113,0.251c-0.028-0.073-0.065-0.178-0.101-0.251
			c-0.041-0.081-0.077-0.162-0.138-0.259l-2.178-3.474c0.121,0,0.227-0.016,0.324-0.016c0.085,0,0.166-0.008,0.206-0.008h0.085
			c0.15-0.016,0.231-0.089,0.231-0.21v-0.219h-1.166h-0.093h-0.466h-0.061h-0.372v0.219c0,0.121,0.081,0.194,0.235,0.21
			c0.198,0.008,0.348,0.024,0.429,0.024l2.765,4.389v2.939c-0.138,0-0.271,0.008-0.389,0.008s-0.194,0.016-0.251,0.016h-0.109
			c-0.146,0.008-0.231,0.081-0.231,0.203v0.235h0.98h0.595h0.984v-0.235c0-0.121-0.077-0.194-0.227-0.203h-0.113
			c-0.065,0-0.146-0.016-0.259-0.016c-0.121,0-0.243-0.008-0.385-0.008v-2.939l2.765-4.389c0.093,0,0.235-0.016,0.437-0.024
			c0.146-0.016,0.231-0.089,0.231-0.21v-0.219H1001.426z M1015.75,1030.377c0-0.624-0.105-1.207-0.287-1.725
			c-0.186-0.518-0.462-0.955-0.81-1.336c-0.352-0.364-0.765-0.656-1.235-0.858c-0.474-0.194-1.024-0.308-1.611-0.308
			c-0.579,0-1.105,0.113-1.587,0.308c-0.474,0.202-0.891,0.494-1.243,0.858c-0.352,0.381-0.624,0.818-0.81,1.336
			c-0.186,0.518-0.292,1.101-0.292,1.725c0,0.64,0.105,1.223,0.292,1.741c0.186,0.51,0.458,0.955,0.81,1.328
			c0.352,0.372,0.769,0.656,1.243,0.85c0.482,0.194,1.008,0.308,1.587,0.308c0.587,0,1.138-0.113,1.611-0.308
			c0.47-0.194,0.883-0.478,1.235-0.85c0.348-0.373,0.623-0.818,0.81-1.328C1015.644,1031.599,1015.75,1031.016,1015.75,1030.377z
			 M1015.122,1030.377c0,0.591-0.073,1.101-0.239,1.547c-0.162,0.462-0.38,0.858-0.672,1.166c-0.292,0.316-0.64,0.583-1.053,0.745
			c-0.405,0.154-0.85,0.243-1.352,0.243c-0.486,0-0.931-0.089-1.336-0.243c-0.413-0.162-0.761-0.429-1.053-0.745
			c-0.292-0.308-0.526-0.704-0.688-1.166c-0.162-0.445-0.231-0.955-0.231-1.547c0-0.567,0.069-1.093,0.231-1.547
			c0.162-0.462,0.397-0.85,0.688-1.174c0.292-0.316,0.64-0.575,1.053-0.729c0.405-0.17,0.85-0.259,1.336-0.259
			c0.502,0,0.947,0.089,1.352,0.259c0.413,0.154,0.761,0.413,1.053,0.729c0.292,0.324,0.51,0.713,0.672,1.174
			C1015.049,1029.284,1015.122,1029.81,1015.122,1030.377z M1029.284,1026.263h-0.591h-1.134v0.219c0,0.121,0.081,0.194,0.239,0.21
			h0.134c0.077,0,0.194,0.008,0.336,0.008s0.283,0.016,0.425,0.016v4.648c0,0.373-0.057,0.729-0.174,1.077
			c-0.121,0.324-0.283,0.615-0.51,0.866c-0.21,0.243-0.478,0.429-0.789,0.567c-0.324,0.146-0.668,0.211-1.061,0.211
			c-0.401,0-0.757-0.065-1.069-0.211c-0.324-0.138-0.587-0.332-0.797-0.583c-0.227-0.243-0.368-0.534-0.49-0.85
			c-0.113-0.34-0.178-0.704-0.178-1.077v-4.648c0.142,0,0.287-0.016,0.421-0.016c0.142,0,0.251-0.008,0.34-0.008h0.138
			c0.154-0.016,0.235-0.089,0.235-0.21v-0.219h-1.134h-0.591h-0.984v0.219c0,0.121,0.069,0.194,0.227,0.21h0.113
			c0.061,0,0.138,0.008,0.255,0.008c0.113,0,0.247,0.016,0.389,0.016v4.648c0,0.445,0.069,0.875,0.206,1.263
			c0.146,0.397,0.352,0.753,0.624,1.045c0.263,0.283,0.603,0.518,0.988,0.688c0.38,0.154,0.826,0.243,1.308,0.243
			c0.478,0,0.907-0.089,1.296-0.243c0.38-0.17,0.725-0.405,0.988-0.688c0.267-0.292,0.486-0.648,0.615-1.045
			c0.146-0.389,0.227-0.818,0.227-1.263v-4.648c0.138,0,0.259-0.016,0.372-0.016c0.117,0,0.211-0.008,0.275-0.008h0.105
			c0.146-0.016,0.231-0.089,0.231-0.21v-0.219H1029.284z M1043.608,1034.069h-0.085h-0.146c-0.065,0-0.142-0.016-0.21-0.016
			l-2.474-3.117c-0.065-0.097-0.162-0.17-0.259-0.235c0.368-0.032,0.692-0.121,0.984-0.243s0.522-0.292,0.729-0.486
			c0.206-0.202,0.372-0.437,0.474-0.688c0.109-0.259,0.166-0.543,0.166-0.866c0-0.704-0.235-1.231-0.7-1.611
			c-0.47-0.364-1.182-0.542-2.138-0.542h-2.004h-0.984v0.219c0,0.121,0.077,0.194,0.219,0.21h0.121c0.061,0,0.146,0.008,0.259,0.008
			c0.117,0,0.239,0.016,0.385,0.016v7.328c-0.146,0-0.267,0.008-0.385,0.008c-0.113,0-0.198,0.016-0.259,0.016h-0.121
			c-0.142,0.008-0.231,0.081-0.231,0.203v0.235h0.996h0.587h0.984v-0.235c0-0.121-0.077-0.194-0.231-0.203h-0.117
			c-0.057,0-0.142-0.016-0.255-0.016c-0.117,0-0.235-0.008-0.381-0.008v-3.263h0.984c0.162,0,0.279,0,0.352,0.041
			c0.069,0.041,0.142,0.105,0.207,0.186l2.656,3.352c0.036,0.057,0.077,0.089,0.125,0.113c0.045,0.016,0.105,0.032,0.17,0.032h0.057
			h0.441h0.308v-0.235C1043.831,1034.15,1043.758,1034.077,1043.608,1034.069z M1039.867,1030.336h-1.336v-3.611h1.417
			c0.737,0,1.292,0.154,1.676,0.429c0.385,0.275,0.583,0.729,0.583,1.312c0,0.292-0.061,0.534-0.158,0.769
			c-0.109,0.235-0.275,0.413-0.466,0.583c-0.203,0.162-0.445,0.3-0.741,0.38C1040.551,1030.288,1040.224,1030.336,1039.867,1030.336
			z M1064.086,1031.251c-0.117-0.219-0.279-0.429-0.478-0.583c-0.198-0.146-0.409-0.275-0.66-0.381
			c-0.247-0.113-0.506-0.194-0.769-0.292c-0.255-0.065-0.51-0.17-0.753-0.243c-0.243-0.105-0.466-0.202-0.668-0.332
			c-0.194-0.13-0.352-0.275-0.466-0.47c-0.117-0.186-0.186-0.413-0.186-0.704c0-0.202,0.049-0.397,0.126-0.599
			c0.089-0.194,0.202-0.364,0.352-0.518c0.15-0.146,0.34-0.259,0.575-0.348c0.235-0.081,0.49-0.121,0.785-0.121
			c0.563,0,1.081,0.089,1.551,0.292c0.032,0.656,0.057,1.036,0.057,1.093c0.008,0.186,0.081,0.292,0.243,0.292h0.287v-1.684
			c-0.741-0.324-1.441-0.478-2.138-0.478c-0.377,0-0.717,0.057-1.02,0.17c-0.308,0.113-0.547,0.259-0.749,0.462
			c-0.198,0.202-0.356,0.421-0.466,0.672c-0.101,0.267-0.15,0.526-0.15,0.818c0,0.348,0.057,0.648,0.174,0.875
			c0.117,0.243,0.287,0.421,0.478,0.591c0.194,0.17,0.405,0.283,0.656,0.381c0.239,0.105,0.514,0.202,0.765,0.283
			c0.263,0.089,0.502,0.154,0.761,0.243c0.247,0.081,0.466,0.194,0.66,0.324c0.207,0.138,0.356,0.283,0.474,0.47
			c0.113,0.194,0.17,0.429,0.17,0.721c0,0.267-0.049,0.526-0.138,0.761c-0.093,0.235-0.219,0.437-0.397,0.607
			c-0.17,0.178-0.397,0.324-0.656,0.405c-0.255,0.113-0.547,0.146-0.875,0.146c-0.652,0-1.198-0.113-1.64-0.316
			c-0.016-0.17-0.016-0.34-0.028-0.534c-0.004-0.178-0.004-0.332-0.024-0.453c-0.008-0.121-0.008-0.211-0.008-0.211
			c-0.012-0.194-0.085-0.283-0.255-0.283h-0.283v1.53v0.154v0.162c0.713,0.3,1.449,0.453,2.219,0.453
			c0.425,0,0.798-0.073,1.121-0.202c0.32-0.13,0.607-0.316,0.826-0.526c0.231-0.235,0.409-0.494,0.526-0.802
			c0.117-0.308,0.178-0.632,0.178-0.98C1064.264,1031.753,1064.203,1031.478,1064.086,1031.251z M1072.139,1026.263h-0.992v0.219
			c0,0.121,0.077,0.194,0.227,0.21h0.121c0.057,0,0.138,0.008,0.255,0.008c0.117,0,0.243,0.016,0.389,0.016v7.328
			c-0.146,0-0.271,0.008-0.389,0.008c-0.117,0-0.198,0.016-0.255,0.016h-0.121c-0.15,0.008-0.215,0.081-0.215,0.203v0.235h0.98
			h4.943v-0.502v-1.207h-0.292c-0.162,0-0.231,0.105-0.247,0.292c0,0.024-0.016,0.065-0.016,0.146s0,0.202,0,0.372
			c-0.02,0.178-0.028,0.292-0.028,0.397h-3.765v-3.441h3.283v-0.47h-3.283v-3.344h3.765c0.028,0.518,0.044,0.826,0.044,0.939
			c0.016,0.178,0.085,0.267,0.247,0.267h0.292v-1.206v-0.486H1072.139z M1090.892,1034.069h-0.073h-0.154
			c-0.069,0-0.142-0.016-0.214-0.016l-2.478-3.117c-0.061-0.097-0.158-0.17-0.243-0.235c0.356-0.032,0.676-0.121,0.968-0.243
			s0.526-0.292,0.741-0.486c0.194-0.202,0.364-0.437,0.462-0.688c0.109-0.259,0.166-0.543,0.166-0.866
			c0-0.704-0.231-1.231-0.696-1.611c-0.47-0.364-1.182-0.542-2.138-0.542h-2.008h-0.98v0.219c0,0.121,0.077,0.194,0.227,0.21h0.113
			c0.057,0,0.142,0.008,0.259,0.008c0.113,0,0.243,0.016,0.381,0.016v7.328c-0.138,0-0.267,0.008-0.381,0.008
			c-0.117,0-0.202,0.016-0.259,0.016h-0.113c-0.15,0.008-0.239,0.081-0.239,0.203v0.235h0.992h0.591h0.984v-0.235
			c0-0.121-0.081-0.194-0.231-0.203h-0.117c-0.057,0-0.142-0.016-0.255-0.016c-0.117,0-0.235-0.008-0.381-0.008v-3.263h0.984
			c0.166,0,0.287,0,0.352,0.041c0.069,0.041,0.142,0.105,0.211,0.186l2.648,3.352c0.049,0.057,0.081,0.089,0.126,0.113
			c0.053,0.016,0.109,0.032,0.162,0.032h0.061h0.462h0.296v-0.235C1091.115,1034.15,1091.05,1034.077,1090.892,1034.069z
			 M1087.151,1030.336h-1.336v-3.611h1.417c0.737,0,1.292,0.154,1.676,0.429c0.397,0.275,0.575,0.729,0.575,1.312
			c0,0.292-0.045,0.534-0.15,0.769c-0.109,0.235-0.271,0.413-0.47,0.583c-0.198,0.162-0.433,0.3-0.729,0.38
			C1087.843,1030.288,1087.507,1030.336,1087.151,1030.336z M1104.908,1026.263h-0.466h-0.024h-1.223v0.219
			c0,0.121,0.065,0.194,0.223,0.21h0.101c0.049,0,0.109,0.008,0.223,0.008c0.101,0,0.219,0.016,0.348,0.016l-2.672,6.535
			c-0.069,0.186-0.125,0.364-0.182,0.583c-0.036-0.203-0.093-0.397-0.17-0.583l-2.688-6.535c0.117,0,0.255-0.016,0.356-0.016
			c0.105,0,0.178-0.008,0.227-0.008h0.089c0.154-0.016,0.235-0.089,0.235-0.21v-0.219h-1.247h-0.474h-0.494v0.219
			c0,0.121,0.081,0.194,0.231,0.21h0.081c0.032,0,0.097,0.008,0.15,0.008c0.057,0,0.146,0.016,0.227,0.016l3.215,7.79h0.526
			l3.219-7.79c0.077,0,0.162-0.016,0.219-0.016c0.061,0,0.121-0.008,0.154-0.008h0.073c0.154-0.016,0.235-0.089,0.235-0.21v-0.219
			H1104.908z M1114.451,1026.692c0.15-0.016,0.227-0.089,0.227-0.21v-0.235h-0.988h-0.591h-0.988v0.235
			c0,0.121,0.073,0.194,0.227,0.21h0.121c0.057,0,0.13,0.008,0.251,0.008c0.113,0,0.251,0.016,0.389,0.016v7.328
			c-0.138,0-0.275,0.008-0.389,0.008c-0.121,0-0.194,0.016-0.251,0.016h-0.121c-0.154,0.008-0.227,0.081-0.227,0.203v0.235h0.988
			h0.591h0.988v-0.235c0-0.121-0.077-0.194-0.227-0.203h-0.113c-0.061,0-0.146-0.016-0.263-0.016c-0.113,0-0.239-0.008-0.385-0.008
			v-7.328c0.146,0,0.271-0.016,0.385-0.016c0.117,0,0.202-0.008,0.263-0.008H1114.451z M1128.07,1033.17
			c-0.028-0.024-0.057-0.057-0.101-0.057c-0.02,0-0.04,0-0.053,0.016c-0.016,0.016-0.045,0.04-0.061,0.049
			c-0.166,0.154-0.34,0.283-0.506,0.397c-0.158,0.121-0.332,0.202-0.534,0.283c-0.198,0.073-0.409,0.13-0.644,0.17
			c-0.227,0.04-0.49,0.057-0.781,0.057c-0.466,0-0.911-0.081-1.312-0.251c-0.413-0.162-0.753-0.413-1.044-0.721
			c-0.292-0.316-0.53-0.721-0.7-1.174c-0.162-0.453-0.243-0.972-0.243-1.563c0-0.567,0.081-1.085,0.243-1.547
			c0.178-0.445,0.409-0.834,0.717-1.166c0.296-0.308,0.668-0.559,1.085-0.729c0.417-0.178,0.875-0.259,1.372-0.259
			c0.749,0,1.429,0.113,2.045,0.389c0.028,0.745,0.073,1.182,0.073,1.271c0.012,0.186,0.077,0.283,0.243,0.283h0.283v-1.87
			c-0.984-0.397-1.866-0.575-2.644-0.575c-0.591,0-1.134,0.089-1.632,0.292c-0.49,0.211-0.939,0.486-1.292,0.875
			c-0.352,0.372-0.619,0.81-0.814,1.32c-0.203,0.51-0.292,1.093-0.292,1.717c0,0.64,0.093,1.215,0.292,1.741
			c0.178,0.526,0.445,0.955,0.785,1.328c0.344,0.372,0.753,0.656,1.231,0.85c0.474,0.194,0.992,0.308,1.567,0.308
			c0.328,0,0.648-0.024,0.935-0.089c0.283-0.057,0.555-0.138,0.794-0.243c0.235-0.105,0.462-0.227,0.66-0.373
			c0.186-0.146,0.381-0.3,0.559-0.494L1128.07,1033.17z M1135.969,1026.263h-0.996v0.219c0,0.121,0.073,0.194,0.235,0.21h0.117
			c0.061,0,0.13,0.008,0.247,0.008c0.121,0,0.255,0.016,0.397,0.016v7.328c-0.142,0-0.275,0.008-0.397,0.008
			c-0.117,0-0.186,0.016-0.247,0.016h-0.117c-0.162,0.008-0.227,0.081-0.227,0.203v0.235h0.988h4.939v-0.502v-1.207h-0.296
			c-0.158,0-0.231,0.105-0.235,0.292c0,0.024-0.016,0.065-0.016,0.146s0,0.202-0.016,0.372c-0.004,0.178-0.02,0.292-0.02,0.397
			h-3.769v-3.441h3.296v-0.47h-3.296v-3.344h3.769c0.02,0.518,0.053,0.826,0.053,0.939c0.004,0.178,0.077,0.267,0.235,0.267h0.296
			v-1.206v-0.486H1135.969z"/>
	</g>
</g>
</svg>
