<?xml version="1.0" encoding="utf-8"?>
<!-- Generator: Adobe Illustrator 16.0.0, SVG Export Plug-In . SVG Version: 6.00 Build 0)  -->
<!DOCTYPE svg PUBLIC "-//W3C//DTD SVG 1.1//EN" "http://www.w3.org/Graphics/SVG/1.1/DTD/svg11.dtd">
<svg version="1.1" xmlns="http://www.w3.org/2000/svg" xmlns:xlink="http://www.w3.org/1999/xlink" x="0px" y="0px"
	 width="553.473px" height="196.537px" viewBox="0 0 553.473 196.537" enable-background="new 0 0 553.473 196.537"
	 xml:space="preserve">
<g id="Layer_3">
</g>
<g id="Layer_5">
	<g>
		<g>
			<g>
				<g opacity="0.3">
					<ellipse opacity="0" fill="#A6A8AB" cx="93.009" cy="185.749" rx="86.915" ry="10.788"/>
					<ellipse opacity="0.0099" fill="#A5A7AA" cx="93.009" cy="185.749" rx="86.168" ry="10.696"/>
					<ellipse opacity="0.0198" fill="#A3A5A8" cx="93.009" cy="185.749" rx="85.424" ry="10.602"/>
					<ellipse opacity="0.0297" fill="#A2A4A7" cx="93.009" cy="185.749" rx="84.678" ry="10.51"/>
					<ellipse opacity="0.0396" fill="#A1A3A5" cx="93.009" cy="185.749" rx="83.933" ry="10.418"/>
					<ellipse opacity="0.0495" fill="#A0A1A4" cx="93.009" cy="185.749" rx="83.188" ry="10.325"/>
					<ellipse opacity="0.0594" fill="#9EA0A3" cx="93.01" cy="185.749" rx="82.442" ry="10.233"/>
					<ellipse opacity="0.0693" fill="#9D9FA1" cx="93.009" cy="185.749" rx="81.697" ry="10.141"/>
					<ellipse opacity="0.0792" fill="#9C9DA0" cx="93.009" cy="185.749" rx="80.952" ry="10.047"/>
					<ellipse opacity="0.0891" fill="#9A9C9F" cx="93.009" cy="185.749" rx="80.207" ry="9.956"/>
					<ellipse opacity="0.099" fill="#999A9D" cx="93.009" cy="185.749" rx="79.461" ry="9.862"/>
					<ellipse opacity="0.1089" fill="#98999C" cx="93.009" cy="185.749" rx="78.716" ry="9.77"/>
					<ellipse opacity="0.1188" fill="#96989A" cx="93.009" cy="185.749" rx="77.971" ry="9.678"/>
					<ellipse opacity="0.1287" fill="#959699" cx="93.009" cy="185.749" rx="77.225" ry="9.584"/>
					<ellipse opacity="0.1386" fill="#949598" cx="93.009" cy="185.749" rx="76.48" ry="9.493"/>
					<ellipse opacity="0.1485" fill="#939496" cx="93.009" cy="185.749" rx="75.735" ry="9.401"/>
					<ellipse opacity="0.1584" fill="#919295" cx="93.009" cy="185.749" rx="74.99" ry="9.307"/>
					<ellipse opacity="0.1683" fill="#909194" cx="93.009" cy="185.749" rx="74.245" ry="9.215"/>
					<ellipse opacity="0.1782" fill="#8F9092" cx="93.01" cy="185.749" rx="73.499" ry="9.124"/>
					<ellipse opacity="0.1881" fill="#8D8E91" cx="93.009" cy="185.749" rx="72.754" ry="9.03"/>
					<ellipse opacity="0.198" fill="#8C8D8F" cx="93.009" cy="185.749" rx="72.008" ry="8.938"/>
					<ellipse opacity="0.2079" fill="#8B8C8E" cx="93.009" cy="185.749" rx="71.263" ry="8.844"/>
					<ellipse opacity="0.2178" fill="#898A8D" cx="93.009" cy="185.749" rx="70.518" ry="8.752"/>
					<ellipse opacity="0.2277" fill="#88898B" cx="93.009" cy="185.749" rx="69.773" ry="8.661"/>
					<ellipse opacity="0.2376" fill="#87878A" cx="93.009" cy="185.749" rx="69.028" ry="8.567"/>
					<ellipse opacity="0.2475" fill="#868689" cx="93.009" cy="185.749" rx="68.282" ry="8.475"/>
					<ellipse opacity="0.2574" fill="#848587" cx="93.009" cy="185.749" rx="67.537" ry="8.383"/>
					<ellipse opacity="0.2673" fill="#838386" cx="93.009" cy="185.749" rx="66.792" ry="8.29"/>
					<ellipse opacity="0.2772" fill="#828284" cx="93.009" cy="185.749" rx="66.046" ry="8.198"/>
					<ellipse opacity="0.2871" fill="#808183" cx="93.009" cy="185.749" rx="65.301" ry="8.106"/>
					<ellipse opacity="0.297" fill="#7F7F82" cx="93.009" cy="185.749" rx="64.555" ry="8.012"/>
					<ellipse opacity="0.3069" fill="#7E7E80" cx="93.009" cy="185.749" rx="63.811" ry="7.92"/>
					<ellipse opacity="0.3168" fill="#7C7D7F" cx="93.009" cy="185.749" rx="63.065" ry="7.827"/>
					<ellipse opacity="0.3267" fill="#7B7B7E" cx="93.009" cy="185.749" rx="62.32" ry="7.735"/>
					<ellipse opacity="0.3366" fill="#7A7A7C" cx="93.009" cy="185.749" rx="61.575" ry="7.643"/>
					<ellipse opacity="0.3465" fill="#79797B" cx="93.009" cy="185.749" rx="60.83" ry="7.549"/>
					<ellipse opacity="0.3564" fill="#777779" cx="93.009" cy="185.749" rx="60.084" ry="7.458"/>
					<ellipse opacity="0.3663" fill="#767678" cx="93.009" cy="185.749" rx="59.338" ry="7.366"/>
					<ellipse opacity="0.3762" fill="#757477" cx="93.009" cy="185.749" rx="58.594" ry="7.272"/>
					<ellipse opacity="0.3861" fill="#737375" cx="93.009" cy="185.749" rx="57.848" ry="7.18"/>
					<ellipse opacity="0.396" fill="#727274" cx="93.009" cy="185.749" rx="57.103" ry="7.088"/>
					<ellipse opacity="0.4059" fill="#717073" cx="93.009" cy="185.749" rx="56.358" ry="6.995"/>
					<ellipse opacity="0.4158" fill="#706F71" cx="93.01" cy="185.749" rx="55.612" ry="6.903"/>
					<ellipse opacity="0.4257" fill="#6E6E70" cx="93.009" cy="185.749" rx="54.867" ry="6.809"/>
					<ellipse opacity="0.4356" fill="#6D6C6E" cx="93.009" cy="185.749" rx="54.122" ry="6.717"/>
					<ellipse opacity="0.4455" fill="#6C6B6D" cx="93.009" cy="185.749" rx="53.376" ry="6.625"/>
					<ellipse opacity="0.4554" fill="#6A6A6C" cx="93.009" cy="185.749" rx="52.631" ry="6.532"/>
					<ellipse opacity="0.4653" fill="#69686A" cx="93.009" cy="185.749" rx="51.886" ry="6.44"/>
					<ellipse opacity="0.4752" fill="#686769" cx="93.009" cy="185.749" rx="51.141" ry="6.347"/>
					<ellipse opacity="0.4851" fill="#666668" cx="93.009" cy="185.749" rx="50.395" ry="6.254"/>
					<ellipse opacity="0.495" fill="#656466" cx="93.009" cy="185.749" rx="49.65" ry="6.163"/>
					<ellipse opacity="0.5049" fill="#646365" cx="93.009" cy="185.749" rx="48.905" ry="6.07"/>
					<ellipse opacity="0.5149" fill="#636163" cx="93.009" cy="185.749" rx="48.16" ry="5.977"/>
					<ellipse opacity="0.5248" fill="#616062" cx="93.009" cy="185.749" rx="47.415" ry="5.885"/>
					<ellipse opacity="0.5347" fill="#605F61" cx="93.009" cy="185.749" rx="46.668" ry="5.792"/>
					<ellipse opacity="0.5446" fill="#5F5D5F" cx="93.009" cy="185.749" rx="45.924" ry="5.7"/>
					<ellipse opacity="0.5545" fill="#5D5C5E" cx="93.009" cy="185.749" rx="45.178" ry="5.608"/>
					<ellipse opacity="0.5644" fill="#5C5B5D" cx="93.009" cy="185.749" rx="44.433" ry="5.514"/>
					<ellipse opacity="0.5743" fill="#5B595B" cx="93.009" cy="185.749" rx="43.688" ry="5.422"/>
					<ellipse opacity="0.5842" fill="#59585A" cx="93.009" cy="185.749" rx="42.943" ry="5.33"/>
					<ellipse opacity="0.5941" fill="#585758" cx="93.009" cy="185.749" rx="42.198" ry="5.237"/>
					<ellipse opacity="0.604" fill="#575557" cx="93.009" cy="185.749" rx="41.452" ry="5.145"/>
					<ellipse opacity="0.6139" fill="#565456" cx="93.009" cy="185.749" rx="40.707" ry="5.052"/>
					<ellipse opacity="0.6238" fill="#545354" cx="93.009" cy="185.749" rx="39.961" ry="4.959"/>
					<ellipse opacity="0.6337" fill="#535153" cx="93.009" cy="185.749" rx="39.216" ry="4.868"/>
					<ellipse opacity="0.6436" fill="#525052" cx="93.009" cy="185.749" rx="38.471" ry="4.775"/>
					<ellipse opacity="0.6535" fill="#504E50" cx="93.009" cy="185.749" rx="37.725" ry="4.682"/>
					<ellipse opacity="0.6634" fill="#4F4D4F" cx="93.009" cy="185.749" rx="36.98" ry="4.59"/>
					<ellipse opacity="0.6733" fill="#4E4C4D" cx="93.009" cy="185.749" rx="36.235" ry="4.497"/>
					<ellipse opacity="0.6832" fill="#4D4A4C" cx="93.009" cy="185.749" rx="35.49" ry="4.405"/>
					<ellipse opacity="0.6931" fill="#4B494B" cx="93.009" cy="185.749" rx="34.745" ry="4.312"/>
					<ellipse opacity="0.703" fill="#4A4849" cx="93.009" cy="185.749" rx="34" ry="4.219"/>
					<ellipse opacity="0.7129" fill="#494648" cx="93.009" cy="185.749" rx="33.254" ry="4.127"/>
					<ellipse opacity="0.7228" fill="#474547" cx="93.009" cy="185.749" rx="32.508" ry="4.035"/>
					<ellipse opacity="0.7327" fill="#464445" cx="93.009" cy="185.749" rx="31.764" ry="3.942"/>
					<ellipse opacity="0.7426" fill="#454244" cx="93.009" cy="185.749" rx="31.018" ry="3.85"/>
					<ellipse opacity="0.7525" fill="#434142" cx="93.009" cy="185.749" rx="30.273" ry="3.757"/>
					<ellipse opacity="0.7624" fill="#424041" cx="93.009" cy="185.749" rx="29.528" ry="3.665"/>
					<ellipse opacity="0.7723" fill="#413E40" cx="93.01" cy="185.749" rx="28.782" ry="3.572"/>
					<ellipse opacity="0.7822" fill="#403D3E" cx="93.009" cy="185.749" rx="28.037" ry="3.479"/>
					<ellipse opacity="0.7921" fill="#3E3B3D" cx="93.009" cy="185.749" rx="27.292" ry="3.387"/>
					<ellipse opacity="0.802" fill="#3D3A3C" cx="93.009" cy="185.749" rx="26.546" ry="3.295"/>
					<ellipse opacity="0.8119" fill="#3C393A" cx="93.009" cy="185.749" rx="25.801" ry="3.202"/>
					<ellipse opacity="0.8218" fill="#3A3739" cx="93.009" cy="185.749" rx="25.056" ry="3.11"/>
					<ellipse opacity="0.8317" fill="#393637" cx="93.009" cy="185.749" rx="24.311" ry="3.017"/>
					<ellipse opacity="0.8416" fill="#383536" cx="93.009" cy="185.749" rx="23.565" ry="2.925"/>
					<ellipse opacity="0.8515" fill="#363335" cx="93.009" cy="185.749" rx="22.82" ry="2.832"/>
					<ellipse opacity="0.8614" fill="#353233" cx="93.009" cy="185.749" rx="22.075" ry="2.74"/>
					<ellipse opacity="0.8713" fill="#343132" cx="93.009" cy="185.749" rx="21.33" ry="2.647"/>
					<ellipse opacity="0.8812" fill="#332F31" cx="93.009" cy="185.749" rx="20.584" ry="2.555"/>
					<ellipse opacity="0.8911" fill="#312E2F" cx="93.009" cy="185.749" rx="19.838" ry="2.462"/>
					<ellipse opacity="0.901" fill="#302D2E" cx="93.009" cy="185.749" rx="19.094" ry="2.37"/>
					<ellipse opacity="0.9109" fill="#2F2B2C" cx="93.009" cy="185.749" rx="18.348" ry="2.277"/>
					<ellipse opacity="0.9208" fill="#2D2A2B" cx="93.009" cy="185.749" rx="17.603" ry="2.185"/>
					<ellipse opacity="0.9307" fill="#2C282A" cx="93.009" cy="185.749" rx="16.858" ry="2.092"/>
					<ellipse opacity="0.9406" fill="#2B2728" cx="93.009" cy="185.749" rx="16.113" ry="2"/>
					<ellipse opacity="0.9505" fill="#292627" cx="93.009" cy="185.749" rx="15.367" ry="1.907"/>
					<ellipse opacity="0.9604" fill="#282426" cx="93.009" cy="185.749" rx="14.622" ry="1.814"/>
					<ellipse opacity="0.9703" fill="#272324" cx="93.009" cy="185.749" rx="13.877" ry="1.722"/>
					<ellipse opacity="0.9802" fill="#262223" cx="93.009" cy="185.749" rx="13.131" ry="1.629"/>
					<ellipse opacity="0.9901" fill="#242021" cx="93.009" cy="185.749" rx="12.386" ry="1.537"/>
					<ellipse fill="#231F20" cx="93.009" cy="185.749" rx="11.641" ry="1.444"/>
				</g>
				<g>
					<g>
						<linearGradient id="SVGID_1_" gradientUnits="userSpaceOnUse" x1="295.9668" y1="-69.8398" x2="70.8129" y2="105.605">
							<stop  offset="0" style="stop-color:#FAAF40"/>
							<stop  offset="0.5222" style="stop-color:#F16522"/>
							<stop  offset="1" style="stop-color:#E23D21"/>
						</linearGradient>
						<path fill="url(#SVGID_1_)" d="M56.112,37.857h0.002c3.777,0,7.399,1.503,10.067,4.177l40.115,41.739
							c1.129,1.245,3.087,1.245,4.215,0l37.84-39.383c-14.13-17.807-35.944-29.241-60.442-29.241
							c-42.602,0-77.137,34.535-77.137,77.137c0,42.601,34.535,77.136,77.137,77.136c20.021,0,38.257-7.629,51.968-20.136V95.821
							c0-1.268-1.534-1.902-2.43-1.005l-24.766,28.458c-2.268,2.606-6.314,2.606-8.582,0L79.333,94.816
							c-0.895-0.897-2.429-0.263-2.429,1.005v55.173c-15.449,0-27.974-10.291-27.974-25.74V45.039
							C48.931,41.073,52.146,37.857,56.112,37.857z"/>
						<linearGradient id="SVGID_2_" gradientUnits="userSpaceOnUse" x1="342.5264" y1="-10.0889" x2="117.3713" y2="165.3569">
							<stop  offset="0" style="stop-color:#FAAF40"/>
							<stop  offset="0.5222" style="stop-color:#F16522"/>
							<stop  offset="1" style="stop-color:#E23D21"/>
						</linearGradient>
						<path fill="url(#SVGID_2_)" d="M178.995,110.973h-18.243c-2.402,0-4.351,1.948-4.351,4.35v18.243
							c0,2.403,1.948,4.351,4.351,4.351h18.243c2.403,0,4.351-1.948,4.351-4.351v-18.243
							C183.346,112.92,181.398,110.973,178.995,110.973z"/>
						<linearGradient id="SVGID_3_" gradientUnits="userSpaceOnUse" x1="321.0791" y1="-38.0449" x2="95.9304" y2="137.3959">
							<stop  offset="0" style="stop-color:#FAAF40"/>
							<stop  offset="0.5222" style="stop-color:#F16522"/>
							<stop  offset="1" style="stop-color:#E23D21"/>
						</linearGradient>
						<path fill="url(#SVGID_3_)" d="M165.15,88.788h12.557c2.179,0,3.944-1.766,3.944-3.944V72.286
							c0-2.178-1.766-3.944-3.944-3.944H165.15c-2.179,0-3.945,1.766-3.945,3.944v12.558
							C161.205,87.021,162.972,88.788,165.15,88.788z"/>
						<linearGradient id="SVGID_4_" gradientUnits="userSpaceOnUse" x1="337.5625" y1="-14.9067" x2="112.4061" y2="160.5401">
							<stop  offset="0" style="stop-color:#FAAF40"/>
							<stop  offset="0.5222" style="stop-color:#F16522"/>
							<stop  offset="1" style="stop-color:#E23D21"/>
						</linearGradient>
						<path fill="url(#SVGID_4_)" d="M196.465,91.121h-10.341c-1.534,0-2.778,1.243-2.778,2.778v10.342
							c0,1.534,1.244,2.778,2.778,2.778h10.341c1.535,0,2.778-1.244,2.778-2.778V93.898C199.243,92.364,198,91.121,196.465,91.121z"
							/>
						<linearGradient id="SVGID_5_" gradientUnits="userSpaceOnUse" x1="317.1143" y1="-42.6997" x2="91.9601" y2="132.7453">
							<stop  offset="0" style="stop-color:#FAAF40"/>
							<stop  offset="0.5222" style="stop-color:#F16522"/>
							<stop  offset="1" style="stop-color:#E23D21"/>
						</linearGradient>
						<path fill="url(#SVGID_5_)" d="M183.659,64.256h7.388c1.187,0,2.149-0.962,2.149-2.15v-7.387c0-1.188-0.963-2.15-2.149-2.15
							h-7.388c-1.188,0-2.149,0.962-2.149,2.15v7.387C181.51,63.294,182.472,64.256,183.659,64.256z"/>
					</g>
					<g>
						<linearGradient id="SVGID_6_" gradientUnits="userSpaceOnUse" x1="201.4048" y1="6.292" x2="96.1391" y2="181.0853">
							<stop  offset="0" style="stop-color:#FAAF40"/>
							<stop  offset="0.5222" style="stop-color:#F16522"/>
							<stop  offset="1" style="stop-color:#E23D21"/>
						</linearGradient>
						<path fill="url(#SVGID_6_)" d="M108.391,128.799c-0.261,0-0.512-0.061-0.77-0.083c4.049,10.027,6.701,20.716,7.703,31.829
							c7.603-3.054,14.703-7.368,20.982-12.858v-46.122l-20.933,24.055C113.615,127.641,111.068,128.799,108.391,128.799z"/>
						<linearGradient id="SVGID_7_" gradientUnits="userSpaceOnUse" x1="134.4277" y1="-34.0449" x2="29.1613" y2="140.7495">
							<stop  offset="0" style="stop-color:#FAAF40"/>
							<stop  offset="0.5222" style="stop-color:#F16522"/>
							<stop  offset="1" style="stop-color:#E23D21"/>
						</linearGradient>
						<path fill="url(#SVGID_7_)" d="M87.909,18.72c-28.359,0-53.006,16.141-65.28,39.708c7.874,1.511,15.487,3.831,22.733,6.907
							V45.041c0-5.929,4.822-10.755,10.753-10.755c4.688,0,9.279,1.905,12.64,5.277l39.648,41.251l35.168-36.603
							C129.556,27.971,109.443,18.72,87.909,18.72z"/>
						<linearGradient id="SVGID_8_" gradientUnits="userSpaceOnUse" x1="230.4844" y1="23.8042" x2="125.2184" y2="198.5979">
							<stop  offset="0" style="stop-color:#FAAF40"/>
							<stop  offset="0.5222" style="stop-color:#F16522"/>
							<stop  offset="1" style="stop-color:#E23D21"/>
						</linearGradient>
						<path fill="url(#SVGID_8_)" d="M178.995,113.311h-18.243c-1.107,0-2.01,0.906-2.01,2.014v18.241
							c0,1.108,0.902,2.014,2.01,2.014h18.243c1.108,0,2.011-0.906,2.011-2.014v-18.241
							C181.006,114.217,180.104,113.311,178.995,113.311z"/>
						<linearGradient id="SVGID_9_" gradientUnits="userSpaceOnUse" x1="211.0762" y1="12.7339" x2="105.8098" y2="187.5283">
							<stop  offset="0" style="stop-color:#FAAF40"/>
							<stop  offset="0.5222" style="stop-color:#F16522"/>
							<stop  offset="1" style="stop-color:#E23D21"/>
						</linearGradient>
						<path fill="url(#SVGID_9_)" d="M165.149,86.451h12.559c0.886,0,1.604-0.724,1.604-1.607V72.288
							c0-0.883-0.719-1.607-1.604-1.607h-12.559c-0.885,0-1.604,0.724-1.604,1.607v12.557
							C163.545,85.728,164.265,86.451,165.149,86.451z"/>
						<linearGradient id="SVGID_10_" gradientUnits="userSpaceOnUse" x1="234.3013" y1="27.6572" x2="129.0343" y2="202.4526">
							<stop  offset="0" style="stop-color:#FAAF40"/>
							<stop  offset="0.5222" style="stop-color:#F16522"/>
							<stop  offset="1" style="stop-color:#E23D21"/>
						</linearGradient>
						<path fill="url(#SVGID_10_)" d="M196.466,93.457h-10.341c-0.242,0-0.44,0.198-0.44,0.442v10.341
							c0,0.244,0.198,0.441,0.44,0.441h10.341c0.241,0,0.438-0.198,0.438-0.441V93.898
							C196.903,93.654,196.707,93.457,196.466,93.457z"/>
						<linearGradient id="SVGID_11_" gradientUnits="userSpaceOnUse" x1="214.2139" y1="13.564" x2="108.2471" y2="189.5213">
							<stop  offset="0" style="stop-color:#FAAF40"/>
							<stop  offset="0.5222" style="stop-color:#F16522"/>
							<stop  offset="1" style="stop-color:#E23D21"/>
						</linearGradient>
						<rect x="183.659" y="54.719" fill="url(#SVGID_11_)" width="7.204" height="7.2"/>
					</g>
				</g>
			</g>
		</g>
		<g>
			<linearGradient id="SVGID_12_" gradientUnits="userSpaceOnUse" x1="221.5288" y1="105.9644" x2="271.2607" y2="105.9644">
				<stop  offset="0" style="stop-color:#FAAF40"/>
				<stop  offset="0.5222" style="stop-color:#F16522"/>
				<stop  offset="1" style="stop-color:#E23D21"/>
			</linearGradient>
			<path fill="url(#SVGID_12_)" d="M221.529,80.561c0-1.156,0.413-2.147,1.239-2.974s1.817-1.239,2.974-1.239
				s2.148,0.413,2.974,1.239c0.826,0.826,1.239,1.817,1.239,2.974v13.548h32.879V80.561c0-1.156,0.413-2.147,1.239-2.974
				s1.817-1.239,2.974-1.239c1.157,0,2.148,0.413,2.974,1.239s1.239,1.817,1.239,2.974v50.806c0,1.156-0.413,2.147-1.239,2.974
				s-1.817,1.239-2.974,1.239c-1.156,0-2.147-0.413-2.974-1.239s-1.239-1.817-1.239-2.974v-28.831h-32.879v28.831
				c0,1.156-0.413,2.147-1.239,2.974c-0.826,0.826-1.817,1.239-2.974,1.239s-2.148-0.413-2.974-1.239s-1.239-1.817-1.239-2.974
				V80.561z"/>
			<linearGradient id="SVGID_13_" gradientUnits="userSpaceOnUse" x1="279.3149" y1="114.9688" x2="320.5381" y2="114.9688">
				<stop  offset="0" style="stop-color:#FAAF40"/>
				<stop  offset="0.5222" style="stop-color:#F16522"/>
				<stop  offset="1" style="stop-color:#E23D21"/>
			</linearGradient>
			<path fill="url(#SVGID_13_)" d="M314.508,100.388c4.02,4.021,6.03,8.881,6.03,14.581s-2.011,10.561-6.03,14.581
				c-4.021,4.021-8.881,6.03-14.581,6.03s-10.561-2.01-14.581-6.03c-4.021-4.021-6.031-8.881-6.031-14.581s2.01-10.561,6.031-14.581
				c4.02-4.02,8.881-6.03,14.581-6.03S310.486,96.368,314.508,100.388z M299.927,102.701c-3.388,0-6.278,1.191-8.674,3.572
				c-2.396,2.383-3.594,5.267-3.594,8.654c0,3.387,1.198,6.278,3.594,8.674s5.287,3.594,8.674,3.594
				c3.387,0,6.271-1.198,8.653-3.594c2.381-2.396,3.572-5.287,3.572-8.674c0-3.388-1.191-6.271-3.572-8.654
				C306.197,103.893,303.313,102.701,299.927,102.701z"/>
			<linearGradient id="SVGID_14_" gradientUnits="userSpaceOnUse" x1="322.7266" y1="108.8555" x2="348.915" y2="108.8555">
				<stop  offset="0" style="stop-color:#FAAF40"/>
				<stop  offset="0.5222" style="stop-color:#F16522"/>
				<stop  offset="1" style="stop-color:#E23D21"/>
			</linearGradient>
			<path fill="url(#SVGID_14_)" d="M331.69,94.192v-7.849c0-1.156,0.413-2.147,1.239-2.974s1.817-1.239,2.975-1.239
				c1.156,0,2.146,0.413,2.973,1.239s1.24,1.817,1.24,2.974v7.849h4.584c1.157,0,2.148,0.413,2.975,1.239
				c0.826,0.825,1.239,1.817,1.239,2.974s-0.413,2.147-1.239,2.974s-1.817,1.239-2.975,1.239h-4.584v28.749
				c0,1.156-0.414,2.147-1.24,2.974s-1.816,1.239-2.973,1.239c-1.157,0-2.148-0.413-2.975-1.239s-1.239-1.817-1.239-2.974v-28.749
				h-4.75c-1.157,0-2.147-0.413-2.974-1.239s-1.24-1.817-1.24-2.974s0.414-2.148,1.24-2.974c0.826-0.826,1.816-1.239,2.974-1.239
				H331.69z"/>
		</g>
		<g>
			<path fill="#ADA8A8" d="M362.282,89.106c0-1.088,0.389-2.021,1.166-2.798c0.777-0.777,1.71-1.166,2.798-1.166
				s2.021,0.389,2.798,1.166c0.776,0.777,1.165,1.709,1.165,2.798v11.424c3.315-2.487,7.137-3.73,11.463-3.73
				c5.362,0,9.935,1.891,13.717,5.673c3.782,3.783,5.674,8.354,5.674,13.717s-1.892,9.935-5.674,13.717
				c-3.782,3.783-8.354,5.673-13.717,5.673s-9.935-1.891-13.717-5.673c-3.729-3.73-5.621-8.238-5.673-13.522V89.106z
				 M373.512,124.35c2.254,2.254,4.975,3.381,8.16,3.381c3.187,0,5.9-1.12,8.141-3.361c2.241-2.24,3.361-4.955,3.361-8.141
				c0-3.187-1.12-5.906-3.361-8.16c-2.24-2.254-4.954-3.381-8.141-3.381c-3.186,0-5.906,1.127-8.16,3.381
				c-1.917,1.917-3.018,4.171-3.303,6.761v1.477c0,0.233-0.013,0.466-0.039,0.699C370.326,119.856,371.439,122.304,373.512,124.35z"
				/>
			<path fill="#ADA8A8" d="M415.751,86.464c0.776,0.777,1.165,1.71,1.165,2.798v42.355c0,1.088-0.389,2.021-1.165,2.798
				c-0.777,0.777-1.71,1.166-2.798,1.166s-2.021-0.389-2.798-1.166c-0.777-0.777-1.166-1.71-1.166-2.798V89.262
				c0-1.088,0.389-2.021,1.166-2.798c0.777-0.777,1.71-1.166,2.798-1.166S414.974,85.687,415.751,86.464z"/>
			<path fill="#ADA8A8" d="M457.678,102.473c3.782,3.783,5.674,8.354,5.674,13.717s-1.892,9.935-5.674,13.717
				c-3.782,3.783-8.354,5.673-13.717,5.673s-9.935-1.891-13.717-5.673c-3.782-3.782-5.673-8.354-5.673-13.717
				s1.891-9.934,5.673-13.717c3.782-3.782,8.354-5.673,13.717-5.673S453.896,98.691,457.678,102.473z M443.961,104.649
				c-3.186,0-5.906,1.121-8.16,3.361c-2.253,2.241-3.38,4.954-3.38,8.141c0,3.186,1.127,5.906,3.38,8.16
				c2.254,2.253,4.975,3.38,8.16,3.38c3.187,0,5.9-1.127,8.141-3.38c2.241-2.254,3.361-4.974,3.361-8.16
				c0-3.187-1.12-5.9-3.361-8.141C449.861,105.77,447.147,104.649,443.961,104.649z"/>
			<path fill="#ADA8A8" d="M504.308,102.473c0,0.026,0.013,0.039,0.039,0.039c0.751,0.751,1.126,1.671,1.126,2.759
				c0,1.063-0.382,1.976-1.146,2.74c-0.765,0.764-1.678,1.146-2.74,1.146c-1.088,0-2.008-0.389-2.759-1.166h-0.038
				c-2.229-2.228-4.936-3.342-8.122-3.342c-3.186,0-5.906,1.121-8.16,3.361c-2.253,2.241-3.38,4.954-3.38,8.141
				c0,3.186,1.127,5.906,3.38,8.16c2.254,2.253,4.975,3.38,8.16,3.38c3.16,0,5.868-1.113,8.122-3.342
				c0.025-0.025,0.051-0.051,0.077-0.078c0.751-0.751,1.671-1.127,2.759-1.127s2.021,0.383,2.798,1.146
				c0.777,0.764,1.166,1.69,1.166,2.778s-0.389,2.021-1.166,2.798c-0.026,0.026-0.052,0.052-0.077,0.078
				c-3.757,3.756-8.316,5.634-13.679,5.634s-9.935-1.891-13.717-5.673c-3.782-3.782-5.673-8.354-5.673-13.717
				s1.891-9.934,5.673-13.717c3.782-3.782,8.354-5.673,13.717-5.673s9.922,1.878,13.679,5.634L504.308,102.473z"/>
			<path fill="#ADA8A8" d="M521.832,121.319v10.297c0,1.088-0.389,2.021-1.165,2.798c-0.777,0.777-1.71,1.166-2.798,1.166
				s-2.021-0.389-2.798-1.166c-0.777-0.777-1.166-1.71-1.166-2.798V89.262c0-1.088,0.389-2.021,1.166-2.798
				c0.777-0.777,1.71-1.166,2.798-1.166s2.021,0.389,2.798,1.166c0.776,0.777,1.165,1.71,1.165,2.798v21.76l16.825-13.445
				c0.7-0.569,1.516-0.855,2.448-0.855c1.088,0,2.008,0.383,2.759,1.146c0.751,0.765,1.127,1.678,1.127,2.739
				c0,1.088-0.376,2.008-1.127,2.759c-0.232,0.233-0.479,0.427-0.738,0.583l-15.154,12.124l15.698,12.551l-0.077,0.078
				c0.104,0.078,0.194,0.156,0.271,0.233c0.751,0.777,1.127,1.697,1.127,2.759c0,1.088-0.376,2.008-1.127,2.759
				c-0.751,0.752-1.671,1.127-2.759,1.127c-0.907,0-1.696-0.272-2.37-0.816l-0.039,0.039L521.832,121.319z"/>
		</g>
	</g>
</g>
</svg>
