<?xml version="1.0" encoding="utf-8"?>
<!-- Generator: Adobe Illustrator 16.0.0, SVG Export Plug-In . SVG Version: 6.00 Build 0)  -->
<!DOCTYPE svg PUBLIC "-//W3C//DTD SVG 1.1//EN" "http://www.w3.org/Graphics/SVG/1.1/DTD/svg11.dtd">
<svg version="1.1" id="Layer_1" xmlns="http://www.w3.org/2000/svg" xmlns:xlink="http://www.w3.org/1999/xlink" x="0px" y="0px"
	 width="61.333px" height="40.333px" viewBox="213.5 376.5 61.333 40.333" enable-background="new 213.5 376.5 61.333 40.333"
	 xml:space="preserve">
<rect x="50" y="140" display="none" width="512" height="512"/>
<g>
	
		<g id="f6299842-523c-4feb-81eb-09a196711832" transform="matrix(0.6743810442044567,0,0,0.6743810442044567,39.953462398187035,116.28096193885455)">
		<path fill="#F9B200" d="M343.382,395.813l-13.981,4.431l0.122,0.778l-6.049,1.753l0.663,3.545l-7.688-0.416l-9.33-4.989
			c0,0-3.126-1.244-10.302-1.118l-1.249,1.535l-14.227,1.587l0.257-2.032l-6.14-1.397l0.077-0.782l-13.343-3.64v29.794l10.691,0.976
			l0.111-1.13l5.611-0.165l0.287-2.276l1.253,0.046c0.463,2.786,3.627,2.497,3.627,2.497s0.482-0.269,1.019-0.631l0.541,0.417
			l-1.287,0.956c-0.053,1.005,0.094,2.65,1.189,3.473c1.28,0.964,3.279,0.825,3.766,0.307c0.164-0.177,0.612-0.57,1.092-1.069
			l0.589,0.452l-1.724,2.039c1.514,3.212,5.498,2.427,5.498,2.427l0.751-0.988l0.578,0.449l-0.572,0.767
			c0.757,2.004,3.038,2.045,4.096,1.946l0.8,0.617l0.135,0.052c0.821,0.313,1.696,0.463,2.575,0.434
			c1.91-0.07,3.4-0.851,4.104-1.292c0.564,0.145,1.143,0.214,1.725,0.203c1.751-0.052,3.013-0.935,3.763-1.755
			c0.318-0.339,0.598-0.712,0.834-1.115c2.371-0.316,3.816-1.263,4.586-2.314c0.358-0.484,0.613-1.037,0.746-1.625
			c1.748-0.333,2.943-1.367,3.633-2.329c0.81-1.121,1.059-2.155,1.078-2.23l0.121-0.501l-1.179-1.373l4.612-1.309l1.006,5.396
			l5.611-0.165l0.177,1.124l9.804-1.547L343.382,395.813L343.382,395.813z M277.053,422.836l-3.656,0.107l2.929-21.457l3.335,0.76
			L277.053,422.836L277.053,422.836z M320.359,425.341c-0.537,0.608-1.255,1.132-2.394,1.28l-7.568-9.294l-1.555,1.266l7.776,9.546
			c-0.072,0.31-0.208,0.602-0.399,0.854c-0.429,0.568-1.28,1.263-3.313,1.529l-5.315-6.913l-1.586,1.222l5.332,6.933
			c-0.152,0.217-0.352,0.466-0.599,0.695c-0.519,0.481-1.191,0.878-2.147,0.907c-0.423,0.006-0.845-0.049-1.251-0.168l-2.746-3.496
			l-1.576,1.237l2.244,2.856c-0.628,0.307-1.526,0.64-2.5,0.663c-0.567,0.017-1.132-0.067-1.667-0.255l-0.457-0.353l1.678-3.07
			c-0.348-3.328-3.489-2.233-3.489-2.233l-1.849,2.488l-0.563-0.432l2.061-2.717c0.692-4.86-3.949-3.724-3.949-3.724l-2.553,3.021
			l-0.67-0.516c0.319-0.605,0.453-1.219,0.154-1.746c-1.026-1.816-3.124-1.642-4.233-1.396l-0.992-0.762
			c0.167-0.791-0.804-2.601-2.769-2.87c-0.844-0.113-1.573,0.133-2.136,0.463l-2.182-0.081l1.939-15.308l12.68-1.414l-0.008,0.009
			c0,0,2.641,5.737,7.46,1.5l6.638,3.381l13.33,15.541C320.982,424.475,320.704,424.936,320.359,425.341L320.359,425.341z
			 M329.297,424.42l-3.807-20.405l3.286-0.951l4.176,21.248L329.297,424.42z"/>
	</g>
</g>
</svg>
