<?xml version="1.0" encoding="utf-8"?>
<!-- Generator: Adobe Illustrator 16.0.0, SVG Export Plug-In . SVG Version: 6.00 Build 0)  -->
<!DOCTYPE svg PUBLIC "-//W3C//DTD SVG 1.1//EN" "http://www.w3.org/Graphics/SVG/1.1/DTD/svg11.dtd">
<svg version="1.1" id="Layer_1" xmlns="http://www.w3.org/2000/svg" xmlns:xlink="http://www.w3.org/1999/xlink" x="0px" y="0px"
	 width="332px" height="91px" viewBox="0 0 332 91" enable-background="new 0 0 332 91" xml:space="preserve">
<path fill="#F7941E" d="M42.766,6.493c-17.525,0-32.308,11.739-36.918,27.782h13.845c1.233-2.509,2.961-4.826,5.188-6.949
	c4.991-4.757,10.976-7.137,17.962-7.137c6.099,0,11.48,1.872,16.146,5.616c4.665,3.739,7.569,8.513,8.711,14.313l-18.545,0.667
	c-1.599-2.027-3.626-3.044-6.067-3.044c-2.09,0-3.803,0.667-5.14,1.997c-1.337,1.334-2.008,3.014-2.008,5.041
	c0,2.063,0.71,3.793,2.13,5.186c1.418,1.396,3.188,2.093,5.307,2.093c3.102,0,5.304-1.76,6.61-5.278l18.152-0.667
	c-0.524,6.85-3.148,12.479-7.879,16.885c-4.728,4.407-10.488,6.613-17.272,6.613c-7.177,0-13.237-2.426-18.179-7.279
	c-1.354-1.327-2.515-2.74-3.499-4.236H6.687c5.381,14.714,19.504,25.211,36.079,25.211c21.213,0,38.41-17.195,38.41-38.406
	C81.176,23.689,63.979,6.493,42.766,6.493z"/>
<text transform="matrix(0.9672 0 0 1 88.0967 65.5918)" fill="#F7941E" font-family="'Bauhaus93'" font-size="63.0056">oin </text>
<text transform="matrix(1 0 0 1 182.1836 65.5918)" fill="#DDD6D4" font-family="'Neon80s'" font-size="58.5564">invest</text>
</svg>
